ISO-10303-21;
HEADER;
FILE_DESCRIPTION(('FreeCAD Model'),'2;1');
FILE_NAME('Open CASCADE Shape Model','2026-03-15T14:14:53',(''),(''),
  'Open CASCADE STEP processor 7.9','FreeCAD','Unknown');
FILE_SCHEMA(('AUTOMOTIVE_DESIGN { 1 0 10303 214 1 1 1 1 }'));
ENDSEC;
DATA;
#1 = APPLICATION_PROTOCOL_DEFINITION('international standard',
  'automotive_design',2000,#2);
#2 = APPLICATION_CONTEXT(
  'core data for automotive mechanical design processes');
#3 = SHAPE_DEFINITION_REPRESENTATION(#4,#10);
#4 = PRODUCT_DEFINITION_SHAPE('','',#5);
#5 = PRODUCT_DEFINITION('design','',#6,#9);
#6 = PRODUCT_DEFINITION_FORMATION('','',#7);
#7 = PRODUCT('Basic','Basic','',(#8));
#8 = PRODUCT_CONTEXT('',#2,'mechanical');
#9 = PRODUCT_DEFINITION_CONTEXT('part definition',#2,'design');
#10 = SHAPE_REPRESENTATION('',(#11,#15,#19,#23),#27);
#11 = AXIS2_PLACEMENT_3D('',#12,#13,#14);
#12 = CARTESIAN_POINT('',(0.,0.,0.));
#13 = DIRECTION('',(0.,0.,1.));
#14 = DIRECTION('',(1.,0.,-0.));
#15 = AXIS2_PLACEMENT_3D('',#16,#17,#18);
#16 = CARTESIAN_POINT('',(0.,0.,0.));
#17 = DIRECTION('',(0.,0.,1.));
#18 = DIRECTION('',(1.,0.,0.));
#19 = AXIS2_PLACEMENT_3D('',#20,#21,#22);
#20 = CARTESIAN_POINT('',(0.,0.,0.));
#21 = DIRECTION('',(0.,0.,1.));
#22 = DIRECTION('',(1.,0.,0.));
#23 = AXIS2_PLACEMENT_3D('',#24,#25,#26);
#24 = CARTESIAN_POINT('',(0.,0.,0.));
#25 = DIRECTION('',(0.,0.,1.));
#26 = DIRECTION('',(1.,0.,0.));
#27 = ( GEOMETRIC_REPRESENTATION_CONTEXT(3) 
GLOBAL_UNCERTAINTY_ASSIGNED_CONTEXT((#31)) GLOBAL_UNIT_ASSIGNED_CONTEXT(
(#28,#29,#30)) REPRESENTATION_CONTEXT('Context #1',
  '3D Context with UNIT and UNCERTAINTY') );
#28 = ( LENGTH_UNIT() NAMED_UNIT(*) SI_UNIT(.MILLI.,.METRE.) );
#29 = ( NAMED_UNIT(*) PLANE_ANGLE_UNIT() SI_UNIT($,.RADIAN.) );
#30 = ( NAMED_UNIT(*) SI_UNIT($,.STERADIAN.) SOLID_ANGLE_UNIT() );
#31 = UNCERTAINTY_MEASURE_WITH_UNIT(LENGTH_MEASURE(1.E-06),#28,
  'distance_accuracy_value','confusion accuracy');
#32 = PRODUCT_RELATED_PRODUCT_CATEGORY('part',$,(#7));
#33 = SHAPE_DEFINITION_REPRESENTATION(#34,#40);
#34 = PRODUCT_DEFINITION_SHAPE('','',#35);
#35 = PRODUCT_DEFINITION('design','',#36,#39);
#36 = PRODUCT_DEFINITION_FORMATION('','',#37);
#37 = PRODUCT('Shell','Shell','',(#38));
#38 = PRODUCT_CONTEXT('',#2,'mechanical');
#39 = PRODUCT_DEFINITION_CONTEXT('part definition',#2,'design');
#40 = ADVANCED_BREP_SHAPE_REPRESENTATION('',(#11,#41),#333);
#41 = MANIFOLD_SOLID_BREP('',#42);
#42 = CLOSED_SHELL('',(#43,#83,#114,#145,#167,#179,#225,#256,#280,#304,
    #321));
#43 = ADVANCED_FACE('',(#44),#78,.F.);
#44 = FACE_BOUND('',#45,.F.);
#45 = EDGE_LOOP('',(#46,#56,#64,#72));
#46 = ORIENTED_EDGE('',*,*,#47,.T.);
#47 = EDGE_CURVE('',#48,#50,#52,.T.);
#48 = VERTEX_POINT('',#49);
#49 = CARTESIAN_POINT('',(9.,-9.,0.));
#50 = VERTEX_POINT('',#51);
#51 = CARTESIAN_POINT('',(7.,-7.,10.));
#52 = LINE('',#53,#54);
#53 = CARTESIAN_POINT('',(7.074074074074,-7.074074074074,9.62962962963)
  );
#54 = VECTOR('',#55,1.);
#55 = DIRECTION('',(-0.19245008973,0.19245008973,0.962250448649));
#56 = ORIENTED_EDGE('',*,*,#57,.T.);
#57 = EDGE_CURVE('',#50,#58,#60,.T.);
#58 = VERTEX_POINT('',#59);
#59 = CARTESIAN_POINT('',(-7.,-7.,10.));
#60 = LINE('',#61,#62);
#61 = CARTESIAN_POINT('',(9.,-7.,10.));
#62 = VECTOR('',#63,1.);
#63 = DIRECTION('',(-1.,-0.,-0.));
#64 = ORIENTED_EDGE('',*,*,#65,.F.);
#65 = EDGE_CURVE('',#66,#58,#68,.T.);
#66 = VERTEX_POINT('',#67);
#67 = CARTESIAN_POINT('',(-9.,-9.,0.));
#68 = LINE('',#69,#70);
#69 = CARTESIAN_POINT('',(-6.740740740741,-6.740740740741,
    11.296296296296));
#70 = VECTOR('',#71,1.);
#71 = DIRECTION('',(0.19245008973,0.19245008973,0.962250448649));
#72 = ORIENTED_EDGE('',*,*,#73,.T.);
#73 = EDGE_CURVE('',#66,#48,#74,.T.);
#74 = LINE('',#75,#76);
#75 = CARTESIAN_POINT('',(-9.,-9.,0.));
#76 = VECTOR('',#77,1.);
#77 = DIRECTION('',(1.,0.,0.));
#78 = PLANE('',#79);
#79 = AXIS2_PLACEMENT_3D('',#80,#81,#82);
#80 = CARTESIAN_POINT('',(9.,-7.,10.));
#81 = DIRECTION('',(0.,-0.980580675691,0.196116135138));
#82 = DIRECTION('',(0.,-0.196116135138,-0.980580675691));
#83 = ADVANCED_FACE('',(#84),#109,.T.);
#84 = FACE_BOUND('',#85,.T.);
#85 = EDGE_LOOP('',(#86,#87,#95,#103));
#86 = ORIENTED_EDGE('',*,*,#47,.T.);
#87 = ORIENTED_EDGE('',*,*,#88,.T.);
#88 = EDGE_CURVE('',#50,#89,#91,.T.);
#89 = VERTEX_POINT('',#90);
#90 = CARTESIAN_POINT('',(7.,7.,10.));
#91 = LINE('',#92,#93);
#92 = CARTESIAN_POINT('',(7.,-9.,10.));
#93 = VECTOR('',#94,1.);
#94 = DIRECTION('',(0.,1.,-2.2E-16));
#95 = ORIENTED_EDGE('',*,*,#96,.F.);
#96 = EDGE_CURVE('',#97,#89,#99,.T.);
#97 = VERTEX_POINT('',#98);
#98 = CARTESIAN_POINT('',(9.,9.,-2.E-15));
#99 = LINE('',#100,#101);
#100 = CARTESIAN_POINT('',(6.740740740741,6.740740740741,11.296296296296
    ));
#101 = VECTOR('',#102,1.);
#102 = DIRECTION('',(-0.19245008973,-0.19245008973,0.962250448649));
#103 = ORIENTED_EDGE('',*,*,#104,.F.);
#104 = EDGE_CURVE('',#48,#97,#105,.T.);
#105 = LINE('',#106,#107);
#106 = CARTESIAN_POINT('',(9.,-9.,0.));
#107 = VECTOR('',#108,1.);
#108 = DIRECTION('',(0.,1.,0.));
#109 = PLANE('',#110);
#110 = AXIS2_PLACEMENT_3D('',#111,#112,#113);
#111 = CARTESIAN_POINT('',(7.,-9.,10.));
#112 = DIRECTION('',(-0.980580675691,-4.E-17,-0.196116135138));
#113 = DIRECTION('',(0.196116135138,-2.2E-16,-0.980580675691));
#114 = ADVANCED_FACE('',(#115),#140,.T.);
#115 = FACE_BOUND('',#116,.T.);
#116 = EDGE_LOOP('',(#117,#118,#126,#134));
#117 = ORIENTED_EDGE('',*,*,#96,.T.);
#118 = ORIENTED_EDGE('',*,*,#119,.T.);
#119 = EDGE_CURVE('',#89,#120,#122,.T.);
#120 = VERTEX_POINT('',#121);
#121 = CARTESIAN_POINT('',(-7.,7.,10.));
#122 = LINE('',#123,#124);
#123 = CARTESIAN_POINT('',(9.,7.,10.));
#124 = VECTOR('',#125,1.);
#125 = DIRECTION('',(-1.,-0.,-0.));
#126 = ORIENTED_EDGE('',*,*,#127,.F.);
#127 = EDGE_CURVE('',#128,#120,#130,.T.);
#128 = VERTEX_POINT('',#129);
#129 = CARTESIAN_POINT('',(-9.,9.,-2.E-15));
#130 = LINE('',#131,#132);
#131 = CARTESIAN_POINT('',(-6.407407407407,6.407407407407,
    12.962962962963));
#132 = VECTOR('',#133,1.);
#133 = DIRECTION('',(0.19245008973,-0.19245008973,0.962250448649));
#134 = ORIENTED_EDGE('',*,*,#135,.F.);
#135 = EDGE_CURVE('',#97,#128,#136,.T.);
#136 = LINE('',#137,#138);
#137 = CARTESIAN_POINT('',(9.,9.,0.));
#138 = VECTOR('',#139,1.);
#139 = DIRECTION('',(-1.,0.,0.));
#140 = PLANE('',#141);
#141 = AXIS2_PLACEMENT_3D('',#142,#143,#144);
#142 = CARTESIAN_POINT('',(9.,7.,10.));
#143 = DIRECTION('',(0.,-0.980580675691,-0.196116135138));
#144 = DIRECTION('',(0.,0.196116135138,-0.980580675691));
#145 = ADVANCED_FACE('',(#146),#162,.F.);
#146 = FACE_BOUND('',#147,.F.);
#147 = EDGE_LOOP('',(#148,#149,#155,#156));
#148 = ORIENTED_EDGE('',*,*,#65,.T.);
#149 = ORIENTED_EDGE('',*,*,#150,.T.);
#150 = EDGE_CURVE('',#58,#120,#151,.T.);
#151 = LINE('',#152,#153);
#152 = CARTESIAN_POINT('',(-7.,-9.,10.));
#153 = VECTOR('',#154,1.);
#154 = DIRECTION('',(0.,1.,-2.2E-16));
#155 = ORIENTED_EDGE('',*,*,#127,.F.);
#156 = ORIENTED_EDGE('',*,*,#157,.T.);
#157 = EDGE_CURVE('',#128,#66,#158,.T.);
#158 = LINE('',#159,#160);
#159 = CARTESIAN_POINT('',(-9.,9.,0.));
#160 = VECTOR('',#161,1.);
#161 = DIRECTION('',(0.,-1.,0.));
#162 = PLANE('',#163);
#163 = AXIS2_PLACEMENT_3D('',#164,#165,#166);
#164 = CARTESIAN_POINT('',(-7.,-9.,10.));
#165 = DIRECTION('',(-0.980580675691,4.E-17,0.196116135138));
#166 = DIRECTION('',(-0.196116135138,-2.2E-16,-0.980580675691));
#167 = ADVANCED_FACE('',(#168),#174,.F.);
#168 = FACE_BOUND('',#169,.F.);
#169 = EDGE_LOOP('',(#170,#171,#172,#173));
#170 = ORIENTED_EDGE('',*,*,#150,.F.);
#171 = ORIENTED_EDGE('',*,*,#57,.F.);
#172 = ORIENTED_EDGE('',*,*,#88,.T.);
#173 = ORIENTED_EDGE('',*,*,#119,.T.);
#174 = PLANE('',#175);
#175 = AXIS2_PLACEMENT_3D('',#176,#177,#178);
#176 = CARTESIAN_POINT('',(0.,0.,10.));
#177 = DIRECTION('',(0.,0.,1.));
#178 = DIRECTION('',(1.,0.,0.));
#179 = ADVANCED_FACE('',(#180,#186),#220,.F.);
#180 = FACE_BOUND('',#181,.F.);
#181 = EDGE_LOOP('',(#182,#183,#184,#185));
#182 = ORIENTED_EDGE('',*,*,#73,.F.);
#183 = ORIENTED_EDGE('',*,*,#157,.F.);
#184 = ORIENTED_EDGE('',*,*,#135,.F.);
#185 = ORIENTED_EDGE('',*,*,#104,.F.);
#186 = FACE_BOUND('',#187,.F.);
#187 = EDGE_LOOP('',(#188,#198,#206,#214));
#188 = ORIENTED_EDGE('',*,*,#189,.F.);
#189 = EDGE_CURVE('',#190,#192,#194,.T.);
#190 = VERTEX_POINT('',#191);
#191 = CARTESIAN_POINT('',(-10.01980390271,10.019803902719,-1.E-15));
#192 = VERTEX_POINT('',#193);
#193 = CARTESIAN_POINT('',(10.019803902719,10.019803902719,-1.E-15));
#194 = LINE('',#195,#196);
#195 = CARTESIAN_POINT('',(4.5,10.019803902719,-8.9E-16));
#196 = VECTOR('',#197,1.);
#197 = DIRECTION('',(1.,0.,-0.));
#198 = ORIENTED_EDGE('',*,*,#199,.T.);
#199 = EDGE_CURVE('',#190,#200,#202,.T.);
#200 = VERTEX_POINT('',#201);
#201 = CARTESIAN_POINT('',(-10.01980390271,-10.01980390271,-1.E-15));
#202 = LINE('',#203,#204);
#203 = CARTESIAN_POINT('',(-10.01980390271,-4.5,-8.9E-16));
#204 = VECTOR('',#205,1.);
#205 = DIRECTION('',(-4.E-17,-1.,0.));
#206 = ORIENTED_EDGE('',*,*,#207,.T.);
#207 = EDGE_CURVE('',#200,#208,#210,.T.);
#208 = VERTEX_POINT('',#209);
#209 = CARTESIAN_POINT('',(10.019803902719,-10.01980390271,-1.E-15));
#210 = LINE('',#211,#212);
#211 = CARTESIAN_POINT('',(4.5,-10.01980390271,-8.9E-16));
#212 = VECTOR('',#213,1.);
#213 = DIRECTION('',(1.,0.,-0.));
#214 = ORIENTED_EDGE('',*,*,#215,.F.);
#215 = EDGE_CURVE('',#192,#208,#216,.T.);
#216 = LINE('',#217,#218);
#217 = CARTESIAN_POINT('',(10.019803902719,-4.5,-8.9E-16));
#218 = VECTOR('',#219,1.);
#219 = DIRECTION('',(4.E-17,-1.,0.));
#220 = PLANE('',#221);
#221 = AXIS2_PLACEMENT_3D('',#222,#223,#224);
#222 = CARTESIAN_POINT('',(0.,0.,0.));
#223 = DIRECTION('',(0.,0.,1.));
#224 = DIRECTION('',(1.,0.,0.));
#225 = ADVANCED_FACE('',(#226),#251,.T.);
#226 = FACE_BOUND('',#227,.T.);
#227 = EDGE_LOOP('',(#228,#236,#244,#250));
#228 = ORIENTED_EDGE('',*,*,#229,.F.);
#229 = EDGE_CURVE('',#230,#208,#232,.T.);
#230 = VERTEX_POINT('',#231);
#231 = CARTESIAN_POINT('',(7.819803902719,-7.819803902719,11.));
#232 = LINE('',#233,#234);
#233 = CARTESIAN_POINT('',(8.018336946962,-8.018336946962,
    10.007334778785));
#234 = VECTOR('',#235,1.);
#235 = DIRECTION('',(0.19245008973,-0.19245008973,-0.962250448649));
#236 = ORIENTED_EDGE('',*,*,#237,.T.);
#237 = EDGE_CURVE('',#230,#238,#240,.T.);
#238 = VERTEX_POINT('',#239);
#239 = CARTESIAN_POINT('',(-7.819803902719,-7.819803902719,11.));
#240 = LINE('',#241,#242);
#241 = CARTESIAN_POINT('',(4.5,-7.819803902719,11.));
#242 = VECTOR('',#243,1.);
#243 = DIRECTION('',(-1.,0.,0.));
#244 = ORIENTED_EDGE('',*,*,#245,.T.);
#245 = EDGE_CURVE('',#238,#200,#246,.T.);
#246 = LINE('',#247,#248);
#247 = CARTESIAN_POINT('',(-7.685003613628,-7.685003613628,
    11.674001445451));
#248 = VECTOR('',#249,1.);
#249 = DIRECTION('',(-0.19245008973,-0.19245008973,-0.962250448649));
#250 = ORIENTED_EDGE('',*,*,#207,.T.);
#251 = PLANE('',#252);
#252 = AXIS2_PLACEMENT_3D('',#253,#254,#255);
#253 = CARTESIAN_POINT('',(9.,-7.980580675691,10.196116135138));
#254 = DIRECTION('',(0.,-0.980580675691,0.196116135138));
#255 = DIRECTION('',(0.,-0.196116135138,-0.980580675691));
#256 = ADVANCED_FACE('',(#257),#275,.F.);
#257 = FACE_BOUND('',#258,.F.);
#258 = EDGE_LOOP('',(#259,#267,#268,#269));
#259 = ORIENTED_EDGE('',*,*,#260,.F.);
#260 = EDGE_CURVE('',#192,#261,#263,.T.);
#261 = VERTEX_POINT('',#262);
#262 = CARTESIAN_POINT('',(7.819803902719,7.819803902719,11.));
#263 = LINE('',#264,#265);
#264 = CARTESIAN_POINT('',(7.685003613628,7.685003613628,11.674001445451
    ));
#265 = VECTOR('',#266,1.);
#266 = DIRECTION('',(-0.19245008973,-0.19245008973,0.962250448649));
#267 = ORIENTED_EDGE('',*,*,#215,.T.);
#268 = ORIENTED_EDGE('',*,*,#229,.F.);
#269 = ORIENTED_EDGE('',*,*,#270,.T.);
#270 = EDGE_CURVE('',#230,#261,#271,.T.);
#271 = LINE('',#272,#273);
#272 = CARTESIAN_POINT('',(7.819803902719,-4.5,11.));
#273 = VECTOR('',#274,1.);
#274 = DIRECTION('',(-4.E-17,1.,0.));
#275 = PLANE('',#276);
#276 = AXIS2_PLACEMENT_3D('',#277,#278,#279);
#277 = CARTESIAN_POINT('',(7.980580675691,-9.,10.196116135138));
#278 = DIRECTION('',(-0.980580675691,-4.E-17,-0.196116135138));
#279 = DIRECTION('',(0.196116135138,-2.2E-16,-0.980580675691));
#280 = ADVANCED_FACE('',(#281),#299,.F.);
#281 = FACE_BOUND('',#282,.F.);
#282 = EDGE_LOOP('',(#283,#291,#292,#293));
#283 = ORIENTED_EDGE('',*,*,#284,.T.);
#284 = EDGE_CURVE('',#285,#190,#287,.T.);
#285 = VERTEX_POINT('',#286);
#286 = CARTESIAN_POINT('',(-7.819803902719,7.819803902719,11.));
#287 = LINE('',#288,#289);
#288 = CARTESIAN_POINT('',(-7.351670280295,7.351670280295,
    13.340668112118));
#289 = VECTOR('',#290,1.);
#290 = DIRECTION('',(-0.19245008973,0.19245008973,-0.962250448649));
#291 = ORIENTED_EDGE('',*,*,#189,.T.);
#292 = ORIENTED_EDGE('',*,*,#260,.T.);
#293 = ORIENTED_EDGE('',*,*,#294,.T.);
#294 = EDGE_CURVE('',#261,#285,#295,.T.);
#295 = LINE('',#296,#297);
#296 = CARTESIAN_POINT('',(4.5,7.819803902719,11.));
#297 = VECTOR('',#298,1.);
#298 = DIRECTION('',(-1.,-0.,0.));
#299 = PLANE('',#300);
#300 = AXIS2_PLACEMENT_3D('',#301,#302,#303);
#301 = CARTESIAN_POINT('',(9.,7.980580675691,10.196116135138));
#302 = DIRECTION('',(0.,-0.980580675691,-0.196116135138));
#303 = DIRECTION('',(0.,0.196116135138,-0.980580675691));
#304 = ADVANCED_FACE('',(#305),#316,.T.);
#305 = FACE_BOUND('',#306,.T.);
#306 = EDGE_LOOP('',(#307,#313,#314,#315));
#307 = ORIENTED_EDGE('',*,*,#308,.T.);
#308 = EDGE_CURVE('',#238,#285,#309,.T.);
#309 = LINE('',#310,#311);
#310 = CARTESIAN_POINT('',(-7.819803902719,-4.5,11.));
#311 = VECTOR('',#312,1.);
#312 = DIRECTION('',(4.E-17,1.,-0.));
#313 = ORIENTED_EDGE('',*,*,#284,.T.);
#314 = ORIENTED_EDGE('',*,*,#199,.T.);
#315 = ORIENTED_EDGE('',*,*,#245,.F.);
#316 = PLANE('',#317);
#317 = AXIS2_PLACEMENT_3D('',#318,#319,#320);
#318 = CARTESIAN_POINT('',(-7.980580675691,-9.,10.196116135138));
#319 = DIRECTION('',(-0.980580675691,4.E-17,0.196116135138));
#320 = DIRECTION('',(-0.196116135138,-2.2E-16,-0.980580675691));
#321 = ADVANCED_FACE('',(#322),#328,.T.);
#322 = FACE_BOUND('',#323,.T.);
#323 = EDGE_LOOP('',(#324,#325,#326,#327));
#324 = ORIENTED_EDGE('',*,*,#237,.F.);
#325 = ORIENTED_EDGE('',*,*,#270,.T.);
#326 = ORIENTED_EDGE('',*,*,#294,.T.);
#327 = ORIENTED_EDGE('',*,*,#308,.F.);
#328 = PLANE('',#329);
#329 = AXIS2_PLACEMENT_3D('',#330,#331,#332);
#330 = CARTESIAN_POINT('',(0.,0.,11.));
#331 = DIRECTION('',(0.,0.,1.));
#332 = DIRECTION('',(1.,0.,0.));
#333 = ( GEOMETRIC_REPRESENTATION_CONTEXT(3) 
GLOBAL_UNCERTAINTY_ASSIGNED_CONTEXT((#337)) GLOBAL_UNIT_ASSIGNED_CONTEXT
((#334,#335,#336)) REPRESENTATION_CONTEXT('Context #1',
  '3D Context with UNIT and UNCERTAINTY') );
#334 = ( LENGTH_UNIT() NAMED_UNIT(*) SI_UNIT(.MILLI.,.METRE.) );
#335 = ( NAMED_UNIT(*) PLANE_ANGLE_UNIT() SI_UNIT($,.RADIAN.) );
#336 = ( NAMED_UNIT(*) SI_UNIT($,.STERADIAN.) SOLID_ANGLE_UNIT() );
#337 = UNCERTAINTY_MEASURE_WITH_UNIT(LENGTH_MEASURE(5.E-06),#334,
  'distance_accuracy_value','confusion accuracy');
#338 = CONTEXT_DEPENDENT_SHAPE_REPRESENTATION(#339,#341);
#339 = ( REPRESENTATION_RELATIONSHIP('','',#40,#10) 
REPRESENTATION_RELATIONSHIP_WITH_TRANSFORMATION(#340) 
SHAPE_REPRESENTATION_RELATIONSHIP() );
#340 = ITEM_DEFINED_TRANSFORMATION('','',#11,#15);
#341 = PRODUCT_DEFINITION_SHAPE('Placement','Placement of an item',#342
  );
#342 = NEXT_ASSEMBLY_USAGE_OCCURRENCE('1','Shell','',#5,#35,$);
#343 = PRODUCT_RELATED_PRODUCT_CATEGORY('part',$,(#37));
#344 = SHAPE_DEFINITION_REPRESENTATION(#345,#351);
#345 = PRODUCT_DEFINITION_SHAPE('','',#346);
#346 = PRODUCT_DEFINITION('design','',#347,#350);
#347 = PRODUCT_DEFINITION_FORMATION('','',#348);
#348 = PRODUCT('Stem','Stem','',(#349));
#349 = PRODUCT_CONTEXT('',#2,'mechanical');
#350 = PRODUCT_DEFINITION_CONTEXT('part definition',#2,'design');
#351 = ADVANCED_BREP_SHAPE_REPRESENTATION('',(#11,#352),#1166);
#352 = MANIFOLD_SOLID_BREP('',#353);
#353 = CLOSED_SHELL('',(#354,#394,#425,#456,#487,#518,#549,#580,#611,
    #642,#673,#704,#726,#766,#797,#828,#859,#890,#921,#952,#983,#1014,
    #1045,#1076,#1098,#1132));
#354 = ADVANCED_FACE('',(#355),#389,.F.);
#355 = FACE_BOUND('',#356,.F.);
#356 = EDGE_LOOP('',(#357,#367,#375,#383));
#357 = ORIENTED_EDGE('',*,*,#358,.T.);
#358 = EDGE_CURVE('',#359,#361,#363,.T.);
#359 = VERTEX_POINT('',#360);
#360 = CARTESIAN_POINT('',(-3.,1.625,10.));
#361 = VERTEX_POINT('',#362);
#362 = CARTESIAN_POINT('',(-3.,1.625,0.));
#363 = LINE('',#364,#365);
#364 = CARTESIAN_POINT('',(-3.,1.625,10.));
#365 = VECTOR('',#366,1.);
#366 = DIRECTION('',(0.,0.,-1.));
#367 = ORIENTED_EDGE('',*,*,#368,.T.);
#368 = EDGE_CURVE('',#361,#369,#371,.T.);
#369 = VERTEX_POINT('',#370);
#370 = CARTESIAN_POINT('',(-1.55,1.625,0.));
#371 = LINE('',#372,#373);
#372 = CARTESIAN_POINT('',(-3.,1.625,0.));
#373 = VECTOR('',#374,1.);
#374 = DIRECTION('',(1.,0.,0.));
#375 = ORIENTED_EDGE('',*,*,#376,.F.);
#376 = EDGE_CURVE('',#377,#369,#379,.T.);
#377 = VERTEX_POINT('',#378);
#378 = CARTESIAN_POINT('',(-1.55,1.625,10.));
#379 = LINE('',#380,#381);
#380 = CARTESIAN_POINT('',(-1.55,1.625,10.));
#381 = VECTOR('',#382,1.);
#382 = DIRECTION('',(0.,0.,-1.));
#383 = ORIENTED_EDGE('',*,*,#384,.F.);
#384 = EDGE_CURVE('',#359,#377,#385,.T.);
#385 = LINE('',#386,#387);
#386 = CARTESIAN_POINT('',(-3.,1.625,10.));
#387 = VECTOR('',#388,1.);
#388 = DIRECTION('',(1.,0.,0.));
#389 = PLANE('',#390);
#390 = AXIS2_PLACEMENT_3D('',#391,#392,#393);
#391 = CARTESIAN_POINT('',(-3.,1.625,10.));
#392 = DIRECTION('',(0.,-1.,0.));
#393 = DIRECTION('',(1.,0.,0.));
#394 = ADVANCED_FACE('',(#395),#420,.F.);
#395 = FACE_BOUND('',#396,.F.);
#396 = EDGE_LOOP('',(#397,#398,#406,#414));
#397 = ORIENTED_EDGE('',*,*,#376,.T.);
#398 = ORIENTED_EDGE('',*,*,#399,.T.);
#399 = EDGE_CURVE('',#369,#400,#402,.T.);
#400 = VERTEX_POINT('',#401);
#401 = CARTESIAN_POINT('',(-1.55,3.,0.));
#402 = LINE('',#403,#404);
#403 = CARTESIAN_POINT('',(-1.55,1.625,0.));
#404 = VECTOR('',#405,1.);
#405 = DIRECTION('',(0.,1.,0.));
#406 = ORIENTED_EDGE('',*,*,#407,.F.);
#407 = EDGE_CURVE('',#408,#400,#410,.T.);
#408 = VERTEX_POINT('',#409);
#409 = CARTESIAN_POINT('',(-1.55,3.,10.));
#410 = LINE('',#411,#412);
#411 = CARTESIAN_POINT('',(-1.55,3.,10.));
#412 = VECTOR('',#413,1.);
#413 = DIRECTION('',(0.,0.,-1.));
#414 = ORIENTED_EDGE('',*,*,#415,.F.);
#415 = EDGE_CURVE('',#377,#408,#416,.T.);
#416 = LINE('',#417,#418);
#417 = CARTESIAN_POINT('',(-1.55,1.625,10.));
#418 = VECTOR('',#419,1.);
#419 = DIRECTION('',(0.,1.,0.));
#420 = PLANE('',#421);
#421 = AXIS2_PLACEMENT_3D('',#422,#423,#424);
#422 = CARTESIAN_POINT('',(-1.55,1.625,10.));
#423 = DIRECTION('',(1.,-0.,0.));
#424 = DIRECTION('',(0.,1.,0.));
#425 = ADVANCED_FACE('',(#426),#451,.F.);
#426 = FACE_BOUND('',#427,.F.);
#427 = EDGE_LOOP('',(#428,#429,#437,#445));
#428 = ORIENTED_EDGE('',*,*,#407,.T.);
#429 = ORIENTED_EDGE('',*,*,#430,.T.);
#430 = EDGE_CURVE('',#400,#431,#433,.T.);
#431 = VERTEX_POINT('',#432);
#432 = CARTESIAN_POINT('',(1.55,3.,0.));
#433 = LINE('',#434,#435);
#434 = CARTESIAN_POINT('',(-1.55,3.,0.));
#435 = VECTOR('',#436,1.);
#436 = DIRECTION('',(1.,0.,0.));
#437 = ORIENTED_EDGE('',*,*,#438,.F.);
#438 = EDGE_CURVE('',#439,#431,#441,.T.);
#439 = VERTEX_POINT('',#440);
#440 = CARTESIAN_POINT('',(1.55,3.,10.));
#441 = LINE('',#442,#443);
#442 = CARTESIAN_POINT('',(1.55,3.,10.));
#443 = VECTOR('',#444,1.);
#444 = DIRECTION('',(0.,0.,-1.));
#445 = ORIENTED_EDGE('',*,*,#446,.F.);
#446 = EDGE_CURVE('',#408,#439,#447,.T.);
#447 = LINE('',#448,#449);
#448 = CARTESIAN_POINT('',(-1.55,3.,10.));
#449 = VECTOR('',#450,1.);
#450 = DIRECTION('',(1.,0.,0.));
#451 = PLANE('',#452);
#452 = AXIS2_PLACEMENT_3D('',#453,#454,#455);
#453 = CARTESIAN_POINT('',(-1.55,3.,10.));
#454 = DIRECTION('',(0.,-1.,0.));
#455 = DIRECTION('',(1.,0.,0.));
#456 = ADVANCED_FACE('',(#457),#482,.F.);
#457 = FACE_BOUND('',#458,.F.);
#458 = EDGE_LOOP('',(#459,#460,#468,#476));
#459 = ORIENTED_EDGE('',*,*,#438,.T.);
#460 = ORIENTED_EDGE('',*,*,#461,.T.);
#461 = EDGE_CURVE('',#431,#462,#464,.T.);
#462 = VERTEX_POINT('',#463);
#463 = CARTESIAN_POINT('',(1.55,1.625,0.));
#464 = LINE('',#465,#466);
#465 = CARTESIAN_POINT('',(1.55,3.,0.));
#466 = VECTOR('',#467,1.);
#467 = DIRECTION('',(0.,-1.,0.));
#468 = ORIENTED_EDGE('',*,*,#469,.F.);
#469 = EDGE_CURVE('',#470,#462,#472,.T.);
#470 = VERTEX_POINT('',#471);
#471 = CARTESIAN_POINT('',(1.55,1.625,10.));
#472 = LINE('',#473,#474);
#473 = CARTESIAN_POINT('',(1.55,1.625,10.));
#474 = VECTOR('',#475,1.);
#475 = DIRECTION('',(0.,0.,-1.));
#476 = ORIENTED_EDGE('',*,*,#477,.F.);
#477 = EDGE_CURVE('',#439,#470,#478,.T.);
#478 = LINE('',#479,#480);
#479 = CARTESIAN_POINT('',(1.55,3.,10.));
#480 = VECTOR('',#481,1.);
#481 = DIRECTION('',(0.,-1.,0.));
#482 = PLANE('',#483);
#483 = AXIS2_PLACEMENT_3D('',#484,#485,#486);
#484 = CARTESIAN_POINT('',(1.55,3.,10.));
#485 = DIRECTION('',(-1.,-0.,-0.));
#486 = DIRECTION('',(0.,-1.,0.));
#487 = ADVANCED_FACE('',(#488),#513,.F.);
#488 = FACE_BOUND('',#489,.F.);
#489 = EDGE_LOOP('',(#490,#491,#499,#507));
#490 = ORIENTED_EDGE('',*,*,#469,.T.);
#491 = ORIENTED_EDGE('',*,*,#492,.T.);
#492 = EDGE_CURVE('',#462,#493,#495,.T.);
#493 = VERTEX_POINT('',#494);
#494 = CARTESIAN_POINT('',(3.,1.625,0.));
#495 = LINE('',#496,#497);
#496 = CARTESIAN_POINT('',(1.55,1.625,0.));
#497 = VECTOR('',#498,1.);
#498 = DIRECTION('',(1.,0.,0.));
#499 = ORIENTED_EDGE('',*,*,#500,.F.);
#500 = EDGE_CURVE('',#501,#493,#503,.T.);
#501 = VERTEX_POINT('',#502);
#502 = CARTESIAN_POINT('',(3.,1.625,10.));
#503 = LINE('',#504,#505);
#504 = CARTESIAN_POINT('',(3.,1.625,10.));
#505 = VECTOR('',#506,1.);
#506 = DIRECTION('',(0.,0.,-1.));
#507 = ORIENTED_EDGE('',*,*,#508,.F.);
#508 = EDGE_CURVE('',#470,#501,#509,.T.);
#509 = LINE('',#510,#511);
#510 = CARTESIAN_POINT('',(1.55,1.625,10.));
#511 = VECTOR('',#512,1.);
#512 = DIRECTION('',(1.,0.,0.));
#513 = PLANE('',#514);
#514 = AXIS2_PLACEMENT_3D('',#515,#516,#517);
#515 = CARTESIAN_POINT('',(1.55,1.625,10.));
#516 = DIRECTION('',(0.,-1.,0.));
#517 = DIRECTION('',(1.,0.,0.));
#518 = ADVANCED_FACE('',(#519),#544,.F.);
#519 = FACE_BOUND('',#520,.F.);
#520 = EDGE_LOOP('',(#521,#522,#530,#538));
#521 = ORIENTED_EDGE('',*,*,#500,.T.);
#522 = ORIENTED_EDGE('',*,*,#523,.T.);
#523 = EDGE_CURVE('',#493,#524,#526,.T.);
#524 = VERTEX_POINT('',#525);
#525 = CARTESIAN_POINT('',(3.,-1.625,0.));
#526 = LINE('',#527,#528);
#527 = CARTESIAN_POINT('',(3.,1.625,0.));
#528 = VECTOR('',#529,1.);
#529 = DIRECTION('',(0.,-1.,0.));
#530 = ORIENTED_EDGE('',*,*,#531,.F.);
#531 = EDGE_CURVE('',#532,#524,#534,.T.);
#532 = VERTEX_POINT('',#533);
#533 = CARTESIAN_POINT('',(3.,-1.625,10.));
#534 = LINE('',#535,#536);
#535 = CARTESIAN_POINT('',(3.,-1.625,10.));
#536 = VECTOR('',#537,1.);
#537 = DIRECTION('',(0.,0.,-1.));
#538 = ORIENTED_EDGE('',*,*,#539,.F.);
#539 = EDGE_CURVE('',#501,#532,#540,.T.);
#540 = LINE('',#541,#542);
#541 = CARTESIAN_POINT('',(3.,1.625,10.));
#542 = VECTOR('',#543,1.);
#543 = DIRECTION('',(0.,-1.,0.));
#544 = PLANE('',#545);
#545 = AXIS2_PLACEMENT_3D('',#546,#547,#548);
#546 = CARTESIAN_POINT('',(3.,1.625,10.));
#547 = DIRECTION('',(-1.,-0.,-0.));
#548 = DIRECTION('',(0.,-1.,0.));
#549 = ADVANCED_FACE('',(#550),#575,.F.);
#550 = FACE_BOUND('',#551,.F.);
#551 = EDGE_LOOP('',(#552,#553,#561,#569));
#552 = ORIENTED_EDGE('',*,*,#531,.T.);
#553 = ORIENTED_EDGE('',*,*,#554,.T.);
#554 = EDGE_CURVE('',#524,#555,#557,.T.);
#555 = VERTEX_POINT('',#556);
#556 = CARTESIAN_POINT('',(1.55,-1.625,0.));
#557 = LINE('',#558,#559);
#558 = CARTESIAN_POINT('',(3.,-1.625,0.));
#559 = VECTOR('',#560,1.);
#560 = DIRECTION('',(-1.,0.,0.));
#561 = ORIENTED_EDGE('',*,*,#562,.F.);
#562 = EDGE_CURVE('',#563,#555,#565,.T.);
#563 = VERTEX_POINT('',#564);
#564 = CARTESIAN_POINT('',(1.55,-1.625,10.));
#565 = LINE('',#566,#567);
#566 = CARTESIAN_POINT('',(1.55,-1.625,10.));
#567 = VECTOR('',#568,1.);
#568 = DIRECTION('',(0.,0.,-1.));
#569 = ORIENTED_EDGE('',*,*,#570,.F.);
#570 = EDGE_CURVE('',#532,#563,#571,.T.);
#571 = LINE('',#572,#573);
#572 = CARTESIAN_POINT('',(3.,-1.625,10.));
#573 = VECTOR('',#574,1.);
#574 = DIRECTION('',(-1.,0.,0.));
#575 = PLANE('',#576);
#576 = AXIS2_PLACEMENT_3D('',#577,#578,#579);
#577 = CARTESIAN_POINT('',(3.,-1.625,10.));
#578 = DIRECTION('',(0.,1.,0.));
#579 = DIRECTION('',(-1.,0.,0.));
#580 = ADVANCED_FACE('',(#581),#606,.F.);
#581 = FACE_BOUND('',#582,.F.);
#582 = EDGE_LOOP('',(#583,#584,#592,#600));
#583 = ORIENTED_EDGE('',*,*,#562,.T.);
#584 = ORIENTED_EDGE('',*,*,#585,.T.);
#585 = EDGE_CURVE('',#555,#586,#588,.T.);
#586 = VERTEX_POINT('',#587);
#587 = CARTESIAN_POINT('',(1.55,-3.,0.));
#588 = LINE('',#589,#590);
#589 = CARTESIAN_POINT('',(1.55,-1.625,0.));
#590 = VECTOR('',#591,1.);
#591 = DIRECTION('',(0.,-1.,0.));
#592 = ORIENTED_EDGE('',*,*,#593,.F.);
#593 = EDGE_CURVE('',#594,#586,#596,.T.);
#594 = VERTEX_POINT('',#595);
#595 = CARTESIAN_POINT('',(1.55,-3.,10.));
#596 = LINE('',#597,#598);
#597 = CARTESIAN_POINT('',(1.55,-3.,10.));
#598 = VECTOR('',#599,1.);
#599 = DIRECTION('',(0.,0.,-1.));
#600 = ORIENTED_EDGE('',*,*,#601,.F.);
#601 = EDGE_CURVE('',#563,#594,#602,.T.);
#602 = LINE('',#603,#604);
#603 = CARTESIAN_POINT('',(1.55,-1.625,10.));
#604 = VECTOR('',#605,1.);
#605 = DIRECTION('',(0.,-1.,0.));
#606 = PLANE('',#607);
#607 = AXIS2_PLACEMENT_3D('',#608,#609,#610);
#608 = CARTESIAN_POINT('',(1.55,-1.625,10.));
#609 = DIRECTION('',(-1.,-0.,-0.));
#610 = DIRECTION('',(0.,-1.,0.));
#611 = ADVANCED_FACE('',(#612),#637,.F.);
#612 = FACE_BOUND('',#613,.F.);
#613 = EDGE_LOOP('',(#614,#615,#623,#631));
#614 = ORIENTED_EDGE('',*,*,#593,.T.);
#615 = ORIENTED_EDGE('',*,*,#616,.T.);
#616 = EDGE_CURVE('',#586,#617,#619,.T.);
#617 = VERTEX_POINT('',#618);
#618 = CARTESIAN_POINT('',(-1.55,-3.,0.));
#619 = LINE('',#620,#621);
#620 = CARTESIAN_POINT('',(1.55,-3.,0.));
#621 = VECTOR('',#622,1.);
#622 = DIRECTION('',(-1.,0.,0.));
#623 = ORIENTED_EDGE('',*,*,#624,.F.);
#624 = EDGE_CURVE('',#625,#617,#627,.T.);
#625 = VERTEX_POINT('',#626);
#626 = CARTESIAN_POINT('',(-1.55,-3.,10.));
#627 = LINE('',#628,#629);
#628 = CARTESIAN_POINT('',(-1.55,-3.,10.));
#629 = VECTOR('',#630,1.);
#630 = DIRECTION('',(0.,0.,-1.));
#631 = ORIENTED_EDGE('',*,*,#632,.F.);
#632 = EDGE_CURVE('',#594,#625,#633,.T.);
#633 = LINE('',#634,#635);
#634 = CARTESIAN_POINT('',(1.55,-3.,10.));
#635 = VECTOR('',#636,1.);
#636 = DIRECTION('',(-1.,0.,0.));
#637 = PLANE('',#638);
#638 = AXIS2_PLACEMENT_3D('',#639,#640,#641);
#639 = CARTESIAN_POINT('',(1.55,-3.,10.));
#640 = DIRECTION('',(0.,1.,0.));
#641 = DIRECTION('',(-1.,0.,0.));
#642 = ADVANCED_FACE('',(#643),#668,.F.);
#643 = FACE_BOUND('',#644,.F.);
#644 = EDGE_LOOP('',(#645,#646,#654,#662));
#645 = ORIENTED_EDGE('',*,*,#624,.T.);
#646 = ORIENTED_EDGE('',*,*,#647,.T.);
#647 = EDGE_CURVE('',#617,#648,#650,.T.);
#648 = VERTEX_POINT('',#649);
#649 = CARTESIAN_POINT('',(-1.55,-1.625,0.));
#650 = LINE('',#651,#652);
#651 = CARTESIAN_POINT('',(-1.55,-3.,0.));
#652 = VECTOR('',#653,1.);
#653 = DIRECTION('',(0.,1.,0.));
#654 = ORIENTED_EDGE('',*,*,#655,.F.);
#655 = EDGE_CURVE('',#656,#648,#658,.T.);
#656 = VERTEX_POINT('',#657);
#657 = CARTESIAN_POINT('',(-1.55,-1.625,10.));
#658 = LINE('',#659,#660);
#659 = CARTESIAN_POINT('',(-1.55,-1.625,10.));
#660 = VECTOR('',#661,1.);
#661 = DIRECTION('',(0.,0.,-1.));
#662 = ORIENTED_EDGE('',*,*,#663,.F.);
#663 = EDGE_CURVE('',#625,#656,#664,.T.);
#664 = LINE('',#665,#666);
#665 = CARTESIAN_POINT('',(-1.55,-3.,10.));
#666 = VECTOR('',#667,1.);
#667 = DIRECTION('',(0.,1.,0.));
#668 = PLANE('',#669);
#669 = AXIS2_PLACEMENT_3D('',#670,#671,#672);
#670 = CARTESIAN_POINT('',(-1.55,-3.,10.));
#671 = DIRECTION('',(1.,-0.,0.));
#672 = DIRECTION('',(0.,1.,0.));
#673 = ADVANCED_FACE('',(#674),#699,.F.);
#674 = FACE_BOUND('',#675,.F.);
#675 = EDGE_LOOP('',(#676,#677,#685,#693));
#676 = ORIENTED_EDGE('',*,*,#655,.T.);
#677 = ORIENTED_EDGE('',*,*,#678,.T.);
#678 = EDGE_CURVE('',#648,#679,#681,.T.);
#679 = VERTEX_POINT('',#680);
#680 = CARTESIAN_POINT('',(-3.,-1.625,0.));
#681 = LINE('',#682,#683);
#682 = CARTESIAN_POINT('',(-1.55,-1.625,0.));
#683 = VECTOR('',#684,1.);
#684 = DIRECTION('',(-1.,0.,0.));
#685 = ORIENTED_EDGE('',*,*,#686,.F.);
#686 = EDGE_CURVE('',#687,#679,#689,.T.);
#687 = VERTEX_POINT('',#688);
#688 = CARTESIAN_POINT('',(-3.,-1.625,10.));
#689 = LINE('',#690,#691);
#690 = CARTESIAN_POINT('',(-3.,-1.625,10.));
#691 = VECTOR('',#692,1.);
#692 = DIRECTION('',(0.,0.,-1.));
#693 = ORIENTED_EDGE('',*,*,#694,.F.);
#694 = EDGE_CURVE('',#656,#687,#695,.T.);
#695 = LINE('',#696,#697);
#696 = CARTESIAN_POINT('',(-1.55,-1.625,10.));
#697 = VECTOR('',#698,1.);
#698 = DIRECTION('',(-1.,0.,0.));
#699 = PLANE('',#700);
#700 = AXIS2_PLACEMENT_3D('',#701,#702,#703);
#701 = CARTESIAN_POINT('',(-1.55,-1.625,10.));
#702 = DIRECTION('',(0.,1.,0.));
#703 = DIRECTION('',(-1.,0.,0.));
#704 = ADVANCED_FACE('',(#705),#721,.F.);
#705 = FACE_BOUND('',#706,.F.);
#706 = EDGE_LOOP('',(#707,#708,#714,#715));
#707 = ORIENTED_EDGE('',*,*,#686,.T.);
#708 = ORIENTED_EDGE('',*,*,#709,.T.);
#709 = EDGE_CURVE('',#679,#361,#710,.T.);
#710 = LINE('',#711,#712);
#711 = CARTESIAN_POINT('',(-3.,-1.625,0.));
#712 = VECTOR('',#713,1.);
#713 = DIRECTION('',(0.,1.,0.));
#714 = ORIENTED_EDGE('',*,*,#358,.F.);
#715 = ORIENTED_EDGE('',*,*,#716,.F.);
#716 = EDGE_CURVE('',#687,#359,#717,.T.);
#717 = LINE('',#718,#719);
#718 = CARTESIAN_POINT('',(-3.,-1.625,10.));
#719 = VECTOR('',#720,1.);
#720 = DIRECTION('',(0.,1.,0.));
#721 = PLANE('',#722);
#722 = AXIS2_PLACEMENT_3D('',#723,#724,#725);
#723 = CARTESIAN_POINT('',(-3.,-1.625,10.));
#724 = DIRECTION('',(1.,-0.,0.));
#725 = DIRECTION('',(0.,1.,0.));
#726 = ADVANCED_FACE('',(#727),#761,.T.);
#727 = FACE_BOUND('',#728,.T.);
#728 = EDGE_LOOP('',(#729,#739,#747,#755));
#729 = ORIENTED_EDGE('',*,*,#730,.T.);
#730 = EDGE_CURVE('',#731,#733,#735,.T.);
#731 = VERTEX_POINT('',#732);
#732 = CARTESIAN_POINT('',(-2.,0.625,10.));
#733 = VERTEX_POINT('',#734);
#734 = CARTESIAN_POINT('',(-2.,0.625,0.));
#735 = LINE('',#736,#737);
#736 = CARTESIAN_POINT('',(-2.,0.625,10.));
#737 = VECTOR('',#738,1.);
#738 = DIRECTION('',(0.,0.,-1.));
#739 = ORIENTED_EDGE('',*,*,#740,.T.);
#740 = EDGE_CURVE('',#733,#741,#743,.T.);
#741 = VERTEX_POINT('',#742);
#742 = CARTESIAN_POINT('',(-0.55,0.625,0.));
#743 = LINE('',#744,#745);
#744 = CARTESIAN_POINT('',(-2.,0.625,0.));
#745 = VECTOR('',#746,1.);
#746 = DIRECTION('',(1.,0.,0.));
#747 = ORIENTED_EDGE('',*,*,#748,.F.);
#748 = EDGE_CURVE('',#749,#741,#751,.T.);
#749 = VERTEX_POINT('',#750);
#750 = CARTESIAN_POINT('',(-0.55,0.625,10.));
#751 = LINE('',#752,#753);
#752 = CARTESIAN_POINT('',(-0.55,0.625,10.));
#753 = VECTOR('',#754,1.);
#754 = DIRECTION('',(0.,0.,-1.));
#755 = ORIENTED_EDGE('',*,*,#756,.F.);
#756 = EDGE_CURVE('',#731,#749,#757,.T.);
#757 = LINE('',#758,#759);
#758 = CARTESIAN_POINT('',(-2.,0.625,10.));
#759 = VECTOR('',#760,1.);
#760 = DIRECTION('',(1.,0.,0.));
#761 = PLANE('',#762);
#762 = AXIS2_PLACEMENT_3D('',#763,#764,#765);
#763 = CARTESIAN_POINT('',(-2.,0.625,10.));
#764 = DIRECTION('',(0.,-1.,0.));
#765 = DIRECTION('',(1.,0.,0.));
#766 = ADVANCED_FACE('',(#767),#792,.T.);
#767 = FACE_BOUND('',#768,.T.);
#768 = EDGE_LOOP('',(#769,#770,#778,#786));
#769 = ORIENTED_EDGE('',*,*,#748,.T.);
#770 = ORIENTED_EDGE('',*,*,#771,.T.);
#771 = EDGE_CURVE('',#741,#772,#774,.T.);
#772 = VERTEX_POINT('',#773);
#773 = CARTESIAN_POINT('',(-0.55,2.,0.));
#774 = LINE('',#775,#776);
#775 = CARTESIAN_POINT('',(-0.55,0.625,0.));
#776 = VECTOR('',#777,1.);
#777 = DIRECTION('',(0.,1.,0.));
#778 = ORIENTED_EDGE('',*,*,#779,.F.);
#779 = EDGE_CURVE('',#780,#772,#782,.T.);
#780 = VERTEX_POINT('',#781);
#781 = CARTESIAN_POINT('',(-0.55,2.,10.));
#782 = LINE('',#783,#784);
#783 = CARTESIAN_POINT('',(-0.55,2.,10.));
#784 = VECTOR('',#785,1.);
#785 = DIRECTION('',(0.,0.,-1.));
#786 = ORIENTED_EDGE('',*,*,#787,.F.);
#787 = EDGE_CURVE('',#749,#780,#788,.T.);
#788 = LINE('',#789,#790);
#789 = CARTESIAN_POINT('',(-0.55,0.625,10.));
#790 = VECTOR('',#791,1.);
#791 = DIRECTION('',(0.,1.,0.));
#792 = PLANE('',#793);
#793 = AXIS2_PLACEMENT_3D('',#794,#795,#796);
#794 = CARTESIAN_POINT('',(-0.55,0.625,10.));
#795 = DIRECTION('',(1.,-0.,0.));
#796 = DIRECTION('',(0.,1.,0.));
#797 = ADVANCED_FACE('',(#798),#823,.T.);
#798 = FACE_BOUND('',#799,.T.);
#799 = EDGE_LOOP('',(#800,#801,#809,#817));
#800 = ORIENTED_EDGE('',*,*,#779,.T.);
#801 = ORIENTED_EDGE('',*,*,#802,.T.);
#802 = EDGE_CURVE('',#772,#803,#805,.T.);
#803 = VERTEX_POINT('',#804);
#804 = CARTESIAN_POINT('',(0.55,2.,0.));
#805 = LINE('',#806,#807);
#806 = CARTESIAN_POINT('',(-0.55,2.,0.));
#807 = VECTOR('',#808,1.);
#808 = DIRECTION('',(1.,0.,0.));
#809 = ORIENTED_EDGE('',*,*,#810,.F.);
#810 = EDGE_CURVE('',#811,#803,#813,.T.);
#811 = VERTEX_POINT('',#812);
#812 = CARTESIAN_POINT('',(0.55,2.,10.));
#813 = LINE('',#814,#815);
#814 = CARTESIAN_POINT('',(0.55,2.,10.));
#815 = VECTOR('',#816,1.);
#816 = DIRECTION('',(0.,0.,-1.));
#817 = ORIENTED_EDGE('',*,*,#818,.F.);
#818 = EDGE_CURVE('',#780,#811,#819,.T.);
#819 = LINE('',#820,#821);
#820 = CARTESIAN_POINT('',(-0.55,2.,10.));
#821 = VECTOR('',#822,1.);
#822 = DIRECTION('',(1.,0.,0.));
#823 = PLANE('',#824);
#824 = AXIS2_PLACEMENT_3D('',#825,#826,#827);
#825 = CARTESIAN_POINT('',(-0.55,2.,10.));
#826 = DIRECTION('',(0.,-1.,0.));
#827 = DIRECTION('',(1.,0.,0.));
#828 = ADVANCED_FACE('',(#829),#854,.T.);
#829 = FACE_BOUND('',#830,.T.);
#830 = EDGE_LOOP('',(#831,#832,#840,#848));
#831 = ORIENTED_EDGE('',*,*,#810,.T.);
#832 = ORIENTED_EDGE('',*,*,#833,.T.);
#833 = EDGE_CURVE('',#803,#834,#836,.T.);
#834 = VERTEX_POINT('',#835);
#835 = CARTESIAN_POINT('',(0.55,0.625,0.));
#836 = LINE('',#837,#838);
#837 = CARTESIAN_POINT('',(0.55,2.,0.));
#838 = VECTOR('',#839,1.);
#839 = DIRECTION('',(0.,-1.,0.));
#840 = ORIENTED_EDGE('',*,*,#841,.F.);
#841 = EDGE_CURVE('',#842,#834,#844,.T.);
#842 = VERTEX_POINT('',#843);
#843 = CARTESIAN_POINT('',(0.55,0.625,10.));
#844 = LINE('',#845,#846);
#845 = CARTESIAN_POINT('',(0.55,0.625,10.));
#846 = VECTOR('',#847,1.);
#847 = DIRECTION('',(0.,0.,-1.));
#848 = ORIENTED_EDGE('',*,*,#849,.F.);
#849 = EDGE_CURVE('',#811,#842,#850,.T.);
#850 = LINE('',#851,#852);
#851 = CARTESIAN_POINT('',(0.55,2.,10.));
#852 = VECTOR('',#853,1.);
#853 = DIRECTION('',(0.,-1.,0.));
#854 = PLANE('',#855);
#855 = AXIS2_PLACEMENT_3D('',#856,#857,#858);
#856 = CARTESIAN_POINT('',(0.55,2.,10.));
#857 = DIRECTION('',(-1.,-0.,-0.));
#858 = DIRECTION('',(0.,-1.,0.));
#859 = ADVANCED_FACE('',(#860),#885,.T.);
#860 = FACE_BOUND('',#861,.T.);
#861 = EDGE_LOOP('',(#862,#863,#871,#879));
#862 = ORIENTED_EDGE('',*,*,#841,.T.);
#863 = ORIENTED_EDGE('',*,*,#864,.T.);
#864 = EDGE_CURVE('',#834,#865,#867,.T.);
#865 = VERTEX_POINT('',#866);
#866 = CARTESIAN_POINT('',(2.,0.625,0.));
#867 = LINE('',#868,#869);
#868 = CARTESIAN_POINT('',(0.55,0.625,0.));
#869 = VECTOR('',#870,1.);
#870 = DIRECTION('',(1.,0.,0.));
#871 = ORIENTED_EDGE('',*,*,#872,.F.);
#872 = EDGE_CURVE('',#873,#865,#875,.T.);
#873 = VERTEX_POINT('',#874);
#874 = CARTESIAN_POINT('',(2.,0.625,10.));
#875 = LINE('',#876,#877);
#876 = CARTESIAN_POINT('',(2.,0.625,10.));
#877 = VECTOR('',#878,1.);
#878 = DIRECTION('',(0.,0.,-1.));
#879 = ORIENTED_EDGE('',*,*,#880,.F.);
#880 = EDGE_CURVE('',#842,#873,#881,.T.);
#881 = LINE('',#882,#883);
#882 = CARTESIAN_POINT('',(0.55,0.625,10.));
#883 = VECTOR('',#884,1.);
#884 = DIRECTION('',(1.,0.,0.));
#885 = PLANE('',#886);
#886 = AXIS2_PLACEMENT_3D('',#887,#888,#889);
#887 = CARTESIAN_POINT('',(0.55,0.625,10.));
#888 = DIRECTION('',(0.,-1.,0.));
#889 = DIRECTION('',(1.,0.,0.));
#890 = ADVANCED_FACE('',(#891),#916,.T.);
#891 = FACE_BOUND('',#892,.T.);
#892 = EDGE_LOOP('',(#893,#894,#902,#910));
#893 = ORIENTED_EDGE('',*,*,#872,.T.);
#894 = ORIENTED_EDGE('',*,*,#895,.T.);
#895 = EDGE_CURVE('',#865,#896,#898,.T.);
#896 = VERTEX_POINT('',#897);
#897 = CARTESIAN_POINT('',(2.,-0.625,0.));
#898 = LINE('',#899,#900);
#899 = CARTESIAN_POINT('',(2.,0.625,0.));
#900 = VECTOR('',#901,1.);
#901 = DIRECTION('',(0.,-1.,0.));
#902 = ORIENTED_EDGE('',*,*,#903,.F.);
#903 = EDGE_CURVE('',#904,#896,#906,.T.);
#904 = VERTEX_POINT('',#905);
#905 = CARTESIAN_POINT('',(2.,-0.625,10.));
#906 = LINE('',#907,#908);
#907 = CARTESIAN_POINT('',(2.,-0.625,10.));
#908 = VECTOR('',#909,1.);
#909 = DIRECTION('',(0.,0.,-1.));
#910 = ORIENTED_EDGE('',*,*,#911,.F.);
#911 = EDGE_CURVE('',#873,#904,#912,.T.);
#912 = LINE('',#913,#914);
#913 = CARTESIAN_POINT('',(2.,0.625,10.));
#914 = VECTOR('',#915,1.);
#915 = DIRECTION('',(0.,-1.,0.));
#916 = PLANE('',#917);
#917 = AXIS2_PLACEMENT_3D('',#918,#919,#920);
#918 = CARTESIAN_POINT('',(2.,0.625,10.));
#919 = DIRECTION('',(-1.,-0.,-0.));
#920 = DIRECTION('',(0.,-1.,0.));
#921 = ADVANCED_FACE('',(#922),#947,.T.);
#922 = FACE_BOUND('',#923,.T.);
#923 = EDGE_LOOP('',(#924,#925,#933,#941));
#924 = ORIENTED_EDGE('',*,*,#903,.T.);
#925 = ORIENTED_EDGE('',*,*,#926,.T.);
#926 = EDGE_CURVE('',#896,#927,#929,.T.);
#927 = VERTEX_POINT('',#928);
#928 = CARTESIAN_POINT('',(0.55,-0.625,0.));
#929 = LINE('',#930,#931);
#930 = CARTESIAN_POINT('',(2.,-0.625,0.));
#931 = VECTOR('',#932,1.);
#932 = DIRECTION('',(-1.,0.,0.));
#933 = ORIENTED_EDGE('',*,*,#934,.F.);
#934 = EDGE_CURVE('',#935,#927,#937,.T.);
#935 = VERTEX_POINT('',#936);
#936 = CARTESIAN_POINT('',(0.55,-0.625,10.));
#937 = LINE('',#938,#939);
#938 = CARTESIAN_POINT('',(0.55,-0.625,10.));
#939 = VECTOR('',#940,1.);
#940 = DIRECTION('',(0.,0.,-1.));
#941 = ORIENTED_EDGE('',*,*,#942,.F.);
#942 = EDGE_CURVE('',#904,#935,#943,.T.);
#943 = LINE('',#944,#945);
#944 = CARTESIAN_POINT('',(2.,-0.625,10.));
#945 = VECTOR('',#946,1.);
#946 = DIRECTION('',(-1.,0.,0.));
#947 = PLANE('',#948);
#948 = AXIS2_PLACEMENT_3D('',#949,#950,#951);
#949 = CARTESIAN_POINT('',(2.,-0.625,10.));
#950 = DIRECTION('',(0.,1.,0.));
#951 = DIRECTION('',(-1.,0.,0.));
#952 = ADVANCED_FACE('',(#953),#978,.T.);
#953 = FACE_BOUND('',#954,.T.);
#954 = EDGE_LOOP('',(#955,#956,#964,#972));
#955 = ORIENTED_EDGE('',*,*,#934,.T.);
#956 = ORIENTED_EDGE('',*,*,#957,.T.);
#957 = EDGE_CURVE('',#927,#958,#960,.T.);
#958 = VERTEX_POINT('',#959);
#959 = CARTESIAN_POINT('',(0.55,-2.,0.));
#960 = LINE('',#961,#962);
#961 = CARTESIAN_POINT('',(0.55,-0.625,0.));
#962 = VECTOR('',#963,1.);
#963 = DIRECTION('',(0.,-1.,0.));
#964 = ORIENTED_EDGE('',*,*,#965,.F.);
#965 = EDGE_CURVE('',#966,#958,#968,.T.);
#966 = VERTEX_POINT('',#967);
#967 = CARTESIAN_POINT('',(0.55,-2.,10.));
#968 = LINE('',#969,#970);
#969 = CARTESIAN_POINT('',(0.55,-2.,10.));
#970 = VECTOR('',#971,1.);
#971 = DIRECTION('',(0.,0.,-1.));
#972 = ORIENTED_EDGE('',*,*,#973,.F.);
#973 = EDGE_CURVE('',#935,#966,#974,.T.);
#974 = LINE('',#975,#976);
#975 = CARTESIAN_POINT('',(0.55,-0.625,10.));
#976 = VECTOR('',#977,1.);
#977 = DIRECTION('',(0.,-1.,0.));
#978 = PLANE('',#979);
#979 = AXIS2_PLACEMENT_3D('',#980,#981,#982);
#980 = CARTESIAN_POINT('',(0.55,-0.625,10.));
#981 = DIRECTION('',(-1.,-0.,-0.));
#982 = DIRECTION('',(0.,-1.,0.));
#983 = ADVANCED_FACE('',(#984),#1009,.T.);
#984 = FACE_BOUND('',#985,.T.);
#985 = EDGE_LOOP('',(#986,#987,#995,#1003));
#986 = ORIENTED_EDGE('',*,*,#965,.T.);
#987 = ORIENTED_EDGE('',*,*,#988,.T.);
#988 = EDGE_CURVE('',#958,#989,#991,.T.);
#989 = VERTEX_POINT('',#990);
#990 = CARTESIAN_POINT('',(-0.55,-2.,0.));
#991 = LINE('',#992,#993);
#992 = CARTESIAN_POINT('',(0.55,-2.,0.));
#993 = VECTOR('',#994,1.);
#994 = DIRECTION('',(-1.,0.,0.));
#995 = ORIENTED_EDGE('',*,*,#996,.F.);
#996 = EDGE_CURVE('',#997,#989,#999,.T.);
#997 = VERTEX_POINT('',#998);
#998 = CARTESIAN_POINT('',(-0.55,-2.,10.));
#999 = LINE('',#1000,#1001);
#1000 = CARTESIAN_POINT('',(-0.55,-2.,10.));
#1001 = VECTOR('',#1002,1.);
#1002 = DIRECTION('',(0.,0.,-1.));
#1003 = ORIENTED_EDGE('',*,*,#1004,.F.);
#1004 = EDGE_CURVE('',#966,#997,#1005,.T.);
#1005 = LINE('',#1006,#1007);
#1006 = CARTESIAN_POINT('',(0.55,-2.,10.));
#1007 = VECTOR('',#1008,1.);
#1008 = DIRECTION('',(-1.,0.,0.));
#1009 = PLANE('',#1010);
#1010 = AXIS2_PLACEMENT_3D('',#1011,#1012,#1013);
#1011 = CARTESIAN_POINT('',(0.55,-2.,10.));
#1012 = DIRECTION('',(0.,1.,0.));
#1013 = DIRECTION('',(-1.,0.,0.));
#1014 = ADVANCED_FACE('',(#1015),#1040,.T.);
#1015 = FACE_BOUND('',#1016,.T.);
#1016 = EDGE_LOOP('',(#1017,#1018,#1026,#1034));
#1017 = ORIENTED_EDGE('',*,*,#996,.T.);
#1018 = ORIENTED_EDGE('',*,*,#1019,.T.);
#1019 = EDGE_CURVE('',#989,#1020,#1022,.T.);
#1020 = VERTEX_POINT('',#1021);
#1021 = CARTESIAN_POINT('',(-0.55,-0.625,0.));
#1022 = LINE('',#1023,#1024);
#1023 = CARTESIAN_POINT('',(-0.55,-2.,0.));
#1024 = VECTOR('',#1025,1.);
#1025 = DIRECTION('',(0.,1.,0.));
#1026 = ORIENTED_EDGE('',*,*,#1027,.F.);
#1027 = EDGE_CURVE('',#1028,#1020,#1030,.T.);
#1028 = VERTEX_POINT('',#1029);
#1029 = CARTESIAN_POINT('',(-0.55,-0.625,10.));
#1030 = LINE('',#1031,#1032);
#1031 = CARTESIAN_POINT('',(-0.55,-0.625,10.));
#1032 = VECTOR('',#1033,1.);
#1033 = DIRECTION('',(0.,0.,-1.));
#1034 = ORIENTED_EDGE('',*,*,#1035,.F.);
#1035 = EDGE_CURVE('',#997,#1028,#1036,.T.);
#1036 = LINE('',#1037,#1038);
#1037 = CARTESIAN_POINT('',(-0.55,-2.,10.));
#1038 = VECTOR('',#1039,1.);
#1039 = DIRECTION('',(0.,1.,0.));
#1040 = PLANE('',#1041);
#1041 = AXIS2_PLACEMENT_3D('',#1042,#1043,#1044);
#1042 = CARTESIAN_POINT('',(-0.55,-2.,10.));
#1043 = DIRECTION('',(1.,-0.,0.));
#1044 = DIRECTION('',(0.,1.,0.));
#1045 = ADVANCED_FACE('',(#1046),#1071,.T.);
#1046 = FACE_BOUND('',#1047,.T.);
#1047 = EDGE_LOOP('',(#1048,#1049,#1057,#1065));
#1048 = ORIENTED_EDGE('',*,*,#1027,.T.);
#1049 = ORIENTED_EDGE('',*,*,#1050,.T.);
#1050 = EDGE_CURVE('',#1020,#1051,#1053,.T.);
#1051 = VERTEX_POINT('',#1052);
#1052 = CARTESIAN_POINT('',(-2.,-0.625,0.));
#1053 = LINE('',#1054,#1055);
#1054 = CARTESIAN_POINT('',(-0.55,-0.625,0.));
#1055 = VECTOR('',#1056,1.);
#1056 = DIRECTION('',(-1.,0.,0.));
#1057 = ORIENTED_EDGE('',*,*,#1058,.F.);
#1058 = EDGE_CURVE('',#1059,#1051,#1061,.T.);
#1059 = VERTEX_POINT('',#1060);
#1060 = CARTESIAN_POINT('',(-2.,-0.625,10.));
#1061 = LINE('',#1062,#1063);
#1062 = CARTESIAN_POINT('',(-2.,-0.625,10.));
#1063 = VECTOR('',#1064,1.);
#1064 = DIRECTION('',(0.,0.,-1.));
#1065 = ORIENTED_EDGE('',*,*,#1066,.F.);
#1066 = EDGE_CURVE('',#1028,#1059,#1067,.T.);
#1067 = LINE('',#1068,#1069);
#1068 = CARTESIAN_POINT('',(-0.55,-0.625,10.));
#1069 = VECTOR('',#1070,1.);
#1070 = DIRECTION('',(-1.,0.,0.));
#1071 = PLANE('',#1072);
#1072 = AXIS2_PLACEMENT_3D('',#1073,#1074,#1075);
#1073 = CARTESIAN_POINT('',(-0.55,-0.625,10.));
#1074 = DIRECTION('',(0.,1.,0.));
#1075 = DIRECTION('',(-1.,0.,0.));
#1076 = ADVANCED_FACE('',(#1077),#1093,.T.);
#1077 = FACE_BOUND('',#1078,.T.);
#1078 = EDGE_LOOP('',(#1079,#1080,#1086,#1087));
#1079 = ORIENTED_EDGE('',*,*,#1058,.T.);
#1080 = ORIENTED_EDGE('',*,*,#1081,.T.);
#1081 = EDGE_CURVE('',#1051,#733,#1082,.T.);
#1082 = LINE('',#1083,#1084);
#1083 = CARTESIAN_POINT('',(-2.,-0.625,0.));
#1084 = VECTOR('',#1085,1.);
#1085 = DIRECTION('',(0.,1.,0.));
#1086 = ORIENTED_EDGE('',*,*,#730,.F.);
#1087 = ORIENTED_EDGE('',*,*,#1088,.F.);
#1088 = EDGE_CURVE('',#1059,#731,#1089,.T.);
#1089 = LINE('',#1090,#1091);
#1090 = CARTESIAN_POINT('',(-2.,-0.625,10.));
#1091 = VECTOR('',#1092,1.);
#1092 = DIRECTION('',(0.,1.,0.));
#1093 = PLANE('',#1094);
#1094 = AXIS2_PLACEMENT_3D('',#1095,#1096,#1097);
#1095 = CARTESIAN_POINT('',(-2.,-0.625,10.));
#1096 = DIRECTION('',(1.,-0.,0.));
#1097 = DIRECTION('',(0.,1.,0.));
#1098 = ADVANCED_FACE('',(#1099,#1113),#1127,.T.);
#1099 = FACE_BOUND('',#1100,.F.);
#1100 = EDGE_LOOP('',(#1101,#1102,#1103,#1104,#1105,#1106,#1107,#1108,
    #1109,#1110,#1111,#1112));
#1101 = ORIENTED_EDGE('',*,*,#384,.T.);
#1102 = ORIENTED_EDGE('',*,*,#415,.T.);
#1103 = ORIENTED_EDGE('',*,*,#446,.T.);
#1104 = ORIENTED_EDGE('',*,*,#477,.T.);
#1105 = ORIENTED_EDGE('',*,*,#508,.T.);
#1106 = ORIENTED_EDGE('',*,*,#539,.T.);
#1107 = ORIENTED_EDGE('',*,*,#570,.T.);
#1108 = ORIENTED_EDGE('',*,*,#601,.T.);
#1109 = ORIENTED_EDGE('',*,*,#632,.T.);
#1110 = ORIENTED_EDGE('',*,*,#663,.T.);
#1111 = ORIENTED_EDGE('',*,*,#694,.T.);
#1112 = ORIENTED_EDGE('',*,*,#716,.T.);
#1113 = FACE_BOUND('',#1114,.T.);
#1114 = EDGE_LOOP('',(#1115,#1116,#1117,#1118,#1119,#1120,#1121,#1122,
    #1123,#1124,#1125,#1126));
#1115 = ORIENTED_EDGE('',*,*,#756,.T.);
#1116 = ORIENTED_EDGE('',*,*,#787,.T.);
#1117 = ORIENTED_EDGE('',*,*,#818,.T.);
#1118 = ORIENTED_EDGE('',*,*,#849,.T.);
#1119 = ORIENTED_EDGE('',*,*,#880,.T.);
#1120 = ORIENTED_EDGE('',*,*,#911,.T.);
#1121 = ORIENTED_EDGE('',*,*,#942,.T.);
#1122 = ORIENTED_EDGE('',*,*,#973,.T.);
#1123 = ORIENTED_EDGE('',*,*,#1004,.T.);
#1124 = ORIENTED_EDGE('',*,*,#1035,.T.);
#1125 = ORIENTED_EDGE('',*,*,#1066,.T.);
#1126 = ORIENTED_EDGE('',*,*,#1088,.T.);
#1127 = PLANE('',#1128);
#1128 = AXIS2_PLACEMENT_3D('',#1129,#1130,#1131);
#1129 = CARTESIAN_POINT('',(9.E-17,-1.E-17,10.));
#1130 = DIRECTION('',(0.,0.,1.));
#1131 = DIRECTION('',(1.,0.,-0.));
#1132 = ADVANCED_FACE('',(#1133,#1147),#1161,.F.);
#1133 = FACE_BOUND('',#1134,.T.);
#1134 = EDGE_LOOP('',(#1135,#1136,#1137,#1138,#1139,#1140,#1141,#1142,
    #1143,#1144,#1145,#1146));
#1135 = ORIENTED_EDGE('',*,*,#368,.T.);
#1136 = ORIENTED_EDGE('',*,*,#399,.T.);
#1137 = ORIENTED_EDGE('',*,*,#430,.T.);
#1138 = ORIENTED_EDGE('',*,*,#461,.T.);
#1139 = ORIENTED_EDGE('',*,*,#492,.T.);
#1140 = ORIENTED_EDGE('',*,*,#523,.T.);
#1141 = ORIENTED_EDGE('',*,*,#554,.T.);
#1142 = ORIENTED_EDGE('',*,*,#585,.T.);
#1143 = ORIENTED_EDGE('',*,*,#616,.T.);
#1144 = ORIENTED_EDGE('',*,*,#647,.T.);
#1145 = ORIENTED_EDGE('',*,*,#678,.T.);
#1146 = ORIENTED_EDGE('',*,*,#709,.T.);
#1147 = FACE_BOUND('',#1148,.F.);
#1148 = EDGE_LOOP('',(#1149,#1150,#1151,#1152,#1153,#1154,#1155,#1156,
    #1157,#1158,#1159,#1160));
#1149 = ORIENTED_EDGE('',*,*,#740,.T.);
#1150 = ORIENTED_EDGE('',*,*,#771,.T.);
#1151 = ORIENTED_EDGE('',*,*,#802,.T.);
#1152 = ORIENTED_EDGE('',*,*,#833,.T.);
#1153 = ORIENTED_EDGE('',*,*,#864,.T.);
#1154 = ORIENTED_EDGE('',*,*,#895,.T.);
#1155 = ORIENTED_EDGE('',*,*,#926,.T.);
#1156 = ORIENTED_EDGE('',*,*,#957,.T.);
#1157 = ORIENTED_EDGE('',*,*,#988,.T.);
#1158 = ORIENTED_EDGE('',*,*,#1019,.T.);
#1159 = ORIENTED_EDGE('',*,*,#1050,.T.);
#1160 = ORIENTED_EDGE('',*,*,#1081,.T.);
#1161 = PLANE('',#1162);
#1162 = AXIS2_PLACEMENT_3D('',#1163,#1164,#1165);
#1163 = CARTESIAN_POINT('',(9.E-17,-1.E-17,-1.7763568394E-15));
#1164 = DIRECTION('',(0.,0.,1.));
#1165 = DIRECTION('',(1.,0.,0.));
#1166 = ( GEOMETRIC_REPRESENTATION_CONTEXT(3) 
GLOBAL_UNCERTAINTY_ASSIGNED_CONTEXT((#1170)) 
GLOBAL_UNIT_ASSIGNED_CONTEXT((#1167,#1168,#1169)) REPRESENTATION_CONTEXT
('Context #1','3D Context with UNIT and UNCERTAINTY') );
#1167 = ( LENGTH_UNIT() NAMED_UNIT(*) SI_UNIT(.MILLI.,.METRE.) );
#1168 = ( NAMED_UNIT(*) PLANE_ANGLE_UNIT() SI_UNIT($,.RADIAN.) );
#1169 = ( NAMED_UNIT(*) SI_UNIT($,.STERADIAN.) SOLID_ANGLE_UNIT() );
#1170 = UNCERTAINTY_MEASURE_WITH_UNIT(LENGTH_MEASURE(1.E-07),#1167,
  'distance_accuracy_value','confusion accuracy');
#1171 = CONTEXT_DEPENDENT_SHAPE_REPRESENTATION(#1172,#1174);
#1172 = ( REPRESENTATION_RELATIONSHIP('','',#351,#10) 
REPRESENTATION_RELATIONSHIP_WITH_TRANSFORMATION(#1173) 
SHAPE_REPRESENTATION_RELATIONSHIP() );
#1173 = ITEM_DEFINED_TRANSFORMATION('','',#11,#19);
#1174 = PRODUCT_DEFINITION_SHAPE('Placement','Placement of an item',
  #1175);
#1175 = NEXT_ASSEMBLY_USAGE_OCCURRENCE('2','Stem','',#5,#346,$);
#1176 = PRODUCT_RELATED_PRODUCT_CATEGORY('part',$,(#348));
#1177 = SHAPE_DEFINITION_REPRESENTATION(#1178,#1184);
#1178 = PRODUCT_DEFINITION_SHAPE('','',#1179);
#1179 = PRODUCT_DEFINITION('design','',#1180,#1183);
#1180 = PRODUCT_DEFINITION_FORMATION('','',#1181);
#1181 = PRODUCT('Graphic','Graphic','',(#1182));
#1182 = PRODUCT_CONTEXT('',#2,'mechanical');
#1183 = PRODUCT_DEFINITION_CONTEXT('part definition',#2,'design');
#1184 = SHAPE_REPRESENTATION('',(#11,#1185,#1603),#2017);
#1185 = MANIFOLD_SOLID_BREP('',#1186);
#1186 = CLOSED_SHELL('',(#1187,#1227,#1258,#1289,#1320,#1351,#1373,#1413
    ,#1444,#1475,#1506,#1537,#1559,#1581));
#1187 = ADVANCED_FACE('',(#1188),#1222,.F.);
#1188 = FACE_BOUND('',#1189,.F.);
#1189 = EDGE_LOOP('',(#1190,#1200,#1208,#1216));
#1190 = ORIENTED_EDGE('',*,*,#1191,.T.);
#1191 = EDGE_CURVE('',#1192,#1194,#1196,.T.);
#1192 = VERTEX_POINT('',#1193);
#1193 = CARTESIAN_POINT('',(4.330127331222,2.4999996667,11.));
#1194 = VERTEX_POINT('',#1195);
#1195 = CARTESIAN_POINT('',(4.330127331222,2.4999996667,11.1));
#1196 = LINE('',#1197,#1198);
#1197 = CARTESIAN_POINT('',(4.330127331222,2.4999996667,11.));
#1198 = VECTOR('',#1199,1.);
#1199 = DIRECTION('',(0.,0.,1.));
#1200 = ORIENTED_EDGE('',*,*,#1201,.T.);
#1201 = EDGE_CURVE('',#1194,#1202,#1204,.T.);
#1202 = VERTEX_POINT('',#1203);
#1203 = CARTESIAN_POINT('',(4.08514967E-07,4.99999983335,11.1));
#1204 = LINE('',#1205,#1206);
#1205 = CARTESIAN_POINT('',(4.330127331222,2.4999996667,11.1));
#1206 = VECTOR('',#1207,1.);
#1207 = DIRECTION('',(-0.866025384541,0.50000003333,0.));
#1208 = ORIENTED_EDGE('',*,*,#1209,.F.);
#1209 = EDGE_CURVE('',#1210,#1202,#1212,.T.);
#1210 = VERTEX_POINT('',#1211);
#1211 = CARTESIAN_POINT('',(4.08514967E-07,4.99999983335,11.));
#1212 = LINE('',#1213,#1214);
#1213 = CARTESIAN_POINT('',(4.0851496674E-07,4.99999983335,11.));
#1214 = VECTOR('',#1215,1.);
#1215 = DIRECTION('',(0.,0.,1.));
#1216 = ORIENTED_EDGE('',*,*,#1217,.F.);
#1217 = EDGE_CURVE('',#1192,#1210,#1218,.T.);
#1218 = LINE('',#1219,#1220);
#1219 = CARTESIAN_POINT('',(4.330127331222,2.4999996667,11.));
#1220 = VECTOR('',#1221,1.);
#1221 = DIRECTION('',(-0.866025384541,0.50000003333,0.));
#1222 = PLANE('',#1223);
#1223 = AXIS2_PLACEMENT_3D('',#1224,#1225,#1226);
#1224 = CARTESIAN_POINT('',(4.330127331222,2.4999996667,11.));
#1225 = DIRECTION('',(-0.50000003333,-0.866025384541,0.));
#1226 = DIRECTION('',(-0.866025384541,0.50000003333,0.));
#1227 = ADVANCED_FACE('',(#1228),#1253,.F.);
#1228 = FACE_BOUND('',#1229,.F.);
#1229 = EDGE_LOOP('',(#1230,#1231,#1239,#1247));
#1230 = ORIENTED_EDGE('',*,*,#1209,.T.);
#1231 = ORIENTED_EDGE('',*,*,#1232,.T.);
#1232 = EDGE_CURVE('',#1202,#1233,#1235,.T.);
#1233 = VERTEX_POINT('',#1234);
#1234 = CARTESIAN_POINT('',(-4.330126706623,2.5,11.1));
#1235 = LINE('',#1236,#1237);
#1236 = CARTESIAN_POINT('',(4.0851496674E-07,4.99999983335,11.1));
#1237 = VECTOR('',#1238,1.);
#1238 = DIRECTION('',(-0.866025423028,-0.49999996667,0.));
#1239 = ORIENTED_EDGE('',*,*,#1240,.F.);
#1240 = EDGE_CURVE('',#1241,#1233,#1243,.T.);
#1241 = VERTEX_POINT('',#1242);
#1242 = CARTESIAN_POINT('',(-4.330126706623,2.5,11.));
#1243 = LINE('',#1244,#1245);
#1244 = CARTESIAN_POINT('',(-4.330126706623,2.5,11.));
#1245 = VECTOR('',#1246,1.);
#1246 = DIRECTION('',(0.,0.,1.));
#1247 = ORIENTED_EDGE('',*,*,#1248,.F.);
#1248 = EDGE_CURVE('',#1210,#1241,#1249,.T.);
#1249 = LINE('',#1250,#1251);
#1250 = CARTESIAN_POINT('',(4.0851496674E-07,4.99999983335,11.));
#1251 = VECTOR('',#1252,1.);
#1252 = DIRECTION('',(-0.866025423028,-0.49999996667,0.));
#1253 = PLANE('',#1254);
#1254 = AXIS2_PLACEMENT_3D('',#1255,#1256,#1257);
#1255 = CARTESIAN_POINT('',(4.0851496674E-07,4.99999983335,11.));
#1256 = DIRECTION('',(0.49999996667,-0.866025423028,0.));
#1257 = DIRECTION('',(-0.866025423028,-0.49999996667,0.));
#1258 = ADVANCED_FACE('',(#1259),#1284,.F.);
#1259 = FACE_BOUND('',#1260,.F.);
#1260 = EDGE_LOOP('',(#1261,#1262,#1270,#1278));
#1261 = ORIENTED_EDGE('',*,*,#1240,.T.);
#1262 = ORIENTED_EDGE('',*,*,#1263,.T.);
#1263 = EDGE_CURVE('',#1233,#1264,#1266,.T.);
#1264 = VERTEX_POINT('',#1265);
#1265 = CARTESIAN_POINT('',(-4.330126899054,-2.5,11.1));
#1266 = LINE('',#1267,#1268);
#1267 = CARTESIAN_POINT('',(-4.330126706623,2.5,11.1));
#1268 = VECTOR('',#1269,1.);
#1269 = DIRECTION('',(-3.848622452E-08,-1.,0.));
#1270 = ORIENTED_EDGE('',*,*,#1271,.F.);
#1271 = EDGE_CURVE('',#1272,#1264,#1274,.T.);
#1272 = VERTEX_POINT('',#1273);
#1273 = CARTESIAN_POINT('',(-4.330126899054,-2.5,11.));
#1274 = LINE('',#1275,#1276);
#1275 = CARTESIAN_POINT('',(-4.330126899054,-2.5,11.));
#1276 = VECTOR('',#1277,1.);
#1277 = DIRECTION('',(0.,0.,1.));
#1278 = ORIENTED_EDGE('',*,*,#1279,.F.);
#1279 = EDGE_CURVE('',#1241,#1272,#1280,.T.);
#1280 = LINE('',#1281,#1282);
#1281 = CARTESIAN_POINT('',(-4.330126706623,2.5,11.));
#1282 = VECTOR('',#1283,1.);
#1283 = DIRECTION('',(-3.848622452E-08,-1.,0.));
#1284 = PLANE('',#1285);
#1285 = AXIS2_PLACEMENT_3D('',#1286,#1287,#1288);
#1286 = CARTESIAN_POINT('',(-4.330126706623,2.5,11.));
#1287 = DIRECTION('',(1.,-3.848622452E-08,0.));
#1288 = DIRECTION('',(-3.848622452E-08,-1.,0.));
#1289 = ADVANCED_FACE('',(#1290),#1315,.F.);
#1290 = FACE_BOUND('',#1291,.F.);
#1291 = EDGE_LOOP('',(#1292,#1293,#1301,#1309));
#1292 = ORIENTED_EDGE('',*,*,#1271,.T.);
#1293 = ORIENTED_EDGE('',*,*,#1294,.T.);
#1294 = EDGE_CURVE('',#1264,#1295,#1297,.T.);
#1295 = VERTEX_POINT('',#1296);
#1296 = CARTESIAN_POINT('',(2.3652721E-08,-5.00000016665,11.1));
#1297 = LINE('',#1298,#1299);
#1298 = CARTESIAN_POINT('',(-4.330126899054,-2.5,11.1));
#1299 = VECTOR('',#1300,1.);
#1300 = DIRECTION('',(0.866025384541,-0.50000003333,0.));
#1301 = ORIENTED_EDGE('',*,*,#1302,.F.);
#1302 = EDGE_CURVE('',#1303,#1295,#1305,.T.);
#1303 = VERTEX_POINT('',#1304);
#1304 = CARTESIAN_POINT('',(2.3652721E-08,-5.00000016665,11.));
#1305 = LINE('',#1306,#1307);
#1306 = CARTESIAN_POINT('',(2.365272067E-08,-5.00000016665,11.));
#1307 = VECTOR('',#1308,1.);
#1308 = DIRECTION('',(0.,0.,1.));
#1309 = ORIENTED_EDGE('',*,*,#1310,.F.);
#1310 = EDGE_CURVE('',#1272,#1303,#1311,.T.);
#1311 = LINE('',#1312,#1313);
#1312 = CARTESIAN_POINT('',(-4.330126899054,-2.5,11.));
#1313 = VECTOR('',#1314,1.);
#1314 = DIRECTION('',(0.866025384541,-0.50000003333,0.));
#1315 = PLANE('',#1316);
#1316 = AXIS2_PLACEMENT_3D('',#1317,#1318,#1319);
#1317 = CARTESIAN_POINT('',(-4.330126899054,-2.5,11.));
#1318 = DIRECTION('',(0.50000003333,0.866025384541,-0.));
#1319 = DIRECTION('',(0.866025384541,-0.50000003333,0.));
#1320 = ADVANCED_FACE('',(#1321),#1346,.F.);
#1321 = FACE_BOUND('',#1322,.F.);
#1322 = EDGE_LOOP('',(#1323,#1324,#1332,#1340));
#1323 = ORIENTED_EDGE('',*,*,#1302,.T.);
#1324 = ORIENTED_EDGE('',*,*,#1325,.T.);
#1325 = EDGE_CURVE('',#1295,#1326,#1328,.T.);
#1326 = VERTEX_POINT('',#1327);
#1327 = CARTESIAN_POINT('',(4.33012713879,-2.5000003333,11.1));
#1328 = LINE('',#1329,#1330);
#1329 = CARTESIAN_POINT('',(2.365272067E-08,-5.00000016665,11.1));
#1330 = VECTOR('',#1331,1.);
#1331 = DIRECTION('',(0.866025423028,0.49999996667,0.));
#1332 = ORIENTED_EDGE('',*,*,#1333,.F.);
#1333 = EDGE_CURVE('',#1334,#1326,#1336,.T.);
#1334 = VERTEX_POINT('',#1335);
#1335 = CARTESIAN_POINT('',(4.33012713879,-2.5000003333,11.));
#1336 = LINE('',#1337,#1338);
#1337 = CARTESIAN_POINT('',(4.33012713879,-2.5000003333,11.));
#1338 = VECTOR('',#1339,1.);
#1339 = DIRECTION('',(0.,0.,1.));
#1340 = ORIENTED_EDGE('',*,*,#1341,.F.);
#1341 = EDGE_CURVE('',#1303,#1334,#1342,.T.);
#1342 = LINE('',#1343,#1344);
#1343 = CARTESIAN_POINT('',(2.365272067E-08,-5.00000016665,11.));
#1344 = VECTOR('',#1345,1.);
#1345 = DIRECTION('',(0.866025423028,0.49999996667,0.));
#1346 = PLANE('',#1347);
#1347 = AXIS2_PLACEMENT_3D('',#1348,#1349,#1350);
#1348 = CARTESIAN_POINT('',(2.365272067E-08,-5.00000016665,11.));
#1349 = DIRECTION('',(-0.49999996667,0.866025423028,0.));
#1350 = DIRECTION('',(0.866025423028,0.49999996667,0.));
#1351 = ADVANCED_FACE('',(#1352),#1368,.F.);
#1352 = FACE_BOUND('',#1353,.F.);
#1353 = EDGE_LOOP('',(#1354,#1355,#1361,#1362));
#1354 = ORIENTED_EDGE('',*,*,#1333,.T.);
#1355 = ORIENTED_EDGE('',*,*,#1356,.T.);
#1356 = EDGE_CURVE('',#1326,#1194,#1357,.T.);
#1357 = LINE('',#1358,#1359);
#1358 = CARTESIAN_POINT('',(4.33012713879,-2.5000003333,11.1));
#1359 = VECTOR('',#1360,1.);
#1360 = DIRECTION('',(3.848622452E-08,1.,0.));
#1361 = ORIENTED_EDGE('',*,*,#1191,.F.);
#1362 = ORIENTED_EDGE('',*,*,#1363,.F.);
#1363 = EDGE_CURVE('',#1334,#1192,#1364,.T.);
#1364 = LINE('',#1365,#1366);
#1365 = CARTESIAN_POINT('',(4.33012713879,-2.5000003333,11.));
#1366 = VECTOR('',#1367,1.);
#1367 = DIRECTION('',(3.848622452E-08,1.,0.));
#1368 = PLANE('',#1369);
#1369 = AXIS2_PLACEMENT_3D('',#1370,#1371,#1372);
#1370 = CARTESIAN_POINT('',(4.33012713879,-2.5000003333,11.));
#1371 = DIRECTION('',(-1.,3.848622452E-08,0.));
#1372 = DIRECTION('',(3.848622452E-08,1.,0.));
#1373 = ADVANCED_FACE('',(#1374),#1408,.T.);
#1374 = FACE_BOUND('',#1375,.T.);
#1375 = EDGE_LOOP('',(#1376,#1386,#1394,#1402));
#1376 = ORIENTED_EDGE('',*,*,#1377,.T.);
#1377 = EDGE_CURVE('',#1378,#1380,#1382,.T.);
#1378 = VERTEX_POINT('',#1379);
#1379 = CARTESIAN_POINT('',(3.464101927437,1.9999996667,11.));
#1380 = VERTEX_POINT('',#1381);
#1381 = CARTESIAN_POINT('',(3.464101927437,1.9999996667,11.1));
#1382 = LINE('',#1383,#1384);
#1383 = CARTESIAN_POINT('',(3.464101927437,1.9999996667,11.));
#1384 = VECTOR('',#1385,1.);
#1385 = DIRECTION('',(0.,0.,1.));
#1386 = ORIENTED_EDGE('',*,*,#1387,.T.);
#1387 = EDGE_CURVE('',#1380,#1388,#1390,.T.);
#1388 = VERTEX_POINT('',#1389);
#1389 = CARTESIAN_POINT('',(4.08514964E-07,3.99999983335,11.1));
#1390 = LINE('',#1391,#1392);
#1391 = CARTESIAN_POINT('',(3.464101927437,1.9999996667,11.1));
#1392 = VECTOR('',#1393,1.);
#1393 = DIRECTION('',(-0.866025379731,0.500000041663,0.));
#1394 = ORIENTED_EDGE('',*,*,#1395,.F.);
#1395 = EDGE_CURVE('',#1396,#1388,#1398,.T.);
#1396 = VERTEX_POINT('',#1397);
#1397 = CARTESIAN_POINT('',(4.08514964E-07,3.99999983335,11.));
#1398 = LINE('',#1399,#1400);
#1399 = CARTESIAN_POINT('',(4.0851496363E-07,3.99999983335,11.));
#1400 = VECTOR('',#1401,1.);
#1401 = DIRECTION('',(0.,0.,1.));
#1402 = ORIENTED_EDGE('',*,*,#1403,.F.);
#1403 = EDGE_CURVE('',#1378,#1396,#1404,.T.);
#1404 = LINE('',#1405,#1406);
#1405 = CARTESIAN_POINT('',(3.464101927437,1.9999996667,11.));
#1406 = VECTOR('',#1407,1.);
#1407 = DIRECTION('',(-0.866025379731,0.500000041663,0.));
#1408 = PLANE('',#1409);
#1409 = AXIS2_PLACEMENT_3D('',#1410,#1411,#1412);
#1410 = CARTESIAN_POINT('',(3.464101927437,1.9999996667,11.));
#1411 = DIRECTION('',(-0.500000041663,-0.866025379731,0.));
#1412 = DIRECTION('',(-0.866025379731,0.500000041663,0.));
#1413 = ADVANCED_FACE('',(#1414),#1439,.T.);
#1414 = FACE_BOUND('',#1415,.T.);
#1415 = EDGE_LOOP('',(#1416,#1417,#1425,#1433));
#1416 = ORIENTED_EDGE('',*,*,#1395,.T.);
#1417 = ORIENTED_EDGE('',*,*,#1418,.T.);
#1418 = EDGE_CURVE('',#1388,#1419,#1421,.T.);
#1419 = VERTEX_POINT('',#1420);
#1420 = CARTESIAN_POINT('',(-3.464101302838,2.,11.1));
#1421 = LINE('',#1422,#1423);
#1422 = CARTESIAN_POINT('',(4.0851496363E-07,3.99999983335,11.1));
#1423 = VECTOR('',#1424,1.);
#1424 = DIRECTION('',(-0.866025427838,-0.499999958337,0.));
#1425 = ORIENTED_EDGE('',*,*,#1426,.F.);
#1426 = EDGE_CURVE('',#1427,#1419,#1429,.T.);
#1427 = VERTEX_POINT('',#1428);
#1428 = CARTESIAN_POINT('',(-3.464101302838,2.,11.));
#1429 = LINE('',#1430,#1431);
#1430 = CARTESIAN_POINT('',(-3.464101302838,2.,11.));
#1431 = VECTOR('',#1432,1.);
#1432 = DIRECTION('',(0.,0.,1.));
#1433 = ORIENTED_EDGE('',*,*,#1434,.F.);
#1434 = EDGE_CURVE('',#1396,#1427,#1435,.T.);
#1435 = LINE('',#1436,#1437);
#1436 = CARTESIAN_POINT('',(4.0851496363E-07,3.99999983335,11.));
#1437 = VECTOR('',#1438,1.);
#1438 = DIRECTION('',(-0.866025427838,-0.499999958337,0.));
#1439 = PLANE('',#1440);
#1440 = AXIS2_PLACEMENT_3D('',#1441,#1442,#1443);
#1441 = CARTESIAN_POINT('',(4.0851496363E-07,3.99999983335,11.));
#1442 = DIRECTION('',(0.499999958337,-0.866025427838,0.));
#1443 = DIRECTION('',(-0.866025427838,-0.499999958337,0.));
#1444 = ADVANCED_FACE('',(#1445),#1470,.T.);
#1445 = FACE_BOUND('',#1446,.T.);
#1446 = EDGE_LOOP('',(#1447,#1448,#1456,#1464));
#1447 = ORIENTED_EDGE('',*,*,#1426,.T.);
#1448 = ORIENTED_EDGE('',*,*,#1449,.T.);
#1449 = EDGE_CURVE('',#1419,#1450,#1452,.T.);
#1450 = VERTEX_POINT('',#1451);
#1451 = CARTESIAN_POINT('',(-3.464101495269,-2.,11.1));
#1452 = LINE('',#1453,#1454);
#1453 = CARTESIAN_POINT('',(-3.464101302838,2.,11.1));
#1454 = VECTOR('',#1455,1.);
#1455 = DIRECTION('',(-4.810777976E-08,-1.,0.));
#1456 = ORIENTED_EDGE('',*,*,#1457,.F.);
#1457 = EDGE_CURVE('',#1458,#1450,#1460,.T.);
#1458 = VERTEX_POINT('',#1459);
#1459 = CARTESIAN_POINT('',(-3.464101495269,-2.,11.));
#1460 = LINE('',#1461,#1462);
#1461 = CARTESIAN_POINT('',(-3.464101495269,-2.,11.));
#1462 = VECTOR('',#1463,1.);
#1463 = DIRECTION('',(0.,0.,1.));
#1464 = ORIENTED_EDGE('',*,*,#1465,.F.);
#1465 = EDGE_CURVE('',#1427,#1458,#1466,.T.);
#1466 = LINE('',#1467,#1468);
#1467 = CARTESIAN_POINT('',(-3.464101302838,2.,11.));
#1468 = VECTOR('',#1469,1.);
#1469 = DIRECTION('',(-4.810777976E-08,-1.,0.));
#1470 = PLANE('',#1471);
#1471 = AXIS2_PLACEMENT_3D('',#1472,#1473,#1474);
#1472 = CARTESIAN_POINT('',(-3.464101302838,2.,11.));
#1473 = DIRECTION('',(1.,-4.810777976E-08,0.));
#1474 = DIRECTION('',(-4.810777976E-08,-1.,0.));
#1475 = ADVANCED_FACE('',(#1476),#1501,.T.);
#1476 = FACE_BOUND('',#1477,.T.);
#1477 = EDGE_LOOP('',(#1478,#1479,#1487,#1495));
#1478 = ORIENTED_EDGE('',*,*,#1457,.T.);
#1479 = ORIENTED_EDGE('',*,*,#1480,.T.);
#1480 = EDGE_CURVE('',#1450,#1481,#1483,.T.);
#1481 = VERTEX_POINT('',#1482);
#1482 = CARTESIAN_POINT('',(2.3652726E-08,-4.00000016665,11.1));
#1483 = LINE('',#1484,#1485);
#1484 = CARTESIAN_POINT('',(-3.464101495269,-2.,11.1));
#1485 = VECTOR('',#1486,1.);
#1486 = DIRECTION('',(0.866025379731,-0.500000041663,0.));
#1487 = ORIENTED_EDGE('',*,*,#1488,.F.);
#1488 = EDGE_CURVE('',#1489,#1481,#1491,.T.);
#1489 = VERTEX_POINT('',#1490);
#1490 = CARTESIAN_POINT('',(2.3652726E-08,-4.00000016665,11.));
#1491 = LINE('',#1492,#1493);
#1492 = CARTESIAN_POINT('',(2.365272556E-08,-4.00000016665,11.));
#1493 = VECTOR('',#1494,1.);
#1494 = DIRECTION('',(0.,0.,1.));
#1495 = ORIENTED_EDGE('',*,*,#1496,.F.);
#1496 = EDGE_CURVE('',#1458,#1489,#1497,.T.);
#1497 = LINE('',#1498,#1499);
#1498 = CARTESIAN_POINT('',(-3.464101495269,-2.,11.));
#1499 = VECTOR('',#1500,1.);
#1500 = DIRECTION('',(0.866025379731,-0.500000041663,0.));
#1501 = PLANE('',#1502);
#1502 = AXIS2_PLACEMENT_3D('',#1503,#1504,#1505);
#1503 = CARTESIAN_POINT('',(-3.464101495269,-2.,11.));
#1504 = DIRECTION('',(0.500000041663,0.866025379731,-0.));
#1505 = DIRECTION('',(0.866025379731,-0.500000041663,0.));
#1506 = ADVANCED_FACE('',(#1507),#1532,.T.);
#1507 = FACE_BOUND('',#1508,.T.);
#1508 = EDGE_LOOP('',(#1509,#1510,#1518,#1526));
#1509 = ORIENTED_EDGE('',*,*,#1488,.T.);
#1510 = ORIENTED_EDGE('',*,*,#1511,.T.);
#1511 = EDGE_CURVE('',#1481,#1512,#1514,.T.);
#1512 = VERTEX_POINT('',#1513);
#1513 = CARTESIAN_POINT('',(3.464101735006,-2.0000003333,11.1));
#1514 = LINE('',#1515,#1516);
#1515 = CARTESIAN_POINT('',(2.365272556E-08,-4.00000016665,11.1));
#1516 = VECTOR('',#1517,1.);
#1517 = DIRECTION('',(0.866025427838,0.499999958337,0.));
#1518 = ORIENTED_EDGE('',*,*,#1519,.F.);
#1519 = EDGE_CURVE('',#1520,#1512,#1522,.T.);
#1520 = VERTEX_POINT('',#1521);
#1521 = CARTESIAN_POINT('',(3.464101735006,-2.0000003333,11.));
#1522 = LINE('',#1523,#1524);
#1523 = CARTESIAN_POINT('',(3.464101735006,-2.0000003333,11.));
#1524 = VECTOR('',#1525,1.);
#1525 = DIRECTION('',(0.,0.,1.));
#1526 = ORIENTED_EDGE('',*,*,#1527,.F.);
#1527 = EDGE_CURVE('',#1489,#1520,#1528,.T.);
#1528 = LINE('',#1529,#1530);
#1529 = CARTESIAN_POINT('',(2.365272556E-08,-4.00000016665,11.));
#1530 = VECTOR('',#1531,1.);
#1531 = DIRECTION('',(0.866025427838,0.499999958337,0.));
#1532 = PLANE('',#1533);
#1533 = AXIS2_PLACEMENT_3D('',#1534,#1535,#1536);
#1534 = CARTESIAN_POINT('',(2.365272556E-08,-4.00000016665,11.));
#1535 = DIRECTION('',(-0.499999958337,0.866025427838,0.));
#1536 = DIRECTION('',(0.866025427838,0.499999958337,0.));
#1537 = ADVANCED_FACE('',(#1538),#1554,.T.);
#1538 = FACE_BOUND('',#1539,.T.);
#1539 = EDGE_LOOP('',(#1540,#1541,#1547,#1548));
#1540 = ORIENTED_EDGE('',*,*,#1519,.T.);
#1541 = ORIENTED_EDGE('',*,*,#1542,.T.);
#1542 = EDGE_CURVE('',#1512,#1380,#1543,.T.);
#1543 = LINE('',#1544,#1545);
#1544 = CARTESIAN_POINT('',(3.464101735006,-2.0000003333,11.1));
#1545 = VECTOR('',#1546,1.);
#1546 = DIRECTION('',(4.810777987E-08,1.,0.));
#1547 = ORIENTED_EDGE('',*,*,#1377,.F.);
#1548 = ORIENTED_EDGE('',*,*,#1549,.F.);
#1549 = EDGE_CURVE('',#1520,#1378,#1550,.T.);
#1550 = LINE('',#1551,#1552);
#1551 = CARTESIAN_POINT('',(3.464101735006,-2.0000003333,11.));
#1552 = VECTOR('',#1553,1.);
#1553 = DIRECTION('',(4.810777987E-08,1.,0.));
#1554 = PLANE('',#1555);
#1555 = AXIS2_PLACEMENT_3D('',#1556,#1557,#1558);
#1556 = CARTESIAN_POINT('',(3.464101735006,-2.0000003333,11.));
#1557 = DIRECTION('',(-1.,4.810777987E-08,0.));
#1558 = DIRECTION('',(4.810777987E-08,1.,0.));
#1559 = ADVANCED_FACE('',(#1560,#1568),#1576,.F.);
#1560 = FACE_BOUND('',#1561,.F.);
#1561 = EDGE_LOOP('',(#1562,#1563,#1564,#1565,#1566,#1567));
#1562 = ORIENTED_EDGE('',*,*,#1217,.T.);
#1563 = ORIENTED_EDGE('',*,*,#1248,.T.);
#1564 = ORIENTED_EDGE('',*,*,#1279,.T.);
#1565 = ORIENTED_EDGE('',*,*,#1310,.T.);
#1566 = ORIENTED_EDGE('',*,*,#1341,.T.);
#1567 = ORIENTED_EDGE('',*,*,#1363,.T.);
#1568 = FACE_BOUND('',#1569,.T.);
#1569 = EDGE_LOOP('',(#1570,#1571,#1572,#1573,#1574,#1575));
#1570 = ORIENTED_EDGE('',*,*,#1403,.T.);
#1571 = ORIENTED_EDGE('',*,*,#1434,.T.);
#1572 = ORIENTED_EDGE('',*,*,#1465,.T.);
#1573 = ORIENTED_EDGE('',*,*,#1496,.T.);
#1574 = ORIENTED_EDGE('',*,*,#1527,.T.);
#1575 = ORIENTED_EDGE('',*,*,#1549,.T.);
#1576 = PLANE('',#1577);
#1577 = AXIS2_PLACEMENT_3D('',#1578,#1579,#1580);
#1578 = CARTESIAN_POINT('',(2.1608384677E-07,-1.6665023772E-07,11.));
#1579 = DIRECTION('',(0.,0.,1.));
#1580 = DIRECTION('',(1.,0.,-0.));
#1581 = ADVANCED_FACE('',(#1582,#1590),#1598,.T.);
#1582 = FACE_BOUND('',#1583,.T.);
#1583 = EDGE_LOOP('',(#1584,#1585,#1586,#1587,#1588,#1589));
#1584 = ORIENTED_EDGE('',*,*,#1201,.T.);
#1585 = ORIENTED_EDGE('',*,*,#1232,.T.);
#1586 = ORIENTED_EDGE('',*,*,#1263,.T.);
#1587 = ORIENTED_EDGE('',*,*,#1294,.T.);
#1588 = ORIENTED_EDGE('',*,*,#1325,.T.);
#1589 = ORIENTED_EDGE('',*,*,#1356,.T.);
#1590 = FACE_BOUND('',#1591,.F.);
#1591 = EDGE_LOOP('',(#1592,#1593,#1594,#1595,#1596,#1597));
#1592 = ORIENTED_EDGE('',*,*,#1387,.T.);
#1593 = ORIENTED_EDGE('',*,*,#1418,.T.);
#1594 = ORIENTED_EDGE('',*,*,#1449,.T.);
#1595 = ORIENTED_EDGE('',*,*,#1480,.T.);
#1596 = ORIENTED_EDGE('',*,*,#1511,.T.);
#1597 = ORIENTED_EDGE('',*,*,#1542,.T.);
#1598 = PLANE('',#1599);
#1599 = AXIS2_PLACEMENT_3D('',#1600,#1601,#1602);
#1600 = CARTESIAN_POINT('',(2.1608384677E-07,-1.6665023772E-07,11.1));
#1601 = DIRECTION('',(0.,0.,1.));
#1602 = DIRECTION('',(1.,0.,0.));
#1603 = MANIFOLD_SOLID_BREP('',#1604);
#1604 = CLOSED_SHELL('',(#1605,#1645,#1676,#1707,#1738,#1769,#1800,#1831
    ,#1862,#1893,#1924,#1955,#1977,#1997));
#1605 = ADVANCED_FACE('',(#1606),#1640,.F.);
#1606 = FACE_BOUND('',#1607,.F.);
#1607 = EDGE_LOOP('',(#1608,#1618,#1626,#1634));
#1608 = ORIENTED_EDGE('',*,*,#1609,.T.);
#1609 = EDGE_CURVE('',#1610,#1612,#1614,.T.);
#1610 = VERTEX_POINT('',#1611);
#1611 = CARTESIAN_POINT('',(0.,1.99999983335,11.));
#1612 = VERTEX_POINT('',#1613);
#1613 = CARTESIAN_POINT('',(0.,1.99999983335,11.1));
#1614 = LINE('',#1615,#1616);
#1615 = CARTESIAN_POINT('',(2.2E-16,1.99999983335,11.));
#1616 = VECTOR('',#1617,1.);
#1617 = DIRECTION('',(0.,0.,1.));
#1618 = ORIENTED_EDGE('',*,*,#1619,.T.);
#1619 = EDGE_CURVE('',#1612,#1620,#1622,.T.);
#1620 = VERTEX_POINT('',#1621);
#1621 = CARTESIAN_POINT('',(-0.577350093062,0.9999998889,11.1));
#1622 = LINE('',#1623,#1624);
#1623 = CARTESIAN_POINT('',(2.2E-16,1.99999983335,11.1));
#1624 = VECTOR('',#1625,1.);
#1625 = DIRECTION('',(-0.499999906433,-0.866025457805,0.));
#1626 = ORIENTED_EDGE('',*,*,#1627,.F.);
#1627 = EDGE_CURVE('',#1628,#1620,#1630,.T.);
#1628 = VERTEX_POINT('',#1629);
#1629 = CARTESIAN_POINT('',(-0.577350093062,0.9999998889,11.));
#1630 = LINE('',#1631,#1632);
#1631 = CARTESIAN_POINT('',(-0.577350093062,0.9999998889,11.));
#1632 = VECTOR('',#1633,1.);
#1633 = DIRECTION('',(0.,0.,1.));
#1634 = ORIENTED_EDGE('',*,*,#1635,.F.);
#1635 = EDGE_CURVE('',#1610,#1628,#1636,.T.);
#1636 = LINE('',#1637,#1638);
#1637 = CARTESIAN_POINT('',(2.2E-16,1.99999983335,11.));
#1638 = VECTOR('',#1639,1.);
#1639 = DIRECTION('',(-0.499999906433,-0.866025457805,0.));
#1640 = PLANE('',#1641);
#1641 = AXIS2_PLACEMENT_3D('',#1642,#1643,#1644);
#1642 = CARTESIAN_POINT('',(2.2E-16,1.99999983335,11.));
#1643 = DIRECTION('',(0.866025457805,-0.499999906433,0.));
#1644 = DIRECTION('',(-0.499999906433,-0.866025457805,0.));
#1645 = ADVANCED_FACE('',(#1646),#1671,.F.);
#1646 = FACE_BOUND('',#1647,.F.);
#1647 = EDGE_LOOP('',(#1648,#1649,#1657,#1665));
#1648 = ORIENTED_EDGE('',*,*,#1627,.T.);
#1649 = ORIENTED_EDGE('',*,*,#1650,.T.);
#1650 = EDGE_CURVE('',#1620,#1651,#1653,.T.);
#1651 = VERTEX_POINT('',#1652);
#1652 = CARTESIAN_POINT('',(-1.732050495269,1.,11.1));
#1653 = LINE('',#1654,#1655);
#1654 = CARTESIAN_POINT('',(-0.577350093062,0.9999998889,11.1));
#1655 = VECTOR('',#1656,1.);
#1656 = DIRECTION('',(-1.,9.621554772E-08,0.));
#1657 = ORIENTED_EDGE('',*,*,#1658,.F.);
#1658 = EDGE_CURVE('',#1659,#1651,#1661,.T.);
#1659 = VERTEX_POINT('',#1660);
#1660 = CARTESIAN_POINT('',(-1.732050495269,1.,11.));
#1661 = LINE('',#1662,#1663);
#1662 = CARTESIAN_POINT('',(-1.732050495269,1.,11.));
#1663 = VECTOR('',#1664,1.);
#1664 = DIRECTION('',(0.,0.,1.));
#1665 = ORIENTED_EDGE('',*,*,#1666,.F.);
#1666 = EDGE_CURVE('',#1628,#1659,#1667,.T.);
#1667 = LINE('',#1668,#1669);
#1668 = CARTESIAN_POINT('',(-0.577350093062,0.9999998889,11.));
#1669 = VECTOR('',#1670,1.);
#1670 = DIRECTION('',(-1.,9.621554772E-08,0.));
#1671 = PLANE('',#1672);
#1672 = AXIS2_PLACEMENT_3D('',#1673,#1674,#1675);
#1673 = CARTESIAN_POINT('',(-0.577350093062,0.9999998889,11.));
#1674 = DIRECTION('',(-9.621554772E-08,-1.,0.));
#1675 = DIRECTION('',(-1.,9.621554772E-08,0.));
#1676 = ADVANCED_FACE('',(#1677),#1702,.F.);
#1677 = FACE_BOUND('',#1678,.F.);
#1678 = EDGE_LOOP('',(#1679,#1680,#1688,#1696));
#1679 = ORIENTED_EDGE('',*,*,#1658,.T.);
#1680 = ORIENTED_EDGE('',*,*,#1681,.T.);
#1681 = EDGE_CURVE('',#1651,#1682,#1684,.T.);
#1682 = VERTEX_POINT('',#1683);
#1683 = CARTESIAN_POINT('',(-1.15470025421,-1.73478178E-07,11.1));
#1684 = LINE('',#1685,#1686);
#1685 = CARTESIAN_POINT('',(-1.732050495269,1.,11.1));
#1686 = VECTOR('',#1687,1.);
#1687 = DIRECTION('',(0.499999916675,-0.866025451892,0.));
#1688 = ORIENTED_EDGE('',*,*,#1689,.F.);
#1689 = EDGE_CURVE('',#1690,#1682,#1692,.T.);
#1690 = VERTEX_POINT('',#1691);
#1691 = CARTESIAN_POINT('',(-1.15470025421,-1.73478178E-07,11.));
#1692 = LINE('',#1693,#1694);
#1693 = CARTESIAN_POINT('',(-1.15470025421,-1.7347817804E-07,11.));
#1694 = VECTOR('',#1695,1.);
#1695 = DIRECTION('',(0.,0.,1.));
#1696 = ORIENTED_EDGE('',*,*,#1697,.F.);
#1697 = EDGE_CURVE('',#1659,#1690,#1698,.T.);
#1698 = LINE('',#1699,#1700);
#1699 = CARTESIAN_POINT('',(-1.732050495269,1.,11.));
#1700 = VECTOR('',#1701,1.);
#1701 = DIRECTION('',(0.499999916675,-0.866025451892,0.));
#1702 = PLANE('',#1703);
#1703 = AXIS2_PLACEMENT_3D('',#1704,#1705,#1706);
#1704 = CARTESIAN_POINT('',(-1.732050495269,1.,11.));
#1705 = DIRECTION('',(0.866025451892,0.499999916675,-0.));
#1706 = DIRECTION('',(0.499999916675,-0.866025451892,0.));
#1707 = ADVANCED_FACE('',(#1708),#1733,.F.);
#1708 = FACE_BOUND('',#1709,.F.);
#1709 = EDGE_LOOP('',(#1710,#1711,#1719,#1727));
#1710 = ORIENTED_EDGE('',*,*,#1689,.T.);
#1711 = ORIENTED_EDGE('',*,*,#1712,.T.);
#1712 = EDGE_CURVE('',#1682,#1713,#1715,.T.);
#1713 = VERTEX_POINT('',#1714);
#1714 = CARTESIAN_POINT('',(-1.732050483443,-1.000000353784,11.1));
#1715 = LINE('',#1716,#1717);
#1716 = CARTESIAN_POINT('',(-1.15470025421,-1.7347817804E-07,11.1));
#1717 = VECTOR('',#1718,1.);
#1718 = DIRECTION('',(-0.499999906433,-0.866025457805,0.));
#1719 = ORIENTED_EDGE('',*,*,#1720,.F.);
#1720 = EDGE_CURVE('',#1721,#1713,#1723,.T.);
#1721 = VERTEX_POINT('',#1722);
#1722 = CARTESIAN_POINT('',(-1.732050483443,-1.000000353784,11.));
#1723 = LINE('',#1724,#1725);
#1724 = CARTESIAN_POINT('',(-1.732050483443,-1.000000353784,11.));
#1725 = VECTOR('',#1726,1.);
#1726 = DIRECTION('',(0.,0.,1.));
#1727 = ORIENTED_EDGE('',*,*,#1728,.F.);
#1728 = EDGE_CURVE('',#1690,#1721,#1729,.T.);
#1729 = LINE('',#1730,#1731);
#1730 = CARTESIAN_POINT('',(-1.15470025421,-1.7347817804E-07,11.));
#1731 = VECTOR('',#1732,1.);
#1732 = DIRECTION('',(-0.499999906433,-0.866025457805,0.));
#1733 = PLANE('',#1734);
#1734 = AXIS2_PLACEMENT_3D('',#1735,#1736,#1737);
#1735 = CARTESIAN_POINT('',(-1.15470025421,-1.7347817804E-07,11.));
#1736 = DIRECTION('',(0.866025457805,-0.499999906433,0.));
#1737 = DIRECTION('',(-0.499999906433,-0.866025457805,0.));
#1738 = ADVANCED_FACE('',(#1739),#1764,.F.);
#1739 = FACE_BOUND('',#1740,.F.);
#1740 = EDGE_LOOP('',(#1741,#1742,#1750,#1758));
#1741 = ORIENTED_EDGE('',*,*,#1720,.T.);
#1742 = ORIENTED_EDGE('',*,*,#1743,.T.);
#1743 = EDGE_CURVE('',#1713,#1744,#1746,.T.);
#1744 = VERTEX_POINT('',#1745);
#1745 = CARTESIAN_POINT('',(-0.577350081235,-1.000000229028,11.1));
#1746 = LINE('',#1747,#1748);
#1747 = CARTESIAN_POINT('',(-1.732050483443,-1.000000353784,11.1));
#1748 = VECTOR('',#1749,1.);
#1749 = DIRECTION('',(1.,1.0804192241E-07,0.));
#1750 = ORIENTED_EDGE('',*,*,#1751,.F.);
#1751 = EDGE_CURVE('',#1752,#1744,#1754,.T.);
#1752 = VERTEX_POINT('',#1753);
#1753 = CARTESIAN_POINT('',(-0.577350081235,-1.000000229028,11.));
#1754 = LINE('',#1755,#1756);
#1755 = CARTESIAN_POINT('',(-0.577350081235,-1.000000229028,11.));
#1756 = VECTOR('',#1757,1.);
#1757 = DIRECTION('',(0.,0.,1.));
#1758 = ORIENTED_EDGE('',*,*,#1759,.F.);
#1759 = EDGE_CURVE('',#1721,#1752,#1760,.T.);
#1760 = LINE('',#1761,#1762);
#1761 = CARTESIAN_POINT('',(-1.732050483443,-1.000000353784,11.));
#1762 = VECTOR('',#1763,1.);
#1763 = DIRECTION('',(1.,1.0804192241E-07,0.));
#1764 = PLANE('',#1765);
#1765 = AXIS2_PLACEMENT_3D('',#1766,#1767,#1768);
#1766 = CARTESIAN_POINT('',(-1.732050483443,-1.000000353784,11.));
#1767 = DIRECTION('',(-1.0804192241E-07,1.,0.));
#1768 = DIRECTION('',(1.,1.0804192241E-07,0.));
#1769 = ADVANCED_FACE('',(#1770),#1795,.F.);
#1770 = FACE_BOUND('',#1771,.F.);
#1771 = EDGE_LOOP('',(#1772,#1773,#1781,#1789));
#1772 = ORIENTED_EDGE('',*,*,#1751,.T.);
#1773 = ORIENTED_EDGE('',*,*,#1774,.T.);
#1774 = EDGE_CURVE('',#1744,#1775,#1777,.T.);
#1775 = VERTEX_POINT('',#1776);
#1776 = CARTESIAN_POINT('',(2.3652774E-08,-2.00000016665,11.1));
#1777 = LINE('',#1778,#1779);
#1778 = CARTESIAN_POINT('',(-0.577350081235,-1.000000229028,11.1));
#1779 = VECTOR('',#1780,1.);
#1780 = DIRECTION('',(0.499999916675,-0.866025451892,0.));
#1781 = ORIENTED_EDGE('',*,*,#1782,.F.);
#1782 = EDGE_CURVE('',#1783,#1775,#1785,.T.);
#1783 = VERTEX_POINT('',#1784);
#1784 = CARTESIAN_POINT('',(2.3652774E-08,-2.00000016665,11.));
#1785 = LINE('',#1786,#1787);
#1786 = CARTESIAN_POINT('',(2.365277374E-08,-2.00000016665,11.));
#1787 = VECTOR('',#1788,1.);
#1788 = DIRECTION('',(0.,0.,1.));
#1789 = ORIENTED_EDGE('',*,*,#1790,.F.);
#1790 = EDGE_CURVE('',#1752,#1783,#1791,.T.);
#1791 = LINE('',#1792,#1793);
#1792 = CARTESIAN_POINT('',(-0.577350081235,-1.000000229028,11.));
#1793 = VECTOR('',#1794,1.);
#1794 = DIRECTION('',(0.499999916675,-0.866025451892,0.));
#1795 = PLANE('',#1796);
#1796 = AXIS2_PLACEMENT_3D('',#1797,#1798,#1799);
#1797 = CARTESIAN_POINT('',(-0.577350081235,-1.000000229028,11.));
#1798 = DIRECTION('',(0.866025451892,0.499999916675,-0.));
#1799 = DIRECTION('',(0.499999916675,-0.866025451892,0.));
#1800 = ADVANCED_FACE('',(#1801),#1826,.F.);
#1801 = FACE_BOUND('',#1802,.F.);
#1802 = EDGE_LOOP('',(#1803,#1804,#1812,#1820));
#1803 = ORIENTED_EDGE('',*,*,#1782,.T.);
#1804 = ORIENTED_EDGE('',*,*,#1805,.T.);
#1805 = EDGE_CURVE('',#1775,#1806,#1808,.T.);
#1806 = VERTEX_POINT('',#1807);
#1807 = CARTESIAN_POINT('',(0.577350457144,-1.000000104272,11.1));
#1808 = LINE('',#1809,#1810);
#1809 = CARTESIAN_POINT('',(2.365277374E-08,-2.00000016665,11.1));
#1810 = VECTOR('',#1811,1.);
#1811 = DIRECTION('',(0.500000083325,0.866025355677,0.));
#1812 = ORIENTED_EDGE('',*,*,#1813,.F.);
#1813 = EDGE_CURVE('',#1814,#1806,#1816,.T.);
#1814 = VERTEX_POINT('',#1815);
#1815 = CARTESIAN_POINT('',(0.577350457144,-1.000000104272,11.));
#1816 = LINE('',#1817,#1818);
#1817 = CARTESIAN_POINT('',(0.577350457144,-1.000000104272,11.));
#1818 = VECTOR('',#1819,1.);
#1819 = DIRECTION('',(0.,0.,1.));
#1820 = ORIENTED_EDGE('',*,*,#1821,.F.);
#1821 = EDGE_CURVE('',#1783,#1814,#1822,.T.);
#1822 = LINE('',#1823,#1824);
#1823 = CARTESIAN_POINT('',(2.365277374E-08,-2.00000016665,11.));
#1824 = VECTOR('',#1825,1.);
#1825 = DIRECTION('',(0.500000083325,0.866025355677,0.));
#1826 = PLANE('',#1827);
#1827 = AXIS2_PLACEMENT_3D('',#1828,#1829,#1830);
#1828 = CARTESIAN_POINT('',(2.365277374E-08,-2.00000016665,11.));
#1829 = DIRECTION('',(-0.866025355677,0.500000083325,0.));
#1830 = DIRECTION('',(0.500000083325,0.866025355677,0.));
#1831 = ADVANCED_FACE('',(#1832),#1857,.F.);
#1832 = FACE_BOUND('',#1833,.F.);
#1833 = EDGE_LOOP('',(#1834,#1835,#1843,#1851));
#1834 = ORIENTED_EDGE('',*,*,#1813,.T.);
#1835 = ORIENTED_EDGE('',*,*,#1836,.T.);
#1836 = EDGE_CURVE('',#1806,#1837,#1839,.T.);
#1837 = VERTEX_POINT('',#1838);
#1838 = CARTESIAN_POINT('',(1.732051131695,-0.999999979516,11.1));
#1839 = LINE('',#1840,#1841);
#1840 = CARTESIAN_POINT('',(0.577350457144,-1.000000104272,11.1));
#1841 = VECTOR('',#1842,1.);
#1842 = DIRECTION('',(1.,1.0804192232E-07,0.));
#1843 = ORIENTED_EDGE('',*,*,#1844,.F.);
#1844 = EDGE_CURVE('',#1845,#1837,#1847,.T.);
#1845 = VERTEX_POINT('',#1846);
#1846 = CARTESIAN_POINT('',(1.732051131695,-0.999999979516,11.));
#1847 = LINE('',#1848,#1849);
#1848 = CARTESIAN_POINT('',(1.732051131695,-0.999999979516,11.));
#1849 = VECTOR('',#1850,1.);
#1850 = DIRECTION('',(0.,0.,1.));
#1851 = ORIENTED_EDGE('',*,*,#1852,.F.);
#1852 = EDGE_CURVE('',#1814,#1845,#1853,.T.);
#1853 = LINE('',#1854,#1855);
#1854 = CARTESIAN_POINT('',(0.577350457144,-1.000000104272,11.));
#1855 = VECTOR('',#1856,1.);
#1856 = DIRECTION('',(1.,1.0804192232E-07,0.));
#1857 = PLANE('',#1858);
#1858 = AXIS2_PLACEMENT_3D('',#1859,#1860,#1861);
#1859 = CARTESIAN_POINT('',(0.577350457144,-1.000000104272,11.));
#1860 = DIRECTION('',(-1.0804192232E-07,1.,0.));
#1861 = DIRECTION('',(1.,1.0804192232E-07,0.));
#1862 = ADVANCED_FACE('',(#1863),#1888,.F.);
#1863 = FACE_BOUND('',#1864,.F.);
#1864 = EDGE_LOOP('',(#1865,#1866,#1874,#1882));
#1865 = ORIENTED_EDGE('',*,*,#1844,.T.);
#1866 = ORIENTED_EDGE('',*,*,#1867,.T.);
#1867 = EDGE_CURVE('',#1837,#1868,#1870,.T.);
#1868 = VERTEX_POINT('',#1869);
#1869 = CARTESIAN_POINT('',(1.154700822549,-1.598223E-07,11.1));
#1870 = LINE('',#1871,#1872);
#1871 = CARTESIAN_POINT('',(1.732051131695,-0.999999979516,11.1));
#1872 = VECTOR('',#1873,1.);
#1873 = DIRECTION('',(-0.500000093567,0.866025349763,0.));
#1874 = ORIENTED_EDGE('',*,*,#1875,.F.);
#1875 = EDGE_CURVE('',#1876,#1868,#1878,.T.);
#1876 = VERTEX_POINT('',#1877);
#1877 = CARTESIAN_POINT('',(1.154700822549,-1.598223E-07,11.));
#1878 = LINE('',#1879,#1880);
#1879 = CARTESIAN_POINT('',(1.154700822549,-1.5982230028E-07,11.));
#1880 = VECTOR('',#1881,1.);
#1881 = DIRECTION('',(0.,0.,1.));
#1882 = ORIENTED_EDGE('',*,*,#1883,.F.);
#1883 = EDGE_CURVE('',#1845,#1876,#1884,.T.);
#1884 = LINE('',#1885,#1886);
#1885 = CARTESIAN_POINT('',(1.732051131695,-0.999999979516,11.));
#1886 = VECTOR('',#1887,1.);
#1887 = DIRECTION('',(-0.500000093567,0.866025349763,0.));
#1888 = PLANE('',#1889);
#1889 = AXIS2_PLACEMENT_3D('',#1890,#1891,#1892);
#1890 = CARTESIAN_POINT('',(1.732051131695,-0.999999979516,11.));
#1891 = DIRECTION('',(-0.866025349763,-0.500000093567,0.));
#1892 = DIRECTION('',(-0.500000093567,0.866025349763,0.));
#1893 = ADVANCED_FACE('',(#1894),#1919,.F.);
#1894 = FACE_BOUND('',#1895,.F.);
#1895 = EDGE_LOOP('',(#1896,#1897,#1905,#1913));
#1896 = ORIENTED_EDGE('',*,*,#1875,.T.);
#1897 = ORIENTED_EDGE('',*,*,#1898,.T.);
#1898 = EDGE_CURVE('',#1868,#1899,#1901,.T.);
#1899 = VERTEX_POINT('',#1900);
#1900 = CARTESIAN_POINT('',(1.732051119868,0.9999996667,11.1));
#1901 = LINE('',#1902,#1903);
#1902 = CARTESIAN_POINT('',(1.154700822549,-1.5982230028E-07,11.1));
#1903 = VECTOR('',#1904,1.);
#1904 = DIRECTION('',(0.500000083325,0.866025355677,0.));
#1905 = ORIENTED_EDGE('',*,*,#1906,.F.);
#1906 = EDGE_CURVE('',#1907,#1899,#1909,.T.);
#1907 = VERTEX_POINT('',#1908);
#1908 = CARTESIAN_POINT('',(1.732051119868,0.9999996667,11.));
#1909 = LINE('',#1910,#1911);
#1910 = CARTESIAN_POINT('',(1.732051119868,0.9999996667,11.));
#1911 = VECTOR('',#1912,1.);
#1912 = DIRECTION('',(0.,0.,1.));
#1913 = ORIENTED_EDGE('',*,*,#1914,.F.);
#1914 = EDGE_CURVE('',#1876,#1907,#1915,.T.);
#1915 = LINE('',#1916,#1917);
#1916 = CARTESIAN_POINT('',(1.154700822549,-1.5982230028E-07,11.));
#1917 = VECTOR('',#1918,1.);
#1918 = DIRECTION('',(0.500000083325,0.866025355677,0.));
#1919 = PLANE('',#1920);
#1920 = AXIS2_PLACEMENT_3D('',#1921,#1922,#1923);
#1921 = CARTESIAN_POINT('',(1.154700822549,-1.5982230028E-07,11.));
#1922 = DIRECTION('',(-0.866025355677,0.500000083325,0.));
#1923 = DIRECTION('',(0.500000083325,0.866025355677,0.));
#1924 = ADVANCED_FACE('',(#1925),#1950,.F.);
#1925 = FACE_BOUND('',#1926,.F.);
#1926 = EDGE_LOOP('',(#1927,#1928,#1936,#1944));
#1927 = ORIENTED_EDGE('',*,*,#1906,.T.);
#1928 = ORIENTED_EDGE('',*,*,#1929,.T.);
#1929 = EDGE_CURVE('',#1899,#1930,#1932,.T.);
#1930 = VERTEX_POINT('',#1931);
#1931 = CARTESIAN_POINT('',(0.577350445317,0.9999997778,11.1));
#1932 = LINE('',#1933,#1934);
#1933 = CARTESIAN_POINT('',(1.732051119868,0.9999996667,11.1));
#1934 = VECTOR('',#1935,1.);
#1935 = DIRECTION('',(-1.,9.621554791E-08,0.));
#1936 = ORIENTED_EDGE('',*,*,#1937,.F.);
#1937 = EDGE_CURVE('',#1938,#1930,#1940,.T.);
#1938 = VERTEX_POINT('',#1939);
#1939 = CARTESIAN_POINT('',(0.577350445317,0.9999997778,11.));
#1940 = LINE('',#1941,#1942);
#1941 = CARTESIAN_POINT('',(0.577350445317,0.9999997778,11.));
#1942 = VECTOR('',#1943,1.);
#1943 = DIRECTION('',(0.,0.,1.));
#1944 = ORIENTED_EDGE('',*,*,#1945,.F.);
#1945 = EDGE_CURVE('',#1907,#1938,#1946,.T.);
#1946 = LINE('',#1947,#1948);
#1947 = CARTESIAN_POINT('',(1.732051119868,0.9999996667,11.));
#1948 = VECTOR('',#1949,1.);
#1949 = DIRECTION('',(-1.,9.621554791E-08,0.));
#1950 = PLANE('',#1951);
#1951 = AXIS2_PLACEMENT_3D('',#1952,#1953,#1954);
#1952 = CARTESIAN_POINT('',(1.732051119868,0.9999996667,11.));
#1953 = DIRECTION('',(-9.621554791E-08,-1.,0.));
#1954 = DIRECTION('',(-1.,9.621554791E-08,0.));
#1955 = ADVANCED_FACE('',(#1956),#1972,.F.);
#1956 = FACE_BOUND('',#1957,.F.);
#1957 = EDGE_LOOP('',(#1958,#1959,#1965,#1966));
#1958 = ORIENTED_EDGE('',*,*,#1937,.T.);
#1959 = ORIENTED_EDGE('',*,*,#1960,.T.);
#1960 = EDGE_CURVE('',#1930,#1612,#1961,.T.);
#1961 = LINE('',#1962,#1963);
#1962 = CARTESIAN_POINT('',(0.577350445317,0.9999997778,11.1));
#1963 = VECTOR('',#1964,1.);
#1964 = DIRECTION('',(-0.500000093567,0.866025349763,0.));
#1965 = ORIENTED_EDGE('',*,*,#1609,.F.);
#1966 = ORIENTED_EDGE('',*,*,#1967,.F.);
#1967 = EDGE_CURVE('',#1938,#1610,#1968,.T.);
#1968 = LINE('',#1969,#1970);
#1969 = CARTESIAN_POINT('',(0.577350445317,0.9999997778,11.));
#1970 = VECTOR('',#1971,1.);
#1971 = DIRECTION('',(-0.500000093567,0.866025349763,0.));
#1972 = PLANE('',#1973);
#1973 = AXIS2_PLACEMENT_3D('',#1974,#1975,#1976);
#1974 = CARTESIAN_POINT('',(0.577350445317,0.9999997778,11.));
#1975 = DIRECTION('',(-0.866025349763,-0.500000093567,0.));
#1976 = DIRECTION('',(-0.500000093567,0.866025349763,0.));
#1977 = ADVANCED_FACE('',(#1978),#1992,.F.);
#1978 = FACE_BOUND('',#1979,.F.);
#1979 = EDGE_LOOP('',(#1980,#1981,#1982,#1983,#1984,#1985,#1986,#1987,
    #1988,#1989,#1990,#1991));
#1980 = ORIENTED_EDGE('',*,*,#1635,.T.);
#1981 = ORIENTED_EDGE('',*,*,#1666,.T.);
#1982 = ORIENTED_EDGE('',*,*,#1697,.T.);
#1983 = ORIENTED_EDGE('',*,*,#1728,.T.);
#1984 = ORIENTED_EDGE('',*,*,#1759,.T.);
#1985 = ORIENTED_EDGE('',*,*,#1790,.T.);
#1986 = ORIENTED_EDGE('',*,*,#1821,.T.);
#1987 = ORIENTED_EDGE('',*,*,#1852,.T.);
#1988 = ORIENTED_EDGE('',*,*,#1883,.T.);
#1989 = ORIENTED_EDGE('',*,*,#1914,.T.);
#1990 = ORIENTED_EDGE('',*,*,#1945,.T.);
#1991 = ORIENTED_EDGE('',*,*,#1967,.T.);
#1992 = PLANE('',#1993);
#1993 = AXIS2_PLACEMENT_3D('',#1994,#1995,#1996);
#1994 = CARTESIAN_POINT('',(2.1608384677E-07,-1.6665023772E-07,11.));
#1995 = DIRECTION('',(0.,0.,1.));
#1996 = DIRECTION('',(1.,0.,-0.));
#1997 = ADVANCED_FACE('',(#1998),#2012,.T.);
#1998 = FACE_BOUND('',#1999,.T.);
#1999 = EDGE_LOOP('',(#2000,#2001,#2002,#2003,#2004,#2005,#2006,#2007,
    #2008,#2009,#2010,#2011));
#2000 = ORIENTED_EDGE('',*,*,#1619,.T.);
#2001 = ORIENTED_EDGE('',*,*,#1650,.T.);
#2002 = ORIENTED_EDGE('',*,*,#1681,.T.);
#2003 = ORIENTED_EDGE('',*,*,#1712,.T.);
#2004 = ORIENTED_EDGE('',*,*,#1743,.T.);
#2005 = ORIENTED_EDGE('',*,*,#1774,.T.);
#2006 = ORIENTED_EDGE('',*,*,#1805,.T.);
#2007 = ORIENTED_EDGE('',*,*,#1836,.T.);
#2008 = ORIENTED_EDGE('',*,*,#1867,.T.);
#2009 = ORIENTED_EDGE('',*,*,#1898,.T.);
#2010 = ORIENTED_EDGE('',*,*,#1929,.T.);
#2011 = ORIENTED_EDGE('',*,*,#1960,.T.);
#2012 = PLANE('',#2013);
#2013 = AXIS2_PLACEMENT_3D('',#2014,#2015,#2016);
#2014 = CARTESIAN_POINT('',(2.1608384677E-07,-1.6665023772E-07,11.1));
#2015 = DIRECTION('',(0.,0.,1.));
#2016 = DIRECTION('',(1.,0.,0.));
#2017 = ( GEOMETRIC_REPRESENTATION_CONTEXT(3) 
GLOBAL_UNCERTAINTY_ASSIGNED_CONTEXT((#2021)) 
GLOBAL_UNIT_ASSIGNED_CONTEXT((#2018,#2019,#2020)) REPRESENTATION_CONTEXT
('Context #1','3D Context with UNIT and UNCERTAINTY') );
#2018 = ( LENGTH_UNIT() NAMED_UNIT(*) SI_UNIT(.MILLI.,.METRE.) );
#2019 = ( NAMED_UNIT(*) PLANE_ANGLE_UNIT() SI_UNIT($,.RADIAN.) );
#2020 = ( NAMED_UNIT(*) SI_UNIT($,.STERADIAN.) SOLID_ANGLE_UNIT() );
#2021 = UNCERTAINTY_MEASURE_WITH_UNIT(LENGTH_MEASURE(1.E-07),#2018,
  'distance_accuracy_value','confusion accuracy');
#2022 = CONTEXT_DEPENDENT_SHAPE_REPRESENTATION(#2023,#2025);
#2023 = ( REPRESENTATION_RELATIONSHIP('','',#1184,#10) 
REPRESENTATION_RELATIONSHIP_WITH_TRANSFORMATION(#2024) 
SHAPE_REPRESENTATION_RELATIONSHIP() );
#2024 = ITEM_DEFINED_TRANSFORMATION('','',#11,#23);
#2025 = PRODUCT_DEFINITION_SHAPE('Placement','Placement of an item',
  #2026);
#2026 = NEXT_ASSEMBLY_USAGE_OCCURRENCE('3','Graphic','',#5,#1179,$);
#2027 = PRODUCT_RELATED_PRODUCT_CATEGORY('part',$,(#1181));
#2028 = MECHANICAL_DESIGN_GEOMETRIC_PRESENTATION_REPRESENTATION('',(
    #2029),#333);
#2029 = STYLED_ITEM('color',(#2030),#41);
#2030 = PRESENTATION_STYLE_ASSIGNMENT((#2031,#2037));
#2031 = SURFACE_STYLE_USAGE(.BOTH.,#2032);
#2032 = SURFACE_SIDE_STYLE('',(#2033));
#2033 = SURFACE_STYLE_FILL_AREA(#2034);
#2034 = FILL_AREA_STYLE('',(#2035));
#2035 = FILL_AREA_STYLE_COLOUR('',#2036);
#2036 = COLOUR_RGB('',0.447058818107,0.474509808674,0.501960817233);
#2037 = CURVE_STYLE('',#2038,POSITIVE_LENGTH_MEASURE(0.1),#2039);
#2038 = DRAUGHTING_PRE_DEFINED_CURVE_FONT('continuous');
#2039 = COLOUR_RGB('',9.803921802644E-02,9.803921802644E-02,
  9.803921802644E-02);
#2040 = MECHANICAL_DESIGN_GEOMETRIC_PRESENTATION_REPRESENTATION('',(
    #2041,#2051),#2017);
#2041 = STYLED_ITEM('color',(#2042),#1185);
#2042 = PRESENTATION_STYLE_ASSIGNMENT((#2043,#2048));
#2043 = SURFACE_STYLE_USAGE(.BOTH.,#2044);
#2044 = SURFACE_SIDE_STYLE('',(#2045));
#2045 = SURFACE_STYLE_FILL_AREA(#2046);
#2046 = FILL_AREA_STYLE('',(#2047));
#2047 = FILL_AREA_STYLE_COLOUR('',#2036);
#2048 = CURVE_STYLE('',#2049,POSITIVE_LENGTH_MEASURE(0.1),#2050);
#2049 = DRAUGHTING_PRE_DEFINED_CURVE_FONT('continuous');
#2050 = COLOUR_RGB('',0.945098040599,0.952941189437,0.960784305148);
#2051 = STYLED_ITEM('color',(#2052),#1603);
#2052 = PRESENTATION_STYLE_ASSIGNMENT((#2053,#2058));
#2053 = SURFACE_STYLE_USAGE(.BOTH.,#2054);
#2054 = SURFACE_SIDE_STYLE('',(#2055));
#2055 = SURFACE_STYLE_FILL_AREA(#2056);
#2056 = FILL_AREA_STYLE('',(#2057));
#2057 = FILL_AREA_STYLE_COLOUR('',#2036);
#2058 = CURVE_STYLE('',#2059,POSITIVE_LENGTH_MEASURE(0.1),#2050);
#2059 = DRAUGHTING_PRE_DEFINED_CURVE_FONT('continuous');
#2060 = MECHANICAL_DESIGN_GEOMETRIC_PRESENTATION_REPRESENTATION('',(
    #2061),#1166);
#2061 = STYLED_ITEM('color',(#2062),#352);
#2062 = PRESENTATION_STYLE_ASSIGNMENT((#2063,#2068));
#2063 = SURFACE_STYLE_USAGE(.BOTH.,#2064);
#2064 = SURFACE_SIDE_STYLE('',(#2065));
#2065 = SURFACE_STYLE_FILL_AREA(#2066);
#2066 = FILL_AREA_STYLE('',(#2067));
#2067 = FILL_AREA_STYLE_COLOUR('',#2036);
#2068 = CURVE_STYLE('',#2069,POSITIVE_LENGTH_MEASURE(0.1),#2050);
#2069 = DRAUGHTING_PRE_DEFINED_CURVE_FONT('continuous');
ENDSEC;
END-ISO-10303-21;
