ISO-10303-21;
HEADER;
FILE_DESCRIPTION(('FreeCAD Model'),'2;1');
FILE_NAME('Open CASCADE Shape Model','2026-03-15T14:15:08',(''),(''),
  'Open CASCADE STEP processor 7.9','FreeCAD','Unknown');
FILE_SCHEMA(('AUTOMOTIVE_DESIGN { 1 0 10303 214 1 1 1 1 }'));
ENDSEC;
DATA;
#1 = APPLICATION_PROTOCOL_DEFINITION('international standard',
  'automotive_design',2000,#2);
#2 = APPLICATION_CONTEXT(
  'core data for automotive mechanical design processes');
#3 = SHAPE_DEFINITION_REPRESENTATION(#4,#10);
#4 = PRODUCT_DEFINITION_SHAPE('','',#5);
#5 = PRODUCT_DEFINITION('design','',#6,#9);
#6 = PRODUCT_DEFINITION_FORMATION('','',#7);
#7 = PRODUCT('Spacebar','Spacebar','',(#8));
#8 = PRODUCT_CONTEXT('',#2,'mechanical');
#9 = PRODUCT_DEFINITION_CONTEXT('part definition',#2,'design');
#10 = SHAPE_REPRESENTATION('',(#11,#15,#19,#23),#27);
#11 = AXIS2_PLACEMENT_3D('',#12,#13,#14);
#12 = CARTESIAN_POINT('',(0.,0.,0.));
#13 = DIRECTION('',(0.,0.,1.));
#14 = DIRECTION('',(1.,0.,-0.));
#15 = AXIS2_PLACEMENT_3D('',#16,#17,#18);
#16 = CARTESIAN_POINT('',(0.,0.,0.));
#17 = DIRECTION('',(0.,0.,1.));
#18 = DIRECTION('',(1.,0.,0.));
#19 = AXIS2_PLACEMENT_3D('',#20,#21,#22);
#20 = CARTESIAN_POINT('',(0.,0.,0.));
#21 = DIRECTION('',(0.,0.,1.));
#22 = DIRECTION('',(1.,0.,0.));
#23 = AXIS2_PLACEMENT_3D('',#24,#25,#26);
#24 = CARTESIAN_POINT('',(0.,0.,0.));
#25 = DIRECTION('',(0.,0.,1.));
#26 = DIRECTION('',(1.,0.,0.));
#27 = ( GEOMETRIC_REPRESENTATION_CONTEXT(3) 
GLOBAL_UNCERTAINTY_ASSIGNED_CONTEXT((#31)) GLOBAL_UNIT_ASSIGNED_CONTEXT(
(#28,#29,#30)) REPRESENTATION_CONTEXT('Context #1',
  '3D Context with UNIT and UNCERTAINTY') );
#28 = ( LENGTH_UNIT() NAMED_UNIT(*) SI_UNIT(.MILLI.,.METRE.) );
#29 = ( NAMED_UNIT(*) PLANE_ANGLE_UNIT() SI_UNIT($,.RADIAN.) );
#30 = ( NAMED_UNIT(*) SI_UNIT($,.STERADIAN.) SOLID_ANGLE_UNIT() );
#31 = UNCERTAINTY_MEASURE_WITH_UNIT(LENGTH_MEASURE(2.E-05),#28,
  'distance_accuracy_value','confusion accuracy');
#32 = PRODUCT_RELATED_PRODUCT_CATEGORY('part',$,(#7));
#33 = SHAPE_DEFINITION_REPRESENTATION(#34,#40);
#34 = PRODUCT_DEFINITION_SHAPE('','',#35);
#35 = PRODUCT_DEFINITION('design','',#36,#39);
#36 = PRODUCT_DEFINITION_FORMATION('','',#37);
#37 = PRODUCT('Extrude004','Extrude004','',(#38));
#38 = PRODUCT_CONTEXT('',#2,'mechanical');
#39 = PRODUCT_DEFINITION_CONTEXT('part definition',#2,'design');
#40 = ADVANCED_BREP_SHAPE_REPRESENTATION('',(#11,#41),#459);
#41 = MANIFOLD_SOLID_BREP('',#42);
#42 = CLOSED_SHELL('',(#43,#83,#114,#145,#176,#207,#229,#269,#300,#331,
    #362,#393,#415,#437));
#43 = ADVANCED_FACE('',(#44),#78,.F.);
#44 = FACE_BOUND('',#45,.F.);
#45 = EDGE_LOOP('',(#46,#56,#64,#72));
#46 = ORIENTED_EDGE('',*,*,#47,.T.);
#47 = EDGE_CURVE('',#48,#50,#52,.T.);
#48 = VERTEX_POINT('',#49);
#49 = CARTESIAN_POINT('',(-37.24543771135,0.,11.));
#50 = VERTEX_POINT('',#51);
#51 = CARTESIAN_POINT('',(-37.24543771135,0.,11.5));
#52 = LINE('',#53,#54);
#53 = CARTESIAN_POINT('',(-37.24543771135,0.,11.));
#54 = VECTOR('',#55,1.);
#55 = DIRECTION('',(0.,0.,1.));
#56 = ORIENTED_EDGE('',*,*,#57,.T.);
#57 = EDGE_CURVE('',#50,#58,#60,.T.);
#58 = VERTEX_POINT('',#59);
#59 = CARTESIAN_POINT('',(-39.74543771135,4.330127018922,11.5));
#60 = LINE('',#61,#62);
#61 = CARTESIAN_POINT('',(-37.24543771135,0.,11.5));
#62 = VECTOR('',#63,1.);
#63 = DIRECTION('',(-0.5,0.866025403784,0.));
#64 = ORIENTED_EDGE('',*,*,#65,.F.);
#65 = EDGE_CURVE('',#66,#58,#68,.T.);
#66 = VERTEX_POINT('',#67);
#67 = CARTESIAN_POINT('',(-39.74543771135,4.330127018922,11.));
#68 = LINE('',#69,#70);
#69 = CARTESIAN_POINT('',(-39.74543771135,4.330127018922,11.));
#70 = VECTOR('',#71,1.);
#71 = DIRECTION('',(0.,0.,1.));
#72 = ORIENTED_EDGE('',*,*,#73,.F.);
#73 = EDGE_CURVE('',#48,#66,#74,.T.);
#74 = LINE('',#75,#76);
#75 = CARTESIAN_POINT('',(-37.24543771135,0.,11.));
#76 = VECTOR('',#77,1.);
#77 = DIRECTION('',(-0.5,0.866025403784,0.));
#78 = PLANE('',#79);
#79 = AXIS2_PLACEMENT_3D('',#80,#81,#82);
#80 = CARTESIAN_POINT('',(-37.24543771135,0.,11.));
#81 = DIRECTION('',(-0.866025403784,-0.5,0.));
#82 = DIRECTION('',(-0.5,0.866025403784,0.));
#83 = ADVANCED_FACE('',(#84),#109,.F.);
#84 = FACE_BOUND('',#85,.F.);
#85 = EDGE_LOOP('',(#86,#87,#95,#103));
#86 = ORIENTED_EDGE('',*,*,#65,.T.);
#87 = ORIENTED_EDGE('',*,*,#88,.T.);
#88 = EDGE_CURVE('',#58,#89,#91,.T.);
#89 = VERTEX_POINT('',#90);
#90 = CARTESIAN_POINT('',(-44.74543771135,4.330127018922,11.5));
#91 = LINE('',#92,#93);
#92 = CARTESIAN_POINT('',(-39.74543771135,4.330127018922,11.5));
#93 = VECTOR('',#94,1.);
#94 = DIRECTION('',(-1.,1.8E-16,0.));
#95 = ORIENTED_EDGE('',*,*,#96,.F.);
#96 = EDGE_CURVE('',#97,#89,#99,.T.);
#97 = VERTEX_POINT('',#98);
#98 = CARTESIAN_POINT('',(-44.74543771135,4.330127018922,11.));
#99 = LINE('',#100,#101);
#100 = CARTESIAN_POINT('',(-44.74543771135,4.330127018922,11.));
#101 = VECTOR('',#102,1.);
#102 = DIRECTION('',(0.,0.,1.));
#103 = ORIENTED_EDGE('',*,*,#104,.F.);
#104 = EDGE_CURVE('',#66,#97,#105,.T.);
#105 = LINE('',#106,#107);
#106 = CARTESIAN_POINT('',(-39.74543771135,4.330127018922,11.));
#107 = VECTOR('',#108,1.);
#108 = DIRECTION('',(-1.,1.8E-16,0.));
#109 = PLANE('',#110);
#110 = AXIS2_PLACEMENT_3D('',#111,#112,#113);
#111 = CARTESIAN_POINT('',(-39.74543771135,4.330127018922,11.));
#112 = DIRECTION('',(-1.8E-16,-1.,0.));
#113 = DIRECTION('',(-1.,1.8E-16,0.));
#114 = ADVANCED_FACE('',(#115),#140,.F.);
#115 = FACE_BOUND('',#116,.F.);
#116 = EDGE_LOOP('',(#117,#118,#126,#134));
#117 = ORIENTED_EDGE('',*,*,#96,.T.);
#118 = ORIENTED_EDGE('',*,*,#119,.T.);
#119 = EDGE_CURVE('',#89,#120,#122,.T.);
#120 = VERTEX_POINT('',#121);
#121 = CARTESIAN_POINT('',(-47.24543771135,0.,11.5));
#122 = LINE('',#123,#124);
#123 = CARTESIAN_POINT('',(-44.74543771135,4.330127018922,11.5));
#124 = VECTOR('',#125,1.);
#125 = DIRECTION('',(-0.5,-0.866025403784,0.));
#126 = ORIENTED_EDGE('',*,*,#127,.F.);
#127 = EDGE_CURVE('',#128,#120,#130,.T.);
#128 = VERTEX_POINT('',#129);
#129 = CARTESIAN_POINT('',(-47.24543771135,0.,11.));
#130 = LINE('',#131,#132);
#131 = CARTESIAN_POINT('',(-47.24543771135,1.8E-16,11.));
#132 = VECTOR('',#133,1.);
#133 = DIRECTION('',(0.,0.,1.));
#134 = ORIENTED_EDGE('',*,*,#135,.F.);
#135 = EDGE_CURVE('',#97,#128,#136,.T.);
#136 = LINE('',#137,#138);
#137 = CARTESIAN_POINT('',(-44.74543771135,4.330127018922,11.));
#138 = VECTOR('',#139,1.);
#139 = DIRECTION('',(-0.5,-0.866025403784,0.));
#140 = PLANE('',#141);
#141 = AXIS2_PLACEMENT_3D('',#142,#143,#144);
#142 = CARTESIAN_POINT('',(-44.74543771135,4.330127018922,11.));
#143 = DIRECTION('',(0.866025403784,-0.5,0.));
#144 = DIRECTION('',(-0.5,-0.866025403784,0.));
#145 = ADVANCED_FACE('',(#146),#171,.F.);
#146 = FACE_BOUND('',#147,.F.);
#147 = EDGE_LOOP('',(#148,#149,#157,#165));
#148 = ORIENTED_EDGE('',*,*,#127,.T.);
#149 = ORIENTED_EDGE('',*,*,#150,.T.);
#150 = EDGE_CURVE('',#120,#151,#153,.T.);
#151 = VERTEX_POINT('',#152);
#152 = CARTESIAN_POINT('',(-44.74543771135,-4.330127018922,11.5));
#153 = LINE('',#154,#155);
#154 = CARTESIAN_POINT('',(-47.24543771135,3.6E-16,11.5));
#155 = VECTOR('',#156,1.);
#156 = DIRECTION('',(0.5,-0.866025403784,0.));
#157 = ORIENTED_EDGE('',*,*,#158,.F.);
#158 = EDGE_CURVE('',#159,#151,#161,.T.);
#159 = VERTEX_POINT('',#160);
#160 = CARTESIAN_POINT('',(-44.74543771135,-4.330127018922,11.));
#161 = LINE('',#162,#163);
#162 = CARTESIAN_POINT('',(-44.74543771135,-4.330127018922,11.));
#163 = VECTOR('',#164,1.);
#164 = DIRECTION('',(0.,0.,1.));
#165 = ORIENTED_EDGE('',*,*,#166,.F.);
#166 = EDGE_CURVE('',#128,#159,#167,.T.);
#167 = LINE('',#168,#169);
#168 = CARTESIAN_POINT('',(-47.24543771135,3.6E-16,11.));
#169 = VECTOR('',#170,1.);
#170 = DIRECTION('',(0.5,-0.866025403784,0.));
#171 = PLANE('',#172);
#172 = AXIS2_PLACEMENT_3D('',#173,#174,#175);
#173 = CARTESIAN_POINT('',(-47.24543771135,3.6E-16,11.));
#174 = DIRECTION('',(0.866025403784,0.5,-0.));
#175 = DIRECTION('',(0.5,-0.866025403784,0.));
#176 = ADVANCED_FACE('',(#177),#202,.F.);
#177 = FACE_BOUND('',#178,.F.);
#178 = EDGE_LOOP('',(#179,#180,#188,#196));
#179 = ORIENTED_EDGE('',*,*,#158,.T.);
#180 = ORIENTED_EDGE('',*,*,#181,.T.);
#181 = EDGE_CURVE('',#151,#182,#184,.T.);
#182 = VERTEX_POINT('',#183);
#183 = CARTESIAN_POINT('',(-39.74543771135,-4.330127018922,11.5));
#184 = LINE('',#185,#186);
#185 = CARTESIAN_POINT('',(-44.74543771135,-4.330127018922,11.5));
#186 = VECTOR('',#187,1.);
#187 = DIRECTION('',(1.,-1.8E-16,0.));
#188 = ORIENTED_EDGE('',*,*,#189,.F.);
#189 = EDGE_CURVE('',#190,#182,#192,.T.);
#190 = VERTEX_POINT('',#191);
#191 = CARTESIAN_POINT('',(-39.74543771135,-4.330127018922,11.));
#192 = LINE('',#193,#194);
#193 = CARTESIAN_POINT('',(-39.74543771135,-4.330127018922,11.));
#194 = VECTOR('',#195,1.);
#195 = DIRECTION('',(0.,0.,1.));
#196 = ORIENTED_EDGE('',*,*,#197,.F.);
#197 = EDGE_CURVE('',#159,#190,#198,.T.);
#198 = LINE('',#199,#200);
#199 = CARTESIAN_POINT('',(-44.74543771135,-4.330127018922,11.));
#200 = VECTOR('',#201,1.);
#201 = DIRECTION('',(1.,-1.8E-16,0.));
#202 = PLANE('',#203);
#203 = AXIS2_PLACEMENT_3D('',#204,#205,#206);
#204 = CARTESIAN_POINT('',(-44.74543771135,-4.330127018922,11.));
#205 = DIRECTION('',(1.8E-16,1.,-0.));
#206 = DIRECTION('',(1.,-1.8E-16,0.));
#207 = ADVANCED_FACE('',(#208),#224,.F.);
#208 = FACE_BOUND('',#209,.F.);
#209 = EDGE_LOOP('',(#210,#211,#217,#218));
#210 = ORIENTED_EDGE('',*,*,#189,.T.);
#211 = ORIENTED_EDGE('',*,*,#212,.T.);
#212 = EDGE_CURVE('',#182,#50,#213,.T.);
#213 = LINE('',#214,#215);
#214 = CARTESIAN_POINT('',(-39.74543771135,-4.330127018922,11.5));
#215 = VECTOR('',#216,1.);
#216 = DIRECTION('',(0.5,0.866025403784,0.));
#217 = ORIENTED_EDGE('',*,*,#47,.F.);
#218 = ORIENTED_EDGE('',*,*,#219,.F.);
#219 = EDGE_CURVE('',#190,#48,#220,.T.);
#220 = LINE('',#221,#222);
#221 = CARTESIAN_POINT('',(-39.74543771135,-4.330127018922,11.));
#222 = VECTOR('',#223,1.);
#223 = DIRECTION('',(0.5,0.866025403784,0.));
#224 = PLANE('',#225);
#225 = AXIS2_PLACEMENT_3D('',#226,#227,#228);
#226 = CARTESIAN_POINT('',(-39.74543771135,-4.330127018922,11.));
#227 = DIRECTION('',(-0.866025403784,0.5,0.));
#228 = DIRECTION('',(0.5,0.866025403784,0.));
#229 = ADVANCED_FACE('',(#230),#264,.T.);
#230 = FACE_BOUND('',#231,.T.);
#231 = EDGE_LOOP('',(#232,#242,#250,#258));
#232 = ORIENTED_EDGE('',*,*,#233,.T.);
#233 = EDGE_CURVE('',#234,#236,#238,.T.);
#234 = VERTEX_POINT('',#235);
#235 = CARTESIAN_POINT('',(-38.781336,1.99999983335,11.));
#236 = VERTEX_POINT('',#237);
#237 = CARTESIAN_POINT('',(-38.781336,1.99999983335,11.5));
#238 = LINE('',#239,#240);
#239 = CARTESIAN_POINT('',(-38.781336,1.99999983335,11.));
#240 = VECTOR('',#241,1.);
#241 = DIRECTION('',(0.,0.,1.));
#242 = ORIENTED_EDGE('',*,*,#243,.T.);
#243 = EDGE_CURVE('',#236,#244,#246,.T.);
#244 = VERTEX_POINT('',#245);
#245 = CARTESIAN_POINT('',(-42.24543751892,4.,11.5));
#246 = LINE('',#247,#248);
#247 = CARTESIAN_POINT('',(-38.781336,1.99999983335,11.5));
#248 = VECTOR('',#249,1.);
#249 = DIRECTION('',(-0.866025379731,0.500000041663,0.));
#250 = ORIENTED_EDGE('',*,*,#251,.F.);
#251 = EDGE_CURVE('',#252,#244,#254,.T.);
#252 = VERTEX_POINT('',#253);
#253 = CARTESIAN_POINT('',(-42.24543751892,4.,11.));
#254 = LINE('',#255,#256);
#255 = CARTESIAN_POINT('',(-42.24543751892,4.,11.));
#256 = VECTOR('',#257,1.);
#257 = DIRECTION('',(0.,0.,1.));
#258 = ORIENTED_EDGE('',*,*,#259,.F.);
#259 = EDGE_CURVE('',#234,#252,#260,.T.);
#260 = LINE('',#261,#262);
#261 = CARTESIAN_POINT('',(-38.781336,1.99999983335,11.));
#262 = VECTOR('',#263,1.);
#263 = DIRECTION('',(-0.866025379731,0.500000041663,0.));
#264 = PLANE('',#265);
#265 = AXIS2_PLACEMENT_3D('',#266,#267,#268);
#266 = CARTESIAN_POINT('',(-38.781336,1.99999983335,11.));
#267 = DIRECTION('',(-0.500000041663,-0.866025379731,0.));
#268 = DIRECTION('',(-0.866025379731,0.500000041663,0.));
#269 = ADVANCED_FACE('',(#270),#295,.T.);
#270 = FACE_BOUND('',#271,.T.);
#271 = EDGE_LOOP('',(#272,#273,#281,#289));
#272 = ORIENTED_EDGE('',*,*,#251,.T.);
#273 = ORIENTED_EDGE('',*,*,#274,.T.);
#274 = EDGE_CURVE('',#244,#275,#277,.T.);
#275 = VERTEX_POINT('',#276);
#276 = CARTESIAN_POINT('',(-45.70953923027,2.00000016665,11.5));
#277 = LINE('',#278,#279);
#278 = CARTESIAN_POINT('',(-42.24543751892,4.,11.5));
#279 = VECTOR('',#280,1.);
#280 = DIRECTION('',(-0.866025427838,-0.499999958337,0.));
#281 = ORIENTED_EDGE('',*,*,#282,.F.);
#282 = EDGE_CURVE('',#283,#275,#285,.T.);
#283 = VERTEX_POINT('',#284);
#284 = CARTESIAN_POINT('',(-45.70953923027,2.00000016665,11.));
#285 = LINE('',#286,#287);
#286 = CARTESIAN_POINT('',(-45.70953923027,2.00000016665,11.));
#287 = VECTOR('',#288,1.);
#288 = DIRECTION('',(0.,0.,1.));
#289 = ORIENTED_EDGE('',*,*,#290,.F.);
#290 = EDGE_CURVE('',#252,#283,#291,.T.);
#291 = LINE('',#292,#293);
#292 = CARTESIAN_POINT('',(-42.24543751892,4.,11.));
#293 = VECTOR('',#294,1.);
#294 = DIRECTION('',(-0.866025427838,-0.499999958337,0.));
#295 = PLANE('',#296);
#296 = AXIS2_PLACEMENT_3D('',#297,#298,#299);
#297 = CARTESIAN_POINT('',(-42.24543751892,4.,11.));
#298 = DIRECTION('',(0.499999958337,-0.866025427838,0.));
#299 = DIRECTION('',(-0.866025427838,-0.499999958337,0.));
#300 = ADVANCED_FACE('',(#301),#326,.T.);
#301 = FACE_BOUND('',#302,.T.);
#302 = EDGE_LOOP('',(#303,#304,#312,#320));
#303 = ORIENTED_EDGE('',*,*,#282,.T.);
#304 = ORIENTED_EDGE('',*,*,#305,.T.);
#305 = EDGE_CURVE('',#275,#306,#308,.T.);
#306 = VERTEX_POINT('',#307);
#307 = CARTESIAN_POINT('',(-45.7095394227,-1.99999983335,11.5));
#308 = LINE('',#309,#310);
#309 = CARTESIAN_POINT('',(-45.70953923027,2.00000016665,11.5));
#310 = VECTOR('',#311,1.);
#311 = DIRECTION('',(-4.810778265E-08,-1.,0.));
#312 = ORIENTED_EDGE('',*,*,#313,.F.);
#313 = EDGE_CURVE('',#314,#306,#316,.T.);
#314 = VERTEX_POINT('',#315);
#315 = CARTESIAN_POINT('',(-45.7095394227,-1.99999983335,11.));
#316 = LINE('',#317,#318);
#317 = CARTESIAN_POINT('',(-45.7095394227,-1.99999983335,11.));
#318 = VECTOR('',#319,1.);
#319 = DIRECTION('',(0.,0.,1.));
#320 = ORIENTED_EDGE('',*,*,#321,.F.);
#321 = EDGE_CURVE('',#283,#314,#322,.T.);
#322 = LINE('',#323,#324);
#323 = CARTESIAN_POINT('',(-45.70953923027,2.00000016665,11.));
#324 = VECTOR('',#325,1.);
#325 = DIRECTION('',(-4.810778265E-08,-1.,0.));
#326 = PLANE('',#327);
#327 = AXIS2_PLACEMENT_3D('',#328,#329,#330);
#328 = CARTESIAN_POINT('',(-45.70953923027,2.00000016665,11.));
#329 = DIRECTION('',(1.,-4.810778265E-08,0.));
#330 = DIRECTION('',(-4.810778265E-08,-1.,0.));
#331 = ADVANCED_FACE('',(#332),#357,.T.);
#332 = FACE_BOUND('',#333,.T.);
#333 = EDGE_LOOP('',(#334,#335,#343,#351));
#334 = ORIENTED_EDGE('',*,*,#313,.T.);
#335 = ORIENTED_EDGE('',*,*,#336,.T.);
#336 = EDGE_CURVE('',#306,#337,#339,.T.);
#337 = VERTEX_POINT('',#338);
#338 = CARTESIAN_POINT('',(-42.24543790378,-4.,11.5));
#339 = LINE('',#340,#341);
#340 = CARTESIAN_POINT('',(-45.7095394227,-1.99999983335,11.5));
#341 = VECTOR('',#342,1.);
#342 = DIRECTION('',(0.866025379731,-0.500000041663,0.));
#343 = ORIENTED_EDGE('',*,*,#344,.F.);
#344 = EDGE_CURVE('',#345,#337,#347,.T.);
#345 = VERTEX_POINT('',#346);
#346 = CARTESIAN_POINT('',(-42.24543790378,-4.,11.));
#347 = LINE('',#348,#349);
#348 = CARTESIAN_POINT('',(-42.24543790378,-4.,11.));
#349 = VECTOR('',#350,1.);
#350 = DIRECTION('',(0.,0.,1.));
#351 = ORIENTED_EDGE('',*,*,#352,.F.);
#352 = EDGE_CURVE('',#314,#345,#353,.T.);
#353 = LINE('',#354,#355);
#354 = CARTESIAN_POINT('',(-45.7095394227,-1.99999983335,11.));
#355 = VECTOR('',#356,1.);
#356 = DIRECTION('',(0.866025379731,-0.500000041663,0.));
#357 = PLANE('',#358);
#358 = AXIS2_PLACEMENT_3D('',#359,#360,#361);
#359 = CARTESIAN_POINT('',(-45.7095394227,-1.99999983335,11.));
#360 = DIRECTION('',(0.500000041663,0.866025379731,-0.));
#361 = DIRECTION('',(0.866025379731,-0.500000041663,0.));
#362 = ADVANCED_FACE('',(#363),#388,.T.);
#363 = FACE_BOUND('',#364,.T.);
#364 = EDGE_LOOP('',(#365,#366,#374,#382));
#365 = ORIENTED_EDGE('',*,*,#344,.T.);
#366 = ORIENTED_EDGE('',*,*,#367,.T.);
#367 = EDGE_CURVE('',#337,#368,#370,.T.);
#368 = VERTEX_POINT('',#369);
#369 = CARTESIAN_POINT('',(-38.78133619243,-2.00000016665,11.5));
#370 = LINE('',#371,#372);
#371 = CARTESIAN_POINT('',(-42.24543790378,-4.,11.5));
#372 = VECTOR('',#373,1.);
#373 = DIRECTION('',(0.866025427838,0.499999958337,0.));
#374 = ORIENTED_EDGE('',*,*,#375,.F.);
#375 = EDGE_CURVE('',#376,#368,#378,.T.);
#376 = VERTEX_POINT('',#377);
#377 = CARTESIAN_POINT('',(-38.78133619243,-2.00000016665,11.));
#378 = LINE('',#379,#380);
#379 = CARTESIAN_POINT('',(-38.78133619243,-2.00000016665,11.));
#380 = VECTOR('',#381,1.);
#381 = DIRECTION('',(0.,0.,1.));
#382 = ORIENTED_EDGE('',*,*,#383,.F.);
#383 = EDGE_CURVE('',#345,#376,#384,.T.);
#384 = LINE('',#385,#386);
#385 = CARTESIAN_POINT('',(-42.24543790378,-4.,11.));
#386 = VECTOR('',#387,1.);
#387 = DIRECTION('',(0.866025427838,0.499999958337,0.));
#388 = PLANE('',#389);
#389 = AXIS2_PLACEMENT_3D('',#390,#391,#392);
#390 = CARTESIAN_POINT('',(-42.24543790378,-4.,11.));
#391 = DIRECTION('',(-0.499999958337,0.866025427838,0.));
#392 = DIRECTION('',(0.866025427838,0.499999958337,0.));
#393 = ADVANCED_FACE('',(#394),#410,.T.);
#394 = FACE_BOUND('',#395,.T.);
#395 = EDGE_LOOP('',(#396,#397,#403,#404));
#396 = ORIENTED_EDGE('',*,*,#375,.T.);
#397 = ORIENTED_EDGE('',*,*,#398,.T.);
#398 = EDGE_CURVE('',#368,#236,#399,.T.);
#399 = LINE('',#400,#401);
#400 = CARTESIAN_POINT('',(-38.78133619243,-2.00000016665,11.5));
#401 = VECTOR('',#402,1.);
#402 = DIRECTION('',(4.810778265E-08,1.,0.));
#403 = ORIENTED_EDGE('',*,*,#233,.F.);
#404 = ORIENTED_EDGE('',*,*,#405,.F.);
#405 = EDGE_CURVE('',#376,#234,#406,.T.);
#406 = LINE('',#407,#408);
#407 = CARTESIAN_POINT('',(-38.78133619243,-2.00000016665,11.));
#408 = VECTOR('',#409,1.);
#409 = DIRECTION('',(4.810778265E-08,1.,0.));
#410 = PLANE('',#411);
#411 = AXIS2_PLACEMENT_3D('',#412,#413,#414);
#412 = CARTESIAN_POINT('',(-38.78133619243,-2.00000016665,11.));
#413 = DIRECTION('',(-1.,4.810778265E-08,0.));
#414 = DIRECTION('',(4.810778265E-08,1.,0.));
#415 = ADVANCED_FACE('',(#416,#424),#432,.F.);
#416 = FACE_BOUND('',#417,.F.);
#417 = EDGE_LOOP('',(#418,#419,#420,#421,#422,#423));
#418 = ORIENTED_EDGE('',*,*,#73,.T.);
#419 = ORIENTED_EDGE('',*,*,#104,.T.);
#420 = ORIENTED_EDGE('',*,*,#135,.T.);
#421 = ORIENTED_EDGE('',*,*,#166,.T.);
#422 = ORIENTED_EDGE('',*,*,#197,.T.);
#423 = ORIENTED_EDGE('',*,*,#219,.T.);
#424 = FACE_BOUND('',#425,.T.);
#425 = EDGE_LOOP('',(#426,#427,#428,#429,#430,#431));
#426 = ORIENTED_EDGE('',*,*,#259,.T.);
#427 = ORIENTED_EDGE('',*,*,#290,.T.);
#428 = ORIENTED_EDGE('',*,*,#321,.T.);
#429 = ORIENTED_EDGE('',*,*,#352,.T.);
#430 = ORIENTED_EDGE('',*,*,#383,.T.);
#431 = ORIENTED_EDGE('',*,*,#405,.T.);
#432 = PLANE('',#433);
#433 = AXIS2_PLACEMENT_3D('',#434,#435,#436);
#434 = CARTESIAN_POINT('',(-42.24543771135,3.E-16,11.));
#435 = DIRECTION('',(0.,0.,1.));
#436 = DIRECTION('',(1.,0.,-0.));
#437 = ADVANCED_FACE('',(#438,#446),#454,.T.);
#438 = FACE_BOUND('',#439,.T.);
#439 = EDGE_LOOP('',(#440,#441,#442,#443,#444,#445));
#440 = ORIENTED_EDGE('',*,*,#57,.T.);
#441 = ORIENTED_EDGE('',*,*,#88,.T.);
#442 = ORIENTED_EDGE('',*,*,#119,.T.);
#443 = ORIENTED_EDGE('',*,*,#150,.T.);
#444 = ORIENTED_EDGE('',*,*,#181,.T.);
#445 = ORIENTED_EDGE('',*,*,#212,.T.);
#446 = FACE_BOUND('',#447,.F.);
#447 = EDGE_LOOP('',(#448,#449,#450,#451,#452,#453));
#448 = ORIENTED_EDGE('',*,*,#243,.T.);
#449 = ORIENTED_EDGE('',*,*,#274,.T.);
#450 = ORIENTED_EDGE('',*,*,#305,.T.);
#451 = ORIENTED_EDGE('',*,*,#336,.T.);
#452 = ORIENTED_EDGE('',*,*,#367,.T.);
#453 = ORIENTED_EDGE('',*,*,#398,.T.);
#454 = PLANE('',#455);
#455 = AXIS2_PLACEMENT_3D('',#456,#457,#458);
#456 = CARTESIAN_POINT('',(-42.24543771135,3.E-16,11.5));
#457 = DIRECTION('',(0.,0.,1.));
#458 = DIRECTION('',(1.,0.,0.));
#459 = ( GEOMETRIC_REPRESENTATION_CONTEXT(3) 
GLOBAL_UNCERTAINTY_ASSIGNED_CONTEXT((#463)) GLOBAL_UNIT_ASSIGNED_CONTEXT
((#460,#461,#462)) REPRESENTATION_CONTEXT('Context #1',
  '3D Context with UNIT and UNCERTAINTY') );
#460 = ( LENGTH_UNIT() NAMED_UNIT(*) SI_UNIT(.MILLI.,.METRE.) );
#461 = ( NAMED_UNIT(*) PLANE_ANGLE_UNIT() SI_UNIT($,.RADIAN.) );
#462 = ( NAMED_UNIT(*) SI_UNIT($,.STERADIAN.) SOLID_ANGLE_UNIT() );
#463 = UNCERTAINTY_MEASURE_WITH_UNIT(LENGTH_MEASURE(1.E-07),#460,
  'distance_accuracy_value','confusion accuracy');
#464 = CONTEXT_DEPENDENT_SHAPE_REPRESENTATION(#465,#467);
#465 = ( REPRESENTATION_RELATIONSHIP('','',#40,#10) 
REPRESENTATION_RELATIONSHIP_WITH_TRANSFORMATION(#466) 
SHAPE_REPRESENTATION_RELATIONSHIP() );
#466 = ITEM_DEFINED_TRANSFORMATION('','',#11,#15);
#467 = PRODUCT_DEFINITION_SHAPE('Placement','Placement of an item',#468
  );
#468 = NEXT_ASSEMBLY_USAGE_OCCURRENCE('4','Extrude004','',#5,#35,$);
#469 = PRODUCT_RELATED_PRODUCT_CATEGORY('part',$,(#37));
#470 = SHAPE_DEFINITION_REPRESENTATION(#471,#477);
#471 = PRODUCT_DEFINITION_SHAPE('','',#472);
#472 = PRODUCT_DEFINITION('design','',#473,#476);
#473 = PRODUCT_DEFINITION_FORMATION('','',#474);
#474 = PRODUCT('Shell','Shell','',(#475));
#475 = PRODUCT_CONTEXT('',#2,'mechanical');
#476 = PRODUCT_DEFINITION_CONTEXT('part definition',#2,'design');
#477 = ADVANCED_BREP_SHAPE_REPRESENTATION('',(#11,#478),#1074);
#478 = MANIFOLD_SOLID_BREP('',#479);
#479 = CLOSED_SHELL('',(#480,#520,#551,#582,#604,#616,#698,#729,#754,
    #779,#803,#828,#852,#877,#894,#919,#952,#969,#994,#1011,#1034,#1051,
    #1062));
#480 = ADVANCED_FACE('',(#481),#515,.T.);
#481 = FACE_BOUND('',#482,.T.);
#482 = EDGE_LOOP('',(#483,#493,#501,#509));
#483 = ORIENTED_EDGE('',*,*,#484,.T.);
#484 = EDGE_CURVE('',#485,#487,#489,.T.);
#485 = VERTEX_POINT('',#486);
#486 = CARTESIAN_POINT('',(-54.,-9.,0.));
#487 = VERTEX_POINT('',#488);
#488 = CARTESIAN_POINT('',(-52.,-7.,10.));
#489 = LINE('',#490,#491);
#490 = CARTESIAN_POINT('',(-53.03703703703,-8.037037037037,
    4.814814814815));
#491 = VECTOR('',#492,1.);
#492 = DIRECTION('',(0.19245008973,0.19245008973,0.962250448649));
#493 = ORIENTED_EDGE('',*,*,#494,.T.);
#494 = EDGE_CURVE('',#487,#495,#497,.T.);
#495 = VERTEX_POINT('',#496);
#496 = CARTESIAN_POINT('',(52.,-7.,10.));
#497 = LINE('',#498,#499);
#498 = CARTESIAN_POINT('',(-54.,-7.,10.));
#499 = VECTOR('',#500,1.);
#500 = DIRECTION('',(1.,0.,0.));
#501 = ORIENTED_EDGE('',*,*,#502,.T.);
#502 = EDGE_CURVE('',#495,#503,#505,.T.);
#503 = VERTEX_POINT('',#504);
#504 = CARTESIAN_POINT('',(54.,-9.,0.));
#505 = LINE('',#506,#507);
#506 = CARTESIAN_POINT('',(50.074074074074,-5.074074074074,
    19.62962962963));
#507 = VECTOR('',#508,1.);
#508 = DIRECTION('',(0.19245008973,-0.19245008973,-0.962250448649));
#509 = ORIENTED_EDGE('',*,*,#510,.F.);
#510 = EDGE_CURVE('',#485,#503,#511,.T.);
#511 = LINE('',#512,#513);
#512 = CARTESIAN_POINT('',(-54.,-9.,0.));
#513 = VECTOR('',#514,1.);
#514 = DIRECTION('',(1.,0.,0.));
#515 = PLANE('',#516);
#516 = AXIS2_PLACEMENT_3D('',#517,#518,#519);
#517 = CARTESIAN_POINT('',(-54.,-7.,10.));
#518 = DIRECTION('',(0.,0.980580675691,-0.196116135138));
#519 = DIRECTION('',(0.,-0.196116135138,-0.980580675691));
#520 = ADVANCED_FACE('',(#521),#546,.T.);
#521 = FACE_BOUND('',#522,.T.);
#522 = EDGE_LOOP('',(#523,#524,#532,#540));
#523 = ORIENTED_EDGE('',*,*,#502,.F.);
#524 = ORIENTED_EDGE('',*,*,#525,.T.);
#525 = EDGE_CURVE('',#495,#526,#528,.T.);
#526 = VERTEX_POINT('',#527);
#527 = CARTESIAN_POINT('',(52.,7.,10.));
#528 = LINE('',#529,#530);
#529 = CARTESIAN_POINT('',(52.,-9.,10.));
#530 = VECTOR('',#531,1.);
#531 = DIRECTION('',(0.,1.,-2.2E-16));
#532 = ORIENTED_EDGE('',*,*,#533,.T.);
#533 = EDGE_CURVE('',#526,#534,#536,.T.);
#534 = VERTEX_POINT('',#535);
#535 = CARTESIAN_POINT('',(54.,9.,-2.E-15));
#536 = LINE('',#537,#538);
#537 = CARTESIAN_POINT('',(49.740740740741,4.740740740741,
    21.296296296296));
#538 = VECTOR('',#539,1.);
#539 = DIRECTION('',(0.19245008973,0.19245008973,-0.962250448649));
#540 = ORIENTED_EDGE('',*,*,#541,.F.);
#541 = EDGE_CURVE('',#503,#534,#542,.T.);
#542 = LINE('',#543,#544);
#543 = CARTESIAN_POINT('',(54.,-9.,0.));
#544 = VECTOR('',#545,1.);
#545 = DIRECTION('',(0.,1.,0.));
#546 = PLANE('',#547);
#547 = AXIS2_PLACEMENT_3D('',#548,#549,#550);
#548 = CARTESIAN_POINT('',(52.,-9.,10.));
#549 = DIRECTION('',(-0.980580675691,-4.E-17,-0.196116135138));
#550 = DIRECTION('',(0.196116135138,-2.2E-16,-0.980580675691));
#551 = ADVANCED_FACE('',(#552),#577,.F.);
#552 = FACE_BOUND('',#553,.F.);
#553 = EDGE_LOOP('',(#554,#564,#570,#571));
#554 = ORIENTED_EDGE('',*,*,#555,.T.);
#555 = EDGE_CURVE('',#556,#558,#560,.T.);
#556 = VERTEX_POINT('',#557);
#557 = CARTESIAN_POINT('',(-54.,9.,-2.E-15));
#558 = VERTEX_POINT('',#559);
#559 = CARTESIAN_POINT('',(-52.,7.,10.));
#560 = LINE('',#561,#562);
#561 = CARTESIAN_POINT('',(-52.7037037037,7.703703703704,6.481481481481)
  );
#562 = VECTOR('',#563,1.);
#563 = DIRECTION('',(0.19245008973,-0.19245008973,0.962250448649));
#564 = ORIENTED_EDGE('',*,*,#565,.T.);
#565 = EDGE_CURVE('',#558,#526,#566,.T.);
#566 = LINE('',#567,#568);
#567 = CARTESIAN_POINT('',(-54.,7.,10.));
#568 = VECTOR('',#569,1.);
#569 = DIRECTION('',(1.,0.,0.));
#570 = ORIENTED_EDGE('',*,*,#533,.T.);
#571 = ORIENTED_EDGE('',*,*,#572,.T.);
#572 = EDGE_CURVE('',#534,#556,#573,.T.);
#573 = LINE('',#574,#575);
#574 = CARTESIAN_POINT('',(54.,9.,0.));
#575 = VECTOR('',#576,1.);
#576 = DIRECTION('',(-1.,0.,0.));
#577 = PLANE('',#578);
#578 = AXIS2_PLACEMENT_3D('',#579,#580,#581);
#579 = CARTESIAN_POINT('',(-54.,7.,10.));
#580 = DIRECTION('',(0.,0.980580675691,0.196116135138));
#581 = DIRECTION('',(0.,0.196116135138,-0.980580675691));
#582 = ADVANCED_FACE('',(#583),#599,.T.);
#583 = FACE_BOUND('',#584,.T.);
#584 = EDGE_LOOP('',(#585,#591,#592,#598));
#585 = ORIENTED_EDGE('',*,*,#586,.F.);
#586 = EDGE_CURVE('',#556,#485,#587,.T.);
#587 = LINE('',#588,#589);
#588 = CARTESIAN_POINT('',(-54.,9.,0.));
#589 = VECTOR('',#590,1.);
#590 = DIRECTION('',(0.,-1.,0.));
#591 = ORIENTED_EDGE('',*,*,#555,.T.);
#592 = ORIENTED_EDGE('',*,*,#593,.F.);
#593 = EDGE_CURVE('',#487,#558,#594,.T.);
#594 = LINE('',#595,#596);
#595 = CARTESIAN_POINT('',(-52.,-9.,10.));
#596 = VECTOR('',#597,1.);
#597 = DIRECTION('',(0.,1.,-2.2E-16));
#598 = ORIENTED_EDGE('',*,*,#484,.F.);
#599 = PLANE('',#600);
#600 = AXIS2_PLACEMENT_3D('',#601,#602,#603);
#601 = CARTESIAN_POINT('',(-54.,-9.,0.));
#602 = DIRECTION('',(0.980580675691,-4.E-17,-0.196116135138));
#603 = DIRECTION('',(0.196116135138,2.2E-16,0.980580675691));
#604 = ADVANCED_FACE('',(#605),#611,.F.);
#605 = FACE_BOUND('',#606,.F.);
#606 = EDGE_LOOP('',(#607,#608,#609,#610));
#607 = ORIENTED_EDGE('',*,*,#593,.F.);
#608 = ORIENTED_EDGE('',*,*,#494,.T.);
#609 = ORIENTED_EDGE('',*,*,#525,.T.);
#610 = ORIENTED_EDGE('',*,*,#565,.F.);
#611 = PLANE('',#612);
#612 = AXIS2_PLACEMENT_3D('',#613,#614,#615);
#613 = CARTESIAN_POINT('',(0.,0.,10.));
#614 = DIRECTION('',(0.,0.,1.));
#615 = DIRECTION('',(1.,0.,0.));
#616 = ADVANCED_FACE('',(#617,#623),#693,.F.);
#617 = FACE_BOUND('',#618,.F.);
#618 = EDGE_LOOP('',(#619,#620,#621,#622));
#619 = ORIENTED_EDGE('',*,*,#510,.F.);
#620 = ORIENTED_EDGE('',*,*,#586,.F.);
#621 = ORIENTED_EDGE('',*,*,#572,.F.);
#622 = ORIENTED_EDGE('',*,*,#541,.F.);
#623 = FACE_BOUND('',#624,.F.);
#624 = EDGE_LOOP('',(#625,#636,#644,#653,#661,#670,#678,#687));
#625 = ORIENTED_EDGE('',*,*,#626,.T.);
#626 = EDGE_CURVE('',#627,#629,#631,.T.);
#627 = VERTEX_POINT('',#628);
#628 = CARTESIAN_POINT('',(-54.03922322702,10.019803902719,-2.E-15));
#629 = VERTEX_POINT('',#630);
#630 = CARTESIAN_POINT('',(-55.01980390226,9.039223226575,2.263829E-09)
  );
#631 = ELLIPSE('',#632,1.039230484541,1.);
#632 = AXIS2_PLACEMENT_3D('',#633,#634,#635);
#633 = CARTESIAN_POINT('',(-54.,9.,0.));
#634 = DIRECTION('',(0.,0.,1.));
#635 = DIRECTION('',(0.707106781187,-0.707106781187,0.));
#636 = ORIENTED_EDGE('',*,*,#637,.T.);
#637 = EDGE_CURVE('',#629,#638,#640,.T.);
#638 = VERTEX_POINT('',#639);
#639 = CARTESIAN_POINT('',(-55.01980390226,-9.039223226576,2.259827E-09)
  );
#640 = LINE('',#641,#642);
#641 = CARTESIAN_POINT('',(-55.01980390271,-4.5,0.));
#642 = VECTOR('',#643,1.);
#643 = DIRECTION('',(-4.E-17,-1.,0.));
#644 = ORIENTED_EDGE('',*,*,#645,.T.);
#645 = EDGE_CURVE('',#638,#646,#648,.T.);
#646 = VERTEX_POINT('',#647);
#647 = CARTESIAN_POINT('',(-54.03922322702,-10.01980390271,-2.E-15));
#648 = ELLIPSE('',#649,1.039230484541,1.);
#649 = AXIS2_PLACEMENT_3D('',#650,#651,#652);
#650 = CARTESIAN_POINT('',(-54.,-9.,0.));
#651 = DIRECTION('',(0.,0.,1.));
#652 = DIRECTION('',(0.707106781187,0.707106781187,-0.));
#653 = ORIENTED_EDGE('',*,*,#654,.T.);
#654 = EDGE_CURVE('',#646,#655,#657,.T.);
#655 = VERTEX_POINT('',#656);
#656 = CARTESIAN_POINT('',(54.039223227028,-10.01980390271,0.));
#657 = LINE('',#658,#659);
#658 = CARTESIAN_POINT('',(-27.,-10.01980390271,-8.9E-16));
#659 = VECTOR('',#660,1.);
#660 = DIRECTION('',(1.,-0.,0.));
#661 = ORIENTED_EDGE('',*,*,#662,.T.);
#662 = EDGE_CURVE('',#655,#663,#665,.T.);
#663 = VERTEX_POINT('',#664);
#664 = CARTESIAN_POINT('',(55.019803902264,-9.039223226573,2.27508E-09)
  );
#665 = ELLIPSE('',#666,1.039230484541,1.);
#666 = AXIS2_PLACEMENT_3D('',#667,#668,#669);
#667 = CARTESIAN_POINT('',(54.,-9.,0.));
#668 = DIRECTION('',(0.,0.,1.));
#669 = DIRECTION('',(0.707106781187,-0.707106781187,0.));
#670 = ORIENTED_EDGE('',*,*,#671,.T.);
#671 = EDGE_CURVE('',#663,#672,#674,.T.);
#672 = VERTEX_POINT('',#673);
#673 = CARTESIAN_POINT('',(55.019803902719,9.039223227028,-2.E-15));
#674 = LINE('',#675,#676);
#675 = CARTESIAN_POINT('',(55.019803902719,-4.5,-8.9E-16));
#676 = VECTOR('',#677,1.);
#677 = DIRECTION('',(-4.E-17,1.,0.));
#678 = ORIENTED_EDGE('',*,*,#679,.T.);
#679 = EDGE_CURVE('',#672,#680,#682,.T.);
#680 = VERTEX_POINT('',#681);
#681 = CARTESIAN_POINT('',(54.039223226575,10.019803902266,2.263796E-09)
  );
#682 = ELLIPSE('',#683,1.039230484541,1.);
#683 = AXIS2_PLACEMENT_3D('',#684,#685,#686);
#684 = CARTESIAN_POINT('',(54.,9.,0.));
#685 = DIRECTION('',(0.,0.,1.));
#686 = DIRECTION('',(0.707106781187,0.707106781187,-0.));
#687 = ORIENTED_EDGE('',*,*,#688,.F.);
#688 = EDGE_CURVE('',#627,#680,#689,.T.);
#689 = LINE('',#690,#691);
#690 = CARTESIAN_POINT('',(-27.,10.019803902719,-8.9E-16));
#691 = VECTOR('',#692,1.);
#692 = DIRECTION('',(1.,0.,0.));
#693 = PLANE('',#694);
#694 = AXIS2_PLACEMENT_3D('',#695,#696,#697);
#695 = CARTESIAN_POINT('',(0.,0.,0.));
#696 = DIRECTION('',(0.,0.,1.));
#697 = DIRECTION('',(1.,0.,0.));
#698 = ADVANCED_FACE('',(#699),#724,.F.);
#699 = FACE_BOUND('',#700,.F.);
#700 = EDGE_LOOP('',(#701,#709,#717,#723));
#701 = ORIENTED_EDGE('',*,*,#702,.T.);
#702 = EDGE_CURVE('',#646,#703,#705,.T.);
#703 = VERTEX_POINT('',#704);
#704 = CARTESIAN_POINT('',(-52.,-7.980580675691,10.196116135138));
#705 = LINE('',#706,#707);
#706 = CARTESIAN_POINT('',(-53.03703703703,-9.017617712728,
    5.010930949953));
#707 = VECTOR('',#708,1.);
#708 = DIRECTION('',(0.19245008973,0.19245008973,0.962250448649));
#709 = ORIENTED_EDGE('',*,*,#710,.T.);
#710 = EDGE_CURVE('',#703,#711,#713,.T.);
#711 = VERTEX_POINT('',#712);
#712 = CARTESIAN_POINT('',(52.,-7.980580675691,10.196116135138));
#713 = LINE('',#714,#715);
#714 = CARTESIAN_POINT('',(-54.,-7.980580675691,10.196116135138));
#715 = VECTOR('',#716,1.);
#716 = DIRECTION('',(1.,0.,0.));
#717 = ORIENTED_EDGE('',*,*,#718,.T.);
#718 = EDGE_CURVE('',#711,#655,#719,.T.);
#719 = LINE('',#720,#721);
#720 = CARTESIAN_POINT('',(50.074074074074,-6.054654749765,
    19.825745764768));
#721 = VECTOR('',#722,1.);
#722 = DIRECTION('',(0.19245008973,-0.19245008973,-0.962250448649));
#723 = ORIENTED_EDGE('',*,*,#654,.F.);
#724 = PLANE('',#725);
#725 = AXIS2_PLACEMENT_3D('',#726,#727,#728);
#726 = CARTESIAN_POINT('',(-54.,-7.980580675691,10.196116135138));
#727 = DIRECTION('',(0.,0.980580675691,-0.196116135138));
#728 = DIRECTION('',(0.,-0.196116135138,-0.980580675691));
#729 = ADVANCED_FACE('',(#730),#749,.T.);
#730 = FACE_BOUND('',#731,.F.);
#731 = EDGE_LOOP('',(#732,#740,#747,#748));
#732 = ORIENTED_EDGE('',*,*,#733,.T.);
#733 = EDGE_CURVE('',#638,#734,#736,.T.);
#734 = VERTEX_POINT('',#735);
#735 = CARTESIAN_POINT('',(-52.98058067569,-7.,10.196116135138));
#736 = LINE('',#737,#738);
#737 = CARTESIAN_POINT('',(-54.01761771272,-8.037037037037,
    5.010930949953));
#738 = VECTOR('',#739,1.);
#739 = DIRECTION('',(0.19245008973,0.19245008973,0.962250448649));
#740 = ORIENTED_EDGE('',*,*,#741,.F.);
#741 = EDGE_CURVE('',#703,#734,#742,.T.);
#742 = CIRCLE('',#743,1.);
#743 = AXIS2_PLACEMENT_3D('',#744,#745,#746);
#744 = CARTESIAN_POINT('',(-52.,-7.,10.));
#745 = DIRECTION('',(-0.19245008973,-0.19245008973,-0.962250448649));
#746 = DIRECTION('',(0.981306762925,-3.774256780482E-02,-0.188712839024)
  );
#747 = ORIENTED_EDGE('',*,*,#702,.F.);
#748 = ORIENTED_EDGE('',*,*,#645,.F.);
#749 = CYLINDRICAL_SURFACE('',#750,1.);
#750 = AXIS2_PLACEMENT_3D('',#751,#752,#753);
#751 = CARTESIAN_POINT('',(-53.03703703703,-8.037037037037,
    4.814814814815));
#752 = DIRECTION('',(0.19245008973,0.19245008973,0.962250448649));
#753 = DIRECTION('',(0.981306762925,-3.774256780482E-02,-0.188712839024)
  );
#754 = ADVANCED_FACE('',(#755),#774,.T.);
#755 = FACE_BOUND('',#756,.F.);
#756 = EDGE_LOOP('',(#757,#765,#766,#767));
#757 = ORIENTED_EDGE('',*,*,#758,.T.);
#758 = EDGE_CURVE('',#759,#663,#761,.T.);
#759 = VERTEX_POINT('',#760);
#760 = CARTESIAN_POINT('',(52.980580675691,-7.,10.196116135138));
#761 = LINE('',#762,#763);
#762 = CARTESIAN_POINT('',(51.054654749765,-5.074074074074,
    19.825745764768));
#763 = VECTOR('',#764,1.);
#764 = DIRECTION('',(0.19245008973,-0.19245008973,-0.962250448649));
#765 = ORIENTED_EDGE('',*,*,#662,.F.);
#766 = ORIENTED_EDGE('',*,*,#718,.F.);
#767 = ORIENTED_EDGE('',*,*,#768,.T.);
#768 = EDGE_CURVE('',#711,#759,#769,.T.);
#769 = CIRCLE('',#770,1.);
#770 = AXIS2_PLACEMENT_3D('',#771,#772,#773);
#771 = CARTESIAN_POINT('',(52.,-7.,10.));
#772 = DIRECTION('',(-0.19245008973,0.19245008973,0.962250448649));
#773 = DIRECTION('',(-0.981306762925,-3.774256780481E-02,-0.188712839024
    ));
#774 = CYLINDRICAL_SURFACE('',#775,1.);
#775 = AXIS2_PLACEMENT_3D('',#776,#777,#778);
#776 = CARTESIAN_POINT('',(50.074074074074,-5.074074074074,
    19.62962962963));
#777 = DIRECTION('',(0.19245008973,-0.19245008973,-0.962250448649));
#778 = DIRECTION('',(-0.981306762925,-3.774256780481E-02,-0.188712839024
    ));
#779 = ADVANCED_FACE('',(#780),#798,.F.);
#780 = FACE_BOUND('',#781,.F.);
#781 = EDGE_LOOP('',(#782,#783,#784,#792));
#782 = ORIENTED_EDGE('',*,*,#671,.F.);
#783 = ORIENTED_EDGE('',*,*,#758,.F.);
#784 = ORIENTED_EDGE('',*,*,#785,.T.);
#785 = EDGE_CURVE('',#759,#786,#788,.T.);
#786 = VERTEX_POINT('',#787);
#787 = CARTESIAN_POINT('',(52.980580675691,7.,10.196116135138));
#788 = LINE('',#789,#790);
#789 = CARTESIAN_POINT('',(52.980580675691,-9.,10.196116135138));
#790 = VECTOR('',#791,1.);
#791 = DIRECTION('',(0.,1.,-2.2E-16));
#792 = ORIENTED_EDGE('',*,*,#793,.T.);
#793 = EDGE_CURVE('',#786,#672,#794,.T.);
#794 = LINE('',#795,#796);
#795 = CARTESIAN_POINT('',(50.721321416432,4.740740740741,
    21.492412431434));
#796 = VECTOR('',#797,1.);
#797 = DIRECTION('',(0.19245008973,0.19245008973,-0.962250448649));
#798 = PLANE('',#799);
#799 = AXIS2_PLACEMENT_3D('',#800,#801,#802);
#800 = CARTESIAN_POINT('',(52.980580675691,-9.,10.196116135138));
#801 = DIRECTION('',(-0.980580675691,-4.E-17,-0.196116135138));
#802 = DIRECTION('',(0.196116135138,-2.2E-16,-0.980580675691));
#803 = ADVANCED_FACE('',(#804),#823,.T.);
#804 = FACE_BOUND('',#805,.F.);
#805 = EDGE_LOOP('',(#806,#814,#815,#816));
#806 = ORIENTED_EDGE('',*,*,#807,.T.);
#807 = EDGE_CURVE('',#808,#680,#810,.T.);
#808 = VERTEX_POINT('',#809);
#809 = CARTESIAN_POINT('',(52.,7.980580675691,10.196116135138));
#810 = LINE('',#811,#812);
#811 = CARTESIAN_POINT('',(49.740740740741,5.721321416432,
    21.492412431434));
#812 = VECTOR('',#813,1.);
#813 = DIRECTION('',(0.19245008973,0.19245008973,-0.962250448649));
#814 = ORIENTED_EDGE('',*,*,#679,.F.);
#815 = ORIENTED_EDGE('',*,*,#793,.F.);
#816 = ORIENTED_EDGE('',*,*,#817,.T.);
#817 = EDGE_CURVE('',#786,#808,#818,.T.);
#818 = CIRCLE('',#819,1.);
#819 = AXIS2_PLACEMENT_3D('',#820,#821,#822);
#820 = CARTESIAN_POINT('',(52.,7.,10.));
#821 = DIRECTION('',(-0.19245008973,-0.19245008973,0.962250448649));
#822 = DIRECTION('',(3.774256780482E-02,-0.981306762925,-0.188712839024)
  );
#823 = CYLINDRICAL_SURFACE('',#824,1.);
#824 = AXIS2_PLACEMENT_3D('',#825,#826,#827);
#825 = CARTESIAN_POINT('',(49.740740740741,4.740740740741,
    21.296296296296));
#826 = DIRECTION('',(0.19245008973,0.19245008973,-0.962250448649));
#827 = DIRECTION('',(3.774256780482E-02,-0.981306762925,-0.188712839024)
  );
#828 = ADVANCED_FACE('',(#829),#847,.T.);
#829 = FACE_BOUND('',#830,.T.);
#830 = EDGE_LOOP('',(#831,#839,#845,#846));
#831 = ORIENTED_EDGE('',*,*,#832,.T.);
#832 = EDGE_CURVE('',#627,#833,#835,.T.);
#833 = VERTEX_POINT('',#834);
#834 = CARTESIAN_POINT('',(-52.,7.980580675691,10.196116135138));
#835 = LINE('',#836,#837);
#836 = CARTESIAN_POINT('',(-52.7037037037,8.684284379395,6.67759761662)
  );
#837 = VECTOR('',#838,1.);
#838 = DIRECTION('',(0.19245008973,-0.19245008973,0.962250448649));
#839 = ORIENTED_EDGE('',*,*,#840,.T.);
#840 = EDGE_CURVE('',#833,#808,#841,.T.);
#841 = LINE('',#842,#843);
#842 = CARTESIAN_POINT('',(-54.,7.980580675691,10.196116135138));
#843 = VECTOR('',#844,1.);
#844 = DIRECTION('',(1.,0.,0.));
#845 = ORIENTED_EDGE('',*,*,#807,.T.);
#846 = ORIENTED_EDGE('',*,*,#688,.F.);
#847 = PLANE('',#848);
#848 = AXIS2_PLACEMENT_3D('',#849,#850,#851);
#849 = CARTESIAN_POINT('',(-54.,7.980580675691,10.196116135138));
#850 = DIRECTION('',(0.,0.980580675691,0.196116135138));
#851 = DIRECTION('',(0.,0.196116135138,-0.980580675691));
#852 = ADVANCED_FACE('',(#853),#872,.T.);
#853 = FACE_BOUND('',#854,.T.);
#854 = EDGE_LOOP('',(#855,#863,#870,#871));
#855 = ORIENTED_EDGE('',*,*,#856,.T.);
#856 = EDGE_CURVE('',#629,#857,#859,.T.);
#857 = VERTEX_POINT('',#858);
#858 = CARTESIAN_POINT('',(-52.98058067569,7.,10.196116135138));
#859 = LINE('',#860,#861);
#860 = CARTESIAN_POINT('',(-53.68428437939,7.703703703704,6.67759761662)
  );
#861 = VECTOR('',#862,1.);
#862 = DIRECTION('',(0.19245008973,-0.19245008973,0.962250448649));
#863 = ORIENTED_EDGE('',*,*,#864,.F.);
#864 = EDGE_CURVE('',#833,#857,#865,.T.);
#865 = CIRCLE('',#866,1.);
#866 = AXIS2_PLACEMENT_3D('',#867,#868,#869);
#867 = CARTESIAN_POINT('',(-52.,7.,10.));
#868 = DIRECTION('',(0.19245008973,-0.19245008973,0.962250448649));
#869 = DIRECTION('',(0.981306762925,3.774256780482E-02,-0.188712839024)
  );
#870 = ORIENTED_EDGE('',*,*,#832,.F.);
#871 = ORIENTED_EDGE('',*,*,#626,.T.);
#872 = CYLINDRICAL_SURFACE('',#873,1.);
#873 = AXIS2_PLACEMENT_3D('',#874,#875,#876);
#874 = CARTESIAN_POINT('',(-52.7037037037,7.703703703704,6.481481481481)
  );
#875 = DIRECTION('',(0.19245008973,-0.19245008973,0.962250448649));
#876 = DIRECTION('',(0.981306762925,3.774256780482E-02,-0.188712839024)
  );
#877 = ADVANCED_FACE('',(#878),#889,.F.);
#878 = FACE_BOUND('',#879,.F.);
#879 = EDGE_LOOP('',(#880,#881,#882,#888));
#880 = ORIENTED_EDGE('',*,*,#637,.F.);
#881 = ORIENTED_EDGE('',*,*,#856,.T.);
#882 = ORIENTED_EDGE('',*,*,#883,.F.);
#883 = EDGE_CURVE('',#734,#857,#884,.T.);
#884 = LINE('',#885,#886);
#885 = CARTESIAN_POINT('',(-52.98058067569,-9.,10.196116135138));
#886 = VECTOR('',#887,1.);
#887 = DIRECTION('',(0.,1.,-2.2E-16));
#888 = ORIENTED_EDGE('',*,*,#733,.F.);
#889 = PLANE('',#890);
#890 = AXIS2_PLACEMENT_3D('',#891,#892,#893);
#891 = CARTESIAN_POINT('',(-54.98058067569,-9.,0.196116135138));
#892 = DIRECTION('',(0.980580675691,-4.E-17,-0.196116135138));
#893 = DIRECTION('',(0.196116135138,2.2E-16,0.980580675691));
#894 = ADVANCED_FACE('',(#895),#914,.T.);
#895 = FACE_BOUND('',#896,.T.);
#896 = EDGE_LOOP('',(#897,#898,#907));
#897 = ORIENTED_EDGE('',*,*,#768,.T.);
#898 = ORIENTED_EDGE('',*,*,#899,.T.);
#899 = EDGE_CURVE('',#759,#900,#902,.T.);
#900 = VERTEX_POINT('',#901);
#901 = CARTESIAN_POINT('',(52.,-7.,11.));
#902 = CIRCLE('',#903,1.);
#903 = AXIS2_PLACEMENT_3D('',#904,#905,#906);
#904 = CARTESIAN_POINT('',(52.,-7.,10.));
#905 = DIRECTION('',(2.2E-16,-1.,-6.162975822039E-33));
#906 = DIRECTION('',(0.196116135138,4.31455497304E-17,-0.980580675691));
#907 = ORIENTED_EDGE('',*,*,#908,.F.);
#908 = EDGE_CURVE('',#711,#900,#909,.T.);
#909 = CIRCLE('',#910,1.);
#910 = AXIS2_PLACEMENT_3D('',#911,#912,#913);
#911 = CARTESIAN_POINT('',(52.,-7.,10.));
#912 = DIRECTION('',(-1.,-0.,0.));
#913 = DIRECTION('',(0.,-0.196116135138,-0.980580675691));
#914 = SPHERICAL_SURFACE('',#915,1.);
#915 = AXIS2_PLACEMENT_3D('',#916,#917,#918);
#916 = CARTESIAN_POINT('',(52.,-7.,10.));
#917 = DIRECTION('',(0.744806568138,-0.130864459543,-0.654322297715));
#918 = DIRECTION('',(-0.513596924402,0.513596924402,-0.687340089395));
#919 = ADVANCED_FACE('',(#920),#947,.T.);
#920 = FACE_BOUND('',#921,.T.);
#921 = EDGE_LOOP('',(#922,#923,#932,#940));
#922 = ORIENTED_EDGE('',*,*,#883,.F.);
#923 = ORIENTED_EDGE('',*,*,#924,.T.);
#924 = EDGE_CURVE('',#734,#925,#927,.T.);
#925 = VERTEX_POINT('',#926);
#926 = CARTESIAN_POINT('',(-52.,-7.,11.));
#927 = CIRCLE('',#928,1.);
#928 = AXIS2_PLACEMENT_3D('',#929,#930,#931);
#929 = CARTESIAN_POINT('',(-52.,-7.,10.));
#930 = DIRECTION('',(2.2E-16,1.,0.));
#931 = DIRECTION('',(-0.196116135138,4.31455497304E-17,-0.980580675691)
  );
#932 = ORIENTED_EDGE('',*,*,#933,.T.);
#933 = EDGE_CURVE('',#925,#934,#936,.T.);
#934 = VERTEX_POINT('',#935);
#935 = CARTESIAN_POINT('',(-52.,7.,11.));
#936 = LINE('',#937,#938);
#937 = CARTESIAN_POINT('',(-52.,-9.,11.));
#938 = VECTOR('',#939,1.);
#939 = DIRECTION('',(0.,1.,0.));
#940 = ORIENTED_EDGE('',*,*,#941,.F.);
#941 = EDGE_CURVE('',#857,#934,#942,.T.);
#942 = CIRCLE('',#943,1.);
#943 = AXIS2_PLACEMENT_3D('',#944,#945,#946);
#944 = CARTESIAN_POINT('',(-52.,7.,10.));
#945 = DIRECTION('',(2.2E-16,1.,0.));
#946 = DIRECTION('',(-0.196116135138,4.31455497304E-17,-0.980580675691)
  );
#947 = CYLINDRICAL_SURFACE('',#948,1.);
#948 = AXIS2_PLACEMENT_3D('',#949,#950,#951);
#949 = CARTESIAN_POINT('',(-52.,-9.,10.));
#950 = DIRECTION('',(2.2E-16,1.,-0.));
#951 = DIRECTION('',(-0.196116135138,4.31455497304E-17,-0.980580675691)
  );
#952 = ADVANCED_FACE('',(#953),#964,.T.);
#953 = FACE_BOUND('',#954,.T.);
#954 = EDGE_LOOP('',(#955,#956,#957));
#955 = ORIENTED_EDGE('',*,*,#864,.T.);
#956 = ORIENTED_EDGE('',*,*,#941,.T.);
#957 = ORIENTED_EDGE('',*,*,#958,.F.);
#958 = EDGE_CURVE('',#833,#934,#959,.T.);
#959 = CIRCLE('',#960,1.);
#960 = AXIS2_PLACEMENT_3D('',#961,#962,#963);
#961 = CARTESIAN_POINT('',(-52.,7.,10.));
#962 = DIRECTION('',(1.,-0.,0.));
#963 = DIRECTION('',(0.,0.196116135138,-0.980580675691));
#964 = SPHERICAL_SURFACE('',#965,1.);
#965 = AXIS2_PLACEMENT_3D('',#966,#967,#968);
#966 = CARTESIAN_POINT('',(-52.,7.,10.));
#967 = DIRECTION('',(-0.744806568138,0.130864459543,-0.654322297715));
#968 = DIRECTION('',(0.513596924402,-0.513596924402,-0.687340089395));
#969 = ADVANCED_FACE('',(#970),#989,.T.);
#970 = FACE_BOUND('',#971,.F.);
#971 = EDGE_LOOP('',(#972,#973,#974,#982));
#972 = ORIENTED_EDGE('',*,*,#785,.F.);
#973 = ORIENTED_EDGE('',*,*,#899,.T.);
#974 = ORIENTED_EDGE('',*,*,#975,.T.);
#975 = EDGE_CURVE('',#900,#976,#978,.T.);
#976 = VERTEX_POINT('',#977);
#977 = CARTESIAN_POINT('',(52.,7.,11.));
#978 = LINE('',#979,#980);
#979 = CARTESIAN_POINT('',(52.,-9.,11.));
#980 = VECTOR('',#981,1.);
#981 = DIRECTION('',(0.,1.,0.));
#982 = ORIENTED_EDGE('',*,*,#983,.F.);
#983 = EDGE_CURVE('',#786,#976,#984,.T.);
#984 = CIRCLE('',#985,1.);
#985 = AXIS2_PLACEMENT_3D('',#986,#987,#988);
#986 = CARTESIAN_POINT('',(52.,7.,10.));
#987 = DIRECTION('',(2.2E-16,-1.,-6.162975822039E-33));
#988 = DIRECTION('',(0.196116135138,4.31455497304E-17,-0.980580675691));
#989 = CYLINDRICAL_SURFACE('',#990,1.);
#990 = AXIS2_PLACEMENT_3D('',#991,#992,#993);
#991 = CARTESIAN_POINT('',(52.,-9.,10.));
#992 = DIRECTION('',(-2.2E-16,1.,-0.));
#993 = DIRECTION('',(0.196116135138,4.31455497304E-17,-0.980580675691));
#994 = ADVANCED_FACE('',(#995),#1006,.T.);
#995 = FACE_BOUND('',#996,.T.);
#996 = EDGE_LOOP('',(#997,#998,#1005));
#997 = ORIENTED_EDGE('',*,*,#741,.F.);
#998 = ORIENTED_EDGE('',*,*,#999,.T.);
#999 = EDGE_CURVE('',#703,#925,#1000,.T.);
#1000 = CIRCLE('',#1001,1.);
#1001 = AXIS2_PLACEMENT_3D('',#1002,#1003,#1004);
#1002 = CARTESIAN_POINT('',(-52.,-7.,10.));
#1003 = DIRECTION('',(-1.,-0.,0.));
#1004 = DIRECTION('',(0.,-0.196116135138,-0.980580675691));
#1005 = ORIENTED_EDGE('',*,*,#924,.F.);
#1006 = SPHERICAL_SURFACE('',#1007,1.);
#1007 = AXIS2_PLACEMENT_3D('',#1008,#1009,#1010);
#1008 = CARTESIAN_POINT('',(-52.,-7.,10.));
#1009 = DIRECTION('',(0.744806568138,0.130864459543,0.654322297715));
#1010 = DIRECTION('',(0.513596924402,0.513596924402,-0.687340089395));
#1011 = ADVANCED_FACE('',(#1012),#1029,.T.);
#1012 = FACE_BOUND('',#1013,.T.);
#1013 = EDGE_LOOP('',(#1014,#1015,#1016,#1022));
#1014 = ORIENTED_EDGE('',*,*,#840,.F.);
#1015 = ORIENTED_EDGE('',*,*,#958,.T.);
#1016 = ORIENTED_EDGE('',*,*,#1017,.T.);
#1017 = EDGE_CURVE('',#934,#976,#1018,.T.);
#1018 = LINE('',#1019,#1020);
#1019 = CARTESIAN_POINT('',(-54.,7.,11.));
#1020 = VECTOR('',#1021,1.);
#1021 = DIRECTION('',(1.,0.,0.));
#1022 = ORIENTED_EDGE('',*,*,#1023,.F.);
#1023 = EDGE_CURVE('',#808,#976,#1024,.T.);
#1024 = CIRCLE('',#1025,1.);
#1025 = AXIS2_PLACEMENT_3D('',#1026,#1027,#1028);
#1026 = CARTESIAN_POINT('',(52.,7.,10.));
#1027 = DIRECTION('',(1.,-0.,0.));
#1028 = DIRECTION('',(0.,0.196116135138,-0.980580675691));
#1029 = CYLINDRICAL_SURFACE('',#1030,1.);
#1030 = AXIS2_PLACEMENT_3D('',#1031,#1032,#1033);
#1031 = CARTESIAN_POINT('',(-54.,7.,10.));
#1032 = DIRECTION('',(1.,0.,0.));
#1033 = DIRECTION('',(0.,0.196116135138,-0.980580675691));
#1034 = ADVANCED_FACE('',(#1035),#1046,.T.);
#1035 = FACE_BOUND('',#1036,.F.);
#1036 = EDGE_LOOP('',(#1037,#1038,#1039,#1045));
#1037 = ORIENTED_EDGE('',*,*,#710,.F.);
#1038 = ORIENTED_EDGE('',*,*,#999,.T.);
#1039 = ORIENTED_EDGE('',*,*,#1040,.T.);
#1040 = EDGE_CURVE('',#925,#900,#1041,.T.);
#1041 = LINE('',#1042,#1043);
#1042 = CARTESIAN_POINT('',(-54.,-7.,11.));
#1043 = VECTOR('',#1044,1.);
#1044 = DIRECTION('',(1.,0.,0.));
#1045 = ORIENTED_EDGE('',*,*,#908,.F.);
#1046 = CYLINDRICAL_SURFACE('',#1047,1.);
#1047 = AXIS2_PLACEMENT_3D('',#1048,#1049,#1050);
#1048 = CARTESIAN_POINT('',(-54.,-7.,10.));
#1049 = DIRECTION('',(1.,0.,0.));
#1050 = DIRECTION('',(0.,-0.196116135138,-0.980580675691));
#1051 = ADVANCED_FACE('',(#1052),#1057,.T.);
#1052 = FACE_BOUND('',#1053,.T.);
#1053 = EDGE_LOOP('',(#1054,#1055,#1056));
#1054 = ORIENTED_EDGE('',*,*,#817,.T.);
#1055 = ORIENTED_EDGE('',*,*,#1023,.T.);
#1056 = ORIENTED_EDGE('',*,*,#983,.F.);
#1057 = SPHERICAL_SURFACE('',#1058,1.);
#1058 = AXIS2_PLACEMENT_3D('',#1059,#1060,#1061);
#1059 = CARTESIAN_POINT('',(52.,7.,10.));
#1060 = DIRECTION('',(0.130864459543,0.744806568138,-0.654322297715));
#1061 = DIRECTION('',(-0.513596924402,-0.513596924402,-0.687340089395));
#1062 = ADVANCED_FACE('',(#1063),#1069,.T.);
#1063 = FACE_BOUND('',#1064,.T.);
#1064 = EDGE_LOOP('',(#1065,#1066,#1067,#1068));
#1065 = ORIENTED_EDGE('',*,*,#933,.F.);
#1066 = ORIENTED_EDGE('',*,*,#1040,.T.);
#1067 = ORIENTED_EDGE('',*,*,#975,.T.);
#1068 = ORIENTED_EDGE('',*,*,#1017,.F.);
#1069 = PLANE('',#1070);
#1070 = AXIS2_PLACEMENT_3D('',#1071,#1072,#1073);
#1071 = CARTESIAN_POINT('',(0.,0.,11.));
#1072 = DIRECTION('',(0.,0.,1.));
#1073 = DIRECTION('',(1.,0.,0.));
#1074 = ( GEOMETRIC_REPRESENTATION_CONTEXT(3) 
GLOBAL_UNCERTAINTY_ASSIGNED_CONTEXT((#1078)) 
GLOBAL_UNIT_ASSIGNED_CONTEXT((#1075,#1076,#1077)) REPRESENTATION_CONTEXT
('Context #1','3D Context with UNIT and UNCERTAINTY') );
#1075 = ( LENGTH_UNIT() NAMED_UNIT(*) SI_UNIT(.MILLI.,.METRE.) );
#1076 = ( NAMED_UNIT(*) PLANE_ANGLE_UNIT() SI_UNIT($,.RADIAN.) );
#1077 = ( NAMED_UNIT(*) SI_UNIT($,.STERADIAN.) SOLID_ANGLE_UNIT() );
#1078 = UNCERTAINTY_MEASURE_WITH_UNIT(LENGTH_MEASURE(5.E-05),#1075,
  'distance_accuracy_value','confusion accuracy');
#1079 = CONTEXT_DEPENDENT_SHAPE_REPRESENTATION(#1080,#1082);
#1080 = ( REPRESENTATION_RELATIONSHIP('','',#477,#10) 
REPRESENTATION_RELATIONSHIP_WITH_TRANSFORMATION(#1081) 
SHAPE_REPRESENTATION_RELATIONSHIP() );
#1081 = ITEM_DEFINED_TRANSFORMATION('','',#11,#19);
#1082 = PRODUCT_DEFINITION_SHAPE('Placement','Placement of an item',
  #1083);
#1083 = NEXT_ASSEMBLY_USAGE_OCCURRENCE('5','Shell','',#5,#472,$);
#1084 = PRODUCT_RELATED_PRODUCT_CATEGORY('part',$,(#474));
#1085 = SHAPE_DEFINITION_REPRESENTATION(#1086,#1092);
#1086 = PRODUCT_DEFINITION_SHAPE('','',#1087);
#1087 = PRODUCT_DEFINITION('design','',#1088,#1091);
#1088 = PRODUCT_DEFINITION_FORMATION('','',#1089);
#1089 = PRODUCT('Stem','Stem','',(#1090));
#1090 = PRODUCT_CONTEXT('',#2,'mechanical');
#1091 = PRODUCT_DEFINITION_CONTEXT('part definition',#2,'design');
#1092 = ADVANCED_BREP_SHAPE_REPRESENTATION('',(#11,#1093),#1907);
#1093 = MANIFOLD_SOLID_BREP('',#1094);
#1094 = CLOSED_SHELL('',(#1095,#1135,#1166,#1197,#1228,#1259,#1290,#1321
    ,#1352,#1383,#1414,#1445,#1467,#1507,#1538,#1569,#1600,#1631,#1662,
    #1693,#1724,#1755,#1786,#1817,#1839,#1873));
#1095 = ADVANCED_FACE('',(#1096),#1130,.F.);
#1096 = FACE_BOUND('',#1097,.F.);
#1097 = EDGE_LOOP('',(#1098,#1108,#1116,#1124));
#1098 = ORIENTED_EDGE('',*,*,#1099,.T.);
#1099 = EDGE_CURVE('',#1100,#1102,#1104,.T.);
#1100 = VERTEX_POINT('',#1101);
#1101 = CARTESIAN_POINT('',(-1.55,3.,10.));
#1102 = VERTEX_POINT('',#1103);
#1103 = CARTESIAN_POINT('',(-1.55,3.,0.));
#1104 = LINE('',#1105,#1106);
#1105 = CARTESIAN_POINT('',(-1.55,3.,10.));
#1106 = VECTOR('',#1107,1.);
#1107 = DIRECTION('',(0.,0.,-1.));
#1108 = ORIENTED_EDGE('',*,*,#1109,.T.);
#1109 = EDGE_CURVE('',#1102,#1110,#1112,.T.);
#1110 = VERTEX_POINT('',#1111);
#1111 = CARTESIAN_POINT('',(1.55,3.,0.));
#1112 = LINE('',#1113,#1114);
#1113 = CARTESIAN_POINT('',(-1.55,3.,0.));
#1114 = VECTOR('',#1115,1.);
#1115 = DIRECTION('',(1.,0.,0.));
#1116 = ORIENTED_EDGE('',*,*,#1117,.F.);
#1117 = EDGE_CURVE('',#1118,#1110,#1120,.T.);
#1118 = VERTEX_POINT('',#1119);
#1119 = CARTESIAN_POINT('',(1.55,3.,10.));
#1120 = LINE('',#1121,#1122);
#1121 = CARTESIAN_POINT('',(1.55,3.,10.));
#1122 = VECTOR('',#1123,1.);
#1123 = DIRECTION('',(0.,0.,-1.));
#1124 = ORIENTED_EDGE('',*,*,#1125,.F.);
#1125 = EDGE_CURVE('',#1100,#1118,#1126,.T.);
#1126 = LINE('',#1127,#1128);
#1127 = CARTESIAN_POINT('',(-1.55,3.,10.));
#1128 = VECTOR('',#1129,1.);
#1129 = DIRECTION('',(1.,0.,0.));
#1130 = PLANE('',#1131);
#1131 = AXIS2_PLACEMENT_3D('',#1132,#1133,#1134);
#1132 = CARTESIAN_POINT('',(-1.55,3.,10.));
#1133 = DIRECTION('',(0.,-1.,0.));
#1134 = DIRECTION('',(1.,0.,0.));
#1135 = ADVANCED_FACE('',(#1136),#1161,.F.);
#1136 = FACE_BOUND('',#1137,.F.);
#1137 = EDGE_LOOP('',(#1138,#1139,#1147,#1155));
#1138 = ORIENTED_EDGE('',*,*,#1117,.T.);
#1139 = ORIENTED_EDGE('',*,*,#1140,.T.);
#1140 = EDGE_CURVE('',#1110,#1141,#1143,.T.);
#1141 = VERTEX_POINT('',#1142);
#1142 = CARTESIAN_POINT('',(1.55,1.625,0.));
#1143 = LINE('',#1144,#1145);
#1144 = CARTESIAN_POINT('',(1.55,3.,0.));
#1145 = VECTOR('',#1146,1.);
#1146 = DIRECTION('',(0.,-1.,0.));
#1147 = ORIENTED_EDGE('',*,*,#1148,.F.);
#1148 = EDGE_CURVE('',#1149,#1141,#1151,.T.);
#1149 = VERTEX_POINT('',#1150);
#1150 = CARTESIAN_POINT('',(1.55,1.625,10.));
#1151 = LINE('',#1152,#1153);
#1152 = CARTESIAN_POINT('',(1.55,1.625,10.));
#1153 = VECTOR('',#1154,1.);
#1154 = DIRECTION('',(0.,0.,-1.));
#1155 = ORIENTED_EDGE('',*,*,#1156,.F.);
#1156 = EDGE_CURVE('',#1118,#1149,#1157,.T.);
#1157 = LINE('',#1158,#1159);
#1158 = CARTESIAN_POINT('',(1.55,3.,10.));
#1159 = VECTOR('',#1160,1.);
#1160 = DIRECTION('',(0.,-1.,0.));
#1161 = PLANE('',#1162);
#1162 = AXIS2_PLACEMENT_3D('',#1163,#1164,#1165);
#1163 = CARTESIAN_POINT('',(1.55,3.,10.));
#1164 = DIRECTION('',(-1.,-0.,-0.));
#1165 = DIRECTION('',(0.,-1.,0.));
#1166 = ADVANCED_FACE('',(#1167),#1192,.F.);
#1167 = FACE_BOUND('',#1168,.F.);
#1168 = EDGE_LOOP('',(#1169,#1170,#1178,#1186));
#1169 = ORIENTED_EDGE('',*,*,#1148,.T.);
#1170 = ORIENTED_EDGE('',*,*,#1171,.T.);
#1171 = EDGE_CURVE('',#1141,#1172,#1174,.T.);
#1172 = VERTEX_POINT('',#1173);
#1173 = CARTESIAN_POINT('',(3.,1.625,0.));
#1174 = LINE('',#1175,#1176);
#1175 = CARTESIAN_POINT('',(1.55,1.625,0.));
#1176 = VECTOR('',#1177,1.);
#1177 = DIRECTION('',(1.,0.,0.));
#1178 = ORIENTED_EDGE('',*,*,#1179,.F.);
#1179 = EDGE_CURVE('',#1180,#1172,#1182,.T.);
#1180 = VERTEX_POINT('',#1181);
#1181 = CARTESIAN_POINT('',(3.,1.625,10.));
#1182 = LINE('',#1183,#1184);
#1183 = CARTESIAN_POINT('',(3.,1.625,10.));
#1184 = VECTOR('',#1185,1.);
#1185 = DIRECTION('',(0.,0.,-1.));
#1186 = ORIENTED_EDGE('',*,*,#1187,.F.);
#1187 = EDGE_CURVE('',#1149,#1180,#1188,.T.);
#1188 = LINE('',#1189,#1190);
#1189 = CARTESIAN_POINT('',(1.55,1.625,10.));
#1190 = VECTOR('',#1191,1.);
#1191 = DIRECTION('',(1.,0.,0.));
#1192 = PLANE('',#1193);
#1193 = AXIS2_PLACEMENT_3D('',#1194,#1195,#1196);
#1194 = CARTESIAN_POINT('',(1.55,1.625,10.));
#1195 = DIRECTION('',(0.,-1.,0.));
#1196 = DIRECTION('',(1.,0.,0.));
#1197 = ADVANCED_FACE('',(#1198),#1223,.F.);
#1198 = FACE_BOUND('',#1199,.F.);
#1199 = EDGE_LOOP('',(#1200,#1201,#1209,#1217));
#1200 = ORIENTED_EDGE('',*,*,#1179,.T.);
#1201 = ORIENTED_EDGE('',*,*,#1202,.T.);
#1202 = EDGE_CURVE('',#1172,#1203,#1205,.T.);
#1203 = VERTEX_POINT('',#1204);
#1204 = CARTESIAN_POINT('',(3.,-1.625,0.));
#1205 = LINE('',#1206,#1207);
#1206 = CARTESIAN_POINT('',(3.,1.625,0.));
#1207 = VECTOR('',#1208,1.);
#1208 = DIRECTION('',(0.,-1.,0.));
#1209 = ORIENTED_EDGE('',*,*,#1210,.F.);
#1210 = EDGE_CURVE('',#1211,#1203,#1213,.T.);
#1211 = VERTEX_POINT('',#1212);
#1212 = CARTESIAN_POINT('',(3.,-1.625,10.));
#1213 = LINE('',#1214,#1215);
#1214 = CARTESIAN_POINT('',(3.,-1.625,10.));
#1215 = VECTOR('',#1216,1.);
#1216 = DIRECTION('',(0.,0.,-1.));
#1217 = ORIENTED_EDGE('',*,*,#1218,.F.);
#1218 = EDGE_CURVE('',#1180,#1211,#1219,.T.);
#1219 = LINE('',#1220,#1221);
#1220 = CARTESIAN_POINT('',(3.,1.625,10.));
#1221 = VECTOR('',#1222,1.);
#1222 = DIRECTION('',(0.,-1.,0.));
#1223 = PLANE('',#1224);
#1224 = AXIS2_PLACEMENT_3D('',#1225,#1226,#1227);
#1225 = CARTESIAN_POINT('',(3.,1.625,10.));
#1226 = DIRECTION('',(-1.,-0.,-0.));
#1227 = DIRECTION('',(0.,-1.,0.));
#1228 = ADVANCED_FACE('',(#1229),#1254,.F.);
#1229 = FACE_BOUND('',#1230,.F.);
#1230 = EDGE_LOOP('',(#1231,#1232,#1240,#1248));
#1231 = ORIENTED_EDGE('',*,*,#1210,.T.);
#1232 = ORIENTED_EDGE('',*,*,#1233,.T.);
#1233 = EDGE_CURVE('',#1203,#1234,#1236,.T.);
#1234 = VERTEX_POINT('',#1235);
#1235 = CARTESIAN_POINT('',(1.55,-1.625,0.));
#1236 = LINE('',#1237,#1238);
#1237 = CARTESIAN_POINT('',(3.,-1.625,0.));
#1238 = VECTOR('',#1239,1.);
#1239 = DIRECTION('',(-1.,0.,0.));
#1240 = ORIENTED_EDGE('',*,*,#1241,.F.);
#1241 = EDGE_CURVE('',#1242,#1234,#1244,.T.);
#1242 = VERTEX_POINT('',#1243);
#1243 = CARTESIAN_POINT('',(1.55,-1.625,10.));
#1244 = LINE('',#1245,#1246);
#1245 = CARTESIAN_POINT('',(1.55,-1.625,10.));
#1246 = VECTOR('',#1247,1.);
#1247 = DIRECTION('',(0.,0.,-1.));
#1248 = ORIENTED_EDGE('',*,*,#1249,.F.);
#1249 = EDGE_CURVE('',#1211,#1242,#1250,.T.);
#1250 = LINE('',#1251,#1252);
#1251 = CARTESIAN_POINT('',(3.,-1.625,10.));
#1252 = VECTOR('',#1253,1.);
#1253 = DIRECTION('',(-1.,0.,0.));
#1254 = PLANE('',#1255);
#1255 = AXIS2_PLACEMENT_3D('',#1256,#1257,#1258);
#1256 = CARTESIAN_POINT('',(3.,-1.625,10.));
#1257 = DIRECTION('',(0.,1.,0.));
#1258 = DIRECTION('',(-1.,0.,0.));
#1259 = ADVANCED_FACE('',(#1260),#1285,.F.);
#1260 = FACE_BOUND('',#1261,.F.);
#1261 = EDGE_LOOP('',(#1262,#1263,#1271,#1279));
#1262 = ORIENTED_EDGE('',*,*,#1241,.T.);
#1263 = ORIENTED_EDGE('',*,*,#1264,.T.);
#1264 = EDGE_CURVE('',#1234,#1265,#1267,.T.);
#1265 = VERTEX_POINT('',#1266);
#1266 = CARTESIAN_POINT('',(1.55,-3.,0.));
#1267 = LINE('',#1268,#1269);
#1268 = CARTESIAN_POINT('',(1.55,-1.625,0.));
#1269 = VECTOR('',#1270,1.);
#1270 = DIRECTION('',(0.,-1.,0.));
#1271 = ORIENTED_EDGE('',*,*,#1272,.F.);
#1272 = EDGE_CURVE('',#1273,#1265,#1275,.T.);
#1273 = VERTEX_POINT('',#1274);
#1274 = CARTESIAN_POINT('',(1.55,-3.,10.));
#1275 = LINE('',#1276,#1277);
#1276 = CARTESIAN_POINT('',(1.55,-3.,10.));
#1277 = VECTOR('',#1278,1.);
#1278 = DIRECTION('',(0.,0.,-1.));
#1279 = ORIENTED_EDGE('',*,*,#1280,.F.);
#1280 = EDGE_CURVE('',#1242,#1273,#1281,.T.);
#1281 = LINE('',#1282,#1283);
#1282 = CARTESIAN_POINT('',(1.55,-1.625,10.));
#1283 = VECTOR('',#1284,1.);
#1284 = DIRECTION('',(0.,-1.,0.));
#1285 = PLANE('',#1286);
#1286 = AXIS2_PLACEMENT_3D('',#1287,#1288,#1289);
#1287 = CARTESIAN_POINT('',(1.55,-1.625,10.));
#1288 = DIRECTION('',(-1.,-0.,-0.));
#1289 = DIRECTION('',(0.,-1.,0.));
#1290 = ADVANCED_FACE('',(#1291),#1316,.F.);
#1291 = FACE_BOUND('',#1292,.F.);
#1292 = EDGE_LOOP('',(#1293,#1294,#1302,#1310));
#1293 = ORIENTED_EDGE('',*,*,#1272,.T.);
#1294 = ORIENTED_EDGE('',*,*,#1295,.T.);
#1295 = EDGE_CURVE('',#1265,#1296,#1298,.T.);
#1296 = VERTEX_POINT('',#1297);
#1297 = CARTESIAN_POINT('',(-1.55,-3.,0.));
#1298 = LINE('',#1299,#1300);
#1299 = CARTESIAN_POINT('',(1.55,-3.,0.));
#1300 = VECTOR('',#1301,1.);
#1301 = DIRECTION('',(-1.,0.,0.));
#1302 = ORIENTED_EDGE('',*,*,#1303,.F.);
#1303 = EDGE_CURVE('',#1304,#1296,#1306,.T.);
#1304 = VERTEX_POINT('',#1305);
#1305 = CARTESIAN_POINT('',(-1.55,-3.,10.));
#1306 = LINE('',#1307,#1308);
#1307 = CARTESIAN_POINT('',(-1.55,-3.,10.));
#1308 = VECTOR('',#1309,1.);
#1309 = DIRECTION('',(0.,0.,-1.));
#1310 = ORIENTED_EDGE('',*,*,#1311,.F.);
#1311 = EDGE_CURVE('',#1273,#1304,#1312,.T.);
#1312 = LINE('',#1313,#1314);
#1313 = CARTESIAN_POINT('',(1.55,-3.,10.));
#1314 = VECTOR('',#1315,1.);
#1315 = DIRECTION('',(-1.,0.,0.));
#1316 = PLANE('',#1317);
#1317 = AXIS2_PLACEMENT_3D('',#1318,#1319,#1320);
#1318 = CARTESIAN_POINT('',(1.55,-3.,10.));
#1319 = DIRECTION('',(0.,1.,0.));
#1320 = DIRECTION('',(-1.,0.,0.));
#1321 = ADVANCED_FACE('',(#1322),#1347,.F.);
#1322 = FACE_BOUND('',#1323,.F.);
#1323 = EDGE_LOOP('',(#1324,#1325,#1333,#1341));
#1324 = ORIENTED_EDGE('',*,*,#1303,.T.);
#1325 = ORIENTED_EDGE('',*,*,#1326,.T.);
#1326 = EDGE_CURVE('',#1296,#1327,#1329,.T.);
#1327 = VERTEX_POINT('',#1328);
#1328 = CARTESIAN_POINT('',(-1.55,-1.625,0.));
#1329 = LINE('',#1330,#1331);
#1330 = CARTESIAN_POINT('',(-1.55,-3.,0.));
#1331 = VECTOR('',#1332,1.);
#1332 = DIRECTION('',(0.,1.,0.));
#1333 = ORIENTED_EDGE('',*,*,#1334,.F.);
#1334 = EDGE_CURVE('',#1335,#1327,#1337,.T.);
#1335 = VERTEX_POINT('',#1336);
#1336 = CARTESIAN_POINT('',(-1.55,-1.625,10.));
#1337 = LINE('',#1338,#1339);
#1338 = CARTESIAN_POINT('',(-1.55,-1.625,10.));
#1339 = VECTOR('',#1340,1.);
#1340 = DIRECTION('',(0.,0.,-1.));
#1341 = ORIENTED_EDGE('',*,*,#1342,.F.);
#1342 = EDGE_CURVE('',#1304,#1335,#1343,.T.);
#1343 = LINE('',#1344,#1345);
#1344 = CARTESIAN_POINT('',(-1.55,-3.,10.));
#1345 = VECTOR('',#1346,1.);
#1346 = DIRECTION('',(0.,1.,0.));
#1347 = PLANE('',#1348);
#1348 = AXIS2_PLACEMENT_3D('',#1349,#1350,#1351);
#1349 = CARTESIAN_POINT('',(-1.55,-3.,10.));
#1350 = DIRECTION('',(1.,-0.,0.));
#1351 = DIRECTION('',(0.,1.,0.));
#1352 = ADVANCED_FACE('',(#1353),#1378,.F.);
#1353 = FACE_BOUND('',#1354,.F.);
#1354 = EDGE_LOOP('',(#1355,#1356,#1364,#1372));
#1355 = ORIENTED_EDGE('',*,*,#1334,.T.);
#1356 = ORIENTED_EDGE('',*,*,#1357,.T.);
#1357 = EDGE_CURVE('',#1327,#1358,#1360,.T.);
#1358 = VERTEX_POINT('',#1359);
#1359 = CARTESIAN_POINT('',(-3.,-1.625,0.));
#1360 = LINE('',#1361,#1362);
#1361 = CARTESIAN_POINT('',(-1.55,-1.625,0.));
#1362 = VECTOR('',#1363,1.);
#1363 = DIRECTION('',(-1.,0.,0.));
#1364 = ORIENTED_EDGE('',*,*,#1365,.F.);
#1365 = EDGE_CURVE('',#1366,#1358,#1368,.T.);
#1366 = VERTEX_POINT('',#1367);
#1367 = CARTESIAN_POINT('',(-3.,-1.625,10.));
#1368 = LINE('',#1369,#1370);
#1369 = CARTESIAN_POINT('',(-3.,-1.625,10.));
#1370 = VECTOR('',#1371,1.);
#1371 = DIRECTION('',(0.,0.,-1.));
#1372 = ORIENTED_EDGE('',*,*,#1373,.F.);
#1373 = EDGE_CURVE('',#1335,#1366,#1374,.T.);
#1374 = LINE('',#1375,#1376);
#1375 = CARTESIAN_POINT('',(-1.55,-1.625,10.));
#1376 = VECTOR('',#1377,1.);
#1377 = DIRECTION('',(-1.,0.,0.));
#1378 = PLANE('',#1379);
#1379 = AXIS2_PLACEMENT_3D('',#1380,#1381,#1382);
#1380 = CARTESIAN_POINT('',(-1.55,-1.625,10.));
#1381 = DIRECTION('',(0.,1.,0.));
#1382 = DIRECTION('',(-1.,0.,0.));
#1383 = ADVANCED_FACE('',(#1384),#1409,.F.);
#1384 = FACE_BOUND('',#1385,.F.);
#1385 = EDGE_LOOP('',(#1386,#1387,#1395,#1403));
#1386 = ORIENTED_EDGE('',*,*,#1365,.T.);
#1387 = ORIENTED_EDGE('',*,*,#1388,.T.);
#1388 = EDGE_CURVE('',#1358,#1389,#1391,.T.);
#1389 = VERTEX_POINT('',#1390);
#1390 = CARTESIAN_POINT('',(-3.,1.625,0.));
#1391 = LINE('',#1392,#1393);
#1392 = CARTESIAN_POINT('',(-3.,-1.625,0.));
#1393 = VECTOR('',#1394,1.);
#1394 = DIRECTION('',(0.,1.,0.));
#1395 = ORIENTED_EDGE('',*,*,#1396,.F.);
#1396 = EDGE_CURVE('',#1397,#1389,#1399,.T.);
#1397 = VERTEX_POINT('',#1398);
#1398 = CARTESIAN_POINT('',(-3.,1.625,10.));
#1399 = LINE('',#1400,#1401);
#1400 = CARTESIAN_POINT('',(-3.,1.625,10.));
#1401 = VECTOR('',#1402,1.);
#1402 = DIRECTION('',(0.,0.,-1.));
#1403 = ORIENTED_EDGE('',*,*,#1404,.F.);
#1404 = EDGE_CURVE('',#1366,#1397,#1405,.T.);
#1405 = LINE('',#1406,#1407);
#1406 = CARTESIAN_POINT('',(-3.,-1.625,10.));
#1407 = VECTOR('',#1408,1.);
#1408 = DIRECTION('',(0.,1.,0.));
#1409 = PLANE('',#1410);
#1410 = AXIS2_PLACEMENT_3D('',#1411,#1412,#1413);
#1411 = CARTESIAN_POINT('',(-3.,-1.625,10.));
#1412 = DIRECTION('',(1.,-0.,0.));
#1413 = DIRECTION('',(0.,1.,0.));
#1414 = ADVANCED_FACE('',(#1415),#1440,.F.);
#1415 = FACE_BOUND('',#1416,.F.);
#1416 = EDGE_LOOP('',(#1417,#1418,#1426,#1434));
#1417 = ORIENTED_EDGE('',*,*,#1396,.T.);
#1418 = ORIENTED_EDGE('',*,*,#1419,.T.);
#1419 = EDGE_CURVE('',#1389,#1420,#1422,.T.);
#1420 = VERTEX_POINT('',#1421);
#1421 = CARTESIAN_POINT('',(-1.55,1.625,0.));
#1422 = LINE('',#1423,#1424);
#1423 = CARTESIAN_POINT('',(-3.,1.625,0.));
#1424 = VECTOR('',#1425,1.);
#1425 = DIRECTION('',(1.,0.,0.));
#1426 = ORIENTED_EDGE('',*,*,#1427,.F.);
#1427 = EDGE_CURVE('',#1428,#1420,#1430,.T.);
#1428 = VERTEX_POINT('',#1429);
#1429 = CARTESIAN_POINT('',(-1.55,1.625,10.));
#1430 = LINE('',#1431,#1432);
#1431 = CARTESIAN_POINT('',(-1.55,1.625,10.));
#1432 = VECTOR('',#1433,1.);
#1433 = DIRECTION('',(0.,0.,-1.));
#1434 = ORIENTED_EDGE('',*,*,#1435,.F.);
#1435 = EDGE_CURVE('',#1397,#1428,#1436,.T.);
#1436 = LINE('',#1437,#1438);
#1437 = CARTESIAN_POINT('',(-3.,1.625,10.));
#1438 = VECTOR('',#1439,1.);
#1439 = DIRECTION('',(1.,0.,0.));
#1440 = PLANE('',#1441);
#1441 = AXIS2_PLACEMENT_3D('',#1442,#1443,#1444);
#1442 = CARTESIAN_POINT('',(-3.,1.625,10.));
#1443 = DIRECTION('',(0.,-1.,0.));
#1444 = DIRECTION('',(1.,0.,0.));
#1445 = ADVANCED_FACE('',(#1446),#1462,.F.);
#1446 = FACE_BOUND('',#1447,.F.);
#1447 = EDGE_LOOP('',(#1448,#1449,#1455,#1456));
#1448 = ORIENTED_EDGE('',*,*,#1427,.T.);
#1449 = ORIENTED_EDGE('',*,*,#1450,.T.);
#1450 = EDGE_CURVE('',#1420,#1102,#1451,.T.);
#1451 = LINE('',#1452,#1453);
#1452 = CARTESIAN_POINT('',(-1.55,1.625,0.));
#1453 = VECTOR('',#1454,1.);
#1454 = DIRECTION('',(0.,1.,0.));
#1455 = ORIENTED_EDGE('',*,*,#1099,.F.);
#1456 = ORIENTED_EDGE('',*,*,#1457,.F.);
#1457 = EDGE_CURVE('',#1428,#1100,#1458,.T.);
#1458 = LINE('',#1459,#1460);
#1459 = CARTESIAN_POINT('',(-1.55,1.625,10.));
#1460 = VECTOR('',#1461,1.);
#1461 = DIRECTION('',(0.,1.,0.));
#1462 = PLANE('',#1463);
#1463 = AXIS2_PLACEMENT_3D('',#1464,#1465,#1466);
#1464 = CARTESIAN_POINT('',(-1.55,1.625,10.));
#1465 = DIRECTION('',(1.,-0.,0.));
#1466 = DIRECTION('',(0.,1.,0.));
#1467 = ADVANCED_FACE('',(#1468),#1502,.T.);
#1468 = FACE_BOUND('',#1469,.T.);
#1469 = EDGE_LOOP('',(#1470,#1480,#1488,#1496));
#1470 = ORIENTED_EDGE('',*,*,#1471,.T.);
#1471 = EDGE_CURVE('',#1472,#1474,#1476,.T.);
#1472 = VERTEX_POINT('',#1473);
#1473 = CARTESIAN_POINT('',(-0.55,2.,10.));
#1474 = VERTEX_POINT('',#1475);
#1475 = CARTESIAN_POINT('',(-0.55,2.,0.));
#1476 = LINE('',#1477,#1478);
#1477 = CARTESIAN_POINT('',(-0.55,2.,10.));
#1478 = VECTOR('',#1479,1.);
#1479 = DIRECTION('',(0.,0.,-1.));
#1480 = ORIENTED_EDGE('',*,*,#1481,.T.);
#1481 = EDGE_CURVE('',#1474,#1482,#1484,.T.);
#1482 = VERTEX_POINT('',#1483);
#1483 = CARTESIAN_POINT('',(0.55,2.,0.));
#1484 = LINE('',#1485,#1486);
#1485 = CARTESIAN_POINT('',(-0.55,2.,0.));
#1486 = VECTOR('',#1487,1.);
#1487 = DIRECTION('',(1.,0.,0.));
#1488 = ORIENTED_EDGE('',*,*,#1489,.F.);
#1489 = EDGE_CURVE('',#1490,#1482,#1492,.T.);
#1490 = VERTEX_POINT('',#1491);
#1491 = CARTESIAN_POINT('',(0.55,2.,10.));
#1492 = LINE('',#1493,#1494);
#1493 = CARTESIAN_POINT('',(0.55,2.,10.));
#1494 = VECTOR('',#1495,1.);
#1495 = DIRECTION('',(0.,0.,-1.));
#1496 = ORIENTED_EDGE('',*,*,#1497,.F.);
#1497 = EDGE_CURVE('',#1472,#1490,#1498,.T.);
#1498 = LINE('',#1499,#1500);
#1499 = CARTESIAN_POINT('',(-0.55,2.,10.));
#1500 = VECTOR('',#1501,1.);
#1501 = DIRECTION('',(1.,0.,0.));
#1502 = PLANE('',#1503);
#1503 = AXIS2_PLACEMENT_3D('',#1504,#1505,#1506);
#1504 = CARTESIAN_POINT('',(-0.55,2.,10.));
#1505 = DIRECTION('',(0.,-1.,0.));
#1506 = DIRECTION('',(1.,0.,0.));
#1507 = ADVANCED_FACE('',(#1508),#1533,.T.);
#1508 = FACE_BOUND('',#1509,.T.);
#1509 = EDGE_LOOP('',(#1510,#1511,#1519,#1527));
#1510 = ORIENTED_EDGE('',*,*,#1489,.T.);
#1511 = ORIENTED_EDGE('',*,*,#1512,.T.);
#1512 = EDGE_CURVE('',#1482,#1513,#1515,.T.);
#1513 = VERTEX_POINT('',#1514);
#1514 = CARTESIAN_POINT('',(0.55,0.625,0.));
#1515 = LINE('',#1516,#1517);
#1516 = CARTESIAN_POINT('',(0.55,2.,0.));
#1517 = VECTOR('',#1518,1.);
#1518 = DIRECTION('',(0.,-1.,0.));
#1519 = ORIENTED_EDGE('',*,*,#1520,.F.);
#1520 = EDGE_CURVE('',#1521,#1513,#1523,.T.);
#1521 = VERTEX_POINT('',#1522);
#1522 = CARTESIAN_POINT('',(0.55,0.625,10.));
#1523 = LINE('',#1524,#1525);
#1524 = CARTESIAN_POINT('',(0.55,0.625,10.));
#1525 = VECTOR('',#1526,1.);
#1526 = DIRECTION('',(0.,0.,-1.));
#1527 = ORIENTED_EDGE('',*,*,#1528,.F.);
#1528 = EDGE_CURVE('',#1490,#1521,#1529,.T.);
#1529 = LINE('',#1530,#1531);
#1530 = CARTESIAN_POINT('',(0.55,2.,10.));
#1531 = VECTOR('',#1532,1.);
#1532 = DIRECTION('',(0.,-1.,0.));
#1533 = PLANE('',#1534);
#1534 = AXIS2_PLACEMENT_3D('',#1535,#1536,#1537);
#1535 = CARTESIAN_POINT('',(0.55,2.,10.));
#1536 = DIRECTION('',(-1.,-0.,-0.));
#1537 = DIRECTION('',(0.,-1.,0.));
#1538 = ADVANCED_FACE('',(#1539),#1564,.T.);
#1539 = FACE_BOUND('',#1540,.T.);
#1540 = EDGE_LOOP('',(#1541,#1542,#1550,#1558));
#1541 = ORIENTED_EDGE('',*,*,#1520,.T.);
#1542 = ORIENTED_EDGE('',*,*,#1543,.T.);
#1543 = EDGE_CURVE('',#1513,#1544,#1546,.T.);
#1544 = VERTEX_POINT('',#1545);
#1545 = CARTESIAN_POINT('',(2.,0.625,0.));
#1546 = LINE('',#1547,#1548);
#1547 = CARTESIAN_POINT('',(0.55,0.625,0.));
#1548 = VECTOR('',#1549,1.);
#1549 = DIRECTION('',(1.,0.,0.));
#1550 = ORIENTED_EDGE('',*,*,#1551,.F.);
#1551 = EDGE_CURVE('',#1552,#1544,#1554,.T.);
#1552 = VERTEX_POINT('',#1553);
#1553 = CARTESIAN_POINT('',(2.,0.625,10.));
#1554 = LINE('',#1555,#1556);
#1555 = CARTESIAN_POINT('',(2.,0.625,10.));
#1556 = VECTOR('',#1557,1.);
#1557 = DIRECTION('',(0.,0.,-1.));
#1558 = ORIENTED_EDGE('',*,*,#1559,.F.);
#1559 = EDGE_CURVE('',#1521,#1552,#1560,.T.);
#1560 = LINE('',#1561,#1562);
#1561 = CARTESIAN_POINT('',(0.55,0.625,10.));
#1562 = VECTOR('',#1563,1.);
#1563 = DIRECTION('',(1.,0.,0.));
#1564 = PLANE('',#1565);
#1565 = AXIS2_PLACEMENT_3D('',#1566,#1567,#1568);
#1566 = CARTESIAN_POINT('',(0.55,0.625,10.));
#1567 = DIRECTION('',(0.,-1.,0.));
#1568 = DIRECTION('',(1.,0.,0.));
#1569 = ADVANCED_FACE('',(#1570),#1595,.T.);
#1570 = FACE_BOUND('',#1571,.T.);
#1571 = EDGE_LOOP('',(#1572,#1573,#1581,#1589));
#1572 = ORIENTED_EDGE('',*,*,#1551,.T.);
#1573 = ORIENTED_EDGE('',*,*,#1574,.T.);
#1574 = EDGE_CURVE('',#1544,#1575,#1577,.T.);
#1575 = VERTEX_POINT('',#1576);
#1576 = CARTESIAN_POINT('',(2.,-0.625,0.));
#1577 = LINE('',#1578,#1579);
#1578 = CARTESIAN_POINT('',(2.,0.625,0.));
#1579 = VECTOR('',#1580,1.);
#1580 = DIRECTION('',(0.,-1.,0.));
#1581 = ORIENTED_EDGE('',*,*,#1582,.F.);
#1582 = EDGE_CURVE('',#1583,#1575,#1585,.T.);
#1583 = VERTEX_POINT('',#1584);
#1584 = CARTESIAN_POINT('',(2.,-0.625,10.));
#1585 = LINE('',#1586,#1587);
#1586 = CARTESIAN_POINT('',(2.,-0.625,10.));
#1587 = VECTOR('',#1588,1.);
#1588 = DIRECTION('',(0.,0.,-1.));
#1589 = ORIENTED_EDGE('',*,*,#1590,.F.);
#1590 = EDGE_CURVE('',#1552,#1583,#1591,.T.);
#1591 = LINE('',#1592,#1593);
#1592 = CARTESIAN_POINT('',(2.,0.625,10.));
#1593 = VECTOR('',#1594,1.);
#1594 = DIRECTION('',(0.,-1.,0.));
#1595 = PLANE('',#1596);
#1596 = AXIS2_PLACEMENT_3D('',#1597,#1598,#1599);
#1597 = CARTESIAN_POINT('',(2.,0.625,10.));
#1598 = DIRECTION('',(-1.,-0.,-0.));
#1599 = DIRECTION('',(0.,-1.,0.));
#1600 = ADVANCED_FACE('',(#1601),#1626,.T.);
#1601 = FACE_BOUND('',#1602,.T.);
#1602 = EDGE_LOOP('',(#1603,#1604,#1612,#1620));
#1603 = ORIENTED_EDGE('',*,*,#1582,.T.);
#1604 = ORIENTED_EDGE('',*,*,#1605,.T.);
#1605 = EDGE_CURVE('',#1575,#1606,#1608,.T.);
#1606 = VERTEX_POINT('',#1607);
#1607 = CARTESIAN_POINT('',(0.55,-0.625,0.));
#1608 = LINE('',#1609,#1610);
#1609 = CARTESIAN_POINT('',(2.,-0.625,0.));
#1610 = VECTOR('',#1611,1.);
#1611 = DIRECTION('',(-1.,0.,0.));
#1612 = ORIENTED_EDGE('',*,*,#1613,.F.);
#1613 = EDGE_CURVE('',#1614,#1606,#1616,.T.);
#1614 = VERTEX_POINT('',#1615);
#1615 = CARTESIAN_POINT('',(0.55,-0.625,10.));
#1616 = LINE('',#1617,#1618);
#1617 = CARTESIAN_POINT('',(0.55,-0.625,10.));
#1618 = VECTOR('',#1619,1.);
#1619 = DIRECTION('',(0.,0.,-1.));
#1620 = ORIENTED_EDGE('',*,*,#1621,.F.);
#1621 = EDGE_CURVE('',#1583,#1614,#1622,.T.);
#1622 = LINE('',#1623,#1624);
#1623 = CARTESIAN_POINT('',(2.,-0.625,10.));
#1624 = VECTOR('',#1625,1.);
#1625 = DIRECTION('',(-1.,0.,0.));
#1626 = PLANE('',#1627);
#1627 = AXIS2_PLACEMENT_3D('',#1628,#1629,#1630);
#1628 = CARTESIAN_POINT('',(2.,-0.625,10.));
#1629 = DIRECTION('',(0.,1.,0.));
#1630 = DIRECTION('',(-1.,0.,0.));
#1631 = ADVANCED_FACE('',(#1632),#1657,.T.);
#1632 = FACE_BOUND('',#1633,.T.);
#1633 = EDGE_LOOP('',(#1634,#1635,#1643,#1651));
#1634 = ORIENTED_EDGE('',*,*,#1613,.T.);
#1635 = ORIENTED_EDGE('',*,*,#1636,.T.);
#1636 = EDGE_CURVE('',#1606,#1637,#1639,.T.);
#1637 = VERTEX_POINT('',#1638);
#1638 = CARTESIAN_POINT('',(0.55,-2.,0.));
#1639 = LINE('',#1640,#1641);
#1640 = CARTESIAN_POINT('',(0.55,-0.625,0.));
#1641 = VECTOR('',#1642,1.);
#1642 = DIRECTION('',(0.,-1.,0.));
#1643 = ORIENTED_EDGE('',*,*,#1644,.F.);
#1644 = EDGE_CURVE('',#1645,#1637,#1647,.T.);
#1645 = VERTEX_POINT('',#1646);
#1646 = CARTESIAN_POINT('',(0.55,-2.,10.));
#1647 = LINE('',#1648,#1649);
#1648 = CARTESIAN_POINT('',(0.55,-2.,10.));
#1649 = VECTOR('',#1650,1.);
#1650 = DIRECTION('',(0.,0.,-1.));
#1651 = ORIENTED_EDGE('',*,*,#1652,.F.);
#1652 = EDGE_CURVE('',#1614,#1645,#1653,.T.);
#1653 = LINE('',#1654,#1655);
#1654 = CARTESIAN_POINT('',(0.55,-0.625,10.));
#1655 = VECTOR('',#1656,1.);
#1656 = DIRECTION('',(0.,-1.,0.));
#1657 = PLANE('',#1658);
#1658 = AXIS2_PLACEMENT_3D('',#1659,#1660,#1661);
#1659 = CARTESIAN_POINT('',(0.55,-0.625,10.));
#1660 = DIRECTION('',(-1.,-0.,-0.));
#1661 = DIRECTION('',(0.,-1.,0.));
#1662 = ADVANCED_FACE('',(#1663),#1688,.T.);
#1663 = FACE_BOUND('',#1664,.T.);
#1664 = EDGE_LOOP('',(#1665,#1666,#1674,#1682));
#1665 = ORIENTED_EDGE('',*,*,#1644,.T.);
#1666 = ORIENTED_EDGE('',*,*,#1667,.T.);
#1667 = EDGE_CURVE('',#1637,#1668,#1670,.T.);
#1668 = VERTEX_POINT('',#1669);
#1669 = CARTESIAN_POINT('',(-0.55,-2.,0.));
#1670 = LINE('',#1671,#1672);
#1671 = CARTESIAN_POINT('',(0.55,-2.,0.));
#1672 = VECTOR('',#1673,1.);
#1673 = DIRECTION('',(-1.,0.,0.));
#1674 = ORIENTED_EDGE('',*,*,#1675,.F.);
#1675 = EDGE_CURVE('',#1676,#1668,#1678,.T.);
#1676 = VERTEX_POINT('',#1677);
#1677 = CARTESIAN_POINT('',(-0.55,-2.,10.));
#1678 = LINE('',#1679,#1680);
#1679 = CARTESIAN_POINT('',(-0.55,-2.,10.));
#1680 = VECTOR('',#1681,1.);
#1681 = DIRECTION('',(0.,0.,-1.));
#1682 = ORIENTED_EDGE('',*,*,#1683,.F.);
#1683 = EDGE_CURVE('',#1645,#1676,#1684,.T.);
#1684 = LINE('',#1685,#1686);
#1685 = CARTESIAN_POINT('',(0.55,-2.,10.));
#1686 = VECTOR('',#1687,1.);
#1687 = DIRECTION('',(-1.,0.,0.));
#1688 = PLANE('',#1689);
#1689 = AXIS2_PLACEMENT_3D('',#1690,#1691,#1692);
#1690 = CARTESIAN_POINT('',(0.55,-2.,10.));
#1691 = DIRECTION('',(0.,1.,0.));
#1692 = DIRECTION('',(-1.,0.,0.));
#1693 = ADVANCED_FACE('',(#1694),#1719,.T.);
#1694 = FACE_BOUND('',#1695,.T.);
#1695 = EDGE_LOOP('',(#1696,#1697,#1705,#1713));
#1696 = ORIENTED_EDGE('',*,*,#1675,.T.);
#1697 = ORIENTED_EDGE('',*,*,#1698,.T.);
#1698 = EDGE_CURVE('',#1668,#1699,#1701,.T.);
#1699 = VERTEX_POINT('',#1700);
#1700 = CARTESIAN_POINT('',(-0.55,-0.625,0.));
#1701 = LINE('',#1702,#1703);
#1702 = CARTESIAN_POINT('',(-0.55,-2.,0.));
#1703 = VECTOR('',#1704,1.);
#1704 = DIRECTION('',(0.,1.,0.));
#1705 = ORIENTED_EDGE('',*,*,#1706,.F.);
#1706 = EDGE_CURVE('',#1707,#1699,#1709,.T.);
#1707 = VERTEX_POINT('',#1708);
#1708 = CARTESIAN_POINT('',(-0.55,-0.625,10.));
#1709 = LINE('',#1710,#1711);
#1710 = CARTESIAN_POINT('',(-0.55,-0.625,10.));
#1711 = VECTOR('',#1712,1.);
#1712 = DIRECTION('',(0.,0.,-1.));
#1713 = ORIENTED_EDGE('',*,*,#1714,.F.);
#1714 = EDGE_CURVE('',#1676,#1707,#1715,.T.);
#1715 = LINE('',#1716,#1717);
#1716 = CARTESIAN_POINT('',(-0.55,-2.,10.));
#1717 = VECTOR('',#1718,1.);
#1718 = DIRECTION('',(0.,1.,0.));
#1719 = PLANE('',#1720);
#1720 = AXIS2_PLACEMENT_3D('',#1721,#1722,#1723);
#1721 = CARTESIAN_POINT('',(-0.55,-2.,10.));
#1722 = DIRECTION('',(1.,-0.,0.));
#1723 = DIRECTION('',(0.,1.,0.));
#1724 = ADVANCED_FACE('',(#1725),#1750,.T.);
#1725 = FACE_BOUND('',#1726,.T.);
#1726 = EDGE_LOOP('',(#1727,#1728,#1736,#1744));
#1727 = ORIENTED_EDGE('',*,*,#1706,.T.);
#1728 = ORIENTED_EDGE('',*,*,#1729,.T.);
#1729 = EDGE_CURVE('',#1699,#1730,#1732,.T.);
#1730 = VERTEX_POINT('',#1731);
#1731 = CARTESIAN_POINT('',(-2.,-0.625,0.));
#1732 = LINE('',#1733,#1734);
#1733 = CARTESIAN_POINT('',(-0.55,-0.625,0.));
#1734 = VECTOR('',#1735,1.);
#1735 = DIRECTION('',(-1.,0.,0.));
#1736 = ORIENTED_EDGE('',*,*,#1737,.F.);
#1737 = EDGE_CURVE('',#1738,#1730,#1740,.T.);
#1738 = VERTEX_POINT('',#1739);
#1739 = CARTESIAN_POINT('',(-2.,-0.625,10.));
#1740 = LINE('',#1741,#1742);
#1741 = CARTESIAN_POINT('',(-2.,-0.625,10.));
#1742 = VECTOR('',#1743,1.);
#1743 = DIRECTION('',(0.,0.,-1.));
#1744 = ORIENTED_EDGE('',*,*,#1745,.F.);
#1745 = EDGE_CURVE('',#1707,#1738,#1746,.T.);
#1746 = LINE('',#1747,#1748);
#1747 = CARTESIAN_POINT('',(-0.55,-0.625,10.));
#1748 = VECTOR('',#1749,1.);
#1749 = DIRECTION('',(-1.,0.,0.));
#1750 = PLANE('',#1751);
#1751 = AXIS2_PLACEMENT_3D('',#1752,#1753,#1754);
#1752 = CARTESIAN_POINT('',(-0.55,-0.625,10.));
#1753 = DIRECTION('',(0.,1.,0.));
#1754 = DIRECTION('',(-1.,0.,0.));
#1755 = ADVANCED_FACE('',(#1756),#1781,.T.);
#1756 = FACE_BOUND('',#1757,.T.);
#1757 = EDGE_LOOP('',(#1758,#1759,#1767,#1775));
#1758 = ORIENTED_EDGE('',*,*,#1737,.T.);
#1759 = ORIENTED_EDGE('',*,*,#1760,.T.);
#1760 = EDGE_CURVE('',#1730,#1761,#1763,.T.);
#1761 = VERTEX_POINT('',#1762);
#1762 = CARTESIAN_POINT('',(-2.,0.625,0.));
#1763 = LINE('',#1764,#1765);
#1764 = CARTESIAN_POINT('',(-2.,-0.625,0.));
#1765 = VECTOR('',#1766,1.);
#1766 = DIRECTION('',(0.,1.,0.));
#1767 = ORIENTED_EDGE('',*,*,#1768,.F.);
#1768 = EDGE_CURVE('',#1769,#1761,#1771,.T.);
#1769 = VERTEX_POINT('',#1770);
#1770 = CARTESIAN_POINT('',(-2.,0.625,10.));
#1771 = LINE('',#1772,#1773);
#1772 = CARTESIAN_POINT('',(-2.,0.625,10.));
#1773 = VECTOR('',#1774,1.);
#1774 = DIRECTION('',(0.,0.,-1.));
#1775 = ORIENTED_EDGE('',*,*,#1776,.F.);
#1776 = EDGE_CURVE('',#1738,#1769,#1777,.T.);
#1777 = LINE('',#1778,#1779);
#1778 = CARTESIAN_POINT('',(-2.,-0.625,10.));
#1779 = VECTOR('',#1780,1.);
#1780 = DIRECTION('',(0.,1.,0.));
#1781 = PLANE('',#1782);
#1782 = AXIS2_PLACEMENT_3D('',#1783,#1784,#1785);
#1783 = CARTESIAN_POINT('',(-2.,-0.625,10.));
#1784 = DIRECTION('',(1.,-0.,0.));
#1785 = DIRECTION('',(0.,1.,0.));
#1786 = ADVANCED_FACE('',(#1787),#1812,.T.);
#1787 = FACE_BOUND('',#1788,.T.);
#1788 = EDGE_LOOP('',(#1789,#1790,#1798,#1806));
#1789 = ORIENTED_EDGE('',*,*,#1768,.T.);
#1790 = ORIENTED_EDGE('',*,*,#1791,.T.);
#1791 = EDGE_CURVE('',#1761,#1792,#1794,.T.);
#1792 = VERTEX_POINT('',#1793);
#1793 = CARTESIAN_POINT('',(-0.55,0.625,0.));
#1794 = LINE('',#1795,#1796);
#1795 = CARTESIAN_POINT('',(-2.,0.625,0.));
#1796 = VECTOR('',#1797,1.);
#1797 = DIRECTION('',(1.,0.,0.));
#1798 = ORIENTED_EDGE('',*,*,#1799,.F.);
#1799 = EDGE_CURVE('',#1800,#1792,#1802,.T.);
#1800 = VERTEX_POINT('',#1801);
#1801 = CARTESIAN_POINT('',(-0.55,0.625,10.));
#1802 = LINE('',#1803,#1804);
#1803 = CARTESIAN_POINT('',(-0.55,0.625,10.));
#1804 = VECTOR('',#1805,1.);
#1805 = DIRECTION('',(0.,0.,-1.));
#1806 = ORIENTED_EDGE('',*,*,#1807,.F.);
#1807 = EDGE_CURVE('',#1769,#1800,#1808,.T.);
#1808 = LINE('',#1809,#1810);
#1809 = CARTESIAN_POINT('',(-2.,0.625,10.));
#1810 = VECTOR('',#1811,1.);
#1811 = DIRECTION('',(1.,0.,0.));
#1812 = PLANE('',#1813);
#1813 = AXIS2_PLACEMENT_3D('',#1814,#1815,#1816);
#1814 = CARTESIAN_POINT('',(-2.,0.625,10.));
#1815 = DIRECTION('',(0.,-1.,0.));
#1816 = DIRECTION('',(1.,0.,0.));
#1817 = ADVANCED_FACE('',(#1818),#1834,.T.);
#1818 = FACE_BOUND('',#1819,.T.);
#1819 = EDGE_LOOP('',(#1820,#1821,#1827,#1828));
#1820 = ORIENTED_EDGE('',*,*,#1799,.T.);
#1821 = ORIENTED_EDGE('',*,*,#1822,.T.);
#1822 = EDGE_CURVE('',#1792,#1474,#1823,.T.);
#1823 = LINE('',#1824,#1825);
#1824 = CARTESIAN_POINT('',(-0.55,0.625,0.));
#1825 = VECTOR('',#1826,1.);
#1826 = DIRECTION('',(0.,1.,0.));
#1827 = ORIENTED_EDGE('',*,*,#1471,.F.);
#1828 = ORIENTED_EDGE('',*,*,#1829,.F.);
#1829 = EDGE_CURVE('',#1800,#1472,#1830,.T.);
#1830 = LINE('',#1831,#1832);
#1831 = CARTESIAN_POINT('',(-0.55,0.625,10.));
#1832 = VECTOR('',#1833,1.);
#1833 = DIRECTION('',(0.,1.,0.));
#1834 = PLANE('',#1835);
#1835 = AXIS2_PLACEMENT_3D('',#1836,#1837,#1838);
#1836 = CARTESIAN_POINT('',(-0.55,0.625,10.));
#1837 = DIRECTION('',(1.,-0.,0.));
#1838 = DIRECTION('',(0.,1.,0.));
#1839 = ADVANCED_FACE('',(#1840,#1854),#1868,.T.);
#1840 = FACE_BOUND('',#1841,.F.);
#1841 = EDGE_LOOP('',(#1842,#1843,#1844,#1845,#1846,#1847,#1848,#1849,
    #1850,#1851,#1852,#1853));
#1842 = ORIENTED_EDGE('',*,*,#1125,.T.);
#1843 = ORIENTED_EDGE('',*,*,#1156,.T.);
#1844 = ORIENTED_EDGE('',*,*,#1187,.T.);
#1845 = ORIENTED_EDGE('',*,*,#1218,.T.);
#1846 = ORIENTED_EDGE('',*,*,#1249,.T.);
#1847 = ORIENTED_EDGE('',*,*,#1280,.T.);
#1848 = ORIENTED_EDGE('',*,*,#1311,.T.);
#1849 = ORIENTED_EDGE('',*,*,#1342,.T.);
#1850 = ORIENTED_EDGE('',*,*,#1373,.T.);
#1851 = ORIENTED_EDGE('',*,*,#1404,.T.);
#1852 = ORIENTED_EDGE('',*,*,#1435,.T.);
#1853 = ORIENTED_EDGE('',*,*,#1457,.T.);
#1854 = FACE_BOUND('',#1855,.T.);
#1855 = EDGE_LOOP('',(#1856,#1857,#1858,#1859,#1860,#1861,#1862,#1863,
    #1864,#1865,#1866,#1867));
#1856 = ORIENTED_EDGE('',*,*,#1497,.T.);
#1857 = ORIENTED_EDGE('',*,*,#1528,.T.);
#1858 = ORIENTED_EDGE('',*,*,#1559,.T.);
#1859 = ORIENTED_EDGE('',*,*,#1590,.T.);
#1860 = ORIENTED_EDGE('',*,*,#1621,.T.);
#1861 = ORIENTED_EDGE('',*,*,#1652,.T.);
#1862 = ORIENTED_EDGE('',*,*,#1683,.T.);
#1863 = ORIENTED_EDGE('',*,*,#1714,.T.);
#1864 = ORIENTED_EDGE('',*,*,#1745,.T.);
#1865 = ORIENTED_EDGE('',*,*,#1776,.T.);
#1866 = ORIENTED_EDGE('',*,*,#1807,.T.);
#1867 = ORIENTED_EDGE('',*,*,#1829,.T.);
#1868 = PLANE('',#1869);
#1869 = AXIS2_PLACEMENT_3D('',#1870,#1871,#1872);
#1870 = CARTESIAN_POINT('',(-1.E-17,0.,10.));
#1871 = DIRECTION('',(0.,0.,1.));
#1872 = DIRECTION('',(1.,0.,-0.));
#1873 = ADVANCED_FACE('',(#1874,#1888),#1902,.F.);
#1874 = FACE_BOUND('',#1875,.T.);
#1875 = EDGE_LOOP('',(#1876,#1877,#1878,#1879,#1880,#1881,#1882,#1883,
    #1884,#1885,#1886,#1887));
#1876 = ORIENTED_EDGE('',*,*,#1109,.T.);
#1877 = ORIENTED_EDGE('',*,*,#1140,.T.);
#1878 = ORIENTED_EDGE('',*,*,#1171,.T.);
#1879 = ORIENTED_EDGE('',*,*,#1202,.T.);
#1880 = ORIENTED_EDGE('',*,*,#1233,.T.);
#1881 = ORIENTED_EDGE('',*,*,#1264,.T.);
#1882 = ORIENTED_EDGE('',*,*,#1295,.T.);
#1883 = ORIENTED_EDGE('',*,*,#1326,.T.);
#1884 = ORIENTED_EDGE('',*,*,#1357,.T.);
#1885 = ORIENTED_EDGE('',*,*,#1388,.T.);
#1886 = ORIENTED_EDGE('',*,*,#1419,.T.);
#1887 = ORIENTED_EDGE('',*,*,#1450,.T.);
#1888 = FACE_BOUND('',#1889,.F.);
#1889 = EDGE_LOOP('',(#1890,#1891,#1892,#1893,#1894,#1895,#1896,#1897,
    #1898,#1899,#1900,#1901));
#1890 = ORIENTED_EDGE('',*,*,#1481,.T.);
#1891 = ORIENTED_EDGE('',*,*,#1512,.T.);
#1892 = ORIENTED_EDGE('',*,*,#1543,.T.);
#1893 = ORIENTED_EDGE('',*,*,#1574,.T.);
#1894 = ORIENTED_EDGE('',*,*,#1605,.T.);
#1895 = ORIENTED_EDGE('',*,*,#1636,.T.);
#1896 = ORIENTED_EDGE('',*,*,#1667,.T.);
#1897 = ORIENTED_EDGE('',*,*,#1698,.T.);
#1898 = ORIENTED_EDGE('',*,*,#1729,.T.);
#1899 = ORIENTED_EDGE('',*,*,#1760,.T.);
#1900 = ORIENTED_EDGE('',*,*,#1791,.T.);
#1901 = ORIENTED_EDGE('',*,*,#1822,.T.);
#1902 = PLANE('',#1903);
#1903 = AXIS2_PLACEMENT_3D('',#1904,#1905,#1906);
#1904 = CARTESIAN_POINT('',(-1.E-17,0.,-3.552713678801E-15));
#1905 = DIRECTION('',(0.,0.,1.));
#1906 = DIRECTION('',(1.,0.,0.));
#1907 = ( GEOMETRIC_REPRESENTATION_CONTEXT(3) 
GLOBAL_UNCERTAINTY_ASSIGNED_CONTEXT((#1911)) 
GLOBAL_UNIT_ASSIGNED_CONTEXT((#1908,#1909,#1910)) REPRESENTATION_CONTEXT
('Context #1','3D Context with UNIT and UNCERTAINTY') );
#1908 = ( LENGTH_UNIT() NAMED_UNIT(*) SI_UNIT(.MILLI.,.METRE.) );
#1909 = ( NAMED_UNIT(*) PLANE_ANGLE_UNIT() SI_UNIT($,.RADIAN.) );
#1910 = ( NAMED_UNIT(*) SI_UNIT($,.STERADIAN.) SOLID_ANGLE_UNIT() );
#1911 = UNCERTAINTY_MEASURE_WITH_UNIT(LENGTH_MEASURE(1.E-07),#1908,
  'distance_accuracy_value','confusion accuracy');
#1912 = CONTEXT_DEPENDENT_SHAPE_REPRESENTATION(#1913,#1915);
#1913 = ( REPRESENTATION_RELATIONSHIP('','',#1092,#10) 
REPRESENTATION_RELATIONSHIP_WITH_TRANSFORMATION(#1914) 
SHAPE_REPRESENTATION_RELATIONSHIP() );
#1914 = ITEM_DEFINED_TRANSFORMATION('','',#11,#23);
#1915 = PRODUCT_DEFINITION_SHAPE('Placement','Placement of an item',
  #1916);
#1916 = NEXT_ASSEMBLY_USAGE_OCCURRENCE('6','Stem','',#5,#1087,$);
#1917 = PRODUCT_RELATED_PRODUCT_CATEGORY('part',$,(#1089));
#1918 = MECHANICAL_DESIGN_GEOMETRIC_PRESENTATION_REPRESENTATION('',(
    #1919),#1074);
#1919 = STYLED_ITEM('color',(#1920),#478);
#1920 = PRESENTATION_STYLE_ASSIGNMENT((#1921,#1927));
#1921 = SURFACE_STYLE_USAGE(.BOTH.,#1922);
#1922 = SURFACE_SIDE_STYLE('',(#1923));
#1923 = SURFACE_STYLE_FILL_AREA(#1924);
#1924 = FILL_AREA_STYLE('',(#1925));
#1925 = FILL_AREA_STYLE_COLOUR('',#1926);
#1926 = COLOUR_RGB('',0.447058818107,0.474509808674,0.501960817233);
#1927 = CURVE_STYLE('',#1928,POSITIVE_LENGTH_MEASURE(0.1),#1929);
#1928 = DRAUGHTING_PRE_DEFINED_CURVE_FONT('continuous');
#1929 = COLOUR_RGB('',9.803921802644E-02,9.803921802644E-02,
  9.803921802644E-02);
#1930 = MECHANICAL_DESIGN_GEOMETRIC_PRESENTATION_REPRESENTATION('',(
    #1931),#459);
#1931 = STYLED_ITEM('color',(#1932),#41);
#1932 = PRESENTATION_STYLE_ASSIGNMENT((#1933,#1938));
#1933 = SURFACE_STYLE_USAGE(.BOTH.,#1934);
#1934 = SURFACE_SIDE_STYLE('',(#1935));
#1935 = SURFACE_STYLE_FILL_AREA(#1936);
#1936 = FILL_AREA_STYLE('',(#1937));
#1937 = FILL_AREA_STYLE_COLOUR('',#1926);
#1938 = CURVE_STYLE('',#1939,POSITIVE_LENGTH_MEASURE(0.1),#1940);
#1939 = DRAUGHTING_PRE_DEFINED_CURVE_FONT('continuous');
#1940 = COLOUR_RGB('',0.945098040599,0.952941189437,0.960784305148);
#1941 = MECHANICAL_DESIGN_GEOMETRIC_PRESENTATION_REPRESENTATION('',(
    #1942),#1907);
#1942 = STYLED_ITEM('color',(#1943),#1093);
#1943 = PRESENTATION_STYLE_ASSIGNMENT((#1944,#1949));
#1944 = SURFACE_STYLE_USAGE(.BOTH.,#1945);
#1945 = SURFACE_SIDE_STYLE('',(#1946));
#1946 = SURFACE_STYLE_FILL_AREA(#1947);
#1947 = FILL_AREA_STYLE('',(#1948));
#1948 = FILL_AREA_STYLE_COLOUR('',#1926);
#1949 = CURVE_STYLE('',#1950,POSITIVE_LENGTH_MEASURE(0.1),#1940);
#1950 = DRAUGHTING_PRE_DEFINED_CURVE_FONT('continuous');
ENDSEC;
END-ISO-10303-21;
