ISO-10303-21;
HEADER;
FILE_DESCRIPTION(('FreeCAD Model'),'2;1');
FILE_NAME('Open CASCADE Shape Model','2026-03-15T14:15:19',(''),(''),
  'Open CASCADE STEP processor 7.9','FreeCAD','Unknown');
FILE_SCHEMA(('AUTOMOTIVE_DESIGN { 1 0 10303 214 1 1 1 1 }'));
ENDSEC;
DATA;
#1 = APPLICATION_PROTOCOL_DEFINITION('international standard',
  'automotive_design',2000,#2);
#2 = APPLICATION_CONTEXT(
  'core data for automotive mechanical design processes');
#3 = SHAPE_DEFINITION_REPRESENTATION(#4,#10);
#4 = PRODUCT_DEFINITION_SHAPE('','',#5);
#5 = PRODUCT_DEFINITION('design','',#6,#9);
#6 = PRODUCT_DEFINITION_FORMATION('','',#7);
#7 = PRODUCT('Tab','Tab','',(#8));
#8 = PRODUCT_CONTEXT('',#2,'mechanical');
#9 = PRODUCT_DEFINITION_CONTEXT('part definition',#2,'design');
#10 = SHAPE_REPRESENTATION('',(#11,#15,#19,#23),#27);
#11 = AXIS2_PLACEMENT_3D('',#12,#13,#14);
#12 = CARTESIAN_POINT('',(0.,0.,0.));
#13 = DIRECTION('',(0.,0.,1.));
#14 = DIRECTION('',(1.,0.,-0.));
#15 = AXIS2_PLACEMENT_3D('',#16,#17,#18);
#16 = CARTESIAN_POINT('',(0.,0.,0.));
#17 = DIRECTION('',(0.,0.,1.));
#18 = DIRECTION('',(1.,0.,0.));
#19 = AXIS2_PLACEMENT_3D('',#20,#21,#22);
#20 = CARTESIAN_POINT('',(0.,0.,0.));
#21 = DIRECTION('',(0.,0.,1.));
#22 = DIRECTION('',(1.,0.,0.));
#23 = AXIS2_PLACEMENT_3D('',#24,#25,#26);
#24 = CARTESIAN_POINT('',(0.,0.,0.));
#25 = DIRECTION('',(0.,0.,1.));
#26 = DIRECTION('',(1.,0.,0.));
#27 = ( GEOMETRIC_REPRESENTATION_CONTEXT(3) 
GLOBAL_UNCERTAINTY_ASSIGNED_CONTEXT((#31)) GLOBAL_UNIT_ASSIGNED_CONTEXT(
(#28,#29,#30)) REPRESENTATION_CONTEXT('Context #1',
  '3D Context with UNIT and UNCERTAINTY') );
#28 = ( LENGTH_UNIT() NAMED_UNIT(*) SI_UNIT(.MILLI.,.METRE.) );
#29 = ( NAMED_UNIT(*) PLANE_ANGLE_UNIT() SI_UNIT($,.RADIAN.) );
#30 = ( NAMED_UNIT(*) SI_UNIT($,.STERADIAN.) SOLID_ANGLE_UNIT() );
#31 = UNCERTAINTY_MEASURE_WITH_UNIT(LENGTH_MEASURE(5.E-06),#28,
  'distance_accuracy_value','confusion accuracy');
#32 = PRODUCT_RELATED_PRODUCT_CATEGORY('part',$,(#7));
#33 = SHAPE_DEFINITION_REPRESENTATION(#34,#40);
#34 = PRODUCT_DEFINITION_SHAPE('','',#35);
#35 = PRODUCT_DEFINITION('design','',#36,#39);
#36 = PRODUCT_DEFINITION_FORMATION('','',#37);
#37 = PRODUCT('Extrude004','Extrude004','',(#38));
#38 = PRODUCT_CONTEXT('',#2,'mechanical');
#39 = PRODUCT_DEFINITION_CONTEXT('part definition',#2,'design');
#40 = SHAPE_REPRESENTATION('',(#11,#41,#290),#539);
#41 = MANIFOLD_SOLID_BREP('',#42);
#42 = CLOSED_SHELL('',(#43,#83,#114,#145,#176,#207,#238,#260,#275));
#43 = ADVANCED_FACE('',(#44),#78,.F.);
#44 = FACE_BOUND('',#45,.F.);
#45 = EDGE_LOOP('',(#46,#56,#64,#72));
#46 = ORIENTED_EDGE('',*,*,#47,.T.);
#47 = EDGE_CURVE('',#48,#50,#52,.T.);
#48 = VERTEX_POINT('',#49);
#49 = CARTESIAN_POINT('',(-5.5,-3.,11.));
#50 = VERTEX_POINT('',#51);
#51 = CARTESIAN_POINT('',(-5.5,-3.,11.1));
#52 = LINE('',#53,#54);
#53 = CARTESIAN_POINT('',(-5.5,-3.,11.));
#54 = VECTOR('',#55,1.);
#55 = DIRECTION('',(0.,0.,1.));
#56 = ORIENTED_EDGE('',*,*,#57,.T.);
#57 = EDGE_CURVE('',#50,#58,#60,.T.);
#58 = VERTEX_POINT('',#59);
#59 = CARTESIAN_POINT('',(9.5,-3.,11.1));
#60 = LINE('',#61,#62);
#61 = CARTESIAN_POINT('',(-5.5,-3.,11.1));
#62 = VECTOR('',#63,1.);
#63 = DIRECTION('',(1.,0.,0.));
#64 = ORIENTED_EDGE('',*,*,#65,.F.);
#65 = EDGE_CURVE('',#66,#58,#68,.T.);
#66 = VERTEX_POINT('',#67);
#67 = CARTESIAN_POINT('',(9.5,-3.,11.));
#68 = LINE('',#69,#70);
#69 = CARTESIAN_POINT('',(9.5,-3.,11.));
#70 = VECTOR('',#71,1.);
#71 = DIRECTION('',(0.,0.,1.));
#72 = ORIENTED_EDGE('',*,*,#73,.F.);
#73 = EDGE_CURVE('',#48,#66,#74,.T.);
#74 = LINE('',#75,#76);
#75 = CARTESIAN_POINT('',(-5.5,-3.,11.));
#76 = VECTOR('',#77,1.);
#77 = DIRECTION('',(1.,0.,0.));
#78 = PLANE('',#79);
#79 = AXIS2_PLACEMENT_3D('',#80,#81,#82);
#80 = CARTESIAN_POINT('',(-5.5,-3.,11.));
#81 = DIRECTION('',(0.,1.,0.));
#82 = DIRECTION('',(1.,0.,0.));
#83 = ADVANCED_FACE('',(#84),#109,.F.);
#84 = FACE_BOUND('',#85,.F.);
#85 = EDGE_LOOP('',(#86,#87,#95,#103));
#86 = ORIENTED_EDGE('',*,*,#65,.T.);
#87 = ORIENTED_EDGE('',*,*,#88,.T.);
#88 = EDGE_CURVE('',#58,#89,#91,.T.);
#89 = VERTEX_POINT('',#90);
#90 = CARTESIAN_POINT('',(9.5,-1.,11.1));
#91 = LINE('',#92,#93);
#92 = CARTESIAN_POINT('',(9.5,-3.,11.1));
#93 = VECTOR('',#94,1.);
#94 = DIRECTION('',(0.,1.,0.));
#95 = ORIENTED_EDGE('',*,*,#96,.F.);
#96 = EDGE_CURVE('',#97,#89,#99,.T.);
#97 = VERTEX_POINT('',#98);
#98 = CARTESIAN_POINT('',(9.5,-1.,11.));
#99 = LINE('',#100,#101);
#100 = CARTESIAN_POINT('',(9.5,-1.,11.));
#101 = VECTOR('',#102,1.);
#102 = DIRECTION('',(0.,0.,1.));
#103 = ORIENTED_EDGE('',*,*,#104,.F.);
#104 = EDGE_CURVE('',#66,#97,#105,.T.);
#105 = LINE('',#106,#107);
#106 = CARTESIAN_POINT('',(9.5,-3.,11.));
#107 = VECTOR('',#108,1.);
#108 = DIRECTION('',(0.,1.,0.));
#109 = PLANE('',#110);
#110 = AXIS2_PLACEMENT_3D('',#111,#112,#113);
#111 = CARTESIAN_POINT('',(9.5,-3.,11.));
#112 = DIRECTION('',(-1.,0.,0.));
#113 = DIRECTION('',(0.,1.,0.));
#114 = ADVANCED_FACE('',(#115),#140,.F.);
#115 = FACE_BOUND('',#116,.F.);
#116 = EDGE_LOOP('',(#117,#118,#126,#134));
#117 = ORIENTED_EDGE('',*,*,#96,.T.);
#118 = ORIENTED_EDGE('',*,*,#119,.T.);
#119 = EDGE_CURVE('',#89,#120,#122,.T.);
#120 = VERTEX_POINT('',#121);
#121 = CARTESIAN_POINT('',(-5.5,-1.,11.1));
#122 = LINE('',#123,#124);
#123 = CARTESIAN_POINT('',(9.5,-1.,11.1));
#124 = VECTOR('',#125,1.);
#125 = DIRECTION('',(-1.,0.,0.));
#126 = ORIENTED_EDGE('',*,*,#127,.F.);
#127 = EDGE_CURVE('',#128,#120,#130,.T.);
#128 = VERTEX_POINT('',#129);
#129 = CARTESIAN_POINT('',(-5.5,-1.,11.));
#130 = LINE('',#131,#132);
#131 = CARTESIAN_POINT('',(-5.5,-1.,11.));
#132 = VECTOR('',#133,1.);
#133 = DIRECTION('',(0.,0.,1.));
#134 = ORIENTED_EDGE('',*,*,#135,.F.);
#135 = EDGE_CURVE('',#97,#128,#136,.T.);
#136 = LINE('',#137,#138);
#137 = CARTESIAN_POINT('',(9.5,-1.,11.));
#138 = VECTOR('',#139,1.);
#139 = DIRECTION('',(-1.,0.,0.));
#140 = PLANE('',#141);
#141 = AXIS2_PLACEMENT_3D('',#142,#143,#144);
#142 = CARTESIAN_POINT('',(9.5,-1.,11.));
#143 = DIRECTION('',(0.,-1.,0.));
#144 = DIRECTION('',(-1.,0.,0.));
#145 = ADVANCED_FACE('',(#146),#171,.F.);
#146 = FACE_BOUND('',#147,.F.);
#147 = EDGE_LOOP('',(#148,#149,#157,#165));
#148 = ORIENTED_EDGE('',*,*,#127,.T.);
#149 = ORIENTED_EDGE('',*,*,#150,.T.);
#150 = EDGE_CURVE('',#120,#151,#153,.T.);
#151 = VERTEX_POINT('',#152);
#152 = CARTESIAN_POINT('',(-5.5,0.,11.1));
#153 = LINE('',#154,#155);
#154 = CARTESIAN_POINT('',(-5.5,-1.,11.1));
#155 = VECTOR('',#156,1.);
#156 = DIRECTION('',(0.,1.,0.));
#157 = ORIENTED_EDGE('',*,*,#158,.F.);
#158 = EDGE_CURVE('',#159,#151,#161,.T.);
#159 = VERTEX_POINT('',#160);
#160 = CARTESIAN_POINT('',(-5.5,0.,11.));
#161 = LINE('',#162,#163);
#162 = CARTESIAN_POINT('',(-5.5,0.,11.));
#163 = VECTOR('',#164,1.);
#164 = DIRECTION('',(0.,0.,1.));
#165 = ORIENTED_EDGE('',*,*,#166,.F.);
#166 = EDGE_CURVE('',#128,#159,#167,.T.);
#167 = LINE('',#168,#169);
#168 = CARTESIAN_POINT('',(-5.5,-1.,11.));
#169 = VECTOR('',#170,1.);
#170 = DIRECTION('',(0.,1.,0.));
#171 = PLANE('',#172);
#172 = AXIS2_PLACEMENT_3D('',#173,#174,#175);
#173 = CARTESIAN_POINT('',(-5.5,-1.,11.));
#174 = DIRECTION('',(-1.,0.,0.));
#175 = DIRECTION('',(0.,1.,0.));
#176 = ADVANCED_FACE('',(#177),#202,.F.);
#177 = FACE_BOUND('',#178,.F.);
#178 = EDGE_LOOP('',(#179,#180,#188,#196));
#179 = ORIENTED_EDGE('',*,*,#158,.T.);
#180 = ORIENTED_EDGE('',*,*,#181,.T.);
#181 = EDGE_CURVE('',#151,#182,#184,.T.);
#182 = VERTEX_POINT('',#183);
#183 = CARTESIAN_POINT('',(-9.5,-2.,11.1));
#184 = LINE('',#185,#186);
#185 = CARTESIAN_POINT('',(-5.5,0.,11.1));
#186 = VECTOR('',#187,1.);
#187 = DIRECTION('',(-0.894427191,-0.4472135955,0.));
#188 = ORIENTED_EDGE('',*,*,#189,.F.);
#189 = EDGE_CURVE('',#190,#182,#192,.T.);
#190 = VERTEX_POINT('',#191);
#191 = CARTESIAN_POINT('',(-9.5,-2.,11.));
#192 = LINE('',#193,#194);
#193 = CARTESIAN_POINT('',(-9.5,-2.,11.));
#194 = VECTOR('',#195,1.);
#195 = DIRECTION('',(0.,0.,1.));
#196 = ORIENTED_EDGE('',*,*,#197,.F.);
#197 = EDGE_CURVE('',#159,#190,#198,.T.);
#198 = LINE('',#199,#200);
#199 = CARTESIAN_POINT('',(-5.5,0.,11.));
#200 = VECTOR('',#201,1.);
#201 = DIRECTION('',(-0.894427191,-0.4472135955,0.));
#202 = PLANE('',#203);
#203 = AXIS2_PLACEMENT_3D('',#204,#205,#206);
#204 = CARTESIAN_POINT('',(-5.5,0.,11.));
#205 = DIRECTION('',(0.4472135955,-0.894427191,0.));
#206 = DIRECTION('',(-0.894427191,-0.4472135955,0.));
#207 = ADVANCED_FACE('',(#208),#233,.F.);
#208 = FACE_BOUND('',#209,.F.);
#209 = EDGE_LOOP('',(#210,#211,#219,#227));
#210 = ORIENTED_EDGE('',*,*,#189,.T.);
#211 = ORIENTED_EDGE('',*,*,#212,.T.);
#212 = EDGE_CURVE('',#182,#213,#215,.T.);
#213 = VERTEX_POINT('',#214);
#214 = CARTESIAN_POINT('',(-5.5,-4.,11.1));
#215 = LINE('',#216,#217);
#216 = CARTESIAN_POINT('',(-9.5,-2.,11.1));
#217 = VECTOR('',#218,1.);
#218 = DIRECTION('',(0.894427191,-0.4472135955,0.));
#219 = ORIENTED_EDGE('',*,*,#220,.F.);
#220 = EDGE_CURVE('',#221,#213,#223,.T.);
#221 = VERTEX_POINT('',#222);
#222 = CARTESIAN_POINT('',(-5.5,-4.,11.));
#223 = LINE('',#224,#225);
#224 = CARTESIAN_POINT('',(-5.5,-4.,11.));
#225 = VECTOR('',#226,1.);
#226 = DIRECTION('',(0.,0.,1.));
#227 = ORIENTED_EDGE('',*,*,#228,.F.);
#228 = EDGE_CURVE('',#190,#221,#229,.T.);
#229 = LINE('',#230,#231);
#230 = CARTESIAN_POINT('',(-9.5,-2.,11.));
#231 = VECTOR('',#232,1.);
#232 = DIRECTION('',(0.894427191,-0.4472135955,0.));
#233 = PLANE('',#234);
#234 = AXIS2_PLACEMENT_3D('',#235,#236,#237);
#235 = CARTESIAN_POINT('',(-9.5,-2.,11.));
#236 = DIRECTION('',(0.4472135955,0.894427191,-0.));
#237 = DIRECTION('',(0.894427191,-0.4472135955,0.));
#238 = ADVANCED_FACE('',(#239),#255,.T.);
#239 = FACE_BOUND('',#240,.T.);
#240 = EDGE_LOOP('',(#241,#242,#248,#249));
#241 = ORIENTED_EDGE('',*,*,#47,.T.);
#242 = ORIENTED_EDGE('',*,*,#243,.T.);
#243 = EDGE_CURVE('',#50,#213,#244,.T.);
#244 = LINE('',#245,#246);
#245 = CARTESIAN_POINT('',(-5.5,-3.,11.1));
#246 = VECTOR('',#247,1.);
#247 = DIRECTION('',(0.,-1.,0.));
#248 = ORIENTED_EDGE('',*,*,#220,.F.);
#249 = ORIENTED_EDGE('',*,*,#250,.F.);
#250 = EDGE_CURVE('',#48,#221,#251,.T.);
#251 = LINE('',#252,#253);
#252 = CARTESIAN_POINT('',(-5.5,-3.,11.));
#253 = VECTOR('',#254,1.);
#254 = DIRECTION('',(0.,-1.,0.));
#255 = PLANE('',#256);
#256 = AXIS2_PLACEMENT_3D('',#257,#258,#259);
#257 = CARTESIAN_POINT('',(-5.5,-3.,11.));
#258 = DIRECTION('',(1.,0.,-0.));
#259 = DIRECTION('',(0.,-1.,0.));
#260 = ADVANCED_FACE('',(#261),#270,.F.);
#261 = FACE_BOUND('',#262,.F.);
#262 = EDGE_LOOP('',(#263,#264,#265,#266,#267,#268,#269));
#263 = ORIENTED_EDGE('',*,*,#73,.T.);
#264 = ORIENTED_EDGE('',*,*,#104,.T.);
#265 = ORIENTED_EDGE('',*,*,#135,.T.);
#266 = ORIENTED_EDGE('',*,*,#166,.T.);
#267 = ORIENTED_EDGE('',*,*,#197,.T.);
#268 = ORIENTED_EDGE('',*,*,#228,.T.);
#269 = ORIENTED_EDGE('',*,*,#250,.F.);
#270 = PLANE('',#271);
#271 = AXIS2_PLACEMENT_3D('',#272,#273,#274);
#272 = CARTESIAN_POINT('',(2.E-17,0.,11.));
#273 = DIRECTION('',(0.,0.,1.));
#274 = DIRECTION('',(1.,0.,-0.));
#275 = ADVANCED_FACE('',(#276),#285,.T.);
#276 = FACE_BOUND('',#277,.T.);
#277 = EDGE_LOOP('',(#278,#279,#280,#281,#282,#283,#284));
#278 = ORIENTED_EDGE('',*,*,#57,.T.);
#279 = ORIENTED_EDGE('',*,*,#88,.T.);
#280 = ORIENTED_EDGE('',*,*,#119,.T.);
#281 = ORIENTED_EDGE('',*,*,#150,.T.);
#282 = ORIENTED_EDGE('',*,*,#181,.T.);
#283 = ORIENTED_EDGE('',*,*,#212,.T.);
#284 = ORIENTED_EDGE('',*,*,#243,.F.);
#285 = PLANE('',#286);
#286 = AXIS2_PLACEMENT_3D('',#287,#288,#289);
#287 = CARTESIAN_POINT('',(2.E-17,0.,11.1));
#288 = DIRECTION('',(0.,0.,1.));
#289 = DIRECTION('',(1.,0.,0.));
#290 = MANIFOLD_SOLID_BREP('',#291);
#291 = CLOSED_SHELL('',(#292,#332,#363,#394,#425,#456,#487,#509,#524));
#292 = ADVANCED_FACE('',(#293),#327,.F.);
#293 = FACE_BOUND('',#294,.F.);
#294 = EDGE_LOOP('',(#295,#305,#313,#321));
#295 = ORIENTED_EDGE('',*,*,#296,.T.);
#296 = EDGE_CURVE('',#297,#299,#301,.T.);
#297 = VERTEX_POINT('',#298);
#298 = CARTESIAN_POINT('',(5.5,3.,11.));
#299 = VERTEX_POINT('',#300);
#300 = CARTESIAN_POINT('',(5.5,3.,11.1));
#301 = LINE('',#302,#303);
#302 = CARTESIAN_POINT('',(5.5,3.,11.));
#303 = VECTOR('',#304,1.);
#304 = DIRECTION('',(0.,0.,1.));
#305 = ORIENTED_EDGE('',*,*,#306,.T.);
#306 = EDGE_CURVE('',#299,#307,#309,.T.);
#307 = VERTEX_POINT('',#308);
#308 = CARTESIAN_POINT('',(-9.5,3.,11.1));
#309 = LINE('',#310,#311);
#310 = CARTESIAN_POINT('',(5.5,3.,11.1));
#311 = VECTOR('',#312,1.);
#312 = DIRECTION('',(-1.,0.,0.));
#313 = ORIENTED_EDGE('',*,*,#314,.F.);
#314 = EDGE_CURVE('',#315,#307,#317,.T.);
#315 = VERTEX_POINT('',#316);
#316 = CARTESIAN_POINT('',(-9.5,3.,11.));
#317 = LINE('',#318,#319);
#318 = CARTESIAN_POINT('',(-9.5,3.,11.));
#319 = VECTOR('',#320,1.);
#320 = DIRECTION('',(0.,0.,1.));
#321 = ORIENTED_EDGE('',*,*,#322,.F.);
#322 = EDGE_CURVE('',#297,#315,#323,.T.);
#323 = LINE('',#324,#325);
#324 = CARTESIAN_POINT('',(5.5,3.,11.));
#325 = VECTOR('',#326,1.);
#326 = DIRECTION('',(-1.,0.,0.));
#327 = PLANE('',#328);
#328 = AXIS2_PLACEMENT_3D('',#329,#330,#331);
#329 = CARTESIAN_POINT('',(5.5,3.,11.));
#330 = DIRECTION('',(0.,-1.,0.));
#331 = DIRECTION('',(-1.,0.,0.));
#332 = ADVANCED_FACE('',(#333),#358,.F.);
#333 = FACE_BOUND('',#334,.F.);
#334 = EDGE_LOOP('',(#335,#336,#344,#352));
#335 = ORIENTED_EDGE('',*,*,#314,.T.);
#336 = ORIENTED_EDGE('',*,*,#337,.T.);
#337 = EDGE_CURVE('',#307,#338,#340,.T.);
#338 = VERTEX_POINT('',#339);
#339 = CARTESIAN_POINT('',(-9.5,1.,11.1));
#340 = LINE('',#341,#342);
#341 = CARTESIAN_POINT('',(-9.5,3.,11.1));
#342 = VECTOR('',#343,1.);
#343 = DIRECTION('',(0.,-1.,0.));
#344 = ORIENTED_EDGE('',*,*,#345,.F.);
#345 = EDGE_CURVE('',#346,#338,#348,.T.);
#346 = VERTEX_POINT('',#347);
#347 = CARTESIAN_POINT('',(-9.5,1.,11.));
#348 = LINE('',#349,#350);
#349 = CARTESIAN_POINT('',(-9.5,1.,11.));
#350 = VECTOR('',#351,1.);
#351 = DIRECTION('',(0.,0.,1.));
#352 = ORIENTED_EDGE('',*,*,#353,.F.);
#353 = EDGE_CURVE('',#315,#346,#354,.T.);
#354 = LINE('',#355,#356);
#355 = CARTESIAN_POINT('',(-9.5,3.,11.));
#356 = VECTOR('',#357,1.);
#357 = DIRECTION('',(0.,-1.,0.));
#358 = PLANE('',#359);
#359 = AXIS2_PLACEMENT_3D('',#360,#361,#362);
#360 = CARTESIAN_POINT('',(-9.5,3.,11.));
#361 = DIRECTION('',(1.,0.,-0.));
#362 = DIRECTION('',(0.,-1.,0.));
#363 = ADVANCED_FACE('',(#364),#389,.F.);
#364 = FACE_BOUND('',#365,.F.);
#365 = EDGE_LOOP('',(#366,#367,#375,#383));
#366 = ORIENTED_EDGE('',*,*,#345,.T.);
#367 = ORIENTED_EDGE('',*,*,#368,.T.);
#368 = EDGE_CURVE('',#338,#369,#371,.T.);
#369 = VERTEX_POINT('',#370);
#370 = CARTESIAN_POINT('',(5.5,1.,11.1));
#371 = LINE('',#372,#373);
#372 = CARTESIAN_POINT('',(-9.5,1.,11.1));
#373 = VECTOR('',#374,1.);
#374 = DIRECTION('',(1.,0.,0.));
#375 = ORIENTED_EDGE('',*,*,#376,.F.);
#376 = EDGE_CURVE('',#377,#369,#379,.T.);
#377 = VERTEX_POINT('',#378);
#378 = CARTESIAN_POINT('',(5.5,1.,11.));
#379 = LINE('',#380,#381);
#380 = CARTESIAN_POINT('',(5.5,1.,11.));
#381 = VECTOR('',#382,1.);
#382 = DIRECTION('',(0.,0.,1.));
#383 = ORIENTED_EDGE('',*,*,#384,.F.);
#384 = EDGE_CURVE('',#346,#377,#385,.T.);
#385 = LINE('',#386,#387);
#386 = CARTESIAN_POINT('',(-9.5,1.,11.));
#387 = VECTOR('',#388,1.);
#388 = DIRECTION('',(1.,0.,0.));
#389 = PLANE('',#390);
#390 = AXIS2_PLACEMENT_3D('',#391,#392,#393);
#391 = CARTESIAN_POINT('',(-9.5,1.,11.));
#392 = DIRECTION('',(0.,1.,0.));
#393 = DIRECTION('',(1.,0.,0.));
#394 = ADVANCED_FACE('',(#395),#420,.F.);
#395 = FACE_BOUND('',#396,.F.);
#396 = EDGE_LOOP('',(#397,#398,#406,#414));
#397 = ORIENTED_EDGE('',*,*,#376,.T.);
#398 = ORIENTED_EDGE('',*,*,#399,.T.);
#399 = EDGE_CURVE('',#369,#400,#402,.T.);
#400 = VERTEX_POINT('',#401);
#401 = CARTESIAN_POINT('',(5.5,0.,11.1));
#402 = LINE('',#403,#404);
#403 = CARTESIAN_POINT('',(5.5,1.,11.1));
#404 = VECTOR('',#405,1.);
#405 = DIRECTION('',(0.,-1.,0.));
#406 = ORIENTED_EDGE('',*,*,#407,.F.);
#407 = EDGE_CURVE('',#408,#400,#410,.T.);
#408 = VERTEX_POINT('',#409);
#409 = CARTESIAN_POINT('',(5.5,0.,11.));
#410 = LINE('',#411,#412);
#411 = CARTESIAN_POINT('',(5.5,0.,11.));
#412 = VECTOR('',#413,1.);
#413 = DIRECTION('',(0.,0.,1.));
#414 = ORIENTED_EDGE('',*,*,#415,.F.);
#415 = EDGE_CURVE('',#377,#408,#416,.T.);
#416 = LINE('',#417,#418);
#417 = CARTESIAN_POINT('',(5.5,1.,11.));
#418 = VECTOR('',#419,1.);
#419 = DIRECTION('',(0.,-1.,0.));
#420 = PLANE('',#421);
#421 = AXIS2_PLACEMENT_3D('',#422,#423,#424);
#422 = CARTESIAN_POINT('',(5.5,1.,11.));
#423 = DIRECTION('',(1.,0.,-0.));
#424 = DIRECTION('',(0.,-1.,0.));
#425 = ADVANCED_FACE('',(#426),#451,.F.);
#426 = FACE_BOUND('',#427,.F.);
#427 = EDGE_LOOP('',(#428,#429,#437,#445));
#428 = ORIENTED_EDGE('',*,*,#407,.T.);
#429 = ORIENTED_EDGE('',*,*,#430,.T.);
#430 = EDGE_CURVE('',#400,#431,#433,.T.);
#431 = VERTEX_POINT('',#432);
#432 = CARTESIAN_POINT('',(9.5,2.,11.1));
#433 = LINE('',#434,#435);
#434 = CARTESIAN_POINT('',(5.5,0.,11.1));
#435 = VECTOR('',#436,1.);
#436 = DIRECTION('',(0.894427191,0.4472135955,0.));
#437 = ORIENTED_EDGE('',*,*,#438,.F.);
#438 = EDGE_CURVE('',#439,#431,#441,.T.);
#439 = VERTEX_POINT('',#440);
#440 = CARTESIAN_POINT('',(9.5,2.,11.));
#441 = LINE('',#442,#443);
#442 = CARTESIAN_POINT('',(9.5,2.,11.));
#443 = VECTOR('',#444,1.);
#444 = DIRECTION('',(0.,0.,1.));
#445 = ORIENTED_EDGE('',*,*,#446,.F.);
#446 = EDGE_CURVE('',#408,#439,#447,.T.);
#447 = LINE('',#448,#449);
#448 = CARTESIAN_POINT('',(5.5,0.,11.));
#449 = VECTOR('',#450,1.);
#450 = DIRECTION('',(0.894427191,0.4472135955,0.));
#451 = PLANE('',#452);
#452 = AXIS2_PLACEMENT_3D('',#453,#454,#455);
#453 = CARTESIAN_POINT('',(5.5,0.,11.));
#454 = DIRECTION('',(-0.4472135955,0.894427191,0.));
#455 = DIRECTION('',(0.894427191,0.4472135955,0.));
#456 = ADVANCED_FACE('',(#457),#482,.T.);
#457 = FACE_BOUND('',#458,.T.);
#458 = EDGE_LOOP('',(#459,#469,#475,#476));
#459 = ORIENTED_EDGE('',*,*,#460,.T.);
#460 = EDGE_CURVE('',#461,#463,#465,.T.);
#461 = VERTEX_POINT('',#462);
#462 = CARTESIAN_POINT('',(5.5,4.,11.));
#463 = VERTEX_POINT('',#464);
#464 = CARTESIAN_POINT('',(5.5,4.,11.1));
#465 = LINE('',#466,#467);
#466 = CARTESIAN_POINT('',(5.5,4.,11.));
#467 = VECTOR('',#468,1.);
#468 = DIRECTION('',(0.,0.,1.));
#469 = ORIENTED_EDGE('',*,*,#470,.T.);
#470 = EDGE_CURVE('',#463,#431,#471,.T.);
#471 = LINE('',#472,#473);
#472 = CARTESIAN_POINT('',(5.5,4.,11.1));
#473 = VECTOR('',#474,1.);
#474 = DIRECTION('',(0.894427191,-0.4472135955,0.));
#475 = ORIENTED_EDGE('',*,*,#438,.F.);
#476 = ORIENTED_EDGE('',*,*,#477,.F.);
#477 = EDGE_CURVE('',#461,#439,#478,.T.);
#478 = LINE('',#479,#480);
#479 = CARTESIAN_POINT('',(5.5,4.,11.));
#480 = VECTOR('',#481,1.);
#481 = DIRECTION('',(0.894427191,-0.4472135955,0.));
#482 = PLANE('',#483);
#483 = AXIS2_PLACEMENT_3D('',#484,#485,#486);
#484 = CARTESIAN_POINT('',(5.5,4.,11.));
#485 = DIRECTION('',(0.4472135955,0.894427191,-0.));
#486 = DIRECTION('',(0.894427191,-0.4472135955,0.));
#487 = ADVANCED_FACE('',(#488),#504,.T.);
#488 = FACE_BOUND('',#489,.T.);
#489 = EDGE_LOOP('',(#490,#491,#497,#498));
#490 = ORIENTED_EDGE('',*,*,#296,.T.);
#491 = ORIENTED_EDGE('',*,*,#492,.T.);
#492 = EDGE_CURVE('',#299,#463,#493,.T.);
#493 = LINE('',#494,#495);
#494 = CARTESIAN_POINT('',(5.5,3.,11.1));
#495 = VECTOR('',#496,1.);
#496 = DIRECTION('',(0.,1.,0.));
#497 = ORIENTED_EDGE('',*,*,#460,.F.);
#498 = ORIENTED_EDGE('',*,*,#499,.F.);
#499 = EDGE_CURVE('',#297,#461,#500,.T.);
#500 = LINE('',#501,#502);
#501 = CARTESIAN_POINT('',(5.5,3.,11.));
#502 = VECTOR('',#503,1.);
#503 = DIRECTION('',(0.,1.,0.));
#504 = PLANE('',#505);
#505 = AXIS2_PLACEMENT_3D('',#506,#507,#508);
#506 = CARTESIAN_POINT('',(5.5,3.,11.));
#507 = DIRECTION('',(-1.,0.,0.));
#508 = DIRECTION('',(0.,1.,0.));
#509 = ADVANCED_FACE('',(#510),#519,.F.);
#510 = FACE_BOUND('',#511,.F.);
#511 = EDGE_LOOP('',(#512,#513,#514,#515,#516,#517,#518));
#512 = ORIENTED_EDGE('',*,*,#322,.T.);
#513 = ORIENTED_EDGE('',*,*,#353,.T.);
#514 = ORIENTED_EDGE('',*,*,#384,.T.);
#515 = ORIENTED_EDGE('',*,*,#415,.T.);
#516 = ORIENTED_EDGE('',*,*,#446,.T.);
#517 = ORIENTED_EDGE('',*,*,#477,.F.);
#518 = ORIENTED_EDGE('',*,*,#499,.F.);
#519 = PLANE('',#520);
#520 = AXIS2_PLACEMENT_3D('',#521,#522,#523);
#521 = CARTESIAN_POINT('',(2.E-17,0.,11.));
#522 = DIRECTION('',(0.,0.,1.));
#523 = DIRECTION('',(1.,0.,-0.));
#524 = ADVANCED_FACE('',(#525),#534,.T.);
#525 = FACE_BOUND('',#526,.T.);
#526 = EDGE_LOOP('',(#527,#528,#529,#530,#531,#532,#533));
#527 = ORIENTED_EDGE('',*,*,#306,.T.);
#528 = ORIENTED_EDGE('',*,*,#337,.T.);
#529 = ORIENTED_EDGE('',*,*,#368,.T.);
#530 = ORIENTED_EDGE('',*,*,#399,.T.);
#531 = ORIENTED_EDGE('',*,*,#430,.T.);
#532 = ORIENTED_EDGE('',*,*,#470,.F.);
#533 = ORIENTED_EDGE('',*,*,#492,.F.);
#534 = PLANE('',#535);
#535 = AXIS2_PLACEMENT_3D('',#536,#537,#538);
#536 = CARTESIAN_POINT('',(2.E-17,0.,11.1));
#537 = DIRECTION('',(0.,0.,1.));
#538 = DIRECTION('',(1.,0.,0.));
#539 = ( GEOMETRIC_REPRESENTATION_CONTEXT(3) 
GLOBAL_UNCERTAINTY_ASSIGNED_CONTEXT((#543)) GLOBAL_UNIT_ASSIGNED_CONTEXT
((#540,#541,#542)) REPRESENTATION_CONTEXT('Context #1',
  '3D Context with UNIT and UNCERTAINTY') );
#540 = ( LENGTH_UNIT() NAMED_UNIT(*) SI_UNIT(.MILLI.,.METRE.) );
#541 = ( NAMED_UNIT(*) PLANE_ANGLE_UNIT() SI_UNIT($,.RADIAN.) );
#542 = ( NAMED_UNIT(*) SI_UNIT($,.STERADIAN.) SOLID_ANGLE_UNIT() );
#543 = UNCERTAINTY_MEASURE_WITH_UNIT(LENGTH_MEASURE(1.E-07),#540,
  'distance_accuracy_value','confusion accuracy');
#544 = CONTEXT_DEPENDENT_SHAPE_REPRESENTATION(#545,#547);
#545 = ( REPRESENTATION_RELATIONSHIP('','',#40,#10) 
REPRESENTATION_RELATIONSHIP_WITH_TRANSFORMATION(#546) 
SHAPE_REPRESENTATION_RELATIONSHIP() );
#546 = ITEM_DEFINED_TRANSFORMATION('','',#11,#15);
#547 = PRODUCT_DEFINITION_SHAPE('Placement','Placement of an item',#548
  );
#548 = NEXT_ASSEMBLY_USAGE_OCCURRENCE('7','Extrude004','',#5,#35,$);
#549 = PRODUCT_RELATED_PRODUCT_CATEGORY('part',$,(#37));
#550 = SHAPE_DEFINITION_REPRESENTATION(#551,#557);
#551 = PRODUCT_DEFINITION_SHAPE('','',#552);
#552 = PRODUCT_DEFINITION('design','',#553,#556);
#553 = PRODUCT_DEFINITION_FORMATION('','',#554);
#554 = PRODUCT('Thickness','Thickness','',(#555));
#555 = PRODUCT_CONTEXT('',#2,'mechanical');
#556 = PRODUCT_DEFINITION_CONTEXT('part definition',#2,'design');
#557 = ADVANCED_BREP_SHAPE_REPRESENTATION('',(#11,#558),#1154);
#558 = MANIFOLD_SOLID_BREP('',#559);
#559 = CLOSED_SHELL('',(#560,#600,#631,#662,#684,#696,#778,#809,#834,
    #859,#883,#908,#932,#957,#974,#1007,#1024,#1041,#1074,#1096,#1113,
    #1130,#1142));
#560 = ADVANCED_FACE('',(#561),#595,.T.);
#561 = FACE_BOUND('',#562,.T.);
#562 = EDGE_LOOP('',(#563,#573,#581,#589));
#563 = ORIENTED_EDGE('',*,*,#564,.F.);
#564 = EDGE_CURVE('',#565,#567,#569,.T.);
#565 = VERTEX_POINT('',#566);
#566 = CARTESIAN_POINT('',(-11.5,-7.,10.));
#567 = VERTEX_POINT('',#568);
#568 = CARTESIAN_POINT('',(-13.5,-9.,0.));
#569 = LINE('',#570,#571);
#570 = CARTESIAN_POINT('',(-11.57407407407,-7.074074074074,9.62962962963
    ));
#571 = VECTOR('',#572,1.);
#572 = DIRECTION('',(-0.19245008973,-0.19245008973,-0.962250448649));
#573 = ORIENTED_EDGE('',*,*,#574,.T.);
#574 = EDGE_CURVE('',#565,#575,#577,.T.);
#575 = VERTEX_POINT('',#576);
#576 = CARTESIAN_POINT('',(11.5,-7.,10.));
#577 = LINE('',#578,#579);
#578 = CARTESIAN_POINT('',(-13.5,-7.,10.));
#579 = VECTOR('',#580,1.);
#580 = DIRECTION('',(1.,0.,0.));
#581 = ORIENTED_EDGE('',*,*,#582,.T.);
#582 = EDGE_CURVE('',#575,#583,#585,.T.);
#583 = VERTEX_POINT('',#584);
#584 = CARTESIAN_POINT('',(13.5,-9.,0.));
#585 = LINE('',#586,#587);
#586 = CARTESIAN_POINT('',(11.074074074074,-6.574074074074,
    12.12962962963));
#587 = VECTOR('',#588,1.);
#588 = DIRECTION('',(0.19245008973,-0.19245008973,-0.962250448649));
#589 = ORIENTED_EDGE('',*,*,#590,.F.);
#590 = EDGE_CURVE('',#567,#583,#591,.T.);
#591 = LINE('',#592,#593);
#592 = CARTESIAN_POINT('',(-13.5,-9.,0.));
#593 = VECTOR('',#594,1.);
#594 = DIRECTION('',(1.,0.,0.));
#595 = PLANE('',#596);
#596 = AXIS2_PLACEMENT_3D('',#597,#598,#599);
#597 = CARTESIAN_POINT('',(-13.5,-7.,10.));
#598 = DIRECTION('',(0.,0.980580675691,-0.196116135138));
#599 = DIRECTION('',(0.,-0.196116135138,-0.980580675691));
#600 = ADVANCED_FACE('',(#601),#626,.T.);
#601 = FACE_BOUND('',#602,.T.);
#602 = EDGE_LOOP('',(#603,#604,#612,#620));
#603 = ORIENTED_EDGE('',*,*,#582,.F.);
#604 = ORIENTED_EDGE('',*,*,#605,.T.);
#605 = EDGE_CURVE('',#575,#606,#608,.T.);
#606 = VERTEX_POINT('',#607);
#607 = CARTESIAN_POINT('',(11.5,7.,10.));
#608 = LINE('',#609,#610);
#609 = CARTESIAN_POINT('',(11.5,-9.,10.));
#610 = VECTOR('',#611,1.);
#611 = DIRECTION('',(0.,1.,-2.2E-16));
#612 = ORIENTED_EDGE('',*,*,#613,.T.);
#613 = EDGE_CURVE('',#606,#614,#616,.T.);
#614 = VERTEX_POINT('',#615);
#615 = CARTESIAN_POINT('',(13.5,9.,-2.E-15));
#616 = LINE('',#617,#618);
#617 = CARTESIAN_POINT('',(10.740740740741,6.240740740741,
    13.796296296296));
#618 = VECTOR('',#619,1.);
#619 = DIRECTION('',(0.19245008973,0.19245008973,-0.962250448649));
#620 = ORIENTED_EDGE('',*,*,#621,.F.);
#621 = EDGE_CURVE('',#583,#614,#622,.T.);
#622 = LINE('',#623,#624);
#623 = CARTESIAN_POINT('',(13.5,-9.,0.));
#624 = VECTOR('',#625,1.);
#625 = DIRECTION('',(0.,1.,0.));
#626 = PLANE('',#627);
#627 = AXIS2_PLACEMENT_3D('',#628,#629,#630);
#628 = CARTESIAN_POINT('',(11.5,-9.,10.));
#629 = DIRECTION('',(-0.980580675691,-4.E-17,-0.196116135138));
#630 = DIRECTION('',(0.196116135138,-2.2E-16,-0.980580675691));
#631 = ADVANCED_FACE('',(#632),#657,.F.);
#632 = FACE_BOUND('',#633,.F.);
#633 = EDGE_LOOP('',(#634,#644,#650,#651));
#634 = ORIENTED_EDGE('',*,*,#635,.F.);
#635 = EDGE_CURVE('',#636,#638,#640,.T.);
#636 = VERTEX_POINT('',#637);
#637 = CARTESIAN_POINT('',(-11.5,7.,10.));
#638 = VERTEX_POINT('',#639);
#639 = CARTESIAN_POINT('',(-13.5,9.,-2.E-15));
#640 = LINE('',#641,#642);
#641 = CARTESIAN_POINT('',(-11.24074074074,6.740740740741,
    11.296296296296));
#642 = VECTOR('',#643,1.);
#643 = DIRECTION('',(-0.19245008973,0.19245008973,-0.962250448649));
#644 = ORIENTED_EDGE('',*,*,#645,.T.);
#645 = EDGE_CURVE('',#636,#606,#646,.T.);
#646 = LINE('',#647,#648);
#647 = CARTESIAN_POINT('',(-13.5,7.,10.));
#648 = VECTOR('',#649,1.);
#649 = DIRECTION('',(1.,0.,0.));
#650 = ORIENTED_EDGE('',*,*,#613,.T.);
#651 = ORIENTED_EDGE('',*,*,#652,.T.);
#652 = EDGE_CURVE('',#614,#638,#653,.T.);
#653 = LINE('',#654,#655);
#654 = CARTESIAN_POINT('',(13.5,9.,0.));
#655 = VECTOR('',#656,1.);
#656 = DIRECTION('',(-1.,0.,0.));
#657 = PLANE('',#658);
#658 = AXIS2_PLACEMENT_3D('',#659,#660,#661);
#659 = CARTESIAN_POINT('',(-13.5,7.,10.));
#660 = DIRECTION('',(0.,0.980580675691,0.196116135138));
#661 = DIRECTION('',(0.,0.196116135138,-0.980580675691));
#662 = ADVANCED_FACE('',(#663),#679,.F.);
#663 = FACE_BOUND('',#664,.F.);
#664 = EDGE_LOOP('',(#665,#666,#672,#673));
#665 = ORIENTED_EDGE('',*,*,#564,.F.);
#666 = ORIENTED_EDGE('',*,*,#667,.T.);
#667 = EDGE_CURVE('',#565,#636,#668,.T.);
#668 = LINE('',#669,#670);
#669 = CARTESIAN_POINT('',(-11.5,-9.,10.));
#670 = VECTOR('',#671,1.);
#671 = DIRECTION('',(0.,1.,-2.2E-16));
#672 = ORIENTED_EDGE('',*,*,#635,.T.);
#673 = ORIENTED_EDGE('',*,*,#674,.T.);
#674 = EDGE_CURVE('',#638,#567,#675,.T.);
#675 = LINE('',#676,#677);
#676 = CARTESIAN_POINT('',(-13.5,9.,0.));
#677 = VECTOR('',#678,1.);
#678 = DIRECTION('',(0.,-1.,0.));
#679 = PLANE('',#680);
#680 = AXIS2_PLACEMENT_3D('',#681,#682,#683);
#681 = CARTESIAN_POINT('',(-11.5,-9.,10.));
#682 = DIRECTION('',(-0.980580675691,4.E-17,0.196116135138));
#683 = DIRECTION('',(-0.196116135138,-2.2E-16,-0.980580675691));
#684 = ADVANCED_FACE('',(#685),#691,.F.);
#685 = FACE_BOUND('',#686,.F.);
#686 = EDGE_LOOP('',(#687,#688,#689,#690));
#687 = ORIENTED_EDGE('',*,*,#667,.F.);
#688 = ORIENTED_EDGE('',*,*,#574,.T.);
#689 = ORIENTED_EDGE('',*,*,#605,.T.);
#690 = ORIENTED_EDGE('',*,*,#645,.F.);
#691 = PLANE('',#692);
#692 = AXIS2_PLACEMENT_3D('',#693,#694,#695);
#693 = CARTESIAN_POINT('',(0.,0.,10.));
#694 = DIRECTION('',(0.,0.,1.));
#695 = DIRECTION('',(1.,0.,0.));
#696 = ADVANCED_FACE('',(#697,#703),#773,.F.);
#697 = FACE_BOUND('',#698,.F.);
#698 = EDGE_LOOP('',(#699,#700,#701,#702));
#699 = ORIENTED_EDGE('',*,*,#590,.F.);
#700 = ORIENTED_EDGE('',*,*,#674,.F.);
#701 = ORIENTED_EDGE('',*,*,#652,.F.);
#702 = ORIENTED_EDGE('',*,*,#621,.F.);
#703 = FACE_BOUND('',#704,.F.);
#704 = EDGE_LOOP('',(#705,#716,#724,#733,#741,#750,#758,#767));
#705 = ORIENTED_EDGE('',*,*,#706,.T.);
#706 = EDGE_CURVE('',#707,#709,#711,.T.);
#707 = VERTEX_POINT('',#708);
#708 = CARTESIAN_POINT('',(-13.53922322702,10.019803902719,-2.E-15));
#709 = VERTEX_POINT('',#710);
#710 = CARTESIAN_POINT('',(-14.51980390226,9.039223226575,2.262619E-09)
  );
#711 = ELLIPSE('',#712,1.039230484541,1.);
#712 = AXIS2_PLACEMENT_3D('',#713,#714,#715);
#713 = CARTESIAN_POINT('',(-13.5,9.,0.));
#714 = DIRECTION('',(0.,0.,1.));
#715 = DIRECTION('',(-0.707106781187,0.707106781187,0.));
#716 = ORIENTED_EDGE('',*,*,#717,.F.);
#717 = EDGE_CURVE('',#718,#709,#720,.T.);
#718 = VERTEX_POINT('',#719);
#719 = CARTESIAN_POINT('',(-14.51980390226,-9.039223226575,2.263075E-09)
  );
#720 = LINE('',#721,#722);
#721 = CARTESIAN_POINT('',(-14.51980390271,-4.5,-8.9E-16));
#722 = VECTOR('',#723,1.);
#723 = DIRECTION('',(4.E-17,1.,-0.));
#724 = ORIENTED_EDGE('',*,*,#725,.T.);
#725 = EDGE_CURVE('',#718,#726,#728,.T.);
#726 = VERTEX_POINT('',#727);
#727 = CARTESIAN_POINT('',(-13.53922322702,-10.01980390271,-2.E-15));
#728 = ELLIPSE('',#729,1.039230484541,1.);
#729 = AXIS2_PLACEMENT_3D('',#730,#731,#732);
#730 = CARTESIAN_POINT('',(-13.5,-9.,0.));
#731 = DIRECTION('',(0.,0.,1.));
#732 = DIRECTION('',(-0.707106781187,-0.707106781187,0.));
#733 = ORIENTED_EDGE('',*,*,#734,.T.);
#734 = EDGE_CURVE('',#726,#735,#737,.T.);
#735 = VERTEX_POINT('',#736);
#736 = CARTESIAN_POINT('',(13.539223227028,-10.01980390271,-2.E-15));
#737 = LINE('',#738,#739);
#738 = CARTESIAN_POINT('',(-6.75,-10.01980390271,-8.9E-16));
#739 = VECTOR('',#740,1.);
#740 = DIRECTION('',(1.,-0.,0.));
#741 = ORIENTED_EDGE('',*,*,#742,.T.);
#742 = EDGE_CURVE('',#735,#743,#745,.T.);
#743 = VERTEX_POINT('',#744);
#744 = CARTESIAN_POINT('',(14.519803902266,-9.039223226575,2.264683E-09)
  );
#745 = ELLIPSE('',#746,1.039230484541,1.);
#746 = AXIS2_PLACEMENT_3D('',#747,#748,#749);
#747 = CARTESIAN_POINT('',(13.5,-9.,0.));
#748 = DIRECTION('',(0.,0.,1.));
#749 = DIRECTION('',(0.707106781187,-0.707106781187,0.));
#750 = ORIENTED_EDGE('',*,*,#751,.T.);
#751 = EDGE_CURVE('',#743,#752,#754,.T.);
#752 = VERTEX_POINT('',#753);
#753 = CARTESIAN_POINT('',(14.519803902719,9.039223227028,-2.E-15));
#754 = LINE('',#755,#756);
#755 = CARTESIAN_POINT('',(14.519803902719,-4.5,-8.9E-16));
#756 = VECTOR('',#757,1.);
#757 = DIRECTION('',(-4.E-17,1.,0.));
#758 = ORIENTED_EDGE('',*,*,#759,.T.);
#759 = EDGE_CURVE('',#752,#760,#762,.T.);
#760 = VERTEX_POINT('',#761);
#761 = CARTESIAN_POINT('',(13.539223226575,10.019803902266,2.26189E-09)
  );
#762 = ELLIPSE('',#763,1.039230484541,1.);
#763 = AXIS2_PLACEMENT_3D('',#764,#765,#766);
#764 = CARTESIAN_POINT('',(13.5,9.,0.));
#765 = DIRECTION('',(0.,0.,1.));
#766 = DIRECTION('',(0.707106781187,0.707106781187,-0.));
#767 = ORIENTED_EDGE('',*,*,#768,.F.);
#768 = EDGE_CURVE('',#707,#760,#769,.T.);
#769 = LINE('',#770,#771);
#770 = CARTESIAN_POINT('',(-6.75,10.019803902719,-8.9E-16));
#771 = VECTOR('',#772,1.);
#772 = DIRECTION('',(1.,0.,0.));
#773 = PLANE('',#774);
#774 = AXIS2_PLACEMENT_3D('',#775,#776,#777);
#775 = CARTESIAN_POINT('',(0.,0.,0.));
#776 = DIRECTION('',(0.,0.,1.));
#777 = DIRECTION('',(1.,0.,0.));
#778 = ADVANCED_FACE('',(#779),#804,.F.);
#779 = FACE_BOUND('',#780,.F.);
#780 = EDGE_LOOP('',(#781,#789,#797,#803));
#781 = ORIENTED_EDGE('',*,*,#782,.F.);
#782 = EDGE_CURVE('',#783,#726,#785,.T.);
#783 = VERTEX_POINT('',#784);
#784 = CARTESIAN_POINT('',(-11.5,-7.980580675691,10.196116135138));
#785 = LINE('',#786,#787);
#786 = CARTESIAN_POINT('',(-11.57407407407,-8.054654749765,
    9.825745764768));
#787 = VECTOR('',#788,1.);
#788 = DIRECTION('',(-0.19245008973,-0.19245008973,-0.962250448649));
#789 = ORIENTED_EDGE('',*,*,#790,.T.);
#790 = EDGE_CURVE('',#783,#791,#793,.T.);
#791 = VERTEX_POINT('',#792);
#792 = CARTESIAN_POINT('',(11.5,-7.980580675691,10.196116135138));
#793 = LINE('',#794,#795);
#794 = CARTESIAN_POINT('',(-13.5,-7.980580675691,10.196116135138));
#795 = VECTOR('',#796,1.);
#796 = DIRECTION('',(1.,0.,0.));
#797 = ORIENTED_EDGE('',*,*,#798,.T.);
#798 = EDGE_CURVE('',#791,#735,#799,.T.);
#799 = LINE('',#800,#801);
#800 = CARTESIAN_POINT('',(11.074074074074,-7.554654749765,
    12.325745764768));
#801 = VECTOR('',#802,1.);
#802 = DIRECTION('',(0.19245008973,-0.19245008973,-0.962250448649));
#803 = ORIENTED_EDGE('',*,*,#734,.F.);
#804 = PLANE('',#805);
#805 = AXIS2_PLACEMENT_3D('',#806,#807,#808);
#806 = CARTESIAN_POINT('',(-13.5,-7.980580675691,10.196116135138));
#807 = DIRECTION('',(0.,0.980580675691,-0.196116135138));
#808 = DIRECTION('',(0.,-0.196116135138,-0.980580675691));
#809 = ADVANCED_FACE('',(#810),#829,.T.);
#810 = FACE_BOUND('',#811,.T.);
#811 = EDGE_LOOP('',(#812,#820,#821,#822));
#812 = ORIENTED_EDGE('',*,*,#813,.T.);
#813 = EDGE_CURVE('',#814,#718,#816,.T.);
#814 = VERTEX_POINT('',#815);
#815 = CARTESIAN_POINT('',(-12.48058067569,-7.,10.196116135138));
#816 = LINE('',#817,#818);
#817 = CARTESIAN_POINT('',(-12.55465474976,-7.074074074074,
    9.825745764768));
#818 = VECTOR('',#819,1.);
#819 = DIRECTION('',(-0.19245008973,-0.19245008973,-0.962250448649));
#820 = ORIENTED_EDGE('',*,*,#725,.T.);
#821 = ORIENTED_EDGE('',*,*,#782,.F.);
#822 = ORIENTED_EDGE('',*,*,#823,.T.);
#823 = EDGE_CURVE('',#783,#814,#824,.T.);
#824 = CIRCLE('',#825,1.);
#825 = AXIS2_PLACEMENT_3D('',#826,#827,#828);
#826 = CARTESIAN_POINT('',(-11.5,-7.,10.));
#827 = DIRECTION('',(-0.19245008973,-0.19245008973,-0.962250448649));
#828 = DIRECTION('',(0.981306762925,-3.774256780482E-02,-0.188712839024)
  );
#829 = CYLINDRICAL_SURFACE('',#830,1.);
#830 = AXIS2_PLACEMENT_3D('',#831,#832,#833);
#831 = CARTESIAN_POINT('',(-11.57407407407,-7.074074074074,9.62962962963
    ));
#832 = DIRECTION('',(-0.19245008973,-0.19245008973,-0.962250448649));
#833 = DIRECTION('',(0.981306762925,-3.774256780482E-02,-0.188712839024)
  );
#834 = ADVANCED_FACE('',(#835),#854,.T.);
#835 = FACE_BOUND('',#836,.F.);
#836 = EDGE_LOOP('',(#837,#845,#846,#847));
#837 = ORIENTED_EDGE('',*,*,#838,.T.);
#838 = EDGE_CURVE('',#839,#743,#841,.T.);
#839 = VERTEX_POINT('',#840);
#840 = CARTESIAN_POINT('',(12.480580675691,-7.,10.196116135138));
#841 = LINE('',#842,#843);
#842 = CARTESIAN_POINT('',(12.054654749765,-6.574074074074,
    12.325745764768));
#843 = VECTOR('',#844,1.);
#844 = DIRECTION('',(0.19245008973,-0.19245008973,-0.962250448649));
#845 = ORIENTED_EDGE('',*,*,#742,.F.);
#846 = ORIENTED_EDGE('',*,*,#798,.F.);
#847 = ORIENTED_EDGE('',*,*,#848,.T.);
#848 = EDGE_CURVE('',#791,#839,#849,.T.);
#849 = CIRCLE('',#850,1.);
#850 = AXIS2_PLACEMENT_3D('',#851,#852,#853);
#851 = CARTESIAN_POINT('',(11.5,-7.,10.));
#852 = DIRECTION('',(-0.19245008973,0.19245008973,0.962250448649));
#853 = DIRECTION('',(-0.981306762925,-3.774256780482E-02,-0.188712839024
    ));
#854 = CYLINDRICAL_SURFACE('',#855,1.);
#855 = AXIS2_PLACEMENT_3D('',#856,#857,#858);
#856 = CARTESIAN_POINT('',(11.074074074074,-6.574074074074,
    12.12962962963));
#857 = DIRECTION('',(0.19245008973,-0.19245008973,-0.962250448649));
#858 = DIRECTION('',(-0.981306762925,-3.774256780482E-02,-0.188712839024
    ));
#859 = ADVANCED_FACE('',(#860),#878,.F.);
#860 = FACE_BOUND('',#861,.F.);
#861 = EDGE_LOOP('',(#862,#863,#864,#872));
#862 = ORIENTED_EDGE('',*,*,#751,.F.);
#863 = ORIENTED_EDGE('',*,*,#838,.F.);
#864 = ORIENTED_EDGE('',*,*,#865,.T.);
#865 = EDGE_CURVE('',#839,#866,#868,.T.);
#866 = VERTEX_POINT('',#867);
#867 = CARTESIAN_POINT('',(12.480580675691,7.,10.196116135138));
#868 = LINE('',#869,#870);
#869 = CARTESIAN_POINT('',(12.480580675691,-9.,10.196116135138));
#870 = VECTOR('',#871,1.);
#871 = DIRECTION('',(0.,1.,-2.2E-16));
#872 = ORIENTED_EDGE('',*,*,#873,.T.);
#873 = EDGE_CURVE('',#866,#752,#874,.T.);
#874 = LINE('',#875,#876);
#875 = CARTESIAN_POINT('',(11.721321416432,6.240740740741,
    13.992412431434));
#876 = VECTOR('',#877,1.);
#877 = DIRECTION('',(0.19245008973,0.19245008973,-0.962250448649));
#878 = PLANE('',#879);
#879 = AXIS2_PLACEMENT_3D('',#880,#881,#882);
#880 = CARTESIAN_POINT('',(12.480580675691,-9.,10.196116135138));
#881 = DIRECTION('',(-0.980580675691,-4.E-17,-0.196116135138));
#882 = DIRECTION('',(0.196116135138,-2.2E-16,-0.980580675691));
#883 = ADVANCED_FACE('',(#884),#903,.T.);
#884 = FACE_BOUND('',#885,.F.);
#885 = EDGE_LOOP('',(#886,#894,#895,#896));
#886 = ORIENTED_EDGE('',*,*,#887,.T.);
#887 = EDGE_CURVE('',#888,#760,#890,.T.);
#888 = VERTEX_POINT('',#889);
#889 = CARTESIAN_POINT('',(11.5,7.980580675691,10.196116135138));
#890 = LINE('',#891,#892);
#891 = CARTESIAN_POINT('',(10.740740740741,7.221321416432,
    13.992412431434));
#892 = VECTOR('',#893,1.);
#893 = DIRECTION('',(0.19245008973,0.19245008973,-0.962250448649));
#894 = ORIENTED_EDGE('',*,*,#759,.F.);
#895 = ORIENTED_EDGE('',*,*,#873,.F.);
#896 = ORIENTED_EDGE('',*,*,#897,.T.);
#897 = EDGE_CURVE('',#866,#888,#898,.T.);
#898 = CIRCLE('',#899,1.);
#899 = AXIS2_PLACEMENT_3D('',#900,#901,#902);
#900 = CARTESIAN_POINT('',(11.5,7.,10.));
#901 = DIRECTION('',(-0.19245008973,-0.19245008973,0.962250448649));
#902 = DIRECTION('',(3.774256780482E-02,-0.981306762925,-0.188712839024)
  );
#903 = CYLINDRICAL_SURFACE('',#904,1.);
#904 = AXIS2_PLACEMENT_3D('',#905,#906,#907);
#905 = CARTESIAN_POINT('',(10.740740740741,6.240740740741,
    13.796296296296));
#906 = DIRECTION('',(0.19245008973,0.19245008973,-0.962250448649));
#907 = DIRECTION('',(3.774256780482E-02,-0.981306762925,-0.188712839024)
  );
#908 = ADVANCED_FACE('',(#909),#927,.T.);
#909 = FACE_BOUND('',#910,.T.);
#910 = EDGE_LOOP('',(#911,#919,#925,#926));
#911 = ORIENTED_EDGE('',*,*,#912,.F.);
#912 = EDGE_CURVE('',#913,#707,#915,.T.);
#913 = VERTEX_POINT('',#914);
#914 = CARTESIAN_POINT('',(-11.5,7.980580675691,10.196116135138));
#915 = LINE('',#916,#917);
#916 = CARTESIAN_POINT('',(-11.24074074074,7.721321416432,
    11.492412431434));
#917 = VECTOR('',#918,1.);
#918 = DIRECTION('',(-0.19245008973,0.19245008973,-0.962250448649));
#919 = ORIENTED_EDGE('',*,*,#920,.T.);
#920 = EDGE_CURVE('',#913,#888,#921,.T.);
#921 = LINE('',#922,#923);
#922 = CARTESIAN_POINT('',(-13.5,7.980580675691,10.196116135138));
#923 = VECTOR('',#924,1.);
#924 = DIRECTION('',(1.,0.,0.));
#925 = ORIENTED_EDGE('',*,*,#887,.T.);
#926 = ORIENTED_EDGE('',*,*,#768,.F.);
#927 = PLANE('',#928);
#928 = AXIS2_PLACEMENT_3D('',#929,#930,#931);
#929 = CARTESIAN_POINT('',(-13.5,7.980580675691,10.196116135138));
#930 = DIRECTION('',(0.,0.980580675691,0.196116135138));
#931 = DIRECTION('',(0.,0.196116135138,-0.980580675691));
#932 = ADVANCED_FACE('',(#933),#952,.T.);
#933 = FACE_BOUND('',#934,.F.);
#934 = EDGE_LOOP('',(#935,#943,#944,#945));
#935 = ORIENTED_EDGE('',*,*,#936,.T.);
#936 = EDGE_CURVE('',#937,#709,#939,.T.);
#937 = VERTEX_POINT('',#938);
#938 = CARTESIAN_POINT('',(-12.48058067569,7.,10.196116135138));
#939 = LINE('',#940,#941);
#940 = CARTESIAN_POINT('',(-12.22132141643,6.740740740741,
    11.492412431434));
#941 = VECTOR('',#942,1.);
#942 = DIRECTION('',(-0.19245008973,0.19245008973,-0.962250448649));
#943 = ORIENTED_EDGE('',*,*,#706,.F.);
#944 = ORIENTED_EDGE('',*,*,#912,.F.);
#945 = ORIENTED_EDGE('',*,*,#946,.T.);
#946 = EDGE_CURVE('',#913,#937,#947,.T.);
#947 = CIRCLE('',#948,1.);
#948 = AXIS2_PLACEMENT_3D('',#949,#950,#951);
#949 = CARTESIAN_POINT('',(-11.5,7.,10.));
#950 = DIRECTION('',(0.19245008973,-0.19245008973,0.962250448649));
#951 = DIRECTION('',(0.981306762925,3.774256780482E-02,-0.188712839024)
  );
#952 = CYLINDRICAL_SURFACE('',#953,1.);
#953 = AXIS2_PLACEMENT_3D('',#954,#955,#956);
#954 = CARTESIAN_POINT('',(-11.24074074074,6.740740740741,
    11.296296296296));
#955 = DIRECTION('',(-0.19245008973,0.19245008973,-0.962250448649));
#956 = DIRECTION('',(0.981306762925,3.774256780482E-02,-0.188712839024)
  );
#957 = ADVANCED_FACE('',(#958),#969,.T.);
#958 = FACE_BOUND('',#959,.T.);
#959 = EDGE_LOOP('',(#960,#961,#962,#968));
#960 = ORIENTED_EDGE('',*,*,#717,.F.);
#961 = ORIENTED_EDGE('',*,*,#813,.F.);
#962 = ORIENTED_EDGE('',*,*,#963,.T.);
#963 = EDGE_CURVE('',#814,#937,#964,.T.);
#964 = LINE('',#965,#966);
#965 = CARTESIAN_POINT('',(-12.48058067569,-9.,10.196116135138));
#966 = VECTOR('',#967,1.);
#967 = DIRECTION('',(0.,1.,-2.2E-16));
#968 = ORIENTED_EDGE('',*,*,#936,.T.);
#969 = PLANE('',#970);
#970 = AXIS2_PLACEMENT_3D('',#971,#972,#973);
#971 = CARTESIAN_POINT('',(-12.48058067569,-9.,10.196116135138));
#972 = DIRECTION('',(-0.980580675691,4.E-17,0.196116135138));
#973 = DIRECTION('',(-0.196116135138,-2.2E-16,-0.980580675691));
#974 = ADVANCED_FACE('',(#975),#1002,.T.);
#975 = FACE_BOUND('',#976,.F.);
#976 = EDGE_LOOP('',(#977,#978,#987,#995));
#977 = ORIENTED_EDGE('',*,*,#790,.F.);
#978 = ORIENTED_EDGE('',*,*,#979,.T.);
#979 = EDGE_CURVE('',#783,#980,#982,.T.);
#980 = VERTEX_POINT('',#981);
#981 = CARTESIAN_POINT('',(-11.5,-7.,11.));
#982 = CIRCLE('',#983,1.);
#983 = AXIS2_PLACEMENT_3D('',#984,#985,#986);
#984 = CARTESIAN_POINT('',(-11.5,-7.,10.));
#985 = DIRECTION('',(-1.,-0.,0.));
#986 = DIRECTION('',(0.,-0.196116135138,-0.980580675691));
#987 = ORIENTED_EDGE('',*,*,#988,.T.);
#988 = EDGE_CURVE('',#980,#989,#991,.T.);
#989 = VERTEX_POINT('',#990);
#990 = CARTESIAN_POINT('',(11.5,-7.,11.));
#991 = LINE('',#992,#993);
#992 = CARTESIAN_POINT('',(-13.5,-7.,11.));
#993 = VECTOR('',#994,1.);
#994 = DIRECTION('',(1.,0.,0.));
#995 = ORIENTED_EDGE('',*,*,#996,.F.);
#996 = EDGE_CURVE('',#791,#989,#997,.T.);
#997 = CIRCLE('',#998,1.);
#998 = AXIS2_PLACEMENT_3D('',#999,#1000,#1001);
#999 = CARTESIAN_POINT('',(11.5,-7.,10.));
#1000 = DIRECTION('',(-1.,-0.,0.));
#1001 = DIRECTION('',(0.,-0.196116135138,-0.980580675691));
#1002 = CYLINDRICAL_SURFACE('',#1003,1.);
#1003 = AXIS2_PLACEMENT_3D('',#1004,#1005,#1006);
#1004 = CARTESIAN_POINT('',(-13.5,-7.,10.));
#1005 = DIRECTION('',(1.,0.,0.));
#1006 = DIRECTION('',(0.,-0.196116135138,-0.980580675691));
#1007 = ADVANCED_FACE('',(#1008),#1019,.T.);
#1008 = FACE_BOUND('',#1009,.T.);
#1009 = EDGE_LOOP('',(#1010,#1011,#1012));
#1010 = ORIENTED_EDGE('',*,*,#823,.F.);
#1011 = ORIENTED_EDGE('',*,*,#979,.T.);
#1012 = ORIENTED_EDGE('',*,*,#1013,.F.);
#1013 = EDGE_CURVE('',#814,#980,#1014,.T.);
#1014 = CIRCLE('',#1015,1.);
#1015 = AXIS2_PLACEMENT_3D('',#1016,#1017,#1018);
#1016 = CARTESIAN_POINT('',(-11.5,-7.,10.));
#1017 = DIRECTION('',(2.2E-16,1.,0.));
#1018 = DIRECTION('',(-0.196116135138,4.31455497304E-17,-0.980580675691)
  );
#1019 = SPHERICAL_SURFACE('',#1020,1.);
#1020 = AXIS2_PLACEMENT_3D('',#1021,#1022,#1023);
#1021 = CARTESIAN_POINT('',(-11.5,-7.,10.));
#1022 = DIRECTION('',(0.744806568138,0.130864459543,0.654322297715));
#1023 = DIRECTION('',(0.513596924402,0.513596924402,-0.687340089395));
#1024 = ADVANCED_FACE('',(#1025),#1036,.T.);
#1025 = FACE_BOUND('',#1026,.T.);
#1026 = EDGE_LOOP('',(#1027,#1028,#1035));
#1027 = ORIENTED_EDGE('',*,*,#848,.T.);
#1028 = ORIENTED_EDGE('',*,*,#1029,.T.);
#1029 = EDGE_CURVE('',#839,#989,#1030,.T.);
#1030 = CIRCLE('',#1031,1.);
#1031 = AXIS2_PLACEMENT_3D('',#1032,#1033,#1034);
#1032 = CARTESIAN_POINT('',(11.5,-7.,10.));
#1033 = DIRECTION('',(2.2E-16,-1.,0.));
#1034 = DIRECTION('',(0.196116135138,4.31455497304E-17,-0.980580675691)
  );
#1035 = ORIENTED_EDGE('',*,*,#996,.F.);
#1036 = SPHERICAL_SURFACE('',#1037,1.);
#1037 = AXIS2_PLACEMENT_3D('',#1038,#1039,#1040);
#1038 = CARTESIAN_POINT('',(11.5,-7.,10.));
#1039 = DIRECTION('',(0.744806568138,-0.130864459543,-0.654322297715));
#1040 = DIRECTION('',(-0.513596924402,0.513596924402,-0.687340089395));
#1041 = ADVANCED_FACE('',(#1042),#1069,.T.);
#1042 = FACE_BOUND('',#1043,.T.);
#1043 = EDGE_LOOP('',(#1044,#1045,#1054,#1062));
#1044 = ORIENTED_EDGE('',*,*,#920,.F.);
#1045 = ORIENTED_EDGE('',*,*,#1046,.T.);
#1046 = EDGE_CURVE('',#913,#1047,#1049,.T.);
#1047 = VERTEX_POINT('',#1048);
#1048 = CARTESIAN_POINT('',(-11.5,7.,11.));
#1049 = CIRCLE('',#1050,1.);
#1050 = AXIS2_PLACEMENT_3D('',#1051,#1052,#1053);
#1051 = CARTESIAN_POINT('',(-11.5,7.,10.));
#1052 = DIRECTION('',(1.,-0.,0.));
#1053 = DIRECTION('',(0.,0.196116135138,-0.980580675691));
#1054 = ORIENTED_EDGE('',*,*,#1055,.T.);
#1055 = EDGE_CURVE('',#1047,#1056,#1058,.T.);
#1056 = VERTEX_POINT('',#1057);
#1057 = CARTESIAN_POINT('',(11.5,7.,11.));
#1058 = LINE('',#1059,#1060);
#1059 = CARTESIAN_POINT('',(-13.5,7.,11.));
#1060 = VECTOR('',#1061,1.);
#1061 = DIRECTION('',(1.,0.,0.));
#1062 = ORIENTED_EDGE('',*,*,#1063,.F.);
#1063 = EDGE_CURVE('',#888,#1056,#1064,.T.);
#1064 = CIRCLE('',#1065,1.);
#1065 = AXIS2_PLACEMENT_3D('',#1066,#1067,#1068);
#1066 = CARTESIAN_POINT('',(11.5,7.,10.));
#1067 = DIRECTION('',(1.,-0.,0.));
#1068 = DIRECTION('',(0.,0.196116135138,-0.980580675691));
#1069 = CYLINDRICAL_SURFACE('',#1070,1.);
#1070 = AXIS2_PLACEMENT_3D('',#1071,#1072,#1073);
#1071 = CARTESIAN_POINT('',(-13.5,7.,10.));
#1072 = DIRECTION('',(1.,0.,0.));
#1073 = DIRECTION('',(0.,0.196116135138,-0.980580675691));
#1074 = ADVANCED_FACE('',(#1075),#1091,.T.);
#1075 = FACE_BOUND('',#1076,.T.);
#1076 = EDGE_LOOP('',(#1077,#1083,#1084,#1090));
#1077 = ORIENTED_EDGE('',*,*,#1078,.F.);
#1078 = EDGE_CURVE('',#980,#1047,#1079,.T.);
#1079 = LINE('',#1080,#1081);
#1080 = CARTESIAN_POINT('',(-11.5,-9.,11.));
#1081 = VECTOR('',#1082,1.);
#1082 = DIRECTION('',(0.,1.,0.));
#1083 = ORIENTED_EDGE('',*,*,#988,.T.);
#1084 = ORIENTED_EDGE('',*,*,#1085,.T.);
#1085 = EDGE_CURVE('',#989,#1056,#1086,.T.);
#1086 = LINE('',#1087,#1088);
#1087 = CARTESIAN_POINT('',(11.5,-9.,11.));
#1088 = VECTOR('',#1089,1.);
#1089 = DIRECTION('',(0.,1.,0.));
#1090 = ORIENTED_EDGE('',*,*,#1055,.F.);
#1091 = PLANE('',#1092);
#1092 = AXIS2_PLACEMENT_3D('',#1093,#1094,#1095);
#1093 = CARTESIAN_POINT('',(0.,0.,11.));
#1094 = DIRECTION('',(0.,0.,1.));
#1095 = DIRECTION('',(1.,0.,0.));
#1096 = ADVANCED_FACE('',(#1097),#1108,.T.);
#1097 = FACE_BOUND('',#1098,.T.);
#1098 = EDGE_LOOP('',(#1099,#1100,#1101));
#1099 = ORIENTED_EDGE('',*,*,#897,.T.);
#1100 = ORIENTED_EDGE('',*,*,#1063,.T.);
#1101 = ORIENTED_EDGE('',*,*,#1102,.F.);
#1102 = EDGE_CURVE('',#866,#1056,#1103,.T.);
#1103 = CIRCLE('',#1104,1.);
#1104 = AXIS2_PLACEMENT_3D('',#1105,#1106,#1107);
#1105 = CARTESIAN_POINT('',(11.5,7.,10.));
#1106 = DIRECTION('',(2.2E-16,-1.,0.));
#1107 = DIRECTION('',(0.196116135138,4.31455497304E-17,-0.980580675691)
  );
#1108 = SPHERICAL_SURFACE('',#1109,1.);
#1109 = AXIS2_PLACEMENT_3D('',#1110,#1111,#1112);
#1110 = CARTESIAN_POINT('',(11.5,7.,10.));
#1111 = DIRECTION('',(0.130864459543,0.744806568138,-0.654322297715));
#1112 = DIRECTION('',(-0.513596924402,-0.513596924402,-0.687340089395));
#1113 = ADVANCED_FACE('',(#1114),#1125,.T.);
#1114 = FACE_BOUND('',#1115,.T.);
#1115 = EDGE_LOOP('',(#1116,#1117,#1124));
#1116 = ORIENTED_EDGE('',*,*,#946,.T.);
#1117 = ORIENTED_EDGE('',*,*,#1118,.T.);
#1118 = EDGE_CURVE('',#937,#1047,#1119,.T.);
#1119 = CIRCLE('',#1120,1.);
#1120 = AXIS2_PLACEMENT_3D('',#1121,#1122,#1123);
#1121 = CARTESIAN_POINT('',(-11.5,7.,10.));
#1122 = DIRECTION('',(2.2E-16,1.,0.));
#1123 = DIRECTION('',(-0.196116135138,4.31455497304E-17,-0.980580675691)
  );
#1124 = ORIENTED_EDGE('',*,*,#1046,.F.);
#1125 = SPHERICAL_SURFACE('',#1126,1.);
#1126 = AXIS2_PLACEMENT_3D('',#1127,#1128,#1129);
#1127 = CARTESIAN_POINT('',(-11.5,7.,10.));
#1128 = DIRECTION('',(-0.744806568138,0.130864459543,-0.654322297715));
#1129 = DIRECTION('',(0.513596924402,-0.513596924402,-0.687340089395));
#1130 = ADVANCED_FACE('',(#1131),#1137,.T.);
#1131 = FACE_BOUND('',#1132,.F.);
#1132 = EDGE_LOOP('',(#1133,#1134,#1135,#1136));
#1133 = ORIENTED_EDGE('',*,*,#865,.F.);
#1134 = ORIENTED_EDGE('',*,*,#1029,.T.);
#1135 = ORIENTED_EDGE('',*,*,#1085,.T.);
#1136 = ORIENTED_EDGE('',*,*,#1102,.F.);
#1137 = CYLINDRICAL_SURFACE('',#1138,1.);
#1138 = AXIS2_PLACEMENT_3D('',#1139,#1140,#1141);
#1139 = CARTESIAN_POINT('',(11.5,-9.,10.));
#1140 = DIRECTION('',(-2.2E-16,1.,-0.));
#1141 = DIRECTION('',(0.196116135138,4.31455497304E-17,-0.980580675691)
  );
#1142 = ADVANCED_FACE('',(#1143),#1149,.T.);
#1143 = FACE_BOUND('',#1144,.T.);
#1144 = EDGE_LOOP('',(#1145,#1146,#1147,#1148));
#1145 = ORIENTED_EDGE('',*,*,#963,.F.);
#1146 = ORIENTED_EDGE('',*,*,#1013,.T.);
#1147 = ORIENTED_EDGE('',*,*,#1078,.T.);
#1148 = ORIENTED_EDGE('',*,*,#1118,.F.);
#1149 = CYLINDRICAL_SURFACE('',#1150,1.);
#1150 = AXIS2_PLACEMENT_3D('',#1151,#1152,#1153);
#1151 = CARTESIAN_POINT('',(-11.5,-9.,10.));
#1152 = DIRECTION('',(2.2E-16,1.,-0.));
#1153 = DIRECTION('',(-0.196116135138,4.31455497304E-17,-0.980580675691)
  );
#1154 = ( GEOMETRIC_REPRESENTATION_CONTEXT(3) 
GLOBAL_UNCERTAINTY_ASSIGNED_CONTEXT((#1158)) 
GLOBAL_UNIT_ASSIGNED_CONTEXT((#1155,#1156,#1157)) REPRESENTATION_CONTEXT
('Context #1','3D Context with UNIT and UNCERTAINTY') );
#1155 = ( LENGTH_UNIT() NAMED_UNIT(*) SI_UNIT(.MILLI.,.METRE.) );
#1156 = ( NAMED_UNIT(*) PLANE_ANGLE_UNIT() SI_UNIT($,.RADIAN.) );
#1157 = ( NAMED_UNIT(*) SI_UNIT($,.STERADIAN.) SOLID_ANGLE_UNIT() );
#1158 = UNCERTAINTY_MEASURE_WITH_UNIT(LENGTH_MEASURE(2.E-05),#1155,
  'distance_accuracy_value','confusion accuracy');
#1159 = CONTEXT_DEPENDENT_SHAPE_REPRESENTATION(#1160,#1162);
#1160 = ( REPRESENTATION_RELATIONSHIP('','',#557,#10) 
REPRESENTATION_RELATIONSHIP_WITH_TRANSFORMATION(#1161) 
SHAPE_REPRESENTATION_RELATIONSHIP() );
#1161 = ITEM_DEFINED_TRANSFORMATION('','',#11,#19);
#1162 = PRODUCT_DEFINITION_SHAPE('Placement','Placement of an item',
  #1163);
#1163 = NEXT_ASSEMBLY_USAGE_OCCURRENCE('8','Thickness','',#5,#552,$);
#1164 = PRODUCT_RELATED_PRODUCT_CATEGORY('part',$,(#554));
#1165 = SHAPE_DEFINITION_REPRESENTATION(#1166,#1172);
#1166 = PRODUCT_DEFINITION_SHAPE('','',#1167);
#1167 = PRODUCT_DEFINITION('design','',#1168,#1171);
#1168 = PRODUCT_DEFINITION_FORMATION('','',#1169);
#1169 = PRODUCT('Extrude003','Extrude003','',(#1170));
#1170 = PRODUCT_CONTEXT('',#2,'mechanical');
#1171 = PRODUCT_DEFINITION_CONTEXT('part definition',#2,'design');
#1172 = ADVANCED_BREP_SHAPE_REPRESENTATION('',(#11,#1173),#1987);
#1173 = MANIFOLD_SOLID_BREP('',#1174);
#1174 = CLOSED_SHELL('',(#1175,#1215,#1246,#1277,#1308,#1339,#1370,#1401
    ,#1432,#1463,#1494,#1525,#1547,#1587,#1618,#1649,#1680,#1711,#1742,
    #1773,#1804,#1835,#1866,#1897,#1919,#1953));
#1175 = ADVANCED_FACE('',(#1176),#1210,.F.);
#1176 = FACE_BOUND('',#1177,.F.);
#1177 = EDGE_LOOP('',(#1178,#1188,#1196,#1204));
#1178 = ORIENTED_EDGE('',*,*,#1179,.T.);
#1179 = EDGE_CURVE('',#1180,#1182,#1184,.T.);
#1180 = VERTEX_POINT('',#1181);
#1181 = CARTESIAN_POINT('',(-3.,1.625,10.));
#1182 = VERTEX_POINT('',#1183);
#1183 = CARTESIAN_POINT('',(-3.,1.625,0.));
#1184 = LINE('',#1185,#1186);
#1185 = CARTESIAN_POINT('',(-3.,1.625,10.));
#1186 = VECTOR('',#1187,1.);
#1187 = DIRECTION('',(0.,0.,-1.));
#1188 = ORIENTED_EDGE('',*,*,#1189,.T.);
#1189 = EDGE_CURVE('',#1182,#1190,#1192,.T.);
#1190 = VERTEX_POINT('',#1191);
#1191 = CARTESIAN_POINT('',(-1.55,1.625,0.));
#1192 = LINE('',#1193,#1194);
#1193 = CARTESIAN_POINT('',(-3.,1.625,0.));
#1194 = VECTOR('',#1195,1.);
#1195 = DIRECTION('',(1.,0.,0.));
#1196 = ORIENTED_EDGE('',*,*,#1197,.F.);
#1197 = EDGE_CURVE('',#1198,#1190,#1200,.T.);
#1198 = VERTEX_POINT('',#1199);
#1199 = CARTESIAN_POINT('',(-1.55,1.625,10.));
#1200 = LINE('',#1201,#1202);
#1201 = CARTESIAN_POINT('',(-1.55,1.625,10.));
#1202 = VECTOR('',#1203,1.);
#1203 = DIRECTION('',(0.,0.,-1.));
#1204 = ORIENTED_EDGE('',*,*,#1205,.F.);
#1205 = EDGE_CURVE('',#1180,#1198,#1206,.T.);
#1206 = LINE('',#1207,#1208);
#1207 = CARTESIAN_POINT('',(-3.,1.625,10.));
#1208 = VECTOR('',#1209,1.);
#1209 = DIRECTION('',(1.,0.,0.));
#1210 = PLANE('',#1211);
#1211 = AXIS2_PLACEMENT_3D('',#1212,#1213,#1214);
#1212 = CARTESIAN_POINT('',(-3.,1.625,10.));
#1213 = DIRECTION('',(0.,-1.,0.));
#1214 = DIRECTION('',(1.,0.,0.));
#1215 = ADVANCED_FACE('',(#1216),#1241,.F.);
#1216 = FACE_BOUND('',#1217,.F.);
#1217 = EDGE_LOOP('',(#1218,#1219,#1227,#1235));
#1218 = ORIENTED_EDGE('',*,*,#1197,.T.);
#1219 = ORIENTED_EDGE('',*,*,#1220,.T.);
#1220 = EDGE_CURVE('',#1190,#1221,#1223,.T.);
#1221 = VERTEX_POINT('',#1222);
#1222 = CARTESIAN_POINT('',(-1.55,3.,0.));
#1223 = LINE('',#1224,#1225);
#1224 = CARTESIAN_POINT('',(-1.55,1.625,0.));
#1225 = VECTOR('',#1226,1.);
#1226 = DIRECTION('',(0.,1.,0.));
#1227 = ORIENTED_EDGE('',*,*,#1228,.F.);
#1228 = EDGE_CURVE('',#1229,#1221,#1231,.T.);
#1229 = VERTEX_POINT('',#1230);
#1230 = CARTESIAN_POINT('',(-1.55,3.,10.));
#1231 = LINE('',#1232,#1233);
#1232 = CARTESIAN_POINT('',(-1.55,3.,10.));
#1233 = VECTOR('',#1234,1.);
#1234 = DIRECTION('',(0.,0.,-1.));
#1235 = ORIENTED_EDGE('',*,*,#1236,.F.);
#1236 = EDGE_CURVE('',#1198,#1229,#1237,.T.);
#1237 = LINE('',#1238,#1239);
#1238 = CARTESIAN_POINT('',(-1.55,1.625,10.));
#1239 = VECTOR('',#1240,1.);
#1240 = DIRECTION('',(0.,1.,0.));
#1241 = PLANE('',#1242);
#1242 = AXIS2_PLACEMENT_3D('',#1243,#1244,#1245);
#1243 = CARTESIAN_POINT('',(-1.55,1.625,10.));
#1244 = DIRECTION('',(1.,-0.,0.));
#1245 = DIRECTION('',(0.,1.,0.));
#1246 = ADVANCED_FACE('',(#1247),#1272,.F.);
#1247 = FACE_BOUND('',#1248,.F.);
#1248 = EDGE_LOOP('',(#1249,#1250,#1258,#1266));
#1249 = ORIENTED_EDGE('',*,*,#1228,.T.);
#1250 = ORIENTED_EDGE('',*,*,#1251,.T.);
#1251 = EDGE_CURVE('',#1221,#1252,#1254,.T.);
#1252 = VERTEX_POINT('',#1253);
#1253 = CARTESIAN_POINT('',(1.55,3.,0.));
#1254 = LINE('',#1255,#1256);
#1255 = CARTESIAN_POINT('',(-1.55,3.,0.));
#1256 = VECTOR('',#1257,1.);
#1257 = DIRECTION('',(1.,0.,0.));
#1258 = ORIENTED_EDGE('',*,*,#1259,.F.);
#1259 = EDGE_CURVE('',#1260,#1252,#1262,.T.);
#1260 = VERTEX_POINT('',#1261);
#1261 = CARTESIAN_POINT('',(1.55,3.,10.));
#1262 = LINE('',#1263,#1264);
#1263 = CARTESIAN_POINT('',(1.55,3.,10.));
#1264 = VECTOR('',#1265,1.);
#1265 = DIRECTION('',(0.,0.,-1.));
#1266 = ORIENTED_EDGE('',*,*,#1267,.F.);
#1267 = EDGE_CURVE('',#1229,#1260,#1268,.T.);
#1268 = LINE('',#1269,#1270);
#1269 = CARTESIAN_POINT('',(-1.55,3.,10.));
#1270 = VECTOR('',#1271,1.);
#1271 = DIRECTION('',(1.,0.,0.));
#1272 = PLANE('',#1273);
#1273 = AXIS2_PLACEMENT_3D('',#1274,#1275,#1276);
#1274 = CARTESIAN_POINT('',(-1.55,3.,10.));
#1275 = DIRECTION('',(0.,-1.,0.));
#1276 = DIRECTION('',(1.,0.,0.));
#1277 = ADVANCED_FACE('',(#1278),#1303,.F.);
#1278 = FACE_BOUND('',#1279,.F.);
#1279 = EDGE_LOOP('',(#1280,#1281,#1289,#1297));
#1280 = ORIENTED_EDGE('',*,*,#1259,.T.);
#1281 = ORIENTED_EDGE('',*,*,#1282,.T.);
#1282 = EDGE_CURVE('',#1252,#1283,#1285,.T.);
#1283 = VERTEX_POINT('',#1284);
#1284 = CARTESIAN_POINT('',(1.55,1.625,0.));
#1285 = LINE('',#1286,#1287);
#1286 = CARTESIAN_POINT('',(1.55,3.,0.));
#1287 = VECTOR('',#1288,1.);
#1288 = DIRECTION('',(0.,-1.,0.));
#1289 = ORIENTED_EDGE('',*,*,#1290,.F.);
#1290 = EDGE_CURVE('',#1291,#1283,#1293,.T.);
#1291 = VERTEX_POINT('',#1292);
#1292 = CARTESIAN_POINT('',(1.55,1.625,10.));
#1293 = LINE('',#1294,#1295);
#1294 = CARTESIAN_POINT('',(1.55,1.625,10.));
#1295 = VECTOR('',#1296,1.);
#1296 = DIRECTION('',(0.,0.,-1.));
#1297 = ORIENTED_EDGE('',*,*,#1298,.F.);
#1298 = EDGE_CURVE('',#1260,#1291,#1299,.T.);
#1299 = LINE('',#1300,#1301);
#1300 = CARTESIAN_POINT('',(1.55,3.,10.));
#1301 = VECTOR('',#1302,1.);
#1302 = DIRECTION('',(0.,-1.,0.));
#1303 = PLANE('',#1304);
#1304 = AXIS2_PLACEMENT_3D('',#1305,#1306,#1307);
#1305 = CARTESIAN_POINT('',(1.55,3.,10.));
#1306 = DIRECTION('',(-1.,-0.,-0.));
#1307 = DIRECTION('',(0.,-1.,0.));
#1308 = ADVANCED_FACE('',(#1309),#1334,.F.);
#1309 = FACE_BOUND('',#1310,.F.);
#1310 = EDGE_LOOP('',(#1311,#1312,#1320,#1328));
#1311 = ORIENTED_EDGE('',*,*,#1290,.T.);
#1312 = ORIENTED_EDGE('',*,*,#1313,.T.);
#1313 = EDGE_CURVE('',#1283,#1314,#1316,.T.);
#1314 = VERTEX_POINT('',#1315);
#1315 = CARTESIAN_POINT('',(3.,1.625,0.));
#1316 = LINE('',#1317,#1318);
#1317 = CARTESIAN_POINT('',(1.55,1.625,0.));
#1318 = VECTOR('',#1319,1.);
#1319 = DIRECTION('',(1.,0.,0.));
#1320 = ORIENTED_EDGE('',*,*,#1321,.F.);
#1321 = EDGE_CURVE('',#1322,#1314,#1324,.T.);
#1322 = VERTEX_POINT('',#1323);
#1323 = CARTESIAN_POINT('',(3.,1.625,10.));
#1324 = LINE('',#1325,#1326);
#1325 = CARTESIAN_POINT('',(3.,1.625,10.));
#1326 = VECTOR('',#1327,1.);
#1327 = DIRECTION('',(0.,0.,-1.));
#1328 = ORIENTED_EDGE('',*,*,#1329,.F.);
#1329 = EDGE_CURVE('',#1291,#1322,#1330,.T.);
#1330 = LINE('',#1331,#1332);
#1331 = CARTESIAN_POINT('',(1.55,1.625,10.));
#1332 = VECTOR('',#1333,1.);
#1333 = DIRECTION('',(1.,0.,0.));
#1334 = PLANE('',#1335);
#1335 = AXIS2_PLACEMENT_3D('',#1336,#1337,#1338);
#1336 = CARTESIAN_POINT('',(1.55,1.625,10.));
#1337 = DIRECTION('',(0.,-1.,0.));
#1338 = DIRECTION('',(1.,0.,0.));
#1339 = ADVANCED_FACE('',(#1340),#1365,.F.);
#1340 = FACE_BOUND('',#1341,.F.);
#1341 = EDGE_LOOP('',(#1342,#1343,#1351,#1359));
#1342 = ORIENTED_EDGE('',*,*,#1321,.T.);
#1343 = ORIENTED_EDGE('',*,*,#1344,.T.);
#1344 = EDGE_CURVE('',#1314,#1345,#1347,.T.);
#1345 = VERTEX_POINT('',#1346);
#1346 = CARTESIAN_POINT('',(3.,-1.625,0.));
#1347 = LINE('',#1348,#1349);
#1348 = CARTESIAN_POINT('',(3.,1.625,0.));
#1349 = VECTOR('',#1350,1.);
#1350 = DIRECTION('',(0.,-1.,0.));
#1351 = ORIENTED_EDGE('',*,*,#1352,.F.);
#1352 = EDGE_CURVE('',#1353,#1345,#1355,.T.);
#1353 = VERTEX_POINT('',#1354);
#1354 = CARTESIAN_POINT('',(3.,-1.625,10.));
#1355 = LINE('',#1356,#1357);
#1356 = CARTESIAN_POINT('',(3.,-1.625,10.));
#1357 = VECTOR('',#1358,1.);
#1358 = DIRECTION('',(0.,0.,-1.));
#1359 = ORIENTED_EDGE('',*,*,#1360,.F.);
#1360 = EDGE_CURVE('',#1322,#1353,#1361,.T.);
#1361 = LINE('',#1362,#1363);
#1362 = CARTESIAN_POINT('',(3.,1.625,10.));
#1363 = VECTOR('',#1364,1.);
#1364 = DIRECTION('',(0.,-1.,0.));
#1365 = PLANE('',#1366);
#1366 = AXIS2_PLACEMENT_3D('',#1367,#1368,#1369);
#1367 = CARTESIAN_POINT('',(3.,1.625,10.));
#1368 = DIRECTION('',(-1.,-0.,-0.));
#1369 = DIRECTION('',(0.,-1.,0.));
#1370 = ADVANCED_FACE('',(#1371),#1396,.F.);
#1371 = FACE_BOUND('',#1372,.F.);
#1372 = EDGE_LOOP('',(#1373,#1374,#1382,#1390));
#1373 = ORIENTED_EDGE('',*,*,#1352,.T.);
#1374 = ORIENTED_EDGE('',*,*,#1375,.T.);
#1375 = EDGE_CURVE('',#1345,#1376,#1378,.T.);
#1376 = VERTEX_POINT('',#1377);
#1377 = CARTESIAN_POINT('',(1.55,-1.625,0.));
#1378 = LINE('',#1379,#1380);
#1379 = CARTESIAN_POINT('',(3.,-1.625,0.));
#1380 = VECTOR('',#1381,1.);
#1381 = DIRECTION('',(-1.,0.,0.));
#1382 = ORIENTED_EDGE('',*,*,#1383,.F.);
#1383 = EDGE_CURVE('',#1384,#1376,#1386,.T.);
#1384 = VERTEX_POINT('',#1385);
#1385 = CARTESIAN_POINT('',(1.55,-1.625,10.));
#1386 = LINE('',#1387,#1388);
#1387 = CARTESIAN_POINT('',(1.55,-1.625,10.));
#1388 = VECTOR('',#1389,1.);
#1389 = DIRECTION('',(0.,0.,-1.));
#1390 = ORIENTED_EDGE('',*,*,#1391,.F.);
#1391 = EDGE_CURVE('',#1353,#1384,#1392,.T.);
#1392 = LINE('',#1393,#1394);
#1393 = CARTESIAN_POINT('',(3.,-1.625,10.));
#1394 = VECTOR('',#1395,1.);
#1395 = DIRECTION('',(-1.,0.,0.));
#1396 = PLANE('',#1397);
#1397 = AXIS2_PLACEMENT_3D('',#1398,#1399,#1400);
#1398 = CARTESIAN_POINT('',(3.,-1.625,10.));
#1399 = DIRECTION('',(0.,1.,0.));
#1400 = DIRECTION('',(-1.,0.,0.));
#1401 = ADVANCED_FACE('',(#1402),#1427,.F.);
#1402 = FACE_BOUND('',#1403,.F.);
#1403 = EDGE_LOOP('',(#1404,#1405,#1413,#1421));
#1404 = ORIENTED_EDGE('',*,*,#1383,.T.);
#1405 = ORIENTED_EDGE('',*,*,#1406,.T.);
#1406 = EDGE_CURVE('',#1376,#1407,#1409,.T.);
#1407 = VERTEX_POINT('',#1408);
#1408 = CARTESIAN_POINT('',(1.55,-3.,0.));
#1409 = LINE('',#1410,#1411);
#1410 = CARTESIAN_POINT('',(1.55,-1.625,0.));
#1411 = VECTOR('',#1412,1.);
#1412 = DIRECTION('',(0.,-1.,0.));
#1413 = ORIENTED_EDGE('',*,*,#1414,.F.);
#1414 = EDGE_CURVE('',#1415,#1407,#1417,.T.);
#1415 = VERTEX_POINT('',#1416);
#1416 = CARTESIAN_POINT('',(1.55,-3.,10.));
#1417 = LINE('',#1418,#1419);
#1418 = CARTESIAN_POINT('',(1.55,-3.,10.));
#1419 = VECTOR('',#1420,1.);
#1420 = DIRECTION('',(0.,0.,-1.));
#1421 = ORIENTED_EDGE('',*,*,#1422,.F.);
#1422 = EDGE_CURVE('',#1384,#1415,#1423,.T.);
#1423 = LINE('',#1424,#1425);
#1424 = CARTESIAN_POINT('',(1.55,-1.625,10.));
#1425 = VECTOR('',#1426,1.);
#1426 = DIRECTION('',(0.,-1.,0.));
#1427 = PLANE('',#1428);
#1428 = AXIS2_PLACEMENT_3D('',#1429,#1430,#1431);
#1429 = CARTESIAN_POINT('',(1.55,-1.625,10.));
#1430 = DIRECTION('',(-1.,-0.,-0.));
#1431 = DIRECTION('',(0.,-1.,0.));
#1432 = ADVANCED_FACE('',(#1433),#1458,.F.);
#1433 = FACE_BOUND('',#1434,.F.);
#1434 = EDGE_LOOP('',(#1435,#1436,#1444,#1452));
#1435 = ORIENTED_EDGE('',*,*,#1414,.T.);
#1436 = ORIENTED_EDGE('',*,*,#1437,.T.);
#1437 = EDGE_CURVE('',#1407,#1438,#1440,.T.);
#1438 = VERTEX_POINT('',#1439);
#1439 = CARTESIAN_POINT('',(-1.55,-3.,0.));
#1440 = LINE('',#1441,#1442);
#1441 = CARTESIAN_POINT('',(1.55,-3.,0.));
#1442 = VECTOR('',#1443,1.);
#1443 = DIRECTION('',(-1.,0.,0.));
#1444 = ORIENTED_EDGE('',*,*,#1445,.F.);
#1445 = EDGE_CURVE('',#1446,#1438,#1448,.T.);
#1446 = VERTEX_POINT('',#1447);
#1447 = CARTESIAN_POINT('',(-1.55,-3.,10.));
#1448 = LINE('',#1449,#1450);
#1449 = CARTESIAN_POINT('',(-1.55,-3.,10.));
#1450 = VECTOR('',#1451,1.);
#1451 = DIRECTION('',(0.,0.,-1.));
#1452 = ORIENTED_EDGE('',*,*,#1453,.F.);
#1453 = EDGE_CURVE('',#1415,#1446,#1454,.T.);
#1454 = LINE('',#1455,#1456);
#1455 = CARTESIAN_POINT('',(1.55,-3.,10.));
#1456 = VECTOR('',#1457,1.);
#1457 = DIRECTION('',(-1.,0.,0.));
#1458 = PLANE('',#1459);
#1459 = AXIS2_PLACEMENT_3D('',#1460,#1461,#1462);
#1460 = CARTESIAN_POINT('',(1.55,-3.,10.));
#1461 = DIRECTION('',(0.,1.,0.));
#1462 = DIRECTION('',(-1.,0.,0.));
#1463 = ADVANCED_FACE('',(#1464),#1489,.F.);
#1464 = FACE_BOUND('',#1465,.F.);
#1465 = EDGE_LOOP('',(#1466,#1467,#1475,#1483));
#1466 = ORIENTED_EDGE('',*,*,#1445,.T.);
#1467 = ORIENTED_EDGE('',*,*,#1468,.T.);
#1468 = EDGE_CURVE('',#1438,#1469,#1471,.T.);
#1469 = VERTEX_POINT('',#1470);
#1470 = CARTESIAN_POINT('',(-1.55,-1.625,0.));
#1471 = LINE('',#1472,#1473);
#1472 = CARTESIAN_POINT('',(-1.55,-3.,0.));
#1473 = VECTOR('',#1474,1.);
#1474 = DIRECTION('',(0.,1.,0.));
#1475 = ORIENTED_EDGE('',*,*,#1476,.F.);
#1476 = EDGE_CURVE('',#1477,#1469,#1479,.T.);
#1477 = VERTEX_POINT('',#1478);
#1478 = CARTESIAN_POINT('',(-1.55,-1.625,10.));
#1479 = LINE('',#1480,#1481);
#1480 = CARTESIAN_POINT('',(-1.55,-1.625,10.));
#1481 = VECTOR('',#1482,1.);
#1482 = DIRECTION('',(0.,0.,-1.));
#1483 = ORIENTED_EDGE('',*,*,#1484,.F.);
#1484 = EDGE_CURVE('',#1446,#1477,#1485,.T.);
#1485 = LINE('',#1486,#1487);
#1486 = CARTESIAN_POINT('',(-1.55,-3.,10.));
#1487 = VECTOR('',#1488,1.);
#1488 = DIRECTION('',(0.,1.,0.));
#1489 = PLANE('',#1490);
#1490 = AXIS2_PLACEMENT_3D('',#1491,#1492,#1493);
#1491 = CARTESIAN_POINT('',(-1.55,-3.,10.));
#1492 = DIRECTION('',(1.,-0.,0.));
#1493 = DIRECTION('',(0.,1.,0.));
#1494 = ADVANCED_FACE('',(#1495),#1520,.F.);
#1495 = FACE_BOUND('',#1496,.F.);
#1496 = EDGE_LOOP('',(#1497,#1498,#1506,#1514));
#1497 = ORIENTED_EDGE('',*,*,#1476,.T.);
#1498 = ORIENTED_EDGE('',*,*,#1499,.T.);
#1499 = EDGE_CURVE('',#1469,#1500,#1502,.T.);
#1500 = VERTEX_POINT('',#1501);
#1501 = CARTESIAN_POINT('',(-3.,-1.625,0.));
#1502 = LINE('',#1503,#1504);
#1503 = CARTESIAN_POINT('',(-1.55,-1.625,0.));
#1504 = VECTOR('',#1505,1.);
#1505 = DIRECTION('',(-1.,0.,0.));
#1506 = ORIENTED_EDGE('',*,*,#1507,.F.);
#1507 = EDGE_CURVE('',#1508,#1500,#1510,.T.);
#1508 = VERTEX_POINT('',#1509);
#1509 = CARTESIAN_POINT('',(-3.,-1.625,10.));
#1510 = LINE('',#1511,#1512);
#1511 = CARTESIAN_POINT('',(-3.,-1.625,10.));
#1512 = VECTOR('',#1513,1.);
#1513 = DIRECTION('',(0.,0.,-1.));
#1514 = ORIENTED_EDGE('',*,*,#1515,.F.);
#1515 = EDGE_CURVE('',#1477,#1508,#1516,.T.);
#1516 = LINE('',#1517,#1518);
#1517 = CARTESIAN_POINT('',(-1.55,-1.625,10.));
#1518 = VECTOR('',#1519,1.);
#1519 = DIRECTION('',(-1.,0.,0.));
#1520 = PLANE('',#1521);
#1521 = AXIS2_PLACEMENT_3D('',#1522,#1523,#1524);
#1522 = CARTESIAN_POINT('',(-1.55,-1.625,10.));
#1523 = DIRECTION('',(0.,1.,0.));
#1524 = DIRECTION('',(-1.,0.,0.));
#1525 = ADVANCED_FACE('',(#1526),#1542,.F.);
#1526 = FACE_BOUND('',#1527,.F.);
#1527 = EDGE_LOOP('',(#1528,#1529,#1535,#1536));
#1528 = ORIENTED_EDGE('',*,*,#1507,.T.);
#1529 = ORIENTED_EDGE('',*,*,#1530,.T.);
#1530 = EDGE_CURVE('',#1500,#1182,#1531,.T.);
#1531 = LINE('',#1532,#1533);
#1532 = CARTESIAN_POINT('',(-3.,-1.625,0.));
#1533 = VECTOR('',#1534,1.);
#1534 = DIRECTION('',(0.,1.,0.));
#1535 = ORIENTED_EDGE('',*,*,#1179,.F.);
#1536 = ORIENTED_EDGE('',*,*,#1537,.F.);
#1537 = EDGE_CURVE('',#1508,#1180,#1538,.T.);
#1538 = LINE('',#1539,#1540);
#1539 = CARTESIAN_POINT('',(-3.,-1.625,10.));
#1540 = VECTOR('',#1541,1.);
#1541 = DIRECTION('',(0.,1.,0.));
#1542 = PLANE('',#1543);
#1543 = AXIS2_PLACEMENT_3D('',#1544,#1545,#1546);
#1544 = CARTESIAN_POINT('',(-3.,-1.625,10.));
#1545 = DIRECTION('',(1.,-0.,0.));
#1546 = DIRECTION('',(0.,1.,0.));
#1547 = ADVANCED_FACE('',(#1548),#1582,.T.);
#1548 = FACE_BOUND('',#1549,.T.);
#1549 = EDGE_LOOP('',(#1550,#1560,#1568,#1576));
#1550 = ORIENTED_EDGE('',*,*,#1551,.T.);
#1551 = EDGE_CURVE('',#1552,#1554,#1556,.T.);
#1552 = VERTEX_POINT('',#1553);
#1553 = CARTESIAN_POINT('',(-2.,0.625,10.));
#1554 = VERTEX_POINT('',#1555);
#1555 = CARTESIAN_POINT('',(-2.,0.625,0.));
#1556 = LINE('',#1557,#1558);
#1557 = CARTESIAN_POINT('',(-2.,0.625,10.));
#1558 = VECTOR('',#1559,1.);
#1559 = DIRECTION('',(0.,0.,-1.));
#1560 = ORIENTED_EDGE('',*,*,#1561,.T.);
#1561 = EDGE_CURVE('',#1554,#1562,#1564,.T.);
#1562 = VERTEX_POINT('',#1563);
#1563 = CARTESIAN_POINT('',(-0.55,0.625,0.));
#1564 = LINE('',#1565,#1566);
#1565 = CARTESIAN_POINT('',(-2.,0.625,0.));
#1566 = VECTOR('',#1567,1.);
#1567 = DIRECTION('',(1.,0.,0.));
#1568 = ORIENTED_EDGE('',*,*,#1569,.F.);
#1569 = EDGE_CURVE('',#1570,#1562,#1572,.T.);
#1570 = VERTEX_POINT('',#1571);
#1571 = CARTESIAN_POINT('',(-0.55,0.625,10.));
#1572 = LINE('',#1573,#1574);
#1573 = CARTESIAN_POINT('',(-0.55,0.625,10.));
#1574 = VECTOR('',#1575,1.);
#1575 = DIRECTION('',(0.,0.,-1.));
#1576 = ORIENTED_EDGE('',*,*,#1577,.F.);
#1577 = EDGE_CURVE('',#1552,#1570,#1578,.T.);
#1578 = LINE('',#1579,#1580);
#1579 = CARTESIAN_POINT('',(-2.,0.625,10.));
#1580 = VECTOR('',#1581,1.);
#1581 = DIRECTION('',(1.,0.,0.));
#1582 = PLANE('',#1583);
#1583 = AXIS2_PLACEMENT_3D('',#1584,#1585,#1586);
#1584 = CARTESIAN_POINT('',(-2.,0.625,10.));
#1585 = DIRECTION('',(0.,-1.,0.));
#1586 = DIRECTION('',(1.,0.,0.));
#1587 = ADVANCED_FACE('',(#1588),#1613,.T.);
#1588 = FACE_BOUND('',#1589,.T.);
#1589 = EDGE_LOOP('',(#1590,#1591,#1599,#1607));
#1590 = ORIENTED_EDGE('',*,*,#1569,.T.);
#1591 = ORIENTED_EDGE('',*,*,#1592,.T.);
#1592 = EDGE_CURVE('',#1562,#1593,#1595,.T.);
#1593 = VERTEX_POINT('',#1594);
#1594 = CARTESIAN_POINT('',(-0.55,2.,0.));
#1595 = LINE('',#1596,#1597);
#1596 = CARTESIAN_POINT('',(-0.55,0.625,0.));
#1597 = VECTOR('',#1598,1.);
#1598 = DIRECTION('',(0.,1.,0.));
#1599 = ORIENTED_EDGE('',*,*,#1600,.F.);
#1600 = EDGE_CURVE('',#1601,#1593,#1603,.T.);
#1601 = VERTEX_POINT('',#1602);
#1602 = CARTESIAN_POINT('',(-0.55,2.,10.));
#1603 = LINE('',#1604,#1605);
#1604 = CARTESIAN_POINT('',(-0.55,2.,10.));
#1605 = VECTOR('',#1606,1.);
#1606 = DIRECTION('',(0.,0.,-1.));
#1607 = ORIENTED_EDGE('',*,*,#1608,.F.);
#1608 = EDGE_CURVE('',#1570,#1601,#1609,.T.);
#1609 = LINE('',#1610,#1611);
#1610 = CARTESIAN_POINT('',(-0.55,0.625,10.));
#1611 = VECTOR('',#1612,1.);
#1612 = DIRECTION('',(0.,1.,0.));
#1613 = PLANE('',#1614);
#1614 = AXIS2_PLACEMENT_3D('',#1615,#1616,#1617);
#1615 = CARTESIAN_POINT('',(-0.55,0.625,10.));
#1616 = DIRECTION('',(1.,-0.,0.));
#1617 = DIRECTION('',(0.,1.,0.));
#1618 = ADVANCED_FACE('',(#1619),#1644,.T.);
#1619 = FACE_BOUND('',#1620,.T.);
#1620 = EDGE_LOOP('',(#1621,#1622,#1630,#1638));
#1621 = ORIENTED_EDGE('',*,*,#1600,.T.);
#1622 = ORIENTED_EDGE('',*,*,#1623,.T.);
#1623 = EDGE_CURVE('',#1593,#1624,#1626,.T.);
#1624 = VERTEX_POINT('',#1625);
#1625 = CARTESIAN_POINT('',(0.55,2.,0.));
#1626 = LINE('',#1627,#1628);
#1627 = CARTESIAN_POINT('',(-0.55,2.,0.));
#1628 = VECTOR('',#1629,1.);
#1629 = DIRECTION('',(1.,0.,0.));
#1630 = ORIENTED_EDGE('',*,*,#1631,.F.);
#1631 = EDGE_CURVE('',#1632,#1624,#1634,.T.);
#1632 = VERTEX_POINT('',#1633);
#1633 = CARTESIAN_POINT('',(0.55,2.,10.));
#1634 = LINE('',#1635,#1636);
#1635 = CARTESIAN_POINT('',(0.55,2.,10.));
#1636 = VECTOR('',#1637,1.);
#1637 = DIRECTION('',(0.,0.,-1.));
#1638 = ORIENTED_EDGE('',*,*,#1639,.F.);
#1639 = EDGE_CURVE('',#1601,#1632,#1640,.T.);
#1640 = LINE('',#1641,#1642);
#1641 = CARTESIAN_POINT('',(-0.55,2.,10.));
#1642 = VECTOR('',#1643,1.);
#1643 = DIRECTION('',(1.,0.,0.));
#1644 = PLANE('',#1645);
#1645 = AXIS2_PLACEMENT_3D('',#1646,#1647,#1648);
#1646 = CARTESIAN_POINT('',(-0.55,2.,10.));
#1647 = DIRECTION('',(0.,-1.,0.));
#1648 = DIRECTION('',(1.,0.,0.));
#1649 = ADVANCED_FACE('',(#1650),#1675,.T.);
#1650 = FACE_BOUND('',#1651,.T.);
#1651 = EDGE_LOOP('',(#1652,#1653,#1661,#1669));
#1652 = ORIENTED_EDGE('',*,*,#1631,.T.);
#1653 = ORIENTED_EDGE('',*,*,#1654,.T.);
#1654 = EDGE_CURVE('',#1624,#1655,#1657,.T.);
#1655 = VERTEX_POINT('',#1656);
#1656 = CARTESIAN_POINT('',(0.55,0.625,0.));
#1657 = LINE('',#1658,#1659);
#1658 = CARTESIAN_POINT('',(0.55,2.,0.));
#1659 = VECTOR('',#1660,1.);
#1660 = DIRECTION('',(0.,-1.,0.));
#1661 = ORIENTED_EDGE('',*,*,#1662,.F.);
#1662 = EDGE_CURVE('',#1663,#1655,#1665,.T.);
#1663 = VERTEX_POINT('',#1664);
#1664 = CARTESIAN_POINT('',(0.55,0.625,10.));
#1665 = LINE('',#1666,#1667);
#1666 = CARTESIAN_POINT('',(0.55,0.625,10.));
#1667 = VECTOR('',#1668,1.);
#1668 = DIRECTION('',(0.,0.,-1.));
#1669 = ORIENTED_EDGE('',*,*,#1670,.F.);
#1670 = EDGE_CURVE('',#1632,#1663,#1671,.T.);
#1671 = LINE('',#1672,#1673);
#1672 = CARTESIAN_POINT('',(0.55,2.,10.));
#1673 = VECTOR('',#1674,1.);
#1674 = DIRECTION('',(0.,-1.,0.));
#1675 = PLANE('',#1676);
#1676 = AXIS2_PLACEMENT_3D('',#1677,#1678,#1679);
#1677 = CARTESIAN_POINT('',(0.55,2.,10.));
#1678 = DIRECTION('',(-1.,-0.,-0.));
#1679 = DIRECTION('',(0.,-1.,0.));
#1680 = ADVANCED_FACE('',(#1681),#1706,.T.);
#1681 = FACE_BOUND('',#1682,.T.);
#1682 = EDGE_LOOP('',(#1683,#1684,#1692,#1700));
#1683 = ORIENTED_EDGE('',*,*,#1662,.T.);
#1684 = ORIENTED_EDGE('',*,*,#1685,.T.);
#1685 = EDGE_CURVE('',#1655,#1686,#1688,.T.);
#1686 = VERTEX_POINT('',#1687);
#1687 = CARTESIAN_POINT('',(2.,0.625,0.));
#1688 = LINE('',#1689,#1690);
#1689 = CARTESIAN_POINT('',(0.55,0.625,0.));
#1690 = VECTOR('',#1691,1.);
#1691 = DIRECTION('',(1.,0.,0.));
#1692 = ORIENTED_EDGE('',*,*,#1693,.F.);
#1693 = EDGE_CURVE('',#1694,#1686,#1696,.T.);
#1694 = VERTEX_POINT('',#1695);
#1695 = CARTESIAN_POINT('',(2.,0.625,10.));
#1696 = LINE('',#1697,#1698);
#1697 = CARTESIAN_POINT('',(2.,0.625,10.));
#1698 = VECTOR('',#1699,1.);
#1699 = DIRECTION('',(0.,0.,-1.));
#1700 = ORIENTED_EDGE('',*,*,#1701,.F.);
#1701 = EDGE_CURVE('',#1663,#1694,#1702,.T.);
#1702 = LINE('',#1703,#1704);
#1703 = CARTESIAN_POINT('',(0.55,0.625,10.));
#1704 = VECTOR('',#1705,1.);
#1705 = DIRECTION('',(1.,0.,0.));
#1706 = PLANE('',#1707);
#1707 = AXIS2_PLACEMENT_3D('',#1708,#1709,#1710);
#1708 = CARTESIAN_POINT('',(0.55,0.625,10.));
#1709 = DIRECTION('',(0.,-1.,0.));
#1710 = DIRECTION('',(1.,0.,0.));
#1711 = ADVANCED_FACE('',(#1712),#1737,.T.);
#1712 = FACE_BOUND('',#1713,.T.);
#1713 = EDGE_LOOP('',(#1714,#1715,#1723,#1731));
#1714 = ORIENTED_EDGE('',*,*,#1693,.T.);
#1715 = ORIENTED_EDGE('',*,*,#1716,.T.);
#1716 = EDGE_CURVE('',#1686,#1717,#1719,.T.);
#1717 = VERTEX_POINT('',#1718);
#1718 = CARTESIAN_POINT('',(2.,-0.625,0.));
#1719 = LINE('',#1720,#1721);
#1720 = CARTESIAN_POINT('',(2.,0.625,0.));
#1721 = VECTOR('',#1722,1.);
#1722 = DIRECTION('',(0.,-1.,0.));
#1723 = ORIENTED_EDGE('',*,*,#1724,.F.);
#1724 = EDGE_CURVE('',#1725,#1717,#1727,.T.);
#1725 = VERTEX_POINT('',#1726);
#1726 = CARTESIAN_POINT('',(2.,-0.625,10.));
#1727 = LINE('',#1728,#1729);
#1728 = CARTESIAN_POINT('',(2.,-0.625,10.));
#1729 = VECTOR('',#1730,1.);
#1730 = DIRECTION('',(0.,0.,-1.));
#1731 = ORIENTED_EDGE('',*,*,#1732,.F.);
#1732 = EDGE_CURVE('',#1694,#1725,#1733,.T.);
#1733 = LINE('',#1734,#1735);
#1734 = CARTESIAN_POINT('',(2.,0.625,10.));
#1735 = VECTOR('',#1736,1.);
#1736 = DIRECTION('',(0.,-1.,0.));
#1737 = PLANE('',#1738);
#1738 = AXIS2_PLACEMENT_3D('',#1739,#1740,#1741);
#1739 = CARTESIAN_POINT('',(2.,0.625,10.));
#1740 = DIRECTION('',(-1.,-0.,-0.));
#1741 = DIRECTION('',(0.,-1.,0.));
#1742 = ADVANCED_FACE('',(#1743),#1768,.T.);
#1743 = FACE_BOUND('',#1744,.T.);
#1744 = EDGE_LOOP('',(#1745,#1746,#1754,#1762));
#1745 = ORIENTED_EDGE('',*,*,#1724,.T.);
#1746 = ORIENTED_EDGE('',*,*,#1747,.T.);
#1747 = EDGE_CURVE('',#1717,#1748,#1750,.T.);
#1748 = VERTEX_POINT('',#1749);
#1749 = CARTESIAN_POINT('',(0.55,-0.625,0.));
#1750 = LINE('',#1751,#1752);
#1751 = CARTESIAN_POINT('',(2.,-0.625,0.));
#1752 = VECTOR('',#1753,1.);
#1753 = DIRECTION('',(-1.,0.,0.));
#1754 = ORIENTED_EDGE('',*,*,#1755,.F.);
#1755 = EDGE_CURVE('',#1756,#1748,#1758,.T.);
#1756 = VERTEX_POINT('',#1757);
#1757 = CARTESIAN_POINT('',(0.55,-0.625,10.));
#1758 = LINE('',#1759,#1760);
#1759 = CARTESIAN_POINT('',(0.55,-0.625,10.));
#1760 = VECTOR('',#1761,1.);
#1761 = DIRECTION('',(0.,0.,-1.));
#1762 = ORIENTED_EDGE('',*,*,#1763,.F.);
#1763 = EDGE_CURVE('',#1725,#1756,#1764,.T.);
#1764 = LINE('',#1765,#1766);
#1765 = CARTESIAN_POINT('',(2.,-0.625,10.));
#1766 = VECTOR('',#1767,1.);
#1767 = DIRECTION('',(-1.,0.,0.));
#1768 = PLANE('',#1769);
#1769 = AXIS2_PLACEMENT_3D('',#1770,#1771,#1772);
#1770 = CARTESIAN_POINT('',(2.,-0.625,10.));
#1771 = DIRECTION('',(0.,1.,0.));
#1772 = DIRECTION('',(-1.,0.,0.));
#1773 = ADVANCED_FACE('',(#1774),#1799,.T.);
#1774 = FACE_BOUND('',#1775,.T.);
#1775 = EDGE_LOOP('',(#1776,#1777,#1785,#1793));
#1776 = ORIENTED_EDGE('',*,*,#1755,.T.);
#1777 = ORIENTED_EDGE('',*,*,#1778,.T.);
#1778 = EDGE_CURVE('',#1748,#1779,#1781,.T.);
#1779 = VERTEX_POINT('',#1780);
#1780 = CARTESIAN_POINT('',(0.55,-2.,0.));
#1781 = LINE('',#1782,#1783);
#1782 = CARTESIAN_POINT('',(0.55,-0.625,0.));
#1783 = VECTOR('',#1784,1.);
#1784 = DIRECTION('',(0.,-1.,0.));
#1785 = ORIENTED_EDGE('',*,*,#1786,.F.);
#1786 = EDGE_CURVE('',#1787,#1779,#1789,.T.);
#1787 = VERTEX_POINT('',#1788);
#1788 = CARTESIAN_POINT('',(0.55,-2.,10.));
#1789 = LINE('',#1790,#1791);
#1790 = CARTESIAN_POINT('',(0.55,-2.,10.));
#1791 = VECTOR('',#1792,1.);
#1792 = DIRECTION('',(0.,0.,-1.));
#1793 = ORIENTED_EDGE('',*,*,#1794,.F.);
#1794 = EDGE_CURVE('',#1756,#1787,#1795,.T.);
#1795 = LINE('',#1796,#1797);
#1796 = CARTESIAN_POINT('',(0.55,-0.625,10.));
#1797 = VECTOR('',#1798,1.);
#1798 = DIRECTION('',(0.,-1.,0.));
#1799 = PLANE('',#1800);
#1800 = AXIS2_PLACEMENT_3D('',#1801,#1802,#1803);
#1801 = CARTESIAN_POINT('',(0.55,-0.625,10.));
#1802 = DIRECTION('',(-1.,-0.,-0.));
#1803 = DIRECTION('',(0.,-1.,0.));
#1804 = ADVANCED_FACE('',(#1805),#1830,.T.);
#1805 = FACE_BOUND('',#1806,.T.);
#1806 = EDGE_LOOP('',(#1807,#1808,#1816,#1824));
#1807 = ORIENTED_EDGE('',*,*,#1786,.T.);
#1808 = ORIENTED_EDGE('',*,*,#1809,.T.);
#1809 = EDGE_CURVE('',#1779,#1810,#1812,.T.);
#1810 = VERTEX_POINT('',#1811);
#1811 = CARTESIAN_POINT('',(-0.55,-2.,0.));
#1812 = LINE('',#1813,#1814);
#1813 = CARTESIAN_POINT('',(0.55,-2.,0.));
#1814 = VECTOR('',#1815,1.);
#1815 = DIRECTION('',(-1.,0.,0.));
#1816 = ORIENTED_EDGE('',*,*,#1817,.F.);
#1817 = EDGE_CURVE('',#1818,#1810,#1820,.T.);
#1818 = VERTEX_POINT('',#1819);
#1819 = CARTESIAN_POINT('',(-0.55,-2.,10.));
#1820 = LINE('',#1821,#1822);
#1821 = CARTESIAN_POINT('',(-0.55,-2.,10.));
#1822 = VECTOR('',#1823,1.);
#1823 = DIRECTION('',(0.,0.,-1.));
#1824 = ORIENTED_EDGE('',*,*,#1825,.F.);
#1825 = EDGE_CURVE('',#1787,#1818,#1826,.T.);
#1826 = LINE('',#1827,#1828);
#1827 = CARTESIAN_POINT('',(0.55,-2.,10.));
#1828 = VECTOR('',#1829,1.);
#1829 = DIRECTION('',(-1.,0.,0.));
#1830 = PLANE('',#1831);
#1831 = AXIS2_PLACEMENT_3D('',#1832,#1833,#1834);
#1832 = CARTESIAN_POINT('',(0.55,-2.,10.));
#1833 = DIRECTION('',(0.,1.,0.));
#1834 = DIRECTION('',(-1.,0.,0.));
#1835 = ADVANCED_FACE('',(#1836),#1861,.T.);
#1836 = FACE_BOUND('',#1837,.T.);
#1837 = EDGE_LOOP('',(#1838,#1839,#1847,#1855));
#1838 = ORIENTED_EDGE('',*,*,#1817,.T.);
#1839 = ORIENTED_EDGE('',*,*,#1840,.T.);
#1840 = EDGE_CURVE('',#1810,#1841,#1843,.T.);
#1841 = VERTEX_POINT('',#1842);
#1842 = CARTESIAN_POINT('',(-0.55,-0.625,0.));
#1843 = LINE('',#1844,#1845);
#1844 = CARTESIAN_POINT('',(-0.55,-2.,0.));
#1845 = VECTOR('',#1846,1.);
#1846 = DIRECTION('',(0.,1.,0.));
#1847 = ORIENTED_EDGE('',*,*,#1848,.F.);
#1848 = EDGE_CURVE('',#1849,#1841,#1851,.T.);
#1849 = VERTEX_POINT('',#1850);
#1850 = CARTESIAN_POINT('',(-0.55,-0.625,10.));
#1851 = LINE('',#1852,#1853);
#1852 = CARTESIAN_POINT('',(-0.55,-0.625,10.));
#1853 = VECTOR('',#1854,1.);
#1854 = DIRECTION('',(0.,0.,-1.));
#1855 = ORIENTED_EDGE('',*,*,#1856,.F.);
#1856 = EDGE_CURVE('',#1818,#1849,#1857,.T.);
#1857 = LINE('',#1858,#1859);
#1858 = CARTESIAN_POINT('',(-0.55,-2.,10.));
#1859 = VECTOR('',#1860,1.);
#1860 = DIRECTION('',(0.,1.,0.));
#1861 = PLANE('',#1862);
#1862 = AXIS2_PLACEMENT_3D('',#1863,#1864,#1865);
#1863 = CARTESIAN_POINT('',(-0.55,-2.,10.));
#1864 = DIRECTION('',(1.,-0.,0.));
#1865 = DIRECTION('',(0.,1.,0.));
#1866 = ADVANCED_FACE('',(#1867),#1892,.T.);
#1867 = FACE_BOUND('',#1868,.T.);
#1868 = EDGE_LOOP('',(#1869,#1870,#1878,#1886));
#1869 = ORIENTED_EDGE('',*,*,#1848,.T.);
#1870 = ORIENTED_EDGE('',*,*,#1871,.T.);
#1871 = EDGE_CURVE('',#1841,#1872,#1874,.T.);
#1872 = VERTEX_POINT('',#1873);
#1873 = CARTESIAN_POINT('',(-2.,-0.625,0.));
#1874 = LINE('',#1875,#1876);
#1875 = CARTESIAN_POINT('',(-0.55,-0.625,0.));
#1876 = VECTOR('',#1877,1.);
#1877 = DIRECTION('',(-1.,0.,0.));
#1878 = ORIENTED_EDGE('',*,*,#1879,.F.);
#1879 = EDGE_CURVE('',#1880,#1872,#1882,.T.);
#1880 = VERTEX_POINT('',#1881);
#1881 = CARTESIAN_POINT('',(-2.,-0.625,10.));
#1882 = LINE('',#1883,#1884);
#1883 = CARTESIAN_POINT('',(-2.,-0.625,10.));
#1884 = VECTOR('',#1885,1.);
#1885 = DIRECTION('',(0.,0.,-1.));
#1886 = ORIENTED_EDGE('',*,*,#1887,.F.);
#1887 = EDGE_CURVE('',#1849,#1880,#1888,.T.);
#1888 = LINE('',#1889,#1890);
#1889 = CARTESIAN_POINT('',(-0.55,-0.625,10.));
#1890 = VECTOR('',#1891,1.);
#1891 = DIRECTION('',(-1.,0.,0.));
#1892 = PLANE('',#1893);
#1893 = AXIS2_PLACEMENT_3D('',#1894,#1895,#1896);
#1894 = CARTESIAN_POINT('',(-0.55,-0.625,10.));
#1895 = DIRECTION('',(0.,1.,0.));
#1896 = DIRECTION('',(-1.,0.,0.));
#1897 = ADVANCED_FACE('',(#1898),#1914,.T.);
#1898 = FACE_BOUND('',#1899,.T.);
#1899 = EDGE_LOOP('',(#1900,#1901,#1907,#1908));
#1900 = ORIENTED_EDGE('',*,*,#1879,.T.);
#1901 = ORIENTED_EDGE('',*,*,#1902,.T.);
#1902 = EDGE_CURVE('',#1872,#1554,#1903,.T.);
#1903 = LINE('',#1904,#1905);
#1904 = CARTESIAN_POINT('',(-2.,-0.625,0.));
#1905 = VECTOR('',#1906,1.);
#1906 = DIRECTION('',(0.,1.,0.));
#1907 = ORIENTED_EDGE('',*,*,#1551,.F.);
#1908 = ORIENTED_EDGE('',*,*,#1909,.F.);
#1909 = EDGE_CURVE('',#1880,#1552,#1910,.T.);
#1910 = LINE('',#1911,#1912);
#1911 = CARTESIAN_POINT('',(-2.,-0.625,10.));
#1912 = VECTOR('',#1913,1.);
#1913 = DIRECTION('',(0.,1.,0.));
#1914 = PLANE('',#1915);
#1915 = AXIS2_PLACEMENT_3D('',#1916,#1917,#1918);
#1916 = CARTESIAN_POINT('',(-2.,-0.625,10.));
#1917 = DIRECTION('',(1.,-0.,0.));
#1918 = DIRECTION('',(0.,1.,0.));
#1919 = ADVANCED_FACE('',(#1920,#1934),#1948,.T.);
#1920 = FACE_BOUND('',#1921,.F.);
#1921 = EDGE_LOOP('',(#1922,#1923,#1924,#1925,#1926,#1927,#1928,#1929,
    #1930,#1931,#1932,#1933));
#1922 = ORIENTED_EDGE('',*,*,#1205,.T.);
#1923 = ORIENTED_EDGE('',*,*,#1236,.T.);
#1924 = ORIENTED_EDGE('',*,*,#1267,.T.);
#1925 = ORIENTED_EDGE('',*,*,#1298,.T.);
#1926 = ORIENTED_EDGE('',*,*,#1329,.T.);
#1927 = ORIENTED_EDGE('',*,*,#1360,.T.);
#1928 = ORIENTED_EDGE('',*,*,#1391,.T.);
#1929 = ORIENTED_EDGE('',*,*,#1422,.T.);
#1930 = ORIENTED_EDGE('',*,*,#1453,.T.);
#1931 = ORIENTED_EDGE('',*,*,#1484,.T.);
#1932 = ORIENTED_EDGE('',*,*,#1515,.T.);
#1933 = ORIENTED_EDGE('',*,*,#1537,.T.);
#1934 = FACE_BOUND('',#1935,.T.);
#1935 = EDGE_LOOP('',(#1936,#1937,#1938,#1939,#1940,#1941,#1942,#1943,
    #1944,#1945,#1946,#1947));
#1936 = ORIENTED_EDGE('',*,*,#1577,.T.);
#1937 = ORIENTED_EDGE('',*,*,#1608,.T.);
#1938 = ORIENTED_EDGE('',*,*,#1639,.T.);
#1939 = ORIENTED_EDGE('',*,*,#1670,.T.);
#1940 = ORIENTED_EDGE('',*,*,#1701,.T.);
#1941 = ORIENTED_EDGE('',*,*,#1732,.T.);
#1942 = ORIENTED_EDGE('',*,*,#1763,.T.);
#1943 = ORIENTED_EDGE('',*,*,#1794,.T.);
#1944 = ORIENTED_EDGE('',*,*,#1825,.T.);
#1945 = ORIENTED_EDGE('',*,*,#1856,.T.);
#1946 = ORIENTED_EDGE('',*,*,#1887,.T.);
#1947 = ORIENTED_EDGE('',*,*,#1909,.T.);
#1948 = PLANE('',#1949);
#1949 = AXIS2_PLACEMENT_3D('',#1950,#1951,#1952);
#1950 = CARTESIAN_POINT('',(4.E-17,4.E-17,10.));
#1951 = DIRECTION('',(0.,0.,1.));
#1952 = DIRECTION('',(1.,0.,-0.));
#1953 = ADVANCED_FACE('',(#1954,#1968),#1982,.F.);
#1954 = FACE_BOUND('',#1955,.T.);
#1955 = EDGE_LOOP('',(#1956,#1957,#1958,#1959,#1960,#1961,#1962,#1963,
    #1964,#1965,#1966,#1967));
#1956 = ORIENTED_EDGE('',*,*,#1189,.T.);
#1957 = ORIENTED_EDGE('',*,*,#1220,.T.);
#1958 = ORIENTED_EDGE('',*,*,#1251,.T.);
#1959 = ORIENTED_EDGE('',*,*,#1282,.T.);
#1960 = ORIENTED_EDGE('',*,*,#1313,.T.);
#1961 = ORIENTED_EDGE('',*,*,#1344,.T.);
#1962 = ORIENTED_EDGE('',*,*,#1375,.T.);
#1963 = ORIENTED_EDGE('',*,*,#1406,.T.);
#1964 = ORIENTED_EDGE('',*,*,#1437,.T.);
#1965 = ORIENTED_EDGE('',*,*,#1468,.T.);
#1966 = ORIENTED_EDGE('',*,*,#1499,.T.);
#1967 = ORIENTED_EDGE('',*,*,#1530,.T.);
#1968 = FACE_BOUND('',#1969,.F.);
#1969 = EDGE_LOOP('',(#1970,#1971,#1972,#1973,#1974,#1975,#1976,#1977,
    #1978,#1979,#1980,#1981));
#1970 = ORIENTED_EDGE('',*,*,#1561,.T.);
#1971 = ORIENTED_EDGE('',*,*,#1592,.T.);
#1972 = ORIENTED_EDGE('',*,*,#1623,.T.);
#1973 = ORIENTED_EDGE('',*,*,#1654,.T.);
#1974 = ORIENTED_EDGE('',*,*,#1685,.T.);
#1975 = ORIENTED_EDGE('',*,*,#1716,.T.);
#1976 = ORIENTED_EDGE('',*,*,#1747,.T.);
#1977 = ORIENTED_EDGE('',*,*,#1778,.T.);
#1978 = ORIENTED_EDGE('',*,*,#1809,.T.);
#1979 = ORIENTED_EDGE('',*,*,#1840,.T.);
#1980 = ORIENTED_EDGE('',*,*,#1871,.T.);
#1981 = ORIENTED_EDGE('',*,*,#1902,.T.);
#1982 = PLANE('',#1983);
#1983 = AXIS2_PLACEMENT_3D('',#1984,#1985,#1986);
#1984 = CARTESIAN_POINT('',(4.E-17,4.E-17,-1.7763568394E-15));
#1985 = DIRECTION('',(0.,0.,1.));
#1986 = DIRECTION('',(1.,0.,0.));
#1987 = ( GEOMETRIC_REPRESENTATION_CONTEXT(3) 
GLOBAL_UNCERTAINTY_ASSIGNED_CONTEXT((#1991)) 
GLOBAL_UNIT_ASSIGNED_CONTEXT((#1988,#1989,#1990)) REPRESENTATION_CONTEXT
('Context #1','3D Context with UNIT and UNCERTAINTY') );
#1988 = ( LENGTH_UNIT() NAMED_UNIT(*) SI_UNIT(.MILLI.,.METRE.) );
#1989 = ( NAMED_UNIT(*) PLANE_ANGLE_UNIT() SI_UNIT($,.RADIAN.) );
#1990 = ( NAMED_UNIT(*) SI_UNIT($,.STERADIAN.) SOLID_ANGLE_UNIT() );
#1991 = UNCERTAINTY_MEASURE_WITH_UNIT(LENGTH_MEASURE(1.E-07),#1988,
  'distance_accuracy_value','confusion accuracy');
#1992 = CONTEXT_DEPENDENT_SHAPE_REPRESENTATION(#1993,#1995);
#1993 = ( REPRESENTATION_RELATIONSHIP('','',#1172,#10) 
REPRESENTATION_RELATIONSHIP_WITH_TRANSFORMATION(#1994) 
SHAPE_REPRESENTATION_RELATIONSHIP() );
#1994 = ITEM_DEFINED_TRANSFORMATION('','',#11,#23);
#1995 = PRODUCT_DEFINITION_SHAPE('Placement','Placement of an item',
  #1996);
#1996 = NEXT_ASSEMBLY_USAGE_OCCURRENCE('9','Extrude003','',#5,#1167,$);
#1997 = PRODUCT_RELATED_PRODUCT_CATEGORY('part',$,(#1169));
#1998 = MECHANICAL_DESIGN_GEOMETRIC_PRESENTATION_REPRESENTATION('',(
    #1999),#1154);
#1999 = STYLED_ITEM('color',(#2000),#558);
#2000 = PRESENTATION_STYLE_ASSIGNMENT((#2001,#2007));
#2001 = SURFACE_STYLE_USAGE(.BOTH.,#2002);
#2002 = SURFACE_SIDE_STYLE('',(#2003));
#2003 = SURFACE_STYLE_FILL_AREA(#2004);
#2004 = FILL_AREA_STYLE('',(#2005));
#2005 = FILL_AREA_STYLE_COLOUR('',#2006);
#2006 = COLOUR_RGB('',0.447058818107,0.474509808674,0.501960817233);
#2007 = CURVE_STYLE('',#2008,POSITIVE_LENGTH_MEASURE(0.1),#2009);
#2008 = DRAUGHTING_PRE_DEFINED_CURVE_FONT('continuous');
#2009 = COLOUR_RGB('',9.803921802644E-02,9.803921802644E-02,
  9.803921802644E-02);
#2010 = MECHANICAL_DESIGN_GEOMETRIC_PRESENTATION_REPRESENTATION('',(
    #2011,#2021),#539);
#2011 = STYLED_ITEM('color',(#2012),#41);
#2012 = PRESENTATION_STYLE_ASSIGNMENT((#2013,#2018));
#2013 = SURFACE_STYLE_USAGE(.BOTH.,#2014);
#2014 = SURFACE_SIDE_STYLE('',(#2015));
#2015 = SURFACE_STYLE_FILL_AREA(#2016);
#2016 = FILL_AREA_STYLE('',(#2017));
#2017 = FILL_AREA_STYLE_COLOUR('',#2006);
#2018 = CURVE_STYLE('',#2019,POSITIVE_LENGTH_MEASURE(0.1),#2020);
#2019 = DRAUGHTING_PRE_DEFINED_CURVE_FONT('continuous');
#2020 = COLOUR_RGB('',0.945098040599,0.952941189437,0.960784305148);
#2021 = STYLED_ITEM('color',(#2022),#290);
#2022 = PRESENTATION_STYLE_ASSIGNMENT((#2023,#2028));
#2023 = SURFACE_STYLE_USAGE(.BOTH.,#2024);
#2024 = SURFACE_SIDE_STYLE('',(#2025));
#2025 = SURFACE_STYLE_FILL_AREA(#2026);
#2026 = FILL_AREA_STYLE('',(#2027));
#2027 = FILL_AREA_STYLE_COLOUR('',#2006);
#2028 = CURVE_STYLE('',#2029,POSITIVE_LENGTH_MEASURE(0.1),#2020);
#2029 = DRAUGHTING_PRE_DEFINED_CURVE_FONT('continuous');
#2030 = MECHANICAL_DESIGN_GEOMETRIC_PRESENTATION_REPRESENTATION('',(
    #2031),#1987);
#2031 = STYLED_ITEM('color',(#2032),#1173);
#2032 = PRESENTATION_STYLE_ASSIGNMENT((#2033,#2038));
#2033 = SURFACE_STYLE_USAGE(.BOTH.,#2034);
#2034 = SURFACE_SIDE_STYLE('',(#2035));
#2035 = SURFACE_STYLE_FILL_AREA(#2036);
#2036 = FILL_AREA_STYLE('',(#2037));
#2037 = FILL_AREA_STYLE_COLOUR('',#2006);
#2038 = CURVE_STYLE('',#2039,POSITIVE_LENGTH_MEASURE(0.1),#2020);
#2039 = DRAUGHTING_PRE_DEFINED_CURVE_FONT('continuous');
ENDSEC;
END-ISO-10303-21;
